G04 #@! TF.GenerationSoftware,KiCad,Pcbnew,7.0.7-7.0.7~ubuntu22.04.1*
G04 #@! TF.CreationDate,2024-01-01T18:28:32+01:00*
G04 #@! TF.ProjectId,Basic-ADSR,42617369-632d-4414-9453-522e6b696361,rev?*
G04 #@! TF.SameCoordinates,Original*
G04 #@! TF.FileFunction,Legend,Top*
G04 #@! TF.FilePolarity,Positive*
%FSLAX46Y46*%
G04 Gerber Fmt 4.6, Leading zero omitted, Abs format (unit mm)*
G04 Created by KiCad (PCBNEW 7.0.7-7.0.7~ubuntu22.04.1) date 2024-01-01 18:28:32*
%MOMM*%
%LPD*%
G01*
G04 APERTURE LIST*
%ADD10C,0.150000*%
%ADD11C,0.120000*%
%ADD12R,1.800000X1.800000*%
%ADD13C,1.800000*%
%ADD14C,4.000000*%
%ADD15C,1.600000*%
%ADD16O,1.600000X1.600000*%
%ADD17O,5.000000X3.200000*%
%ADD18R,1.930000X1.830000*%
%ADD19C,2.130000*%
%ADD20C,3.200000*%
%ADD21R,1.050000X1.500000*%
%ADD22O,1.050000X1.500000*%
%ADD23R,1.700000X1.700000*%
%ADD24O,1.700000X1.700000*%
G04 APERTURE END LIST*
D10*
X68690476Y-85626009D02*
X68833333Y-85673628D01*
X68833333Y-85673628D02*
X68880952Y-85721247D01*
X68880952Y-85721247D02*
X68928571Y-85816485D01*
X68928571Y-85816485D02*
X68928571Y-85959342D01*
X68928571Y-85959342D02*
X68880952Y-86054580D01*
X68880952Y-86054580D02*
X68833333Y-86102200D01*
X68833333Y-86102200D02*
X68738095Y-86149819D01*
X68738095Y-86149819D02*
X68357143Y-86149819D01*
X68357143Y-86149819D02*
X68357143Y-85149819D01*
X68357143Y-85149819D02*
X68690476Y-85149819D01*
X68690476Y-85149819D02*
X68785714Y-85197438D01*
X68785714Y-85197438D02*
X68833333Y-85245057D01*
X68833333Y-85245057D02*
X68880952Y-85340295D01*
X68880952Y-85340295D02*
X68880952Y-85435533D01*
X68880952Y-85435533D02*
X68833333Y-85530771D01*
X68833333Y-85530771D02*
X68785714Y-85578390D01*
X68785714Y-85578390D02*
X68690476Y-85626009D01*
X68690476Y-85626009D02*
X68357143Y-85626009D01*
X69785714Y-86149819D02*
X69785714Y-85626009D01*
X69785714Y-85626009D02*
X69738095Y-85530771D01*
X69738095Y-85530771D02*
X69642857Y-85483152D01*
X69642857Y-85483152D02*
X69452381Y-85483152D01*
X69452381Y-85483152D02*
X69357143Y-85530771D01*
X69785714Y-86102200D02*
X69690476Y-86149819D01*
X69690476Y-86149819D02*
X69452381Y-86149819D01*
X69452381Y-86149819D02*
X69357143Y-86102200D01*
X69357143Y-86102200D02*
X69309524Y-86006961D01*
X69309524Y-86006961D02*
X69309524Y-85911723D01*
X69309524Y-85911723D02*
X69357143Y-85816485D01*
X69357143Y-85816485D02*
X69452381Y-85768866D01*
X69452381Y-85768866D02*
X69690476Y-85768866D01*
X69690476Y-85768866D02*
X69785714Y-85721247D01*
X70214286Y-86102200D02*
X70309524Y-86149819D01*
X70309524Y-86149819D02*
X70500000Y-86149819D01*
X70500000Y-86149819D02*
X70595238Y-86102200D01*
X70595238Y-86102200D02*
X70642857Y-86006961D01*
X70642857Y-86006961D02*
X70642857Y-85959342D01*
X70642857Y-85959342D02*
X70595238Y-85864104D01*
X70595238Y-85864104D02*
X70500000Y-85816485D01*
X70500000Y-85816485D02*
X70357143Y-85816485D01*
X70357143Y-85816485D02*
X70261905Y-85768866D01*
X70261905Y-85768866D02*
X70214286Y-85673628D01*
X70214286Y-85673628D02*
X70214286Y-85626009D01*
X70214286Y-85626009D02*
X70261905Y-85530771D01*
X70261905Y-85530771D02*
X70357143Y-85483152D01*
X70357143Y-85483152D02*
X70500000Y-85483152D01*
X70500000Y-85483152D02*
X70595238Y-85530771D01*
X71071429Y-86149819D02*
X71071429Y-85483152D01*
X71071429Y-85149819D02*
X71023810Y-85197438D01*
X71023810Y-85197438D02*
X71071429Y-85245057D01*
X71071429Y-85245057D02*
X71119048Y-85197438D01*
X71119048Y-85197438D02*
X71071429Y-85149819D01*
X71071429Y-85149819D02*
X71071429Y-85245057D01*
X71976190Y-86102200D02*
X71880952Y-86149819D01*
X71880952Y-86149819D02*
X71690476Y-86149819D01*
X71690476Y-86149819D02*
X71595238Y-86102200D01*
X71595238Y-86102200D02*
X71547619Y-86054580D01*
X71547619Y-86054580D02*
X71500000Y-85959342D01*
X71500000Y-85959342D02*
X71500000Y-85673628D01*
X71500000Y-85673628D02*
X71547619Y-85578390D01*
X71547619Y-85578390D02*
X71595238Y-85530771D01*
X71595238Y-85530771D02*
X71690476Y-85483152D01*
X71690476Y-85483152D02*
X71880952Y-85483152D01*
X71880952Y-85483152D02*
X71976190Y-85530771D01*
X73119048Y-85864104D02*
X73595238Y-85864104D01*
X73023810Y-86149819D02*
X73357143Y-85149819D01*
X73357143Y-85149819D02*
X73690476Y-86149819D01*
X74023810Y-86149819D02*
X74023810Y-85149819D01*
X74023810Y-85149819D02*
X74261905Y-85149819D01*
X74261905Y-85149819D02*
X74404762Y-85197438D01*
X74404762Y-85197438D02*
X74500000Y-85292676D01*
X74500000Y-85292676D02*
X74547619Y-85387914D01*
X74547619Y-85387914D02*
X74595238Y-85578390D01*
X74595238Y-85578390D02*
X74595238Y-85721247D01*
X74595238Y-85721247D02*
X74547619Y-85911723D01*
X74547619Y-85911723D02*
X74500000Y-86006961D01*
X74500000Y-86006961D02*
X74404762Y-86102200D01*
X74404762Y-86102200D02*
X74261905Y-86149819D01*
X74261905Y-86149819D02*
X74023810Y-86149819D01*
X74976191Y-86102200D02*
X75119048Y-86149819D01*
X75119048Y-86149819D02*
X75357143Y-86149819D01*
X75357143Y-86149819D02*
X75452381Y-86102200D01*
X75452381Y-86102200D02*
X75500000Y-86054580D01*
X75500000Y-86054580D02*
X75547619Y-85959342D01*
X75547619Y-85959342D02*
X75547619Y-85864104D01*
X75547619Y-85864104D02*
X75500000Y-85768866D01*
X75500000Y-85768866D02*
X75452381Y-85721247D01*
X75452381Y-85721247D02*
X75357143Y-85673628D01*
X75357143Y-85673628D02*
X75166667Y-85626009D01*
X75166667Y-85626009D02*
X75071429Y-85578390D01*
X75071429Y-85578390D02*
X75023810Y-85530771D01*
X75023810Y-85530771D02*
X74976191Y-85435533D01*
X74976191Y-85435533D02*
X74976191Y-85340295D01*
X74976191Y-85340295D02*
X75023810Y-85245057D01*
X75023810Y-85245057D02*
X75071429Y-85197438D01*
X75071429Y-85197438D02*
X75166667Y-85149819D01*
X75166667Y-85149819D02*
X75404762Y-85149819D01*
X75404762Y-85149819D02*
X75547619Y-85197438D01*
X76547619Y-86149819D02*
X76214286Y-85673628D01*
X75976191Y-86149819D02*
X75976191Y-85149819D01*
X75976191Y-85149819D02*
X76357143Y-85149819D01*
X76357143Y-85149819D02*
X76452381Y-85197438D01*
X76452381Y-85197438D02*
X76500000Y-85245057D01*
X76500000Y-85245057D02*
X76547619Y-85340295D01*
X76547619Y-85340295D02*
X76547619Y-85483152D01*
X76547619Y-85483152D02*
X76500000Y-85578390D01*
X76500000Y-85578390D02*
X76452381Y-85626009D01*
X76452381Y-85626009D02*
X76357143Y-85673628D01*
X76357143Y-85673628D02*
X75976191Y-85673628D01*
X78261905Y-86149819D02*
X77690477Y-86149819D01*
X77976191Y-86149819D02*
X77976191Y-85149819D01*
X77976191Y-85149819D02*
X77880953Y-85292676D01*
X77880953Y-85292676D02*
X77785715Y-85387914D01*
X77785715Y-85387914D02*
X77690477Y-85435533D01*
X78690477Y-86054580D02*
X78738096Y-86102200D01*
X78738096Y-86102200D02*
X78690477Y-86149819D01*
X78690477Y-86149819D02*
X78642858Y-86102200D01*
X78642858Y-86102200D02*
X78690477Y-86054580D01*
X78690477Y-86054580D02*
X78690477Y-86149819D01*
X79690476Y-86149819D02*
X79119048Y-86149819D01*
X79404762Y-86149819D02*
X79404762Y-85149819D01*
X79404762Y-85149819D02*
X79309524Y-85292676D01*
X79309524Y-85292676D02*
X79214286Y-85387914D01*
X79214286Y-85387914D02*
X79119048Y-85435533D01*
X67547618Y-87236009D02*
X67690475Y-87283628D01*
X67690475Y-87283628D02*
X67738094Y-87331247D01*
X67738094Y-87331247D02*
X67785713Y-87426485D01*
X67785713Y-87426485D02*
X67785713Y-87569342D01*
X67785713Y-87569342D02*
X67738094Y-87664580D01*
X67738094Y-87664580D02*
X67690475Y-87712200D01*
X67690475Y-87712200D02*
X67595237Y-87759819D01*
X67595237Y-87759819D02*
X67214285Y-87759819D01*
X67214285Y-87759819D02*
X67214285Y-86759819D01*
X67214285Y-86759819D02*
X67547618Y-86759819D01*
X67547618Y-86759819D02*
X67642856Y-86807438D01*
X67642856Y-86807438D02*
X67690475Y-86855057D01*
X67690475Y-86855057D02*
X67738094Y-86950295D01*
X67738094Y-86950295D02*
X67738094Y-87045533D01*
X67738094Y-87045533D02*
X67690475Y-87140771D01*
X67690475Y-87140771D02*
X67642856Y-87188390D01*
X67642856Y-87188390D02*
X67547618Y-87236009D01*
X67547618Y-87236009D02*
X67214285Y-87236009D01*
X68357142Y-87759819D02*
X68261904Y-87712200D01*
X68261904Y-87712200D02*
X68214285Y-87616961D01*
X68214285Y-87616961D02*
X68214285Y-86759819D01*
X69119047Y-87712200D02*
X69023809Y-87759819D01*
X69023809Y-87759819D02*
X68833333Y-87759819D01*
X68833333Y-87759819D02*
X68738095Y-87712200D01*
X68738095Y-87712200D02*
X68690476Y-87616961D01*
X68690476Y-87616961D02*
X68690476Y-87236009D01*
X68690476Y-87236009D02*
X68738095Y-87140771D01*
X68738095Y-87140771D02*
X68833333Y-87093152D01*
X68833333Y-87093152D02*
X69023809Y-87093152D01*
X69023809Y-87093152D02*
X69119047Y-87140771D01*
X69119047Y-87140771D02*
X69166666Y-87236009D01*
X69166666Y-87236009D02*
X69166666Y-87331247D01*
X69166666Y-87331247D02*
X68690476Y-87426485D01*
X69976190Y-87712200D02*
X69880952Y-87759819D01*
X69880952Y-87759819D02*
X69690476Y-87759819D01*
X69690476Y-87759819D02*
X69595238Y-87712200D01*
X69595238Y-87712200D02*
X69547619Y-87616961D01*
X69547619Y-87616961D02*
X69547619Y-87236009D01*
X69547619Y-87236009D02*
X69595238Y-87140771D01*
X69595238Y-87140771D02*
X69690476Y-87093152D01*
X69690476Y-87093152D02*
X69880952Y-87093152D01*
X69880952Y-87093152D02*
X69976190Y-87140771D01*
X69976190Y-87140771D02*
X70023809Y-87236009D01*
X70023809Y-87236009D02*
X70023809Y-87331247D01*
X70023809Y-87331247D02*
X69547619Y-87426485D01*
X70452381Y-87093152D02*
X70452381Y-88093152D01*
X70452381Y-87140771D02*
X70547619Y-87093152D01*
X70547619Y-87093152D02*
X70738095Y-87093152D01*
X70738095Y-87093152D02*
X70833333Y-87140771D01*
X70833333Y-87140771D02*
X70880952Y-87188390D01*
X70880952Y-87188390D02*
X70928571Y-87283628D01*
X70928571Y-87283628D02*
X70928571Y-87569342D01*
X70928571Y-87569342D02*
X70880952Y-87664580D01*
X70880952Y-87664580D02*
X70833333Y-87712200D01*
X70833333Y-87712200D02*
X70738095Y-87759819D01*
X70738095Y-87759819D02*
X70547619Y-87759819D01*
X70547619Y-87759819D02*
X70452381Y-87712200D01*
X72071429Y-87712200D02*
X72214286Y-87759819D01*
X72214286Y-87759819D02*
X72452381Y-87759819D01*
X72452381Y-87759819D02*
X72547619Y-87712200D01*
X72547619Y-87712200D02*
X72595238Y-87664580D01*
X72595238Y-87664580D02*
X72642857Y-87569342D01*
X72642857Y-87569342D02*
X72642857Y-87474104D01*
X72642857Y-87474104D02*
X72595238Y-87378866D01*
X72595238Y-87378866D02*
X72547619Y-87331247D01*
X72547619Y-87331247D02*
X72452381Y-87283628D01*
X72452381Y-87283628D02*
X72261905Y-87236009D01*
X72261905Y-87236009D02*
X72166667Y-87188390D01*
X72166667Y-87188390D02*
X72119048Y-87140771D01*
X72119048Y-87140771D02*
X72071429Y-87045533D01*
X72071429Y-87045533D02*
X72071429Y-86950295D01*
X72071429Y-86950295D02*
X72119048Y-86855057D01*
X72119048Y-86855057D02*
X72166667Y-86807438D01*
X72166667Y-86807438D02*
X72261905Y-86759819D01*
X72261905Y-86759819D02*
X72500000Y-86759819D01*
X72500000Y-86759819D02*
X72642857Y-86807438D01*
X73214286Y-87759819D02*
X73119048Y-87712200D01*
X73119048Y-87712200D02*
X73071429Y-87664580D01*
X73071429Y-87664580D02*
X73023810Y-87569342D01*
X73023810Y-87569342D02*
X73023810Y-87283628D01*
X73023810Y-87283628D02*
X73071429Y-87188390D01*
X73071429Y-87188390D02*
X73119048Y-87140771D01*
X73119048Y-87140771D02*
X73214286Y-87093152D01*
X73214286Y-87093152D02*
X73357143Y-87093152D01*
X73357143Y-87093152D02*
X73452381Y-87140771D01*
X73452381Y-87140771D02*
X73500000Y-87188390D01*
X73500000Y-87188390D02*
X73547619Y-87283628D01*
X73547619Y-87283628D02*
X73547619Y-87569342D01*
X73547619Y-87569342D02*
X73500000Y-87664580D01*
X73500000Y-87664580D02*
X73452381Y-87712200D01*
X73452381Y-87712200D02*
X73357143Y-87759819D01*
X73357143Y-87759819D02*
X73214286Y-87759819D01*
X74404762Y-87093152D02*
X74404762Y-87759819D01*
X73976191Y-87093152D02*
X73976191Y-87616961D01*
X73976191Y-87616961D02*
X74023810Y-87712200D01*
X74023810Y-87712200D02*
X74119048Y-87759819D01*
X74119048Y-87759819D02*
X74261905Y-87759819D01*
X74261905Y-87759819D02*
X74357143Y-87712200D01*
X74357143Y-87712200D02*
X74404762Y-87664580D01*
X74880953Y-87093152D02*
X74880953Y-87759819D01*
X74880953Y-87188390D02*
X74928572Y-87140771D01*
X74928572Y-87140771D02*
X75023810Y-87093152D01*
X75023810Y-87093152D02*
X75166667Y-87093152D01*
X75166667Y-87093152D02*
X75261905Y-87140771D01*
X75261905Y-87140771D02*
X75309524Y-87236009D01*
X75309524Y-87236009D02*
X75309524Y-87759819D01*
X76214286Y-87759819D02*
X76214286Y-86759819D01*
X76214286Y-87712200D02*
X76119048Y-87759819D01*
X76119048Y-87759819D02*
X75928572Y-87759819D01*
X75928572Y-87759819D02*
X75833334Y-87712200D01*
X75833334Y-87712200D02*
X75785715Y-87664580D01*
X75785715Y-87664580D02*
X75738096Y-87569342D01*
X75738096Y-87569342D02*
X75738096Y-87283628D01*
X75738096Y-87283628D02*
X75785715Y-87188390D01*
X75785715Y-87188390D02*
X75833334Y-87140771D01*
X75833334Y-87140771D02*
X75928572Y-87093152D01*
X75928572Y-87093152D02*
X76119048Y-87093152D01*
X76119048Y-87093152D02*
X76214286Y-87140771D01*
X77404763Y-86855057D02*
X77452382Y-86807438D01*
X77452382Y-86807438D02*
X77547620Y-86759819D01*
X77547620Y-86759819D02*
X77785715Y-86759819D01*
X77785715Y-86759819D02*
X77880953Y-86807438D01*
X77880953Y-86807438D02*
X77928572Y-86855057D01*
X77928572Y-86855057D02*
X77976191Y-86950295D01*
X77976191Y-86950295D02*
X77976191Y-87045533D01*
X77976191Y-87045533D02*
X77928572Y-87188390D01*
X77928572Y-87188390D02*
X77357144Y-87759819D01*
X77357144Y-87759819D02*
X77976191Y-87759819D01*
X78595239Y-86759819D02*
X78690477Y-86759819D01*
X78690477Y-86759819D02*
X78785715Y-86807438D01*
X78785715Y-86807438D02*
X78833334Y-86855057D01*
X78833334Y-86855057D02*
X78880953Y-86950295D01*
X78880953Y-86950295D02*
X78928572Y-87140771D01*
X78928572Y-87140771D02*
X78928572Y-87378866D01*
X78928572Y-87378866D02*
X78880953Y-87569342D01*
X78880953Y-87569342D02*
X78833334Y-87664580D01*
X78833334Y-87664580D02*
X78785715Y-87712200D01*
X78785715Y-87712200D02*
X78690477Y-87759819D01*
X78690477Y-87759819D02*
X78595239Y-87759819D01*
X78595239Y-87759819D02*
X78500001Y-87712200D01*
X78500001Y-87712200D02*
X78452382Y-87664580D01*
X78452382Y-87664580D02*
X78404763Y-87569342D01*
X78404763Y-87569342D02*
X78357144Y-87378866D01*
X78357144Y-87378866D02*
X78357144Y-87140771D01*
X78357144Y-87140771D02*
X78404763Y-86950295D01*
X78404763Y-86950295D02*
X78452382Y-86855057D01*
X78452382Y-86855057D02*
X78500001Y-86807438D01*
X78500001Y-86807438D02*
X78595239Y-86759819D01*
X79309525Y-86855057D02*
X79357144Y-86807438D01*
X79357144Y-86807438D02*
X79452382Y-86759819D01*
X79452382Y-86759819D02*
X79690477Y-86759819D01*
X79690477Y-86759819D02*
X79785715Y-86807438D01*
X79785715Y-86807438D02*
X79833334Y-86855057D01*
X79833334Y-86855057D02*
X79880953Y-86950295D01*
X79880953Y-86950295D02*
X79880953Y-87045533D01*
X79880953Y-87045533D02*
X79833334Y-87188390D01*
X79833334Y-87188390D02*
X79261906Y-87759819D01*
X79261906Y-87759819D02*
X79880953Y-87759819D01*
X80738096Y-87093152D02*
X80738096Y-87759819D01*
X80500001Y-86712200D02*
X80261906Y-87426485D01*
X80261906Y-87426485D02*
X80880953Y-87426485D01*
X68256905Y-137744819D02*
X68256905Y-136744819D01*
X68256905Y-136744819D02*
X68495000Y-136744819D01*
X68495000Y-136744819D02*
X68637857Y-136792438D01*
X68637857Y-136792438D02*
X68733095Y-136887676D01*
X68733095Y-136887676D02*
X68780714Y-136982914D01*
X68780714Y-136982914D02*
X68828333Y-137173390D01*
X68828333Y-137173390D02*
X68828333Y-137316247D01*
X68828333Y-137316247D02*
X68780714Y-137506723D01*
X68780714Y-137506723D02*
X68733095Y-137601961D01*
X68733095Y-137601961D02*
X68637857Y-137697200D01*
X68637857Y-137697200D02*
X68495000Y-137744819D01*
X68495000Y-137744819D02*
X68256905Y-137744819D01*
X69685476Y-136744819D02*
X69495000Y-136744819D01*
X69495000Y-136744819D02*
X69399762Y-136792438D01*
X69399762Y-136792438D02*
X69352143Y-136840057D01*
X69352143Y-136840057D02*
X69256905Y-136982914D01*
X69256905Y-136982914D02*
X69209286Y-137173390D01*
X69209286Y-137173390D02*
X69209286Y-137554342D01*
X69209286Y-137554342D02*
X69256905Y-137649580D01*
X69256905Y-137649580D02*
X69304524Y-137697200D01*
X69304524Y-137697200D02*
X69399762Y-137744819D01*
X69399762Y-137744819D02*
X69590238Y-137744819D01*
X69590238Y-137744819D02*
X69685476Y-137697200D01*
X69685476Y-137697200D02*
X69733095Y-137649580D01*
X69733095Y-137649580D02*
X69780714Y-137554342D01*
X69780714Y-137554342D02*
X69780714Y-137316247D01*
X69780714Y-137316247D02*
X69733095Y-137221009D01*
X69733095Y-137221009D02*
X69685476Y-137173390D01*
X69685476Y-137173390D02*
X69590238Y-137125771D01*
X69590238Y-137125771D02*
X69399762Y-137125771D01*
X69399762Y-137125771D02*
X69304524Y-137173390D01*
X69304524Y-137173390D02*
X69256905Y-137221009D01*
X69256905Y-137221009D02*
X69209286Y-137316247D01*
X81724200Y-79988096D02*
X81762295Y-79873810D01*
X81762295Y-79873810D02*
X81762295Y-79683334D01*
X81762295Y-79683334D02*
X81724200Y-79607143D01*
X81724200Y-79607143D02*
X81686104Y-79569048D01*
X81686104Y-79569048D02*
X81609914Y-79530953D01*
X81609914Y-79530953D02*
X81533723Y-79530953D01*
X81533723Y-79530953D02*
X81457533Y-79569048D01*
X81457533Y-79569048D02*
X81419438Y-79607143D01*
X81419438Y-79607143D02*
X81381342Y-79683334D01*
X81381342Y-79683334D02*
X81343247Y-79835715D01*
X81343247Y-79835715D02*
X81305152Y-79911905D01*
X81305152Y-79911905D02*
X81267057Y-79950000D01*
X81267057Y-79950000D02*
X81190866Y-79988096D01*
X81190866Y-79988096D02*
X81114676Y-79988096D01*
X81114676Y-79988096D02*
X81038485Y-79950000D01*
X81038485Y-79950000D02*
X81000390Y-79911905D01*
X81000390Y-79911905D02*
X80962295Y-79835715D01*
X80962295Y-79835715D02*
X80962295Y-79645238D01*
X80962295Y-79645238D02*
X81000390Y-79530953D01*
X81228961Y-78845238D02*
X81762295Y-78845238D01*
X81228961Y-79188095D02*
X81648009Y-79188095D01*
X81648009Y-79188095D02*
X81724200Y-79150000D01*
X81724200Y-79150000D02*
X81762295Y-79073810D01*
X81762295Y-79073810D02*
X81762295Y-78959524D01*
X81762295Y-78959524D02*
X81724200Y-78883333D01*
X81724200Y-78883333D02*
X81686104Y-78845238D01*
X81724200Y-78502381D02*
X81762295Y-78426190D01*
X81762295Y-78426190D02*
X81762295Y-78273809D01*
X81762295Y-78273809D02*
X81724200Y-78197619D01*
X81724200Y-78197619D02*
X81648009Y-78159523D01*
X81648009Y-78159523D02*
X81609914Y-78159523D01*
X81609914Y-78159523D02*
X81533723Y-78197619D01*
X81533723Y-78197619D02*
X81495628Y-78273809D01*
X81495628Y-78273809D02*
X81495628Y-78388095D01*
X81495628Y-78388095D02*
X81457533Y-78464285D01*
X81457533Y-78464285D02*
X81381342Y-78502381D01*
X81381342Y-78502381D02*
X81343247Y-78502381D01*
X81343247Y-78502381D02*
X81267057Y-78464285D01*
X81267057Y-78464285D02*
X81228961Y-78388095D01*
X81228961Y-78388095D02*
X81228961Y-78273809D01*
X81228961Y-78273809D02*
X81267057Y-78197619D01*
X81228961Y-77930952D02*
X81228961Y-77626190D01*
X80962295Y-77816666D02*
X81648009Y-77816666D01*
X81648009Y-77816666D02*
X81724200Y-77778571D01*
X81724200Y-77778571D02*
X81762295Y-77702381D01*
X81762295Y-77702381D02*
X81762295Y-77626190D01*
X81762295Y-77016666D02*
X81343247Y-77016666D01*
X81343247Y-77016666D02*
X81267057Y-77054761D01*
X81267057Y-77054761D02*
X81228961Y-77130952D01*
X81228961Y-77130952D02*
X81228961Y-77283333D01*
X81228961Y-77283333D02*
X81267057Y-77359523D01*
X81724200Y-77016666D02*
X81762295Y-77092857D01*
X81762295Y-77092857D02*
X81762295Y-77283333D01*
X81762295Y-77283333D02*
X81724200Y-77359523D01*
X81724200Y-77359523D02*
X81648009Y-77397619D01*
X81648009Y-77397619D02*
X81571819Y-77397619D01*
X81571819Y-77397619D02*
X81495628Y-77359523D01*
X81495628Y-77359523D02*
X81457533Y-77283333D01*
X81457533Y-77283333D02*
X81457533Y-77092857D01*
X81457533Y-77092857D02*
X81419438Y-77016666D01*
X81762295Y-76635713D02*
X81228961Y-76635713D01*
X80962295Y-76635713D02*
X81000390Y-76673809D01*
X81000390Y-76673809D02*
X81038485Y-76635713D01*
X81038485Y-76635713D02*
X81000390Y-76597618D01*
X81000390Y-76597618D02*
X80962295Y-76635713D01*
X80962295Y-76635713D02*
X81038485Y-76635713D01*
X81228961Y-76254761D02*
X81762295Y-76254761D01*
X81305152Y-76254761D02*
X81267057Y-76216666D01*
X81267057Y-76216666D02*
X81228961Y-76140476D01*
X81228961Y-76140476D02*
X81228961Y-76026190D01*
X81228961Y-76026190D02*
X81267057Y-75949999D01*
X81267057Y-75949999D02*
X81343247Y-75911904D01*
X81343247Y-75911904D02*
X81762295Y-75911904D01*
X81762295Y-75111904D02*
X81762295Y-75569047D01*
X81762295Y-75340475D02*
X80962295Y-75340475D01*
X80962295Y-75340475D02*
X81076580Y-75416666D01*
X81076580Y-75416666D02*
X81152771Y-75492856D01*
X81152771Y-75492856D02*
X81190866Y-75569047D01*
X75132295Y-109414285D02*
X74751342Y-109680952D01*
X75132295Y-109871428D02*
X74332295Y-109871428D01*
X74332295Y-109871428D02*
X74332295Y-109566666D01*
X74332295Y-109566666D02*
X74370390Y-109490476D01*
X74370390Y-109490476D02*
X74408485Y-109452381D01*
X74408485Y-109452381D02*
X74484676Y-109414285D01*
X74484676Y-109414285D02*
X74598961Y-109414285D01*
X74598961Y-109414285D02*
X74675152Y-109452381D01*
X74675152Y-109452381D02*
X74713247Y-109490476D01*
X74713247Y-109490476D02*
X74751342Y-109566666D01*
X74751342Y-109566666D02*
X74751342Y-109871428D01*
X75132295Y-108652381D02*
X75132295Y-109109524D01*
X75132295Y-108880952D02*
X74332295Y-108880952D01*
X74332295Y-108880952D02*
X74446580Y-108957143D01*
X74446580Y-108957143D02*
X74522771Y-109033333D01*
X74522771Y-109033333D02*
X74560866Y-109109524D01*
X75132295Y-107890476D02*
X75132295Y-108347619D01*
X75132295Y-108119047D02*
X74332295Y-108119047D01*
X74332295Y-108119047D02*
X74446580Y-108195238D01*
X74446580Y-108195238D02*
X74522771Y-108271428D01*
X74522771Y-108271428D02*
X74560866Y-108347619D01*
X81762295Y-61492856D02*
X80962295Y-61492856D01*
X80962295Y-61492856D02*
X80962295Y-61302380D01*
X80962295Y-61302380D02*
X81000390Y-61188094D01*
X81000390Y-61188094D02*
X81076580Y-61111904D01*
X81076580Y-61111904D02*
X81152771Y-61073809D01*
X81152771Y-61073809D02*
X81305152Y-61035713D01*
X81305152Y-61035713D02*
X81419438Y-61035713D01*
X81419438Y-61035713D02*
X81571819Y-61073809D01*
X81571819Y-61073809D02*
X81648009Y-61111904D01*
X81648009Y-61111904D02*
X81724200Y-61188094D01*
X81724200Y-61188094D02*
X81762295Y-61302380D01*
X81762295Y-61302380D02*
X81762295Y-61492856D01*
X81724200Y-60388094D02*
X81762295Y-60464285D01*
X81762295Y-60464285D02*
X81762295Y-60616666D01*
X81762295Y-60616666D02*
X81724200Y-60692856D01*
X81724200Y-60692856D02*
X81648009Y-60730952D01*
X81648009Y-60730952D02*
X81343247Y-60730952D01*
X81343247Y-60730952D02*
X81267057Y-60692856D01*
X81267057Y-60692856D02*
X81228961Y-60616666D01*
X81228961Y-60616666D02*
X81228961Y-60464285D01*
X81228961Y-60464285D02*
X81267057Y-60388094D01*
X81267057Y-60388094D02*
X81343247Y-60349999D01*
X81343247Y-60349999D02*
X81419438Y-60349999D01*
X81419438Y-60349999D02*
X81495628Y-60730952D01*
X81724200Y-59664285D02*
X81762295Y-59740476D01*
X81762295Y-59740476D02*
X81762295Y-59892857D01*
X81762295Y-59892857D02*
X81724200Y-59969047D01*
X81724200Y-59969047D02*
X81686104Y-60007142D01*
X81686104Y-60007142D02*
X81609914Y-60045238D01*
X81609914Y-60045238D02*
X81381342Y-60045238D01*
X81381342Y-60045238D02*
X81305152Y-60007142D01*
X81305152Y-60007142D02*
X81267057Y-59969047D01*
X81267057Y-59969047D02*
X81228961Y-59892857D01*
X81228961Y-59892857D02*
X81228961Y-59740476D01*
X81228961Y-59740476D02*
X81267057Y-59664285D01*
X81762295Y-58978571D02*
X81343247Y-58978571D01*
X81343247Y-58978571D02*
X81267057Y-59016666D01*
X81267057Y-59016666D02*
X81228961Y-59092857D01*
X81228961Y-59092857D02*
X81228961Y-59245238D01*
X81228961Y-59245238D02*
X81267057Y-59321428D01*
X81724200Y-58978571D02*
X81762295Y-59054762D01*
X81762295Y-59054762D02*
X81762295Y-59245238D01*
X81762295Y-59245238D02*
X81724200Y-59321428D01*
X81724200Y-59321428D02*
X81648009Y-59359524D01*
X81648009Y-59359524D02*
X81571819Y-59359524D01*
X81571819Y-59359524D02*
X81495628Y-59321428D01*
X81495628Y-59321428D02*
X81457533Y-59245238D01*
X81457533Y-59245238D02*
X81457533Y-59054762D01*
X81457533Y-59054762D02*
X81419438Y-58978571D01*
X81228961Y-58673809D02*
X81762295Y-58483333D01*
X81228961Y-58292856D02*
X81762295Y-58483333D01*
X81762295Y-58483333D02*
X81952771Y-58559523D01*
X81952771Y-58559523D02*
X81990866Y-58597618D01*
X81990866Y-58597618D02*
X82028961Y-58673809D01*
X81762295Y-57569047D02*
X81762295Y-58026190D01*
X81762295Y-57797618D02*
X80962295Y-57797618D01*
X80962295Y-57797618D02*
X81076580Y-57873809D01*
X81076580Y-57873809D02*
X81152771Y-57949999D01*
X81152771Y-57949999D02*
X81190866Y-58026190D01*
X81762295Y-97607142D02*
X81381342Y-97873809D01*
X81762295Y-98064285D02*
X80962295Y-98064285D01*
X80962295Y-98064285D02*
X80962295Y-97759523D01*
X80962295Y-97759523D02*
X81000390Y-97683333D01*
X81000390Y-97683333D02*
X81038485Y-97645238D01*
X81038485Y-97645238D02*
X81114676Y-97607142D01*
X81114676Y-97607142D02*
X81228961Y-97607142D01*
X81228961Y-97607142D02*
X81305152Y-97645238D01*
X81305152Y-97645238D02*
X81343247Y-97683333D01*
X81343247Y-97683333D02*
X81381342Y-97759523D01*
X81381342Y-97759523D02*
X81381342Y-98064285D01*
X81724200Y-96959523D02*
X81762295Y-97035714D01*
X81762295Y-97035714D02*
X81762295Y-97188095D01*
X81762295Y-97188095D02*
X81724200Y-97264285D01*
X81724200Y-97264285D02*
X81648009Y-97302381D01*
X81648009Y-97302381D02*
X81343247Y-97302381D01*
X81343247Y-97302381D02*
X81267057Y-97264285D01*
X81267057Y-97264285D02*
X81228961Y-97188095D01*
X81228961Y-97188095D02*
X81228961Y-97035714D01*
X81228961Y-97035714D02*
X81267057Y-96959523D01*
X81267057Y-96959523D02*
X81343247Y-96921428D01*
X81343247Y-96921428D02*
X81419438Y-96921428D01*
X81419438Y-96921428D02*
X81495628Y-97302381D01*
X81762295Y-96464286D02*
X81724200Y-96540476D01*
X81724200Y-96540476D02*
X81648009Y-96578571D01*
X81648009Y-96578571D02*
X80962295Y-96578571D01*
X81724200Y-95854761D02*
X81762295Y-95930952D01*
X81762295Y-95930952D02*
X81762295Y-96083333D01*
X81762295Y-96083333D02*
X81724200Y-96159523D01*
X81724200Y-96159523D02*
X81648009Y-96197619D01*
X81648009Y-96197619D02*
X81343247Y-96197619D01*
X81343247Y-96197619D02*
X81267057Y-96159523D01*
X81267057Y-96159523D02*
X81228961Y-96083333D01*
X81228961Y-96083333D02*
X81228961Y-95930952D01*
X81228961Y-95930952D02*
X81267057Y-95854761D01*
X81267057Y-95854761D02*
X81343247Y-95816666D01*
X81343247Y-95816666D02*
X81419438Y-95816666D01*
X81419438Y-95816666D02*
X81495628Y-96197619D01*
X81762295Y-95130952D02*
X81343247Y-95130952D01*
X81343247Y-95130952D02*
X81267057Y-95169047D01*
X81267057Y-95169047D02*
X81228961Y-95245238D01*
X81228961Y-95245238D02*
X81228961Y-95397619D01*
X81228961Y-95397619D02*
X81267057Y-95473809D01*
X81724200Y-95130952D02*
X81762295Y-95207143D01*
X81762295Y-95207143D02*
X81762295Y-95397619D01*
X81762295Y-95397619D02*
X81724200Y-95473809D01*
X81724200Y-95473809D02*
X81648009Y-95511905D01*
X81648009Y-95511905D02*
X81571819Y-95511905D01*
X81571819Y-95511905D02*
X81495628Y-95473809D01*
X81495628Y-95473809D02*
X81457533Y-95397619D01*
X81457533Y-95397619D02*
X81457533Y-95207143D01*
X81457533Y-95207143D02*
X81419438Y-95130952D01*
X81724200Y-94788095D02*
X81762295Y-94711904D01*
X81762295Y-94711904D02*
X81762295Y-94559523D01*
X81762295Y-94559523D02*
X81724200Y-94483333D01*
X81724200Y-94483333D02*
X81648009Y-94445237D01*
X81648009Y-94445237D02*
X81609914Y-94445237D01*
X81609914Y-94445237D02*
X81533723Y-94483333D01*
X81533723Y-94483333D02*
X81495628Y-94559523D01*
X81495628Y-94559523D02*
X81495628Y-94673809D01*
X81495628Y-94673809D02*
X81457533Y-94749999D01*
X81457533Y-94749999D02*
X81381342Y-94788095D01*
X81381342Y-94788095D02*
X81343247Y-94788095D01*
X81343247Y-94788095D02*
X81267057Y-94749999D01*
X81267057Y-94749999D02*
X81228961Y-94673809D01*
X81228961Y-94673809D02*
X81228961Y-94559523D01*
X81228961Y-94559523D02*
X81267057Y-94483333D01*
X81724200Y-93797618D02*
X81762295Y-93873809D01*
X81762295Y-93873809D02*
X81762295Y-94026190D01*
X81762295Y-94026190D02*
X81724200Y-94102380D01*
X81724200Y-94102380D02*
X81648009Y-94140476D01*
X81648009Y-94140476D02*
X81343247Y-94140476D01*
X81343247Y-94140476D02*
X81267057Y-94102380D01*
X81267057Y-94102380D02*
X81228961Y-94026190D01*
X81228961Y-94026190D02*
X81228961Y-93873809D01*
X81228961Y-93873809D02*
X81267057Y-93797618D01*
X81267057Y-93797618D02*
X81343247Y-93759523D01*
X81343247Y-93759523D02*
X81419438Y-93759523D01*
X81419438Y-93759523D02*
X81495628Y-94140476D01*
X81762295Y-92997619D02*
X81762295Y-93454762D01*
X81762295Y-93226190D02*
X80962295Y-93226190D01*
X80962295Y-93226190D02*
X81076580Y-93302381D01*
X81076580Y-93302381D02*
X81152771Y-93378571D01*
X81152771Y-93378571D02*
X81190866Y-93454762D01*
X74703333Y-131242295D02*
X74703333Y-131813723D01*
X74703333Y-131813723D02*
X74665238Y-131928009D01*
X74665238Y-131928009D02*
X74589047Y-132004200D01*
X74589047Y-132004200D02*
X74474762Y-132042295D01*
X74474762Y-132042295D02*
X74398571Y-132042295D01*
X75008095Y-131242295D02*
X75541429Y-131242295D01*
X75541429Y-131242295D02*
X75198571Y-132042295D01*
X74703333Y-116362295D02*
X74703333Y-116933723D01*
X74703333Y-116933723D02*
X74665238Y-117048009D01*
X74665238Y-117048009D02*
X74589047Y-117124200D01*
X74589047Y-117124200D02*
X74474762Y-117162295D01*
X74474762Y-117162295D02*
X74398571Y-117162295D01*
X75503333Y-117162295D02*
X75046190Y-117162295D01*
X75274762Y-117162295D02*
X75274762Y-116362295D01*
X75274762Y-116362295D02*
X75198571Y-116476580D01*
X75198571Y-116476580D02*
X75122381Y-116552771D01*
X75122381Y-116552771D02*
X75046190Y-116590866D01*
X81733723Y-43607143D02*
X81733723Y-43226190D01*
X81962295Y-43683333D02*
X81162295Y-43416666D01*
X81162295Y-43416666D02*
X81962295Y-43150000D01*
X81428961Y-42997619D02*
X81428961Y-42692857D01*
X81162295Y-42883333D02*
X81848009Y-42883333D01*
X81848009Y-42883333D02*
X81924200Y-42845238D01*
X81924200Y-42845238D02*
X81962295Y-42769048D01*
X81962295Y-42769048D02*
X81962295Y-42692857D01*
X81428961Y-42540476D02*
X81428961Y-42235714D01*
X81162295Y-42426190D02*
X81848009Y-42426190D01*
X81848009Y-42426190D02*
X81924200Y-42388095D01*
X81924200Y-42388095D02*
X81962295Y-42311905D01*
X81962295Y-42311905D02*
X81962295Y-42235714D01*
X81962295Y-41626190D02*
X81543247Y-41626190D01*
X81543247Y-41626190D02*
X81467057Y-41664285D01*
X81467057Y-41664285D02*
X81428961Y-41740476D01*
X81428961Y-41740476D02*
X81428961Y-41892857D01*
X81428961Y-41892857D02*
X81467057Y-41969047D01*
X81924200Y-41626190D02*
X81962295Y-41702381D01*
X81962295Y-41702381D02*
X81962295Y-41892857D01*
X81962295Y-41892857D02*
X81924200Y-41969047D01*
X81924200Y-41969047D02*
X81848009Y-42007143D01*
X81848009Y-42007143D02*
X81771819Y-42007143D01*
X81771819Y-42007143D02*
X81695628Y-41969047D01*
X81695628Y-41969047D02*
X81657533Y-41892857D01*
X81657533Y-41892857D02*
X81657533Y-41702381D01*
X81657533Y-41702381D02*
X81619438Y-41626190D01*
X81924200Y-40902380D02*
X81962295Y-40978571D01*
X81962295Y-40978571D02*
X81962295Y-41130952D01*
X81962295Y-41130952D02*
X81924200Y-41207142D01*
X81924200Y-41207142D02*
X81886104Y-41245237D01*
X81886104Y-41245237D02*
X81809914Y-41283333D01*
X81809914Y-41283333D02*
X81581342Y-41283333D01*
X81581342Y-41283333D02*
X81505152Y-41245237D01*
X81505152Y-41245237D02*
X81467057Y-41207142D01*
X81467057Y-41207142D02*
X81428961Y-41130952D01*
X81428961Y-41130952D02*
X81428961Y-40978571D01*
X81428961Y-40978571D02*
X81467057Y-40902380D01*
X81962295Y-40559523D02*
X81162295Y-40559523D01*
X81657533Y-40483333D02*
X81962295Y-40254761D01*
X81428961Y-40254761D02*
X81733723Y-40559523D01*
X81962295Y-39492857D02*
X81962295Y-39950000D01*
X81962295Y-39721428D02*
X81162295Y-39721428D01*
X81162295Y-39721428D02*
X81276580Y-39797619D01*
X81276580Y-39797619D02*
X81352771Y-39873809D01*
X81352771Y-39873809D02*
X81390866Y-39950000D01*
X71104761Y-121210057D02*
X71009523Y-121162438D01*
X71009523Y-121162438D02*
X70914285Y-121067200D01*
X70914285Y-121067200D02*
X70771428Y-120924342D01*
X70771428Y-120924342D02*
X70676190Y-120876723D01*
X70676190Y-120876723D02*
X70580952Y-120876723D01*
X70628571Y-121114819D02*
X70533333Y-121067200D01*
X70533333Y-121067200D02*
X70438095Y-120971961D01*
X70438095Y-120971961D02*
X70390476Y-120781485D01*
X70390476Y-120781485D02*
X70390476Y-120448152D01*
X70390476Y-120448152D02*
X70438095Y-120257676D01*
X70438095Y-120257676D02*
X70533333Y-120162438D01*
X70533333Y-120162438D02*
X70628571Y-120114819D01*
X70628571Y-120114819D02*
X70819047Y-120114819D01*
X70819047Y-120114819D02*
X70914285Y-120162438D01*
X70914285Y-120162438D02*
X71009523Y-120257676D01*
X71009523Y-120257676D02*
X71057142Y-120448152D01*
X71057142Y-120448152D02*
X71057142Y-120781485D01*
X71057142Y-120781485D02*
X71009523Y-120971961D01*
X71009523Y-120971961D02*
X70914285Y-121067200D01*
X70914285Y-121067200D02*
X70819047Y-121114819D01*
X70819047Y-121114819D02*
X70628571Y-121114819D01*
X71914285Y-120448152D02*
X71914285Y-121114819D01*
X71676190Y-120067200D02*
X71438095Y-120781485D01*
X71438095Y-120781485D02*
X72057142Y-120781485D01*
D11*
X66935000Y-139351000D02*
X66935000Y-139670000D01*
X66935000Y-141830000D02*
X66935000Y-142149000D01*
X71238241Y-139669276D02*
G75*
G03*
X66935001Y-139351251I-2243241J-1080724D01*
G01*
X70677712Y-139669040D02*
G75*
G03*
X67311671Y-139670001I-1682712J-1080960D01*
G01*
X67311671Y-141829999D02*
G75*
G03*
X70677712Y-141830960I1683329J1079999D01*
G01*
X66935001Y-142148749D02*
G75*
G03*
X71238241Y-141830724I2059999J1398749D01*
G01*
X69030000Y-82720000D02*
X70629000Y-82720000D01*
X69030000Y-82720000D02*
X69030000Y-78855000D01*
X72371000Y-82720000D02*
X73130000Y-82720000D01*
X74871000Y-82720000D02*
X75630000Y-82720000D01*
X77370000Y-82720000D02*
X78970000Y-82720000D01*
X78970000Y-82720000D02*
X78970000Y-78855000D01*
X69030000Y-74345000D02*
X69030000Y-70480000D01*
X78970000Y-74345000D02*
X78970000Y-70480000D01*
X69030000Y-70480000D02*
X78970000Y-70480000D01*
X72400000Y-104860000D02*
X72400000Y-105630000D01*
X73770000Y-105630000D02*
X71030000Y-105630000D01*
X71030000Y-105630000D02*
X71030000Y-112170000D01*
X73770000Y-112170000D02*
X73770000Y-105630000D01*
X71030000Y-112170000D02*
X73770000Y-112170000D01*
X72400000Y-112940000D02*
X72400000Y-112170000D01*
X69030000Y-64720000D02*
X70629000Y-64720000D01*
X69030000Y-64720000D02*
X69030000Y-60855000D01*
X72371000Y-64720000D02*
X73130000Y-64720000D01*
X74871000Y-64720000D02*
X75630000Y-64720000D01*
X77370000Y-64720000D02*
X78970000Y-64720000D01*
X78970000Y-64720000D02*
X78970000Y-60855000D01*
X69030000Y-56345000D02*
X69030000Y-52480000D01*
X78970000Y-56345000D02*
X78970000Y-52480000D01*
X69030000Y-52480000D02*
X78970000Y-52480000D01*
X69030000Y-100720000D02*
X70629000Y-100720000D01*
X69030000Y-100720000D02*
X69030000Y-96855000D01*
X72371000Y-100720000D02*
X73130000Y-100720000D01*
X74871000Y-100720000D02*
X75630000Y-100720000D01*
X77370000Y-100720000D02*
X78970000Y-100720000D01*
X78970000Y-100720000D02*
X78970000Y-96855000D01*
X69030000Y-92345000D02*
X69030000Y-88480000D01*
X78970000Y-92345000D02*
X78970000Y-88480000D01*
X69030000Y-88480000D02*
X78970000Y-88480000D01*
X64555000Y-134085000D02*
X64555000Y-120115000D01*
X73445000Y-134085000D02*
X64555000Y-134085000D01*
X69000000Y-130275000D02*
X65825000Y-129005000D01*
X65825000Y-129005000D02*
X65825000Y-125195000D01*
X72175000Y-129005000D02*
X69000000Y-130275000D01*
X65825000Y-125195000D02*
X69000000Y-123925000D01*
X72175000Y-125195000D02*
X72175000Y-129005000D01*
X69000000Y-123925000D02*
X72175000Y-125195000D01*
X64555000Y-120115000D02*
X73445000Y-120115000D01*
X73445000Y-120115000D02*
X73445000Y-134085000D01*
X72702654Y-127100000D02*
G75*
G03*
X72702654Y-127100000I-3702654J0D01*
G01*
X74500000Y-132580000D02*
X74500000Y-143080000D01*
X77940000Y-129600000D02*
X77940000Y-130400000D01*
X77940000Y-129600000D02*
X78800000Y-129600000D01*
X78500000Y-143080000D02*
X74500000Y-143080000D01*
X78650000Y-132580000D02*
X74500000Y-132580000D01*
X83500000Y-132580000D02*
X79350000Y-132580000D01*
X83500000Y-132580000D02*
X83500000Y-143080000D01*
X83500000Y-143080000D02*
X79500000Y-143080000D01*
X80800000Y-137080000D02*
G75*
G03*
X80800000Y-137080000I-1800000J0D01*
G01*
X74500000Y-117700000D02*
X74500000Y-128200000D01*
X77940000Y-114720000D02*
X77940000Y-115520000D01*
X77940000Y-114720000D02*
X78800000Y-114720000D01*
X78500000Y-128200000D02*
X74500000Y-128200000D01*
X78650000Y-117700000D02*
X74500000Y-117700000D01*
X83500000Y-117700000D02*
X79350000Y-117700000D01*
X83500000Y-117700000D02*
X83500000Y-128200000D01*
X83500000Y-128200000D02*
X79500000Y-128200000D01*
X80800000Y-122200000D02*
G75*
G03*
X80800000Y-122200000I-1800000J0D01*
G01*
X69030000Y-46720000D02*
X70629000Y-46720000D01*
X69030000Y-46720000D02*
X69030000Y-42855000D01*
X72371000Y-46720000D02*
X73130000Y-46720000D01*
X74871000Y-46720000D02*
X75630000Y-46720000D01*
X77370000Y-46720000D02*
X78970000Y-46720000D01*
X78970000Y-46720000D02*
X78970000Y-42855000D01*
X69030000Y-38345000D02*
X69030000Y-34480000D01*
X78970000Y-38345000D02*
X78970000Y-34480000D01*
X69030000Y-34480000D02*
X78970000Y-34480000D01*
X73000000Y-115250000D02*
X69400000Y-115250000D01*
X71200000Y-119700000D02*
G75*
G03*
X73038478Y-115261522I0J2600000D01*
G01*
X69361522Y-115261522D02*
G75*
G03*
X71200000Y-119700000I1838478J-1838478D01*
G01*
%LPC*%
D12*
X67725000Y-140750000D03*
D13*
X70265000Y-140750000D03*
D14*
X69600000Y-76600000D03*
X78400000Y-76600000D03*
D13*
X71500000Y-83600000D03*
X74000000Y-83600000D03*
X76500000Y-83600000D03*
D15*
X72400000Y-103820000D03*
D16*
X72400000Y-113980000D03*
D14*
X69600000Y-58600000D03*
X78400000Y-58600000D03*
D13*
X71500000Y-65600000D03*
X74000000Y-65600000D03*
X76500000Y-65600000D03*
D14*
X69600000Y-94600000D03*
X78400000Y-94600000D03*
D13*
X71500000Y-101600000D03*
X74000000Y-101600000D03*
X76500000Y-101600000D03*
D17*
X69000000Y-131800000D03*
X69000000Y-127100000D03*
X69000000Y-122400000D03*
D18*
X79000000Y-130600000D03*
D19*
X79000000Y-142000000D03*
X79000000Y-133700000D03*
D18*
X79000000Y-115720000D03*
D19*
X79000000Y-127120000D03*
X79000000Y-118820000D03*
D20*
X80000000Y-107700000D03*
D14*
X69600000Y-40600000D03*
X78400000Y-40600000D03*
D13*
X71500000Y-47600000D03*
X74000000Y-47600000D03*
X76500000Y-47600000D03*
D21*
X72470000Y-117100000D03*
D22*
X71200000Y-117100000D03*
X69930000Y-117100000D03*
D23*
X65800000Y-49100000D03*
D24*
X65800000Y-51640000D03*
X65800000Y-54180000D03*
X65800000Y-56720000D03*
X65800000Y-59260000D03*
X65800000Y-61800000D03*
X65800000Y-64340000D03*
X65800000Y-66880000D03*
D23*
X65800000Y-100500000D03*
D24*
X65800000Y-103040000D03*
X65800000Y-105580000D03*
X65800000Y-108120000D03*
X65800000Y-110660000D03*
X65800000Y-113200000D03*
X65800000Y-115740000D03*
X65800000Y-118280000D03*
%LPD*%
M02*
