G04 #@! TF.GenerationSoftware,KiCad,Pcbnew,7.0.7-7.0.7~ubuntu22.04.1*
G04 #@! TF.CreationDate,2023-09-25T23:33:45+02:00*
G04 #@! TF.ProjectId,Basic-ADSR,42617369-632d-4414-9453-522e6b696361,rev?*
G04 #@! TF.SameCoordinates,Original*
G04 #@! TF.FileFunction,Soldermask,Bot*
G04 #@! TF.FilePolarity,Negative*
%FSLAX46Y46*%
G04 Gerber Fmt 4.6, Leading zero omitted, Abs format (unit mm)*
G04 Created by KiCad (PCBNEW 7.0.7-7.0.7~ubuntu22.04.1) date 2023-09-25 23:33:45*
%MOMM*%
%LPD*%
G01*
G04 APERTURE LIST*
%ADD10R,1.800000X1.800000*%
%ADD11C,1.800000*%
%ADD12C,4.000000*%
%ADD13C,1.600000*%
%ADD14O,1.600000X1.600000*%
%ADD15O,5.000000X3.200000*%
%ADD16R,1.930000X1.830000*%
%ADD17C,2.130000*%
%ADD18C,3.200000*%
%ADD19R,1.050000X1.500000*%
%ADD20O,1.050000X1.500000*%
%ADD21R,1.700000X1.700000*%
%ADD22O,1.700000X1.700000*%
G04 APERTURE END LIST*
D10*
X67725000Y-140750000D03*
D11*
X70265000Y-140750000D03*
D12*
X69600000Y-76600000D03*
X78400000Y-76600000D03*
D11*
X71500000Y-83600000D03*
X74000000Y-83600000D03*
X76500000Y-83600000D03*
D13*
X72400000Y-103820000D03*
D14*
X72400000Y-113980000D03*
D12*
X69600000Y-58600000D03*
X78400000Y-58600000D03*
D11*
X71500000Y-65600000D03*
X74000000Y-65600000D03*
X76500000Y-65600000D03*
D12*
X69600000Y-94600000D03*
X78400000Y-94600000D03*
D11*
X71500000Y-101600000D03*
X74000000Y-101600000D03*
X76500000Y-101600000D03*
D15*
X69000000Y-131800000D03*
X69000000Y-127100000D03*
X69000000Y-122400000D03*
D16*
X79000000Y-130600000D03*
D17*
X79000000Y-142000000D03*
X79000000Y-133700000D03*
D16*
X79000000Y-115720000D03*
D17*
X79000000Y-127120000D03*
X79000000Y-118820000D03*
D18*
X80000000Y-107700000D03*
D12*
X69600000Y-40600000D03*
X78400000Y-40600000D03*
D11*
X71500000Y-47600000D03*
X74000000Y-47600000D03*
X76500000Y-47600000D03*
D19*
X72470000Y-117100000D03*
D20*
X71200000Y-117100000D03*
X69930000Y-117100000D03*
D21*
X65800000Y-49100000D03*
D22*
X65800000Y-51640000D03*
X65800000Y-54180000D03*
X65800000Y-56720000D03*
X65800000Y-59260000D03*
X65800000Y-61800000D03*
X65800000Y-64340000D03*
X65800000Y-66880000D03*
D21*
X65800000Y-100500000D03*
D22*
X65800000Y-103040000D03*
X65800000Y-105580000D03*
X65800000Y-108120000D03*
X65800000Y-110660000D03*
X65800000Y-113200000D03*
X65800000Y-115740000D03*
X65800000Y-118280000D03*
M02*
