G04 #@! TF.GenerationSoftware,KiCad,Pcbnew,7.0.7-7.0.7~ubuntu22.04.1*
G04 #@! TF.CreationDate,2024-01-01T18:28:32+01:00*
G04 #@! TF.ProjectId,Basic-ADSR,42617369-632d-4414-9453-522e6b696361,rev?*
G04 #@! TF.SameCoordinates,Original*
G04 #@! TF.FileFunction,Legend,Bot*
G04 #@! TF.FilePolarity,Positive*
%FSLAX46Y46*%
G04 Gerber Fmt 4.6, Leading zero omitted, Abs format (unit mm)*
G04 Created by KiCad (PCBNEW 7.0.7-7.0.7~ubuntu22.04.1) date 2024-01-01 18:28:32*
%MOMM*%
%LPD*%
G01*
G04 APERTURE LIST*
%ADD10C,0.150000*%
%ADD11C,0.120000*%
%ADD12R,1.800000X1.800000*%
%ADD13C,1.800000*%
%ADD14C,4.000000*%
%ADD15C,1.600000*%
%ADD16O,1.600000X1.600000*%
%ADD17O,5.000000X3.200000*%
%ADD18R,1.930000X1.830000*%
%ADD19C,2.130000*%
%ADD20C,3.200000*%
%ADD21R,1.050000X1.500000*%
%ADD22O,1.050000X1.500000*%
%ADD23R,1.700000X1.700000*%
%ADD24O,1.700000X1.700000*%
G04 APERTURE END LIST*
D10*
X82454819Y-59880951D02*
X83169104Y-59880951D01*
X83169104Y-59880951D02*
X83311961Y-59833332D01*
X83311961Y-59833332D02*
X83407200Y-59738094D01*
X83407200Y-59738094D02*
X83454819Y-59595237D01*
X83454819Y-59595237D02*
X83454819Y-59499999D01*
X83454819Y-60833332D02*
X83454819Y-60357142D01*
X83454819Y-60357142D02*
X82454819Y-60357142D01*
X83359580Y-61738094D02*
X83407200Y-61690475D01*
X83407200Y-61690475D02*
X83454819Y-61547618D01*
X83454819Y-61547618D02*
X83454819Y-61452380D01*
X83454819Y-61452380D02*
X83407200Y-61309523D01*
X83407200Y-61309523D02*
X83311961Y-61214285D01*
X83311961Y-61214285D02*
X83216723Y-61166666D01*
X83216723Y-61166666D02*
X83026247Y-61119047D01*
X83026247Y-61119047D02*
X82883390Y-61119047D01*
X82883390Y-61119047D02*
X82692914Y-61166666D01*
X82692914Y-61166666D02*
X82597676Y-61214285D01*
X82597676Y-61214285D02*
X82502438Y-61309523D01*
X82502438Y-61309523D02*
X82454819Y-61452380D01*
X82454819Y-61452380D02*
X82454819Y-61547618D01*
X82454819Y-61547618D02*
X82502438Y-61690475D01*
X82502438Y-61690475D02*
X82550057Y-61738094D01*
X82454819Y-62452380D02*
X83169104Y-62452380D01*
X83169104Y-62452380D02*
X83311961Y-62404761D01*
X83311961Y-62404761D02*
X83407200Y-62309523D01*
X83407200Y-62309523D02*
X83454819Y-62166666D01*
X83454819Y-62166666D02*
X83454819Y-62071428D01*
X83454819Y-63404761D02*
X83454819Y-62928571D01*
X83454819Y-62928571D02*
X82454819Y-62928571D01*
X83359580Y-64309523D02*
X83407200Y-64261904D01*
X83407200Y-64261904D02*
X83454819Y-64119047D01*
X83454819Y-64119047D02*
X83454819Y-64023809D01*
X83454819Y-64023809D02*
X83407200Y-63880952D01*
X83407200Y-63880952D02*
X83311961Y-63785714D01*
X83311961Y-63785714D02*
X83216723Y-63738095D01*
X83216723Y-63738095D02*
X83026247Y-63690476D01*
X83026247Y-63690476D02*
X82883390Y-63690476D01*
X82883390Y-63690476D02*
X82692914Y-63738095D01*
X82692914Y-63738095D02*
X82597676Y-63785714D01*
X82597676Y-63785714D02*
X82502438Y-63880952D01*
X82502438Y-63880952D02*
X82454819Y-64023809D01*
X82454819Y-64023809D02*
X82454819Y-64119047D01*
X82454819Y-64119047D02*
X82502438Y-64261904D01*
X82502438Y-64261904D02*
X82550057Y-64309523D01*
X82454819Y-65023809D02*
X83169104Y-65023809D01*
X83169104Y-65023809D02*
X83311961Y-64976190D01*
X83311961Y-64976190D02*
X83407200Y-64880952D01*
X83407200Y-64880952D02*
X83454819Y-64738095D01*
X83454819Y-64738095D02*
X83454819Y-64642857D01*
X83454819Y-65976190D02*
X83454819Y-65500000D01*
X83454819Y-65500000D02*
X82454819Y-65500000D01*
X83359580Y-66880952D02*
X83407200Y-66833333D01*
X83407200Y-66833333D02*
X83454819Y-66690476D01*
X83454819Y-66690476D02*
X83454819Y-66595238D01*
X83454819Y-66595238D02*
X83407200Y-66452381D01*
X83407200Y-66452381D02*
X83311961Y-66357143D01*
X83311961Y-66357143D02*
X83216723Y-66309524D01*
X83216723Y-66309524D02*
X83026247Y-66261905D01*
X83026247Y-66261905D02*
X82883390Y-66261905D01*
X82883390Y-66261905D02*
X82692914Y-66309524D01*
X82692914Y-66309524D02*
X82597676Y-66357143D01*
X82597676Y-66357143D02*
X82502438Y-66452381D01*
X82502438Y-66452381D02*
X82454819Y-66595238D01*
X82454819Y-66595238D02*
X82454819Y-66690476D01*
X82454819Y-66690476D02*
X82502438Y-66833333D01*
X82502438Y-66833333D02*
X82550057Y-66880952D01*
X82454819Y-67595238D02*
X83169104Y-67595238D01*
X83169104Y-67595238D02*
X83311961Y-67547619D01*
X83311961Y-67547619D02*
X83407200Y-67452381D01*
X83407200Y-67452381D02*
X83454819Y-67309524D01*
X83454819Y-67309524D02*
X83454819Y-67214286D01*
X83454819Y-68547619D02*
X83454819Y-68071429D01*
X83454819Y-68071429D02*
X82454819Y-68071429D01*
X83359580Y-69452381D02*
X83407200Y-69404762D01*
X83407200Y-69404762D02*
X83454819Y-69261905D01*
X83454819Y-69261905D02*
X83454819Y-69166667D01*
X83454819Y-69166667D02*
X83407200Y-69023810D01*
X83407200Y-69023810D02*
X83311961Y-68928572D01*
X83311961Y-68928572D02*
X83216723Y-68880953D01*
X83216723Y-68880953D02*
X83026247Y-68833334D01*
X83026247Y-68833334D02*
X82883390Y-68833334D01*
X82883390Y-68833334D02*
X82692914Y-68880953D01*
X82692914Y-68880953D02*
X82597676Y-68928572D01*
X82597676Y-68928572D02*
X82502438Y-69023810D01*
X82502438Y-69023810D02*
X82454819Y-69166667D01*
X82454819Y-69166667D02*
X82454819Y-69261905D01*
X82454819Y-69261905D02*
X82502438Y-69404762D01*
X82502438Y-69404762D02*
X82550057Y-69452381D01*
X66066666Y-46332295D02*
X66066666Y-46903723D01*
X66066666Y-46903723D02*
X66104761Y-47018009D01*
X66104761Y-47018009D02*
X66180952Y-47094200D01*
X66180952Y-47094200D02*
X66295237Y-47132295D01*
X66295237Y-47132295D02*
X66371428Y-47132295D01*
X65304761Y-46332295D02*
X65685713Y-46332295D01*
X65685713Y-46332295D02*
X65723809Y-46713247D01*
X65723809Y-46713247D02*
X65685713Y-46675152D01*
X65685713Y-46675152D02*
X65609523Y-46637057D01*
X65609523Y-46637057D02*
X65419047Y-46637057D01*
X65419047Y-46637057D02*
X65342856Y-46675152D01*
X65342856Y-46675152D02*
X65304761Y-46713247D01*
X65304761Y-46713247D02*
X65266666Y-46789438D01*
X65266666Y-46789438D02*
X65266666Y-46979914D01*
X65266666Y-46979914D02*
X65304761Y-47056104D01*
X65304761Y-47056104D02*
X65342856Y-47094200D01*
X65342856Y-47094200D02*
X65419047Y-47132295D01*
X65419047Y-47132295D02*
X65609523Y-47132295D01*
X65609523Y-47132295D02*
X65685713Y-47094200D01*
X65685713Y-47094200D02*
X65723809Y-47056104D01*
X66133333Y-97624819D02*
X66133333Y-98339104D01*
X66133333Y-98339104D02*
X66180952Y-98481961D01*
X66180952Y-98481961D02*
X66276190Y-98577200D01*
X66276190Y-98577200D02*
X66419047Y-98624819D01*
X66419047Y-98624819D02*
X66514285Y-98624819D01*
X65228571Y-97624819D02*
X65419047Y-97624819D01*
X65419047Y-97624819D02*
X65514285Y-97672438D01*
X65514285Y-97672438D02*
X65561904Y-97720057D01*
X65561904Y-97720057D02*
X65657142Y-97862914D01*
X65657142Y-97862914D02*
X65704761Y-98053390D01*
X65704761Y-98053390D02*
X65704761Y-98434342D01*
X65704761Y-98434342D02*
X65657142Y-98529580D01*
X65657142Y-98529580D02*
X65609523Y-98577200D01*
X65609523Y-98577200D02*
X65514285Y-98624819D01*
X65514285Y-98624819D02*
X65323809Y-98624819D01*
X65323809Y-98624819D02*
X65228571Y-98577200D01*
X65228571Y-98577200D02*
X65180952Y-98529580D01*
X65180952Y-98529580D02*
X65133333Y-98434342D01*
X65133333Y-98434342D02*
X65133333Y-98196247D01*
X65133333Y-98196247D02*
X65180952Y-98101009D01*
X65180952Y-98101009D02*
X65228571Y-98053390D01*
X65228571Y-98053390D02*
X65323809Y-98005771D01*
X65323809Y-98005771D02*
X65514285Y-98005771D01*
X65514285Y-98005771D02*
X65609523Y-98053390D01*
X65609523Y-98053390D02*
X65657142Y-98101009D01*
X65657142Y-98101009D02*
X65704761Y-98196247D01*
D11*
X67130000Y-68210000D02*
X64470000Y-68210000D01*
X67130000Y-50370000D02*
X67130000Y-68210000D01*
X67130000Y-50370000D02*
X64470000Y-50370000D01*
X67130000Y-49100000D02*
X67130000Y-47770000D01*
X67130000Y-47770000D02*
X65800000Y-47770000D01*
X64470000Y-50370000D02*
X64470000Y-68210000D01*
X67130000Y-119610000D02*
X64470000Y-119610000D01*
X67130000Y-101770000D02*
X67130000Y-119610000D01*
X67130000Y-101770000D02*
X64470000Y-101770000D01*
X67130000Y-100500000D02*
X67130000Y-99170000D01*
X67130000Y-99170000D02*
X65800000Y-99170000D01*
X64470000Y-101770000D02*
X64470000Y-119610000D01*
%LPC*%
D12*
X67725000Y-140750000D03*
D13*
X70265000Y-140750000D03*
D14*
X69600000Y-76600000D03*
X78400000Y-76600000D03*
D13*
X71500000Y-83600000D03*
X74000000Y-83600000D03*
X76500000Y-83600000D03*
D15*
X72400000Y-103820000D03*
D16*
X72400000Y-113980000D03*
D14*
X69600000Y-58600000D03*
X78400000Y-58600000D03*
D13*
X71500000Y-65600000D03*
X74000000Y-65600000D03*
X76500000Y-65600000D03*
D14*
X69600000Y-94600000D03*
X78400000Y-94600000D03*
D13*
X71500000Y-101600000D03*
X74000000Y-101600000D03*
X76500000Y-101600000D03*
D17*
X69000000Y-131800000D03*
X69000000Y-127100000D03*
X69000000Y-122400000D03*
D18*
X79000000Y-130600000D03*
D19*
X79000000Y-142000000D03*
X79000000Y-133700000D03*
D18*
X79000000Y-115720000D03*
D19*
X79000000Y-127120000D03*
X79000000Y-118820000D03*
D20*
X80000000Y-107700000D03*
D14*
X69600000Y-40600000D03*
X78400000Y-40600000D03*
D13*
X71500000Y-47600000D03*
X74000000Y-47600000D03*
X76500000Y-47600000D03*
D21*
X72470000Y-117100000D03*
D22*
X71200000Y-117100000D03*
X69930000Y-117100000D03*
D23*
X65800000Y-49100000D03*
D24*
X65800000Y-51640000D03*
X65800000Y-54180000D03*
X65800000Y-56720000D03*
X65800000Y-59260000D03*
X65800000Y-61800000D03*
X65800000Y-64340000D03*
X65800000Y-66880000D03*
D23*
X65800000Y-100500000D03*
D24*
X65800000Y-103040000D03*
X65800000Y-105580000D03*
X65800000Y-108120000D03*
X65800000Y-110660000D03*
X65800000Y-113200000D03*
X65800000Y-115740000D03*
X65800000Y-118280000D03*
%LPD*%
M02*
