%TF.GenerationSoftware,KiCad,Pcbnew,7.0.7-7.0.7~ubuntu22.04.1*%
%TF.CreationDate,2024-01-01T18:28:32+01:00*%
%TF.ProjectId,Basic-ADSR,42617369-632d-4414-9453-522e6b696361,rev?*%
%TF.SameCoordinates,Original*%
%TF.FileFunction,Drillmap*%
%TF.FilePolarity,Positive*%
%FSLAX45Y45*%
G04 Gerber Fmt 4.5, Leading zero omitted, Abs format (unit mm)*
G04 Created by KiCad (PCBNEW 7.0.7-7.0.7~ubuntu22.04.1) date 2024-01-01 18:28:32*
%MOMM*%
%LPD*%
G01*
G04 APERTURE LIST*
%ADD10C,0.050000*%
%ADD11C,0.200000*%
%ADD12C,0.320000*%
G04 APERTURE END LIST*
D10*
X6400000Y-3400000D02*
X8400000Y-3400000D01*
X8400000Y-3400000D02*
X8400000Y-14350000D01*
X6400000Y-14350000D02*
X8400000Y-14350000D01*
X6400000Y-3400000D02*
X6400000Y-14350000D01*
D11*
X6860000Y-3960000D02*
X7060000Y-4160000D01*
X7060000Y-3960000D02*
X6860000Y-4160000D01*
X6860000Y-5760000D02*
X7060000Y-5960000D01*
X7060000Y-5760000D02*
X6860000Y-5960000D01*
X6860000Y-7560000D02*
X7060000Y-7760000D01*
X7060000Y-7560000D02*
X6860000Y-7760000D01*
X6860000Y-9360000D02*
X7060000Y-9560000D01*
X7060000Y-9360000D02*
X6860000Y-9560000D01*
X7740000Y-3960000D02*
X7940000Y-4160000D01*
X7940000Y-3960000D02*
X7740000Y-4160000D01*
X7740000Y-5760000D02*
X7940000Y-5960000D01*
X7940000Y-5760000D02*
X7740000Y-5960000D01*
X7740000Y-7560000D02*
X7940000Y-7760000D01*
X7940000Y-7560000D02*
X7740000Y-7760000D01*
X7740000Y-9360000D02*
X7940000Y-9560000D01*
X7940000Y-9360000D02*
X7740000Y-9560000D01*
D12*
X8160000Y-10770000D02*
G75*
G03*
X8160000Y-10770000I-160000J0D01*
G01*
D11*
X6658277Y-14663984D02*
X6658277Y-14463984D01*
X6658277Y-14463984D02*
X6705896Y-14463984D01*
X6705896Y-14463984D02*
X6734467Y-14473508D01*
X6734467Y-14473508D02*
X6753515Y-14492555D01*
X6753515Y-14492555D02*
X6763039Y-14511603D01*
X6763039Y-14511603D02*
X6772562Y-14549698D01*
X6772562Y-14549698D02*
X6772562Y-14578269D01*
X6772562Y-14578269D02*
X6763039Y-14616365D01*
X6763039Y-14616365D02*
X6753515Y-14635412D01*
X6753515Y-14635412D02*
X6734467Y-14654460D01*
X6734467Y-14654460D02*
X6705896Y-14663984D01*
X6705896Y-14663984D02*
X6658277Y-14663984D01*
X6858277Y-14663984D02*
X6858277Y-14530650D01*
X6858277Y-14568746D02*
X6867801Y-14549698D01*
X6867801Y-14549698D02*
X6877324Y-14540174D01*
X6877324Y-14540174D02*
X6896372Y-14530650D01*
X6896372Y-14530650D02*
X6915420Y-14530650D01*
X6982086Y-14663984D02*
X6982086Y-14530650D01*
X6982086Y-14463984D02*
X6972562Y-14473508D01*
X6972562Y-14473508D02*
X6982086Y-14483031D01*
X6982086Y-14483031D02*
X6991610Y-14473508D01*
X6991610Y-14473508D02*
X6982086Y-14463984D01*
X6982086Y-14463984D02*
X6982086Y-14483031D01*
X7105896Y-14663984D02*
X7086848Y-14654460D01*
X7086848Y-14654460D02*
X7077324Y-14635412D01*
X7077324Y-14635412D02*
X7077324Y-14463984D01*
X7210658Y-14663984D02*
X7191610Y-14654460D01*
X7191610Y-14654460D02*
X7182086Y-14635412D01*
X7182086Y-14635412D02*
X7182086Y-14463984D01*
X7439229Y-14663984D02*
X7439229Y-14463984D01*
X7439229Y-14463984D02*
X7505896Y-14606841D01*
X7505896Y-14606841D02*
X7572562Y-14463984D01*
X7572562Y-14463984D02*
X7572562Y-14663984D01*
X7753515Y-14663984D02*
X7753515Y-14559222D01*
X7753515Y-14559222D02*
X7743991Y-14540174D01*
X7743991Y-14540174D02*
X7724943Y-14530650D01*
X7724943Y-14530650D02*
X7686848Y-14530650D01*
X7686848Y-14530650D02*
X7667801Y-14540174D01*
X7753515Y-14654460D02*
X7734467Y-14663984D01*
X7734467Y-14663984D02*
X7686848Y-14663984D01*
X7686848Y-14663984D02*
X7667801Y-14654460D01*
X7667801Y-14654460D02*
X7658277Y-14635412D01*
X7658277Y-14635412D02*
X7658277Y-14616365D01*
X7658277Y-14616365D02*
X7667801Y-14597317D01*
X7667801Y-14597317D02*
X7686848Y-14587793D01*
X7686848Y-14587793D02*
X7734467Y-14587793D01*
X7734467Y-14587793D02*
X7753515Y-14578269D01*
X7848753Y-14530650D02*
X7848753Y-14730650D01*
X7848753Y-14540174D02*
X7867801Y-14530650D01*
X7867801Y-14530650D02*
X7905896Y-14530650D01*
X7905896Y-14530650D02*
X7924943Y-14540174D01*
X7924943Y-14540174D02*
X7934467Y-14549698D01*
X7934467Y-14549698D02*
X7943991Y-14568746D01*
X7943991Y-14568746D02*
X7943991Y-14625888D01*
X7943991Y-14625888D02*
X7934467Y-14644936D01*
X7934467Y-14644936D02*
X7924943Y-14654460D01*
X7924943Y-14654460D02*
X7905896Y-14663984D01*
X7905896Y-14663984D02*
X7867801Y-14663984D01*
X7867801Y-14663984D02*
X7848753Y-14654460D01*
X8029705Y-14644936D02*
X8039229Y-14654460D01*
X8039229Y-14654460D02*
X8029705Y-14663984D01*
X8029705Y-14663984D02*
X8020182Y-14654460D01*
X8020182Y-14654460D02*
X8029705Y-14644936D01*
X8029705Y-14644936D02*
X8029705Y-14663984D01*
X8029705Y-14540174D02*
X8039229Y-14549698D01*
X8039229Y-14549698D02*
X8029705Y-14559222D01*
X8029705Y-14559222D02*
X8020182Y-14549698D01*
X8020182Y-14549698D02*
X8029705Y-14540174D01*
X8029705Y-14540174D02*
X8029705Y-14559222D01*
X6197500Y-14892500D02*
X6397500Y-15092500D01*
X6397500Y-14892500D02*
X6197500Y-15092500D01*
X6648753Y-14903031D02*
X6658277Y-14893508D01*
X6658277Y-14893508D02*
X6677324Y-14883984D01*
X6677324Y-14883984D02*
X6724943Y-14883984D01*
X6724943Y-14883984D02*
X6743991Y-14893508D01*
X6743991Y-14893508D02*
X6753515Y-14903031D01*
X6753515Y-14903031D02*
X6763039Y-14922079D01*
X6763039Y-14922079D02*
X6763039Y-14941127D01*
X6763039Y-14941127D02*
X6753515Y-14969698D01*
X6753515Y-14969698D02*
X6639229Y-15083984D01*
X6639229Y-15083984D02*
X6763039Y-15083984D01*
X6848753Y-15064936D02*
X6858277Y-15074460D01*
X6858277Y-15074460D02*
X6848753Y-15083984D01*
X6848753Y-15083984D02*
X6839229Y-15074460D01*
X6839229Y-15074460D02*
X6848753Y-15064936D01*
X6848753Y-15064936D02*
X6848753Y-15083984D01*
X6982086Y-14883984D02*
X7001134Y-14883984D01*
X7001134Y-14883984D02*
X7020182Y-14893508D01*
X7020182Y-14893508D02*
X7029705Y-14903031D01*
X7029705Y-14903031D02*
X7039229Y-14922079D01*
X7039229Y-14922079D02*
X7048753Y-14960174D01*
X7048753Y-14960174D02*
X7048753Y-15007793D01*
X7048753Y-15007793D02*
X7039229Y-15045888D01*
X7039229Y-15045888D02*
X7029705Y-15064936D01*
X7029705Y-15064936D02*
X7020182Y-15074460D01*
X7020182Y-15074460D02*
X7001134Y-15083984D01*
X7001134Y-15083984D02*
X6982086Y-15083984D01*
X6982086Y-15083984D02*
X6963039Y-15074460D01*
X6963039Y-15074460D02*
X6953515Y-15064936D01*
X6953515Y-15064936D02*
X6943991Y-15045888D01*
X6943991Y-15045888D02*
X6934467Y-15007793D01*
X6934467Y-15007793D02*
X6934467Y-14960174D01*
X6934467Y-14960174D02*
X6943991Y-14922079D01*
X6943991Y-14922079D02*
X6953515Y-14903031D01*
X6953515Y-14903031D02*
X6963039Y-14893508D01*
X6963039Y-14893508D02*
X6982086Y-14883984D01*
X7172562Y-14883984D02*
X7191610Y-14883984D01*
X7191610Y-14883984D02*
X7210658Y-14893508D01*
X7210658Y-14893508D02*
X7220182Y-14903031D01*
X7220182Y-14903031D02*
X7229705Y-14922079D01*
X7229705Y-14922079D02*
X7239229Y-14960174D01*
X7239229Y-14960174D02*
X7239229Y-15007793D01*
X7239229Y-15007793D02*
X7229705Y-15045888D01*
X7229705Y-15045888D02*
X7220182Y-15064936D01*
X7220182Y-15064936D02*
X7210658Y-15074460D01*
X7210658Y-15074460D02*
X7191610Y-15083984D01*
X7191610Y-15083984D02*
X7172562Y-15083984D01*
X7172562Y-15083984D02*
X7153515Y-15074460D01*
X7153515Y-15074460D02*
X7143991Y-15064936D01*
X7143991Y-15064936D02*
X7134467Y-15045888D01*
X7134467Y-15045888D02*
X7124943Y-15007793D01*
X7124943Y-15007793D02*
X7124943Y-14960174D01*
X7124943Y-14960174D02*
X7134467Y-14922079D01*
X7134467Y-14922079D02*
X7143991Y-14903031D01*
X7143991Y-14903031D02*
X7153515Y-14893508D01*
X7153515Y-14893508D02*
X7172562Y-14883984D01*
X7363039Y-14883984D02*
X7382086Y-14883984D01*
X7382086Y-14883984D02*
X7401134Y-14893508D01*
X7401134Y-14893508D02*
X7410658Y-14903031D01*
X7410658Y-14903031D02*
X7420182Y-14922079D01*
X7420182Y-14922079D02*
X7429705Y-14960174D01*
X7429705Y-14960174D02*
X7429705Y-15007793D01*
X7429705Y-15007793D02*
X7420182Y-15045888D01*
X7420182Y-15045888D02*
X7410658Y-15064936D01*
X7410658Y-15064936D02*
X7401134Y-15074460D01*
X7401134Y-15074460D02*
X7382086Y-15083984D01*
X7382086Y-15083984D02*
X7363039Y-15083984D01*
X7363039Y-15083984D02*
X7343991Y-15074460D01*
X7343991Y-15074460D02*
X7334467Y-15064936D01*
X7334467Y-15064936D02*
X7324943Y-15045888D01*
X7324943Y-15045888D02*
X7315420Y-15007793D01*
X7315420Y-15007793D02*
X7315420Y-14960174D01*
X7315420Y-14960174D02*
X7324943Y-14922079D01*
X7324943Y-14922079D02*
X7334467Y-14903031D01*
X7334467Y-14903031D02*
X7343991Y-14893508D01*
X7343991Y-14893508D02*
X7363039Y-14883984D01*
X7515420Y-15083984D02*
X7515420Y-14950650D01*
X7515420Y-14969698D02*
X7524943Y-14960174D01*
X7524943Y-14960174D02*
X7543991Y-14950650D01*
X7543991Y-14950650D02*
X7572563Y-14950650D01*
X7572563Y-14950650D02*
X7591610Y-14960174D01*
X7591610Y-14960174D02*
X7601134Y-14979222D01*
X7601134Y-14979222D02*
X7601134Y-15083984D01*
X7601134Y-14979222D02*
X7610658Y-14960174D01*
X7610658Y-14960174D02*
X7629705Y-14950650D01*
X7629705Y-14950650D02*
X7658277Y-14950650D01*
X7658277Y-14950650D02*
X7677324Y-14960174D01*
X7677324Y-14960174D02*
X7686848Y-14979222D01*
X7686848Y-14979222D02*
X7686848Y-15083984D01*
X7782086Y-15083984D02*
X7782086Y-14950650D01*
X7782086Y-14969698D02*
X7791610Y-14960174D01*
X7791610Y-14960174D02*
X7810658Y-14950650D01*
X7810658Y-14950650D02*
X7839229Y-14950650D01*
X7839229Y-14950650D02*
X7858277Y-14960174D01*
X7858277Y-14960174D02*
X7867801Y-14979222D01*
X7867801Y-14979222D02*
X7867801Y-15083984D01*
X7867801Y-14979222D02*
X7877324Y-14960174D01*
X7877324Y-14960174D02*
X7896372Y-14950650D01*
X7896372Y-14950650D02*
X7924943Y-14950650D01*
X7924943Y-14950650D02*
X7943991Y-14960174D01*
X7943991Y-14960174D02*
X7953515Y-14979222D01*
X7953515Y-14979222D02*
X7953515Y-15083984D01*
X8343991Y-14874460D02*
X8172563Y-15131603D01*
X8601134Y-14883984D02*
X8620182Y-14883984D01*
X8620182Y-14883984D02*
X8639229Y-14893508D01*
X8639229Y-14893508D02*
X8648753Y-14903031D01*
X8648753Y-14903031D02*
X8658277Y-14922079D01*
X8658277Y-14922079D02*
X8667801Y-14960174D01*
X8667801Y-14960174D02*
X8667801Y-15007793D01*
X8667801Y-15007793D02*
X8658277Y-15045888D01*
X8658277Y-15045888D02*
X8648753Y-15064936D01*
X8648753Y-15064936D02*
X8639229Y-15074460D01*
X8639229Y-15074460D02*
X8620182Y-15083984D01*
X8620182Y-15083984D02*
X8601134Y-15083984D01*
X8601134Y-15083984D02*
X8582087Y-15074460D01*
X8582087Y-15074460D02*
X8572563Y-15064936D01*
X8572563Y-15064936D02*
X8563039Y-15045888D01*
X8563039Y-15045888D02*
X8553515Y-15007793D01*
X8553515Y-15007793D02*
X8553515Y-14960174D01*
X8553515Y-14960174D02*
X8563039Y-14922079D01*
X8563039Y-14922079D02*
X8572563Y-14903031D01*
X8572563Y-14903031D02*
X8582087Y-14893508D01*
X8582087Y-14893508D02*
X8601134Y-14883984D01*
X8753515Y-15064936D02*
X8763039Y-15074460D01*
X8763039Y-15074460D02*
X8753515Y-15083984D01*
X8753515Y-15083984D02*
X8743991Y-15074460D01*
X8743991Y-15074460D02*
X8753515Y-15064936D01*
X8753515Y-15064936D02*
X8753515Y-15083984D01*
X8886848Y-14883984D02*
X8905896Y-14883984D01*
X8905896Y-14883984D02*
X8924944Y-14893508D01*
X8924944Y-14893508D02*
X8934468Y-14903031D01*
X8934468Y-14903031D02*
X8943991Y-14922079D01*
X8943991Y-14922079D02*
X8953515Y-14960174D01*
X8953515Y-14960174D02*
X8953515Y-15007793D01*
X8953515Y-15007793D02*
X8943991Y-15045888D01*
X8943991Y-15045888D02*
X8934468Y-15064936D01*
X8934468Y-15064936D02*
X8924944Y-15074460D01*
X8924944Y-15074460D02*
X8905896Y-15083984D01*
X8905896Y-15083984D02*
X8886848Y-15083984D01*
X8886848Y-15083984D02*
X8867801Y-15074460D01*
X8867801Y-15074460D02*
X8858277Y-15064936D01*
X8858277Y-15064936D02*
X8848753Y-15045888D01*
X8848753Y-15045888D02*
X8839229Y-15007793D01*
X8839229Y-15007793D02*
X8839229Y-14960174D01*
X8839229Y-14960174D02*
X8848753Y-14922079D01*
X8848753Y-14922079D02*
X8858277Y-14903031D01*
X8858277Y-14903031D02*
X8867801Y-14893508D01*
X8867801Y-14893508D02*
X8886848Y-14883984D01*
X9020182Y-14883984D02*
X9153515Y-14883984D01*
X9153515Y-14883984D02*
X9067801Y-15083984D01*
X9258277Y-14969698D02*
X9239229Y-14960174D01*
X9239229Y-14960174D02*
X9229706Y-14950650D01*
X9229706Y-14950650D02*
X9220182Y-14931603D01*
X9220182Y-14931603D02*
X9220182Y-14922079D01*
X9220182Y-14922079D02*
X9229706Y-14903031D01*
X9229706Y-14903031D02*
X9239229Y-14893508D01*
X9239229Y-14893508D02*
X9258277Y-14883984D01*
X9258277Y-14883984D02*
X9296372Y-14883984D01*
X9296372Y-14883984D02*
X9315420Y-14893508D01*
X9315420Y-14893508D02*
X9324944Y-14903031D01*
X9324944Y-14903031D02*
X9334468Y-14922079D01*
X9334468Y-14922079D02*
X9334468Y-14931603D01*
X9334468Y-14931603D02*
X9324944Y-14950650D01*
X9324944Y-14950650D02*
X9315420Y-14960174D01*
X9315420Y-14960174D02*
X9296372Y-14969698D01*
X9296372Y-14969698D02*
X9258277Y-14969698D01*
X9258277Y-14969698D02*
X9239229Y-14979222D01*
X9239229Y-14979222D02*
X9229706Y-14988746D01*
X9229706Y-14988746D02*
X9220182Y-15007793D01*
X9220182Y-15007793D02*
X9220182Y-15045888D01*
X9220182Y-15045888D02*
X9229706Y-15064936D01*
X9229706Y-15064936D02*
X9239229Y-15074460D01*
X9239229Y-15074460D02*
X9258277Y-15083984D01*
X9258277Y-15083984D02*
X9296372Y-15083984D01*
X9296372Y-15083984D02*
X9315420Y-15074460D01*
X9315420Y-15074460D02*
X9324944Y-15064936D01*
X9324944Y-15064936D02*
X9334468Y-15045888D01*
X9334468Y-15045888D02*
X9334468Y-15007793D01*
X9334468Y-15007793D02*
X9324944Y-14988746D01*
X9324944Y-14988746D02*
X9315420Y-14979222D01*
X9315420Y-14979222D02*
X9296372Y-14969698D01*
X9401134Y-14883984D02*
X9534468Y-14883984D01*
X9534468Y-14883984D02*
X9448753Y-15083984D01*
X9601134Y-14883984D02*
X9601134Y-14922079D01*
X9677325Y-14883984D02*
X9677325Y-14922079D01*
X9972563Y-15160174D02*
X9963039Y-15150650D01*
X9963039Y-15150650D02*
X9943991Y-15122079D01*
X9943991Y-15122079D02*
X9934468Y-15103031D01*
X9934468Y-15103031D02*
X9924944Y-15074460D01*
X9924944Y-15074460D02*
X9915420Y-15026841D01*
X9915420Y-15026841D02*
X9915420Y-14988746D01*
X9915420Y-14988746D02*
X9924944Y-14941127D01*
X9924944Y-14941127D02*
X9934468Y-14912555D01*
X9934468Y-14912555D02*
X9943991Y-14893508D01*
X9943991Y-14893508D02*
X9963039Y-14864936D01*
X9963039Y-14864936D02*
X9972563Y-14855412D01*
X10077325Y-14969698D02*
X10058277Y-14960174D01*
X10058277Y-14960174D02*
X10048753Y-14950650D01*
X10048753Y-14950650D02*
X10039230Y-14931603D01*
X10039230Y-14931603D02*
X10039230Y-14922079D01*
X10039230Y-14922079D02*
X10048753Y-14903031D01*
X10048753Y-14903031D02*
X10058277Y-14893508D01*
X10058277Y-14893508D02*
X10077325Y-14883984D01*
X10077325Y-14883984D02*
X10115420Y-14883984D01*
X10115420Y-14883984D02*
X10134468Y-14893508D01*
X10134468Y-14893508D02*
X10143991Y-14903031D01*
X10143991Y-14903031D02*
X10153515Y-14922079D01*
X10153515Y-14922079D02*
X10153515Y-14931603D01*
X10153515Y-14931603D02*
X10143991Y-14950650D01*
X10143991Y-14950650D02*
X10134468Y-14960174D01*
X10134468Y-14960174D02*
X10115420Y-14969698D01*
X10115420Y-14969698D02*
X10077325Y-14969698D01*
X10077325Y-14969698D02*
X10058277Y-14979222D01*
X10058277Y-14979222D02*
X10048753Y-14988746D01*
X10048753Y-14988746D02*
X10039230Y-15007793D01*
X10039230Y-15007793D02*
X10039230Y-15045888D01*
X10039230Y-15045888D02*
X10048753Y-15064936D01*
X10048753Y-15064936D02*
X10058277Y-15074460D01*
X10058277Y-15074460D02*
X10077325Y-15083984D01*
X10077325Y-15083984D02*
X10115420Y-15083984D01*
X10115420Y-15083984D02*
X10134468Y-15074460D01*
X10134468Y-15074460D02*
X10143991Y-15064936D01*
X10143991Y-15064936D02*
X10153515Y-15045888D01*
X10153515Y-15045888D02*
X10153515Y-15007793D01*
X10153515Y-15007793D02*
X10143991Y-14988746D01*
X10143991Y-14988746D02*
X10134468Y-14979222D01*
X10134468Y-14979222D02*
X10115420Y-14969698D01*
X10391611Y-15083984D02*
X10391611Y-14883984D01*
X10477325Y-15083984D02*
X10477325Y-14979222D01*
X10477325Y-14979222D02*
X10467801Y-14960174D01*
X10467801Y-14960174D02*
X10448753Y-14950650D01*
X10448753Y-14950650D02*
X10420182Y-14950650D01*
X10420182Y-14950650D02*
X10401134Y-14960174D01*
X10401134Y-14960174D02*
X10391611Y-14969698D01*
X10601134Y-15083984D02*
X10582087Y-15074460D01*
X10582087Y-15074460D02*
X10572563Y-15064936D01*
X10572563Y-15064936D02*
X10563039Y-15045888D01*
X10563039Y-15045888D02*
X10563039Y-14988746D01*
X10563039Y-14988746D02*
X10572563Y-14969698D01*
X10572563Y-14969698D02*
X10582087Y-14960174D01*
X10582087Y-14960174D02*
X10601134Y-14950650D01*
X10601134Y-14950650D02*
X10629706Y-14950650D01*
X10629706Y-14950650D02*
X10648753Y-14960174D01*
X10648753Y-14960174D02*
X10658277Y-14969698D01*
X10658277Y-14969698D02*
X10667801Y-14988746D01*
X10667801Y-14988746D02*
X10667801Y-15045888D01*
X10667801Y-15045888D02*
X10658277Y-15064936D01*
X10658277Y-15064936D02*
X10648753Y-15074460D01*
X10648753Y-15074460D02*
X10629706Y-15083984D01*
X10629706Y-15083984D02*
X10601134Y-15083984D01*
X10782087Y-15083984D02*
X10763039Y-15074460D01*
X10763039Y-15074460D02*
X10753515Y-15055412D01*
X10753515Y-15055412D02*
X10753515Y-14883984D01*
X10934468Y-15074460D02*
X10915420Y-15083984D01*
X10915420Y-15083984D02*
X10877325Y-15083984D01*
X10877325Y-15083984D02*
X10858277Y-15074460D01*
X10858277Y-15074460D02*
X10848753Y-15055412D01*
X10848753Y-15055412D02*
X10848753Y-14979222D01*
X10848753Y-14979222D02*
X10858277Y-14960174D01*
X10858277Y-14960174D02*
X10877325Y-14950650D01*
X10877325Y-14950650D02*
X10915420Y-14950650D01*
X10915420Y-14950650D02*
X10934468Y-14960174D01*
X10934468Y-14960174D02*
X10943992Y-14979222D01*
X10943992Y-14979222D02*
X10943992Y-14998269D01*
X10943992Y-14998269D02*
X10848753Y-15017317D01*
X11020182Y-15074460D02*
X11039230Y-15083984D01*
X11039230Y-15083984D02*
X11077325Y-15083984D01*
X11077325Y-15083984D02*
X11096373Y-15074460D01*
X11096373Y-15074460D02*
X11105896Y-15055412D01*
X11105896Y-15055412D02*
X11105896Y-15045888D01*
X11105896Y-15045888D02*
X11096373Y-15026841D01*
X11096373Y-15026841D02*
X11077325Y-15017317D01*
X11077325Y-15017317D02*
X11048753Y-15017317D01*
X11048753Y-15017317D02*
X11029706Y-15007793D01*
X11029706Y-15007793D02*
X11020182Y-14988746D01*
X11020182Y-14988746D02*
X11020182Y-14979222D01*
X11020182Y-14979222D02*
X11029706Y-14960174D01*
X11029706Y-14960174D02*
X11048753Y-14950650D01*
X11048753Y-14950650D02*
X11077325Y-14950650D01*
X11077325Y-14950650D02*
X11096373Y-14960174D01*
X11172563Y-15160174D02*
X11182087Y-15150650D01*
X11182087Y-15150650D02*
X11201134Y-15122079D01*
X11201134Y-15122079D02*
X11210658Y-15103031D01*
X11210658Y-15103031D02*
X11220182Y-15074460D01*
X11220182Y-15074460D02*
X11229706Y-15026841D01*
X11229706Y-15026841D02*
X11229706Y-14988746D01*
X11229706Y-14988746D02*
X11220182Y-14941127D01*
X11220182Y-14941127D02*
X11210658Y-14912555D01*
X11210658Y-14912555D02*
X11201134Y-14893508D01*
X11201134Y-14893508D02*
X11182087Y-14864936D01*
X11182087Y-14864936D02*
X11172563Y-14855412D01*
X11534468Y-15160174D02*
X11524944Y-15150650D01*
X11524944Y-15150650D02*
X11505896Y-15122079D01*
X11505896Y-15122079D02*
X11496372Y-15103031D01*
X11496372Y-15103031D02*
X11486849Y-15074460D01*
X11486849Y-15074460D02*
X11477325Y-15026841D01*
X11477325Y-15026841D02*
X11477325Y-14988746D01*
X11477325Y-14988746D02*
X11486849Y-14941127D01*
X11486849Y-14941127D02*
X11496372Y-14912555D01*
X11496372Y-14912555D02*
X11505896Y-14893508D01*
X11505896Y-14893508D02*
X11524944Y-14864936D01*
X11524944Y-14864936D02*
X11534468Y-14855412D01*
X11610658Y-14950650D02*
X11610658Y-15083984D01*
X11610658Y-14969698D02*
X11620182Y-14960174D01*
X11620182Y-14960174D02*
X11639230Y-14950650D01*
X11639230Y-14950650D02*
X11667801Y-14950650D01*
X11667801Y-14950650D02*
X11686849Y-14960174D01*
X11686849Y-14960174D02*
X11696372Y-14979222D01*
X11696372Y-14979222D02*
X11696372Y-15083984D01*
X11820182Y-15083984D02*
X11801134Y-15074460D01*
X11801134Y-15074460D02*
X11791611Y-15064936D01*
X11791611Y-15064936D02*
X11782087Y-15045888D01*
X11782087Y-15045888D02*
X11782087Y-14988746D01*
X11782087Y-14988746D02*
X11791611Y-14969698D01*
X11791611Y-14969698D02*
X11801134Y-14960174D01*
X11801134Y-14960174D02*
X11820182Y-14950650D01*
X11820182Y-14950650D02*
X11848753Y-14950650D01*
X11848753Y-14950650D02*
X11867801Y-14960174D01*
X11867801Y-14960174D02*
X11877325Y-14969698D01*
X11877325Y-14969698D02*
X11886849Y-14988746D01*
X11886849Y-14988746D02*
X11886849Y-15045888D01*
X11886849Y-15045888D02*
X11877325Y-15064936D01*
X11877325Y-15064936D02*
X11867801Y-15074460D01*
X11867801Y-15074460D02*
X11848753Y-15083984D01*
X11848753Y-15083984D02*
X11820182Y-15083984D01*
X11943992Y-14950650D02*
X12020182Y-14950650D01*
X11972563Y-14883984D02*
X11972563Y-15055412D01*
X11972563Y-15055412D02*
X11982087Y-15074460D01*
X11982087Y-15074460D02*
X12001134Y-15083984D01*
X12001134Y-15083984D02*
X12020182Y-15083984D01*
X12239230Y-14950650D02*
X12239230Y-15150650D01*
X12239230Y-14960174D02*
X12258277Y-14950650D01*
X12258277Y-14950650D02*
X12296373Y-14950650D01*
X12296373Y-14950650D02*
X12315420Y-14960174D01*
X12315420Y-14960174D02*
X12324944Y-14969698D01*
X12324944Y-14969698D02*
X12334468Y-14988746D01*
X12334468Y-14988746D02*
X12334468Y-15045888D01*
X12334468Y-15045888D02*
X12324944Y-15064936D01*
X12324944Y-15064936D02*
X12315420Y-15074460D01*
X12315420Y-15074460D02*
X12296373Y-15083984D01*
X12296373Y-15083984D02*
X12258277Y-15083984D01*
X12258277Y-15083984D02*
X12239230Y-15074460D01*
X12448753Y-15083984D02*
X12429706Y-15074460D01*
X12429706Y-15074460D02*
X12420182Y-15055412D01*
X12420182Y-15055412D02*
X12420182Y-14883984D01*
X12610658Y-15083984D02*
X12610658Y-14979222D01*
X12610658Y-14979222D02*
X12601134Y-14960174D01*
X12601134Y-14960174D02*
X12582087Y-14950650D01*
X12582087Y-14950650D02*
X12543992Y-14950650D01*
X12543992Y-14950650D02*
X12524944Y-14960174D01*
X12610658Y-15074460D02*
X12591611Y-15083984D01*
X12591611Y-15083984D02*
X12543992Y-15083984D01*
X12543992Y-15083984D02*
X12524944Y-15074460D01*
X12524944Y-15074460D02*
X12515420Y-15055412D01*
X12515420Y-15055412D02*
X12515420Y-15036365D01*
X12515420Y-15036365D02*
X12524944Y-15017317D01*
X12524944Y-15017317D02*
X12543992Y-15007793D01*
X12543992Y-15007793D02*
X12591611Y-15007793D01*
X12591611Y-15007793D02*
X12610658Y-14998269D01*
X12677325Y-14950650D02*
X12753515Y-14950650D01*
X12705896Y-14883984D02*
X12705896Y-15055412D01*
X12705896Y-15055412D02*
X12715420Y-15074460D01*
X12715420Y-15074460D02*
X12734468Y-15083984D01*
X12734468Y-15083984D02*
X12753515Y-15083984D01*
X12896373Y-15074460D02*
X12877325Y-15083984D01*
X12877325Y-15083984D02*
X12839230Y-15083984D01*
X12839230Y-15083984D02*
X12820182Y-15074460D01*
X12820182Y-15074460D02*
X12810658Y-15055412D01*
X12810658Y-15055412D02*
X12810658Y-14979222D01*
X12810658Y-14979222D02*
X12820182Y-14960174D01*
X12820182Y-14960174D02*
X12839230Y-14950650D01*
X12839230Y-14950650D02*
X12877325Y-14950650D01*
X12877325Y-14950650D02*
X12896373Y-14960174D01*
X12896373Y-14960174D02*
X12905896Y-14979222D01*
X12905896Y-14979222D02*
X12905896Y-14998269D01*
X12905896Y-14998269D02*
X12810658Y-15017317D01*
X13077325Y-15083984D02*
X13077325Y-14883984D01*
X13077325Y-15074460D02*
X13058277Y-15083984D01*
X13058277Y-15083984D02*
X13020182Y-15083984D01*
X13020182Y-15083984D02*
X13001134Y-15074460D01*
X13001134Y-15074460D02*
X12991611Y-15064936D01*
X12991611Y-15064936D02*
X12982087Y-15045888D01*
X12982087Y-15045888D02*
X12982087Y-14988746D01*
X12982087Y-14988746D02*
X12991611Y-14969698D01*
X12991611Y-14969698D02*
X13001134Y-14960174D01*
X13001134Y-14960174D02*
X13020182Y-14950650D01*
X13020182Y-14950650D02*
X13058277Y-14950650D01*
X13058277Y-14950650D02*
X13077325Y-14960174D01*
X13153515Y-15160174D02*
X13163039Y-15150650D01*
X13163039Y-15150650D02*
X13182087Y-15122079D01*
X13182087Y-15122079D02*
X13191611Y-15103031D01*
X13191611Y-15103031D02*
X13201134Y-15074460D01*
X13201134Y-15074460D02*
X13210658Y-15026841D01*
X13210658Y-15026841D02*
X13210658Y-14988746D01*
X13210658Y-14988746D02*
X13201134Y-14941127D01*
X13201134Y-14941127D02*
X13191611Y-14912555D01*
X13191611Y-14912555D02*
X13182087Y-14893508D01*
X13182087Y-14893508D02*
X13163039Y-14864936D01*
X13163039Y-14864936D02*
X13153515Y-14855412D01*
X6397500Y-15312500D02*
G75*
G03*
X6397500Y-15312500I-100000J0D01*
G01*
X6639229Y-15203984D02*
X6763039Y-15203984D01*
X6763039Y-15203984D02*
X6696372Y-15280174D01*
X6696372Y-15280174D02*
X6724943Y-15280174D01*
X6724943Y-15280174D02*
X6743991Y-15289698D01*
X6743991Y-15289698D02*
X6753515Y-15299222D01*
X6753515Y-15299222D02*
X6763039Y-15318269D01*
X6763039Y-15318269D02*
X6763039Y-15365888D01*
X6763039Y-15365888D02*
X6753515Y-15384936D01*
X6753515Y-15384936D02*
X6743991Y-15394460D01*
X6743991Y-15394460D02*
X6724943Y-15403984D01*
X6724943Y-15403984D02*
X6667801Y-15403984D01*
X6667801Y-15403984D02*
X6648753Y-15394460D01*
X6648753Y-15394460D02*
X6639229Y-15384936D01*
X6848753Y-15384936D02*
X6858277Y-15394460D01*
X6858277Y-15394460D02*
X6848753Y-15403984D01*
X6848753Y-15403984D02*
X6839229Y-15394460D01*
X6839229Y-15394460D02*
X6848753Y-15384936D01*
X6848753Y-15384936D02*
X6848753Y-15403984D01*
X6934467Y-15223031D02*
X6943991Y-15213508D01*
X6943991Y-15213508D02*
X6963039Y-15203984D01*
X6963039Y-15203984D02*
X7010658Y-15203984D01*
X7010658Y-15203984D02*
X7029705Y-15213508D01*
X7029705Y-15213508D02*
X7039229Y-15223031D01*
X7039229Y-15223031D02*
X7048753Y-15242079D01*
X7048753Y-15242079D02*
X7048753Y-15261127D01*
X7048753Y-15261127D02*
X7039229Y-15289698D01*
X7039229Y-15289698D02*
X6924943Y-15403984D01*
X6924943Y-15403984D02*
X7048753Y-15403984D01*
X7172562Y-15203984D02*
X7191610Y-15203984D01*
X7191610Y-15203984D02*
X7210658Y-15213508D01*
X7210658Y-15213508D02*
X7220182Y-15223031D01*
X7220182Y-15223031D02*
X7229705Y-15242079D01*
X7229705Y-15242079D02*
X7239229Y-15280174D01*
X7239229Y-15280174D02*
X7239229Y-15327793D01*
X7239229Y-15327793D02*
X7229705Y-15365888D01*
X7229705Y-15365888D02*
X7220182Y-15384936D01*
X7220182Y-15384936D02*
X7210658Y-15394460D01*
X7210658Y-15394460D02*
X7191610Y-15403984D01*
X7191610Y-15403984D02*
X7172562Y-15403984D01*
X7172562Y-15403984D02*
X7153515Y-15394460D01*
X7153515Y-15394460D02*
X7143991Y-15384936D01*
X7143991Y-15384936D02*
X7134467Y-15365888D01*
X7134467Y-15365888D02*
X7124943Y-15327793D01*
X7124943Y-15327793D02*
X7124943Y-15280174D01*
X7124943Y-15280174D02*
X7134467Y-15242079D01*
X7134467Y-15242079D02*
X7143991Y-15223031D01*
X7143991Y-15223031D02*
X7153515Y-15213508D01*
X7153515Y-15213508D02*
X7172562Y-15203984D01*
X7363039Y-15203984D02*
X7382086Y-15203984D01*
X7382086Y-15203984D02*
X7401134Y-15213508D01*
X7401134Y-15213508D02*
X7410658Y-15223031D01*
X7410658Y-15223031D02*
X7420182Y-15242079D01*
X7420182Y-15242079D02*
X7429705Y-15280174D01*
X7429705Y-15280174D02*
X7429705Y-15327793D01*
X7429705Y-15327793D02*
X7420182Y-15365888D01*
X7420182Y-15365888D02*
X7410658Y-15384936D01*
X7410658Y-15384936D02*
X7401134Y-15394460D01*
X7401134Y-15394460D02*
X7382086Y-15403984D01*
X7382086Y-15403984D02*
X7363039Y-15403984D01*
X7363039Y-15403984D02*
X7343991Y-15394460D01*
X7343991Y-15394460D02*
X7334467Y-15384936D01*
X7334467Y-15384936D02*
X7324943Y-15365888D01*
X7324943Y-15365888D02*
X7315420Y-15327793D01*
X7315420Y-15327793D02*
X7315420Y-15280174D01*
X7315420Y-15280174D02*
X7324943Y-15242079D01*
X7324943Y-15242079D02*
X7334467Y-15223031D01*
X7334467Y-15223031D02*
X7343991Y-15213508D01*
X7343991Y-15213508D02*
X7363039Y-15203984D01*
X7515420Y-15403984D02*
X7515420Y-15270650D01*
X7515420Y-15289698D02*
X7524943Y-15280174D01*
X7524943Y-15280174D02*
X7543991Y-15270650D01*
X7543991Y-15270650D02*
X7572563Y-15270650D01*
X7572563Y-15270650D02*
X7591610Y-15280174D01*
X7591610Y-15280174D02*
X7601134Y-15299222D01*
X7601134Y-15299222D02*
X7601134Y-15403984D01*
X7601134Y-15299222D02*
X7610658Y-15280174D01*
X7610658Y-15280174D02*
X7629705Y-15270650D01*
X7629705Y-15270650D02*
X7658277Y-15270650D01*
X7658277Y-15270650D02*
X7677324Y-15280174D01*
X7677324Y-15280174D02*
X7686848Y-15299222D01*
X7686848Y-15299222D02*
X7686848Y-15403984D01*
X7782086Y-15403984D02*
X7782086Y-15270650D01*
X7782086Y-15289698D02*
X7791610Y-15280174D01*
X7791610Y-15280174D02*
X7810658Y-15270650D01*
X7810658Y-15270650D02*
X7839229Y-15270650D01*
X7839229Y-15270650D02*
X7858277Y-15280174D01*
X7858277Y-15280174D02*
X7867801Y-15299222D01*
X7867801Y-15299222D02*
X7867801Y-15403984D01*
X7867801Y-15299222D02*
X7877324Y-15280174D01*
X7877324Y-15280174D02*
X7896372Y-15270650D01*
X7896372Y-15270650D02*
X7924943Y-15270650D01*
X7924943Y-15270650D02*
X7943991Y-15280174D01*
X7943991Y-15280174D02*
X7953515Y-15299222D01*
X7953515Y-15299222D02*
X7953515Y-15403984D01*
X8343991Y-15194460D02*
X8172563Y-15451603D01*
X8601134Y-15203984D02*
X8620182Y-15203984D01*
X8620182Y-15203984D02*
X8639229Y-15213508D01*
X8639229Y-15213508D02*
X8648753Y-15223031D01*
X8648753Y-15223031D02*
X8658277Y-15242079D01*
X8658277Y-15242079D02*
X8667801Y-15280174D01*
X8667801Y-15280174D02*
X8667801Y-15327793D01*
X8667801Y-15327793D02*
X8658277Y-15365888D01*
X8658277Y-15365888D02*
X8648753Y-15384936D01*
X8648753Y-15384936D02*
X8639229Y-15394460D01*
X8639229Y-15394460D02*
X8620182Y-15403984D01*
X8620182Y-15403984D02*
X8601134Y-15403984D01*
X8601134Y-15403984D02*
X8582087Y-15394460D01*
X8582087Y-15394460D02*
X8572563Y-15384936D01*
X8572563Y-15384936D02*
X8563039Y-15365888D01*
X8563039Y-15365888D02*
X8553515Y-15327793D01*
X8553515Y-15327793D02*
X8553515Y-15280174D01*
X8553515Y-15280174D02*
X8563039Y-15242079D01*
X8563039Y-15242079D02*
X8572563Y-15223031D01*
X8572563Y-15223031D02*
X8582087Y-15213508D01*
X8582087Y-15213508D02*
X8601134Y-15203984D01*
X8753515Y-15384936D02*
X8763039Y-15394460D01*
X8763039Y-15394460D02*
X8753515Y-15403984D01*
X8753515Y-15403984D02*
X8743991Y-15394460D01*
X8743991Y-15394460D02*
X8753515Y-15384936D01*
X8753515Y-15384936D02*
X8753515Y-15403984D01*
X8953515Y-15403984D02*
X8839229Y-15403984D01*
X8896372Y-15403984D02*
X8896372Y-15203984D01*
X8896372Y-15203984D02*
X8877325Y-15232555D01*
X8877325Y-15232555D02*
X8858277Y-15251603D01*
X8858277Y-15251603D02*
X8839229Y-15261127D01*
X9029706Y-15223031D02*
X9039229Y-15213508D01*
X9039229Y-15213508D02*
X9058277Y-15203984D01*
X9058277Y-15203984D02*
X9105896Y-15203984D01*
X9105896Y-15203984D02*
X9124944Y-15213508D01*
X9124944Y-15213508D02*
X9134468Y-15223031D01*
X9134468Y-15223031D02*
X9143991Y-15242079D01*
X9143991Y-15242079D02*
X9143991Y-15261127D01*
X9143991Y-15261127D02*
X9134468Y-15289698D01*
X9134468Y-15289698D02*
X9020182Y-15403984D01*
X9020182Y-15403984D02*
X9143991Y-15403984D01*
X9315420Y-15203984D02*
X9277325Y-15203984D01*
X9277325Y-15203984D02*
X9258277Y-15213508D01*
X9258277Y-15213508D02*
X9248753Y-15223031D01*
X9248753Y-15223031D02*
X9229706Y-15251603D01*
X9229706Y-15251603D02*
X9220182Y-15289698D01*
X9220182Y-15289698D02*
X9220182Y-15365888D01*
X9220182Y-15365888D02*
X9229706Y-15384936D01*
X9229706Y-15384936D02*
X9239229Y-15394460D01*
X9239229Y-15394460D02*
X9258277Y-15403984D01*
X9258277Y-15403984D02*
X9296372Y-15403984D01*
X9296372Y-15403984D02*
X9315420Y-15394460D01*
X9315420Y-15394460D02*
X9324944Y-15384936D01*
X9324944Y-15384936D02*
X9334468Y-15365888D01*
X9334468Y-15365888D02*
X9334468Y-15318269D01*
X9334468Y-15318269D02*
X9324944Y-15299222D01*
X9324944Y-15299222D02*
X9315420Y-15289698D01*
X9315420Y-15289698D02*
X9296372Y-15280174D01*
X9296372Y-15280174D02*
X9258277Y-15280174D01*
X9258277Y-15280174D02*
X9239229Y-15289698D01*
X9239229Y-15289698D02*
X9229706Y-15299222D01*
X9229706Y-15299222D02*
X9220182Y-15318269D01*
X9458277Y-15203984D02*
X9477325Y-15203984D01*
X9477325Y-15203984D02*
X9496372Y-15213508D01*
X9496372Y-15213508D02*
X9505896Y-15223031D01*
X9505896Y-15223031D02*
X9515420Y-15242079D01*
X9515420Y-15242079D02*
X9524944Y-15280174D01*
X9524944Y-15280174D02*
X9524944Y-15327793D01*
X9524944Y-15327793D02*
X9515420Y-15365888D01*
X9515420Y-15365888D02*
X9505896Y-15384936D01*
X9505896Y-15384936D02*
X9496372Y-15394460D01*
X9496372Y-15394460D02*
X9477325Y-15403984D01*
X9477325Y-15403984D02*
X9458277Y-15403984D01*
X9458277Y-15403984D02*
X9439229Y-15394460D01*
X9439229Y-15394460D02*
X9429706Y-15384936D01*
X9429706Y-15384936D02*
X9420182Y-15365888D01*
X9420182Y-15365888D02*
X9410658Y-15327793D01*
X9410658Y-15327793D02*
X9410658Y-15280174D01*
X9410658Y-15280174D02*
X9420182Y-15242079D01*
X9420182Y-15242079D02*
X9429706Y-15223031D01*
X9429706Y-15223031D02*
X9439229Y-15213508D01*
X9439229Y-15213508D02*
X9458277Y-15203984D01*
X9601134Y-15203984D02*
X9601134Y-15242079D01*
X9677325Y-15203984D02*
X9677325Y-15242079D01*
X9972563Y-15480174D02*
X9963039Y-15470650D01*
X9963039Y-15470650D02*
X9943991Y-15442079D01*
X9943991Y-15442079D02*
X9934468Y-15423031D01*
X9934468Y-15423031D02*
X9924944Y-15394460D01*
X9924944Y-15394460D02*
X9915420Y-15346841D01*
X9915420Y-15346841D02*
X9915420Y-15308746D01*
X9915420Y-15308746D02*
X9924944Y-15261127D01*
X9924944Y-15261127D02*
X9934468Y-15232555D01*
X9934468Y-15232555D02*
X9943991Y-15213508D01*
X9943991Y-15213508D02*
X9963039Y-15184936D01*
X9963039Y-15184936D02*
X9972563Y-15175412D01*
X10153515Y-15403984D02*
X10039230Y-15403984D01*
X10096372Y-15403984D02*
X10096372Y-15203984D01*
X10096372Y-15203984D02*
X10077325Y-15232555D01*
X10077325Y-15232555D02*
X10058277Y-15251603D01*
X10058277Y-15251603D02*
X10039230Y-15261127D01*
X10391611Y-15403984D02*
X10391611Y-15203984D01*
X10477325Y-15403984D02*
X10477325Y-15299222D01*
X10477325Y-15299222D02*
X10467801Y-15280174D01*
X10467801Y-15280174D02*
X10448753Y-15270650D01*
X10448753Y-15270650D02*
X10420182Y-15270650D01*
X10420182Y-15270650D02*
X10401134Y-15280174D01*
X10401134Y-15280174D02*
X10391611Y-15289698D01*
X10601134Y-15403984D02*
X10582087Y-15394460D01*
X10582087Y-15394460D02*
X10572563Y-15384936D01*
X10572563Y-15384936D02*
X10563039Y-15365888D01*
X10563039Y-15365888D02*
X10563039Y-15308746D01*
X10563039Y-15308746D02*
X10572563Y-15289698D01*
X10572563Y-15289698D02*
X10582087Y-15280174D01*
X10582087Y-15280174D02*
X10601134Y-15270650D01*
X10601134Y-15270650D02*
X10629706Y-15270650D01*
X10629706Y-15270650D02*
X10648753Y-15280174D01*
X10648753Y-15280174D02*
X10658277Y-15289698D01*
X10658277Y-15289698D02*
X10667801Y-15308746D01*
X10667801Y-15308746D02*
X10667801Y-15365888D01*
X10667801Y-15365888D02*
X10658277Y-15384936D01*
X10658277Y-15384936D02*
X10648753Y-15394460D01*
X10648753Y-15394460D02*
X10629706Y-15403984D01*
X10629706Y-15403984D02*
X10601134Y-15403984D01*
X10782087Y-15403984D02*
X10763039Y-15394460D01*
X10763039Y-15394460D02*
X10753515Y-15375412D01*
X10753515Y-15375412D02*
X10753515Y-15203984D01*
X10934468Y-15394460D02*
X10915420Y-15403984D01*
X10915420Y-15403984D02*
X10877325Y-15403984D01*
X10877325Y-15403984D02*
X10858277Y-15394460D01*
X10858277Y-15394460D02*
X10848753Y-15375412D01*
X10848753Y-15375412D02*
X10848753Y-15299222D01*
X10848753Y-15299222D02*
X10858277Y-15280174D01*
X10858277Y-15280174D02*
X10877325Y-15270650D01*
X10877325Y-15270650D02*
X10915420Y-15270650D01*
X10915420Y-15270650D02*
X10934468Y-15280174D01*
X10934468Y-15280174D02*
X10943992Y-15299222D01*
X10943992Y-15299222D02*
X10943992Y-15318269D01*
X10943992Y-15318269D02*
X10848753Y-15337317D01*
X11010658Y-15480174D02*
X11020182Y-15470650D01*
X11020182Y-15470650D02*
X11039230Y-15442079D01*
X11039230Y-15442079D02*
X11048753Y-15423031D01*
X11048753Y-15423031D02*
X11058277Y-15394460D01*
X11058277Y-15394460D02*
X11067801Y-15346841D01*
X11067801Y-15346841D02*
X11067801Y-15308746D01*
X11067801Y-15308746D02*
X11058277Y-15261127D01*
X11058277Y-15261127D02*
X11048753Y-15232555D01*
X11048753Y-15232555D02*
X11039230Y-15213508D01*
X11039230Y-15213508D02*
X11020182Y-15184936D01*
X11020182Y-15184936D02*
X11010658Y-15175412D01*
X11372563Y-15480174D02*
X11363039Y-15470650D01*
X11363039Y-15470650D02*
X11343991Y-15442079D01*
X11343991Y-15442079D02*
X11334468Y-15423031D01*
X11334468Y-15423031D02*
X11324944Y-15394460D01*
X11324944Y-15394460D02*
X11315420Y-15346841D01*
X11315420Y-15346841D02*
X11315420Y-15308746D01*
X11315420Y-15308746D02*
X11324944Y-15261127D01*
X11324944Y-15261127D02*
X11334468Y-15232555D01*
X11334468Y-15232555D02*
X11343991Y-15213508D01*
X11343991Y-15213508D02*
X11363039Y-15184936D01*
X11363039Y-15184936D02*
X11372563Y-15175412D01*
X11448753Y-15270650D02*
X11448753Y-15403984D01*
X11448753Y-15289698D02*
X11458277Y-15280174D01*
X11458277Y-15280174D02*
X11477325Y-15270650D01*
X11477325Y-15270650D02*
X11505896Y-15270650D01*
X11505896Y-15270650D02*
X11524944Y-15280174D01*
X11524944Y-15280174D02*
X11534468Y-15299222D01*
X11534468Y-15299222D02*
X11534468Y-15403984D01*
X11658277Y-15403984D02*
X11639230Y-15394460D01*
X11639230Y-15394460D02*
X11629706Y-15384936D01*
X11629706Y-15384936D02*
X11620182Y-15365888D01*
X11620182Y-15365888D02*
X11620182Y-15308746D01*
X11620182Y-15308746D02*
X11629706Y-15289698D01*
X11629706Y-15289698D02*
X11639230Y-15280174D01*
X11639230Y-15280174D02*
X11658277Y-15270650D01*
X11658277Y-15270650D02*
X11686849Y-15270650D01*
X11686849Y-15270650D02*
X11705896Y-15280174D01*
X11705896Y-15280174D02*
X11715420Y-15289698D01*
X11715420Y-15289698D02*
X11724944Y-15308746D01*
X11724944Y-15308746D02*
X11724944Y-15365888D01*
X11724944Y-15365888D02*
X11715420Y-15384936D01*
X11715420Y-15384936D02*
X11705896Y-15394460D01*
X11705896Y-15394460D02*
X11686849Y-15403984D01*
X11686849Y-15403984D02*
X11658277Y-15403984D01*
X11782087Y-15270650D02*
X11858277Y-15270650D01*
X11810658Y-15203984D02*
X11810658Y-15375412D01*
X11810658Y-15375412D02*
X11820182Y-15394460D01*
X11820182Y-15394460D02*
X11839230Y-15403984D01*
X11839230Y-15403984D02*
X11858277Y-15403984D01*
X12077325Y-15270650D02*
X12077325Y-15470650D01*
X12077325Y-15280174D02*
X12096372Y-15270650D01*
X12096372Y-15270650D02*
X12134468Y-15270650D01*
X12134468Y-15270650D02*
X12153515Y-15280174D01*
X12153515Y-15280174D02*
X12163039Y-15289698D01*
X12163039Y-15289698D02*
X12172563Y-15308746D01*
X12172563Y-15308746D02*
X12172563Y-15365888D01*
X12172563Y-15365888D02*
X12163039Y-15384936D01*
X12163039Y-15384936D02*
X12153515Y-15394460D01*
X12153515Y-15394460D02*
X12134468Y-15403984D01*
X12134468Y-15403984D02*
X12096372Y-15403984D01*
X12096372Y-15403984D02*
X12077325Y-15394460D01*
X12286849Y-15403984D02*
X12267801Y-15394460D01*
X12267801Y-15394460D02*
X12258277Y-15375412D01*
X12258277Y-15375412D02*
X12258277Y-15203984D01*
X12448753Y-15403984D02*
X12448753Y-15299222D01*
X12448753Y-15299222D02*
X12439230Y-15280174D01*
X12439230Y-15280174D02*
X12420182Y-15270650D01*
X12420182Y-15270650D02*
X12382087Y-15270650D01*
X12382087Y-15270650D02*
X12363039Y-15280174D01*
X12448753Y-15394460D02*
X12429706Y-15403984D01*
X12429706Y-15403984D02*
X12382087Y-15403984D01*
X12382087Y-15403984D02*
X12363039Y-15394460D01*
X12363039Y-15394460D02*
X12353515Y-15375412D01*
X12353515Y-15375412D02*
X12353515Y-15356365D01*
X12353515Y-15356365D02*
X12363039Y-15337317D01*
X12363039Y-15337317D02*
X12382087Y-15327793D01*
X12382087Y-15327793D02*
X12429706Y-15327793D01*
X12429706Y-15327793D02*
X12448753Y-15318269D01*
X12515420Y-15270650D02*
X12591611Y-15270650D01*
X12543992Y-15203984D02*
X12543992Y-15375412D01*
X12543992Y-15375412D02*
X12553515Y-15394460D01*
X12553515Y-15394460D02*
X12572563Y-15403984D01*
X12572563Y-15403984D02*
X12591611Y-15403984D01*
X12734468Y-15394460D02*
X12715420Y-15403984D01*
X12715420Y-15403984D02*
X12677325Y-15403984D01*
X12677325Y-15403984D02*
X12658277Y-15394460D01*
X12658277Y-15394460D02*
X12648753Y-15375412D01*
X12648753Y-15375412D02*
X12648753Y-15299222D01*
X12648753Y-15299222D02*
X12658277Y-15280174D01*
X12658277Y-15280174D02*
X12677325Y-15270650D01*
X12677325Y-15270650D02*
X12715420Y-15270650D01*
X12715420Y-15270650D02*
X12734468Y-15280174D01*
X12734468Y-15280174D02*
X12743992Y-15299222D01*
X12743992Y-15299222D02*
X12743992Y-15318269D01*
X12743992Y-15318269D02*
X12648753Y-15337317D01*
X12915420Y-15403984D02*
X12915420Y-15203984D01*
X12915420Y-15394460D02*
X12896373Y-15403984D01*
X12896373Y-15403984D02*
X12858277Y-15403984D01*
X12858277Y-15403984D02*
X12839230Y-15394460D01*
X12839230Y-15394460D02*
X12829706Y-15384936D01*
X12829706Y-15384936D02*
X12820182Y-15365888D01*
X12820182Y-15365888D02*
X12820182Y-15308746D01*
X12820182Y-15308746D02*
X12829706Y-15289698D01*
X12829706Y-15289698D02*
X12839230Y-15280174D01*
X12839230Y-15280174D02*
X12858277Y-15270650D01*
X12858277Y-15270650D02*
X12896373Y-15270650D01*
X12896373Y-15270650D02*
X12915420Y-15280174D01*
X12991611Y-15480174D02*
X13001134Y-15470650D01*
X13001134Y-15470650D02*
X13020182Y-15442079D01*
X13020182Y-15442079D02*
X13029706Y-15423031D01*
X13029706Y-15423031D02*
X13039230Y-15394460D01*
X13039230Y-15394460D02*
X13048753Y-15346841D01*
X13048753Y-15346841D02*
X13048753Y-15308746D01*
X13048753Y-15308746D02*
X13039230Y-15261127D01*
X13039230Y-15261127D02*
X13029706Y-15232555D01*
X13029706Y-15232555D02*
X13020182Y-15213508D01*
X13020182Y-15213508D02*
X13001134Y-15184936D01*
X13001134Y-15184936D02*
X12991611Y-15175412D01*
M02*
