%TF.GenerationSoftware,KiCad,Pcbnew,7.0.7-7.0.7~ubuntu22.04.1*%
%TF.CreationDate,2023-09-25T23:33:28+02:00*%
%TF.ProjectId,Basic-ADSR,42617369-632d-4414-9453-522e6b696361,rev?*%
%TF.SameCoordinates,Original*%
%TF.FileFunction,Drillmap*%
%TF.FilePolarity,Positive*%
%FSLAX45Y45*%
G04 Gerber Fmt 4.5, Leading zero omitted, Abs format (unit mm)*
G04 Created by KiCad (PCBNEW 7.0.7-7.0.7~ubuntu22.04.1) date 2023-09-25 23:33:28*
%MOMM*%
%LPD*%
G01*
G04 APERTURE LIST*
%ADD10C,0.050000*%
%ADD11C,0.200000*%
G04 APERTURE END LIST*
D10*
X10950000Y-15300000D02*
X8950000Y-15300000D01*
X8950000Y-2450000D02*
X8950000Y-15300000D01*
X10950000Y-2450000D02*
X10950000Y-15300000D01*
X8950000Y-2450000D02*
X10950000Y-2450000D01*
D11*
X9208277Y-15613984D02*
X9208277Y-15413984D01*
X9208277Y-15413984D02*
X9255896Y-15413984D01*
X9255896Y-15413984D02*
X9284467Y-15423508D01*
X9284467Y-15423508D02*
X9303515Y-15442555D01*
X9303515Y-15442555D02*
X9313039Y-15461603D01*
X9313039Y-15461603D02*
X9322563Y-15499698D01*
X9322563Y-15499698D02*
X9322563Y-15528269D01*
X9322563Y-15528269D02*
X9313039Y-15566365D01*
X9313039Y-15566365D02*
X9303515Y-15585412D01*
X9303515Y-15585412D02*
X9284467Y-15604460D01*
X9284467Y-15604460D02*
X9255896Y-15613984D01*
X9255896Y-15613984D02*
X9208277Y-15613984D01*
X9408277Y-15613984D02*
X9408277Y-15480650D01*
X9408277Y-15518746D02*
X9417801Y-15499698D01*
X9417801Y-15499698D02*
X9427324Y-15490174D01*
X9427324Y-15490174D02*
X9446372Y-15480650D01*
X9446372Y-15480650D02*
X9465420Y-15480650D01*
X9532086Y-15613984D02*
X9532086Y-15480650D01*
X9532086Y-15413984D02*
X9522563Y-15423508D01*
X9522563Y-15423508D02*
X9532086Y-15433031D01*
X9532086Y-15433031D02*
X9541610Y-15423508D01*
X9541610Y-15423508D02*
X9532086Y-15413984D01*
X9532086Y-15413984D02*
X9532086Y-15433031D01*
X9655896Y-15613984D02*
X9636848Y-15604460D01*
X9636848Y-15604460D02*
X9627324Y-15585412D01*
X9627324Y-15585412D02*
X9627324Y-15413984D01*
X9760658Y-15613984D02*
X9741610Y-15604460D01*
X9741610Y-15604460D02*
X9732086Y-15585412D01*
X9732086Y-15585412D02*
X9732086Y-15413984D01*
X9989229Y-15613984D02*
X9989229Y-15413984D01*
X9989229Y-15413984D02*
X10055896Y-15556841D01*
X10055896Y-15556841D02*
X10122563Y-15413984D01*
X10122563Y-15413984D02*
X10122563Y-15613984D01*
X10303515Y-15613984D02*
X10303515Y-15509222D01*
X10303515Y-15509222D02*
X10293991Y-15490174D01*
X10293991Y-15490174D02*
X10274944Y-15480650D01*
X10274944Y-15480650D02*
X10236848Y-15480650D01*
X10236848Y-15480650D02*
X10217801Y-15490174D01*
X10303515Y-15604460D02*
X10284467Y-15613984D01*
X10284467Y-15613984D02*
X10236848Y-15613984D01*
X10236848Y-15613984D02*
X10217801Y-15604460D01*
X10217801Y-15604460D02*
X10208277Y-15585412D01*
X10208277Y-15585412D02*
X10208277Y-15566365D01*
X10208277Y-15566365D02*
X10217801Y-15547317D01*
X10217801Y-15547317D02*
X10236848Y-15537793D01*
X10236848Y-15537793D02*
X10284467Y-15537793D01*
X10284467Y-15537793D02*
X10303515Y-15528269D01*
X10398753Y-15480650D02*
X10398753Y-15680650D01*
X10398753Y-15490174D02*
X10417801Y-15480650D01*
X10417801Y-15480650D02*
X10455896Y-15480650D01*
X10455896Y-15480650D02*
X10474944Y-15490174D01*
X10474944Y-15490174D02*
X10484467Y-15499698D01*
X10484467Y-15499698D02*
X10493991Y-15518746D01*
X10493991Y-15518746D02*
X10493991Y-15575888D01*
X10493991Y-15575888D02*
X10484467Y-15594936D01*
X10484467Y-15594936D02*
X10474944Y-15604460D01*
X10474944Y-15604460D02*
X10455896Y-15613984D01*
X10455896Y-15613984D02*
X10417801Y-15613984D01*
X10417801Y-15613984D02*
X10398753Y-15604460D01*
X10579705Y-15594936D02*
X10589229Y-15604460D01*
X10589229Y-15604460D02*
X10579705Y-15613984D01*
X10579705Y-15613984D02*
X10570182Y-15604460D01*
X10570182Y-15604460D02*
X10579705Y-15594936D01*
X10579705Y-15594936D02*
X10579705Y-15613984D01*
X10579705Y-15490174D02*
X10589229Y-15499698D01*
X10589229Y-15499698D02*
X10579705Y-15509222D01*
X10579705Y-15509222D02*
X10570182Y-15499698D01*
X10570182Y-15499698D02*
X10579705Y-15490174D01*
X10579705Y-15490174D02*
X10579705Y-15509222D01*
M02*
