G04 #@! TF.GenerationSoftware,KiCad,Pcbnew,7.0.7-7.0.7~ubuntu22.04.1*
G04 #@! TF.CreationDate,2023-09-25T23:33:28+02:00*
G04 #@! TF.ProjectId,Basic-ADSR,42617369-632d-4414-9453-522e6b696361,rev?*
G04 #@! TF.SameCoordinates,Original*
G04 #@! TF.FileFunction,Legend,Bot*
G04 #@! TF.FilePolarity,Positive*
%FSLAX46Y46*%
G04 Gerber Fmt 4.6, Leading zero omitted, Abs format (unit mm)*
G04 Created by KiCad (PCBNEW 7.0.7-7.0.7~ubuntu22.04.1) date 2023-09-25 23:33:28*
%MOMM*%
%LPD*%
G01*
G04 APERTURE LIST*
%ADD10C,0.150000*%
%ADD11C,0.100000*%
%ADD12O,6.700000X4.200000*%
G04 APERTURE END LIST*
D10*
X104809523Y-31626009D02*
X104666666Y-31673628D01*
X104666666Y-31673628D02*
X104619047Y-31721247D01*
X104619047Y-31721247D02*
X104571428Y-31816485D01*
X104571428Y-31816485D02*
X104571428Y-31959342D01*
X104571428Y-31959342D02*
X104619047Y-32054580D01*
X104619047Y-32054580D02*
X104666666Y-32102200D01*
X104666666Y-32102200D02*
X104761904Y-32149819D01*
X104761904Y-32149819D02*
X105142856Y-32149819D01*
X105142856Y-32149819D02*
X105142856Y-31149819D01*
X105142856Y-31149819D02*
X104809523Y-31149819D01*
X104809523Y-31149819D02*
X104714285Y-31197438D01*
X104714285Y-31197438D02*
X104666666Y-31245057D01*
X104666666Y-31245057D02*
X104619047Y-31340295D01*
X104619047Y-31340295D02*
X104619047Y-31435533D01*
X104619047Y-31435533D02*
X104666666Y-31530771D01*
X104666666Y-31530771D02*
X104714285Y-31578390D01*
X104714285Y-31578390D02*
X104809523Y-31626009D01*
X104809523Y-31626009D02*
X105142856Y-31626009D01*
X103714285Y-32149819D02*
X103714285Y-31626009D01*
X103714285Y-31626009D02*
X103761904Y-31530771D01*
X103761904Y-31530771D02*
X103857142Y-31483152D01*
X103857142Y-31483152D02*
X104047618Y-31483152D01*
X104047618Y-31483152D02*
X104142856Y-31530771D01*
X103714285Y-32102200D02*
X103809523Y-32149819D01*
X103809523Y-32149819D02*
X104047618Y-32149819D01*
X104047618Y-32149819D02*
X104142856Y-32102200D01*
X104142856Y-32102200D02*
X104190475Y-32006961D01*
X104190475Y-32006961D02*
X104190475Y-31911723D01*
X104190475Y-31911723D02*
X104142856Y-31816485D01*
X104142856Y-31816485D02*
X104047618Y-31768866D01*
X104047618Y-31768866D02*
X103809523Y-31768866D01*
X103809523Y-31768866D02*
X103714285Y-31721247D01*
X103285713Y-32102200D02*
X103190475Y-32149819D01*
X103190475Y-32149819D02*
X102999999Y-32149819D01*
X102999999Y-32149819D02*
X102904761Y-32102200D01*
X102904761Y-32102200D02*
X102857142Y-32006961D01*
X102857142Y-32006961D02*
X102857142Y-31959342D01*
X102857142Y-31959342D02*
X102904761Y-31864104D01*
X102904761Y-31864104D02*
X102999999Y-31816485D01*
X102999999Y-31816485D02*
X103142856Y-31816485D01*
X103142856Y-31816485D02*
X103238094Y-31768866D01*
X103238094Y-31768866D02*
X103285713Y-31673628D01*
X103285713Y-31673628D02*
X103285713Y-31626009D01*
X103285713Y-31626009D02*
X103238094Y-31530771D01*
X103238094Y-31530771D02*
X103142856Y-31483152D01*
X103142856Y-31483152D02*
X102999999Y-31483152D01*
X102999999Y-31483152D02*
X102904761Y-31530771D01*
X102428570Y-32149819D02*
X102428570Y-31483152D01*
X102428570Y-31149819D02*
X102476189Y-31197438D01*
X102476189Y-31197438D02*
X102428570Y-31245057D01*
X102428570Y-31245057D02*
X102380951Y-31197438D01*
X102380951Y-31197438D02*
X102428570Y-31149819D01*
X102428570Y-31149819D02*
X102428570Y-31245057D01*
X101523809Y-32102200D02*
X101619047Y-32149819D01*
X101619047Y-32149819D02*
X101809523Y-32149819D01*
X101809523Y-32149819D02*
X101904761Y-32102200D01*
X101904761Y-32102200D02*
X101952380Y-32054580D01*
X101952380Y-32054580D02*
X101999999Y-31959342D01*
X101999999Y-31959342D02*
X101999999Y-31673628D01*
X101999999Y-31673628D02*
X101952380Y-31578390D01*
X101952380Y-31578390D02*
X101904761Y-31530771D01*
X101904761Y-31530771D02*
X101809523Y-31483152D01*
X101809523Y-31483152D02*
X101619047Y-31483152D01*
X101619047Y-31483152D02*
X101523809Y-31530771D01*
X100380951Y-31864104D02*
X99904761Y-31864104D01*
X100476189Y-32149819D02*
X100142856Y-31149819D01*
X100142856Y-31149819D02*
X99809523Y-32149819D01*
X99476189Y-32149819D02*
X99476189Y-31149819D01*
X99476189Y-31149819D02*
X99238094Y-31149819D01*
X99238094Y-31149819D02*
X99095237Y-31197438D01*
X99095237Y-31197438D02*
X98999999Y-31292676D01*
X98999999Y-31292676D02*
X98952380Y-31387914D01*
X98952380Y-31387914D02*
X98904761Y-31578390D01*
X98904761Y-31578390D02*
X98904761Y-31721247D01*
X98904761Y-31721247D02*
X98952380Y-31911723D01*
X98952380Y-31911723D02*
X98999999Y-32006961D01*
X98999999Y-32006961D02*
X99095237Y-32102200D01*
X99095237Y-32102200D02*
X99238094Y-32149819D01*
X99238094Y-32149819D02*
X99476189Y-32149819D01*
X98523808Y-32102200D02*
X98380951Y-32149819D01*
X98380951Y-32149819D02*
X98142856Y-32149819D01*
X98142856Y-32149819D02*
X98047618Y-32102200D01*
X98047618Y-32102200D02*
X97999999Y-32054580D01*
X97999999Y-32054580D02*
X97952380Y-31959342D01*
X97952380Y-31959342D02*
X97952380Y-31864104D01*
X97952380Y-31864104D02*
X97999999Y-31768866D01*
X97999999Y-31768866D02*
X98047618Y-31721247D01*
X98047618Y-31721247D02*
X98142856Y-31673628D01*
X98142856Y-31673628D02*
X98333332Y-31626009D01*
X98333332Y-31626009D02*
X98428570Y-31578390D01*
X98428570Y-31578390D02*
X98476189Y-31530771D01*
X98476189Y-31530771D02*
X98523808Y-31435533D01*
X98523808Y-31435533D02*
X98523808Y-31340295D01*
X98523808Y-31340295D02*
X98476189Y-31245057D01*
X98476189Y-31245057D02*
X98428570Y-31197438D01*
X98428570Y-31197438D02*
X98333332Y-31149819D01*
X98333332Y-31149819D02*
X98095237Y-31149819D01*
X98095237Y-31149819D02*
X97952380Y-31197438D01*
X96952380Y-32149819D02*
X97285713Y-31673628D01*
X97523808Y-32149819D02*
X97523808Y-31149819D01*
X97523808Y-31149819D02*
X97142856Y-31149819D01*
X97142856Y-31149819D02*
X97047618Y-31197438D01*
X97047618Y-31197438D02*
X96999999Y-31245057D01*
X96999999Y-31245057D02*
X96952380Y-31340295D01*
X96952380Y-31340295D02*
X96952380Y-31483152D01*
X96952380Y-31483152D02*
X96999999Y-31578390D01*
X96999999Y-31578390D02*
X97047618Y-31626009D01*
X97047618Y-31626009D02*
X97142856Y-31673628D01*
X97142856Y-31673628D02*
X97523808Y-31673628D01*
X95238094Y-32149819D02*
X95809522Y-32149819D01*
X95523808Y-32149819D02*
X95523808Y-31149819D01*
X95523808Y-31149819D02*
X95619046Y-31292676D01*
X95619046Y-31292676D02*
X95714284Y-31387914D01*
X95714284Y-31387914D02*
X95809522Y-31435533D01*
X94809522Y-32054580D02*
X94761903Y-32102200D01*
X94761903Y-32102200D02*
X94809522Y-32149819D01*
X94809522Y-32149819D02*
X94857141Y-32102200D01*
X94857141Y-32102200D02*
X94809522Y-32054580D01*
X94809522Y-32054580D02*
X94809522Y-32149819D01*
X94142856Y-31149819D02*
X94047618Y-31149819D01*
X94047618Y-31149819D02*
X93952380Y-31197438D01*
X93952380Y-31197438D02*
X93904761Y-31245057D01*
X93904761Y-31245057D02*
X93857142Y-31340295D01*
X93857142Y-31340295D02*
X93809523Y-31530771D01*
X93809523Y-31530771D02*
X93809523Y-31768866D01*
X93809523Y-31768866D02*
X93857142Y-31959342D01*
X93857142Y-31959342D02*
X93904761Y-32054580D01*
X93904761Y-32054580D02*
X93952380Y-32102200D01*
X93952380Y-32102200D02*
X94047618Y-32149819D01*
X94047618Y-32149819D02*
X94142856Y-32149819D01*
X94142856Y-32149819D02*
X94238094Y-32102200D01*
X94238094Y-32102200D02*
X94285713Y-32054580D01*
X94285713Y-32054580D02*
X94333332Y-31959342D01*
X94333332Y-31959342D02*
X94380951Y-31768866D01*
X94380951Y-31768866D02*
X94380951Y-31530771D01*
X94380951Y-31530771D02*
X94333332Y-31340295D01*
X94333332Y-31340295D02*
X94285713Y-31245057D01*
X94285713Y-31245057D02*
X94238094Y-31197438D01*
X94238094Y-31197438D02*
X94142856Y-31149819D01*
X105952381Y-33236009D02*
X105809524Y-33283628D01*
X105809524Y-33283628D02*
X105761905Y-33331247D01*
X105761905Y-33331247D02*
X105714286Y-33426485D01*
X105714286Y-33426485D02*
X105714286Y-33569342D01*
X105714286Y-33569342D02*
X105761905Y-33664580D01*
X105761905Y-33664580D02*
X105809524Y-33712200D01*
X105809524Y-33712200D02*
X105904762Y-33759819D01*
X105904762Y-33759819D02*
X106285714Y-33759819D01*
X106285714Y-33759819D02*
X106285714Y-32759819D01*
X106285714Y-32759819D02*
X105952381Y-32759819D01*
X105952381Y-32759819D02*
X105857143Y-32807438D01*
X105857143Y-32807438D02*
X105809524Y-32855057D01*
X105809524Y-32855057D02*
X105761905Y-32950295D01*
X105761905Y-32950295D02*
X105761905Y-33045533D01*
X105761905Y-33045533D02*
X105809524Y-33140771D01*
X105809524Y-33140771D02*
X105857143Y-33188390D01*
X105857143Y-33188390D02*
X105952381Y-33236009D01*
X105952381Y-33236009D02*
X106285714Y-33236009D01*
X105142857Y-33759819D02*
X105238095Y-33712200D01*
X105238095Y-33712200D02*
X105285714Y-33616961D01*
X105285714Y-33616961D02*
X105285714Y-32759819D01*
X104380952Y-33712200D02*
X104476190Y-33759819D01*
X104476190Y-33759819D02*
X104666666Y-33759819D01*
X104666666Y-33759819D02*
X104761904Y-33712200D01*
X104761904Y-33712200D02*
X104809523Y-33616961D01*
X104809523Y-33616961D02*
X104809523Y-33236009D01*
X104809523Y-33236009D02*
X104761904Y-33140771D01*
X104761904Y-33140771D02*
X104666666Y-33093152D01*
X104666666Y-33093152D02*
X104476190Y-33093152D01*
X104476190Y-33093152D02*
X104380952Y-33140771D01*
X104380952Y-33140771D02*
X104333333Y-33236009D01*
X104333333Y-33236009D02*
X104333333Y-33331247D01*
X104333333Y-33331247D02*
X104809523Y-33426485D01*
X103523809Y-33712200D02*
X103619047Y-33759819D01*
X103619047Y-33759819D02*
X103809523Y-33759819D01*
X103809523Y-33759819D02*
X103904761Y-33712200D01*
X103904761Y-33712200D02*
X103952380Y-33616961D01*
X103952380Y-33616961D02*
X103952380Y-33236009D01*
X103952380Y-33236009D02*
X103904761Y-33140771D01*
X103904761Y-33140771D02*
X103809523Y-33093152D01*
X103809523Y-33093152D02*
X103619047Y-33093152D01*
X103619047Y-33093152D02*
X103523809Y-33140771D01*
X103523809Y-33140771D02*
X103476190Y-33236009D01*
X103476190Y-33236009D02*
X103476190Y-33331247D01*
X103476190Y-33331247D02*
X103952380Y-33426485D01*
X103047618Y-33093152D02*
X103047618Y-34093152D01*
X103047618Y-33140771D02*
X102952380Y-33093152D01*
X102952380Y-33093152D02*
X102761904Y-33093152D01*
X102761904Y-33093152D02*
X102666666Y-33140771D01*
X102666666Y-33140771D02*
X102619047Y-33188390D01*
X102619047Y-33188390D02*
X102571428Y-33283628D01*
X102571428Y-33283628D02*
X102571428Y-33569342D01*
X102571428Y-33569342D02*
X102619047Y-33664580D01*
X102619047Y-33664580D02*
X102666666Y-33712200D01*
X102666666Y-33712200D02*
X102761904Y-33759819D01*
X102761904Y-33759819D02*
X102952380Y-33759819D01*
X102952380Y-33759819D02*
X103047618Y-33712200D01*
X101428570Y-33712200D02*
X101285713Y-33759819D01*
X101285713Y-33759819D02*
X101047618Y-33759819D01*
X101047618Y-33759819D02*
X100952380Y-33712200D01*
X100952380Y-33712200D02*
X100904761Y-33664580D01*
X100904761Y-33664580D02*
X100857142Y-33569342D01*
X100857142Y-33569342D02*
X100857142Y-33474104D01*
X100857142Y-33474104D02*
X100904761Y-33378866D01*
X100904761Y-33378866D02*
X100952380Y-33331247D01*
X100952380Y-33331247D02*
X101047618Y-33283628D01*
X101047618Y-33283628D02*
X101238094Y-33236009D01*
X101238094Y-33236009D02*
X101333332Y-33188390D01*
X101333332Y-33188390D02*
X101380951Y-33140771D01*
X101380951Y-33140771D02*
X101428570Y-33045533D01*
X101428570Y-33045533D02*
X101428570Y-32950295D01*
X101428570Y-32950295D02*
X101380951Y-32855057D01*
X101380951Y-32855057D02*
X101333332Y-32807438D01*
X101333332Y-32807438D02*
X101238094Y-32759819D01*
X101238094Y-32759819D02*
X100999999Y-32759819D01*
X100999999Y-32759819D02*
X100857142Y-32807438D01*
X100285713Y-33759819D02*
X100380951Y-33712200D01*
X100380951Y-33712200D02*
X100428570Y-33664580D01*
X100428570Y-33664580D02*
X100476189Y-33569342D01*
X100476189Y-33569342D02*
X100476189Y-33283628D01*
X100476189Y-33283628D02*
X100428570Y-33188390D01*
X100428570Y-33188390D02*
X100380951Y-33140771D01*
X100380951Y-33140771D02*
X100285713Y-33093152D01*
X100285713Y-33093152D02*
X100142856Y-33093152D01*
X100142856Y-33093152D02*
X100047618Y-33140771D01*
X100047618Y-33140771D02*
X99999999Y-33188390D01*
X99999999Y-33188390D02*
X99952380Y-33283628D01*
X99952380Y-33283628D02*
X99952380Y-33569342D01*
X99952380Y-33569342D02*
X99999999Y-33664580D01*
X99999999Y-33664580D02*
X100047618Y-33712200D01*
X100047618Y-33712200D02*
X100142856Y-33759819D01*
X100142856Y-33759819D02*
X100285713Y-33759819D01*
X99095237Y-33093152D02*
X99095237Y-33759819D01*
X99523808Y-33093152D02*
X99523808Y-33616961D01*
X99523808Y-33616961D02*
X99476189Y-33712200D01*
X99476189Y-33712200D02*
X99380951Y-33759819D01*
X99380951Y-33759819D02*
X99238094Y-33759819D01*
X99238094Y-33759819D02*
X99142856Y-33712200D01*
X99142856Y-33712200D02*
X99095237Y-33664580D01*
X98619046Y-33093152D02*
X98619046Y-33759819D01*
X98619046Y-33188390D02*
X98571427Y-33140771D01*
X98571427Y-33140771D02*
X98476189Y-33093152D01*
X98476189Y-33093152D02*
X98333332Y-33093152D01*
X98333332Y-33093152D02*
X98238094Y-33140771D01*
X98238094Y-33140771D02*
X98190475Y-33236009D01*
X98190475Y-33236009D02*
X98190475Y-33759819D01*
X97285713Y-33759819D02*
X97285713Y-32759819D01*
X97285713Y-33712200D02*
X97380951Y-33759819D01*
X97380951Y-33759819D02*
X97571427Y-33759819D01*
X97571427Y-33759819D02*
X97666665Y-33712200D01*
X97666665Y-33712200D02*
X97714284Y-33664580D01*
X97714284Y-33664580D02*
X97761903Y-33569342D01*
X97761903Y-33569342D02*
X97761903Y-33283628D01*
X97761903Y-33283628D02*
X97714284Y-33188390D01*
X97714284Y-33188390D02*
X97666665Y-33140771D01*
X97666665Y-33140771D02*
X97571427Y-33093152D01*
X97571427Y-33093152D02*
X97380951Y-33093152D01*
X97380951Y-33093152D02*
X97285713Y-33140771D01*
X96095236Y-32855057D02*
X96047617Y-32807438D01*
X96047617Y-32807438D02*
X95952379Y-32759819D01*
X95952379Y-32759819D02*
X95714284Y-32759819D01*
X95714284Y-32759819D02*
X95619046Y-32807438D01*
X95619046Y-32807438D02*
X95571427Y-32855057D01*
X95571427Y-32855057D02*
X95523808Y-32950295D01*
X95523808Y-32950295D02*
X95523808Y-33045533D01*
X95523808Y-33045533D02*
X95571427Y-33188390D01*
X95571427Y-33188390D02*
X96142855Y-33759819D01*
X96142855Y-33759819D02*
X95523808Y-33759819D01*
X94904760Y-32759819D02*
X94809522Y-32759819D01*
X94809522Y-32759819D02*
X94714284Y-32807438D01*
X94714284Y-32807438D02*
X94666665Y-32855057D01*
X94666665Y-32855057D02*
X94619046Y-32950295D01*
X94619046Y-32950295D02*
X94571427Y-33140771D01*
X94571427Y-33140771D02*
X94571427Y-33378866D01*
X94571427Y-33378866D02*
X94619046Y-33569342D01*
X94619046Y-33569342D02*
X94666665Y-33664580D01*
X94666665Y-33664580D02*
X94714284Y-33712200D01*
X94714284Y-33712200D02*
X94809522Y-33759819D01*
X94809522Y-33759819D02*
X94904760Y-33759819D01*
X94904760Y-33759819D02*
X94999998Y-33712200D01*
X94999998Y-33712200D02*
X95047617Y-33664580D01*
X95047617Y-33664580D02*
X95095236Y-33569342D01*
X95095236Y-33569342D02*
X95142855Y-33378866D01*
X95142855Y-33378866D02*
X95142855Y-33140771D01*
X95142855Y-33140771D02*
X95095236Y-32950295D01*
X95095236Y-32950295D02*
X95047617Y-32855057D01*
X95047617Y-32855057D02*
X94999998Y-32807438D01*
X94999998Y-32807438D02*
X94904760Y-32759819D01*
X94190474Y-32855057D02*
X94142855Y-32807438D01*
X94142855Y-32807438D02*
X94047617Y-32759819D01*
X94047617Y-32759819D02*
X93809522Y-32759819D01*
X93809522Y-32759819D02*
X93714284Y-32807438D01*
X93714284Y-32807438D02*
X93666665Y-32855057D01*
X93666665Y-32855057D02*
X93619046Y-32950295D01*
X93619046Y-32950295D02*
X93619046Y-33045533D01*
X93619046Y-33045533D02*
X93666665Y-33188390D01*
X93666665Y-33188390D02*
X94238093Y-33759819D01*
X94238093Y-33759819D02*
X93619046Y-33759819D01*
X93285712Y-32759819D02*
X92666665Y-32759819D01*
X92666665Y-32759819D02*
X92999998Y-33140771D01*
X92999998Y-33140771D02*
X92857141Y-33140771D01*
X92857141Y-33140771D02*
X92761903Y-33188390D01*
X92761903Y-33188390D02*
X92714284Y-33236009D01*
X92714284Y-33236009D02*
X92666665Y-33331247D01*
X92666665Y-33331247D02*
X92666665Y-33569342D01*
X92666665Y-33569342D02*
X92714284Y-33664580D01*
X92714284Y-33664580D02*
X92761903Y-33712200D01*
X92761903Y-33712200D02*
X92857141Y-33759819D01*
X92857141Y-33759819D02*
X93142855Y-33759819D01*
X93142855Y-33759819D02*
X93238093Y-33712200D01*
X93238093Y-33712200D02*
X93285712Y-33664580D01*
X91545180Y-80619048D02*
X90830895Y-80619048D01*
X90830895Y-80619048D02*
X90688038Y-80666667D01*
X90688038Y-80666667D02*
X90592800Y-80761905D01*
X90592800Y-80761905D02*
X90545180Y-80904762D01*
X90545180Y-80904762D02*
X90545180Y-81000000D01*
X90545180Y-79666667D02*
X90545180Y-80142857D01*
X90545180Y-80142857D02*
X91545180Y-80142857D01*
X90640419Y-78761905D02*
X90592800Y-78809524D01*
X90592800Y-78809524D02*
X90545180Y-78952381D01*
X90545180Y-78952381D02*
X90545180Y-79047619D01*
X90545180Y-79047619D02*
X90592800Y-79190476D01*
X90592800Y-79190476D02*
X90688038Y-79285714D01*
X90688038Y-79285714D02*
X90783276Y-79333333D01*
X90783276Y-79333333D02*
X90973752Y-79380952D01*
X90973752Y-79380952D02*
X91116609Y-79380952D01*
X91116609Y-79380952D02*
X91307085Y-79333333D01*
X91307085Y-79333333D02*
X91402323Y-79285714D01*
X91402323Y-79285714D02*
X91497561Y-79190476D01*
X91497561Y-79190476D02*
X91545180Y-79047619D01*
X91545180Y-79047619D02*
X91545180Y-78952381D01*
X91545180Y-78952381D02*
X91497561Y-78809524D01*
X91497561Y-78809524D02*
X91449942Y-78761905D01*
X91545180Y-78047619D02*
X90830895Y-78047619D01*
X90830895Y-78047619D02*
X90688038Y-78095238D01*
X90688038Y-78095238D02*
X90592800Y-78190476D01*
X90592800Y-78190476D02*
X90545180Y-78333333D01*
X90545180Y-78333333D02*
X90545180Y-78428571D01*
X90545180Y-77095238D02*
X90545180Y-77571428D01*
X90545180Y-77571428D02*
X91545180Y-77571428D01*
X90640419Y-76190476D02*
X90592800Y-76238095D01*
X90592800Y-76238095D02*
X90545180Y-76380952D01*
X90545180Y-76380952D02*
X90545180Y-76476190D01*
X90545180Y-76476190D02*
X90592800Y-76619047D01*
X90592800Y-76619047D02*
X90688038Y-76714285D01*
X90688038Y-76714285D02*
X90783276Y-76761904D01*
X90783276Y-76761904D02*
X90973752Y-76809523D01*
X90973752Y-76809523D02*
X91116609Y-76809523D01*
X91116609Y-76809523D02*
X91307085Y-76761904D01*
X91307085Y-76761904D02*
X91402323Y-76714285D01*
X91402323Y-76714285D02*
X91497561Y-76619047D01*
X91497561Y-76619047D02*
X91545180Y-76476190D01*
X91545180Y-76476190D02*
X91545180Y-76380952D01*
X91545180Y-76380952D02*
X91497561Y-76238095D01*
X91497561Y-76238095D02*
X91449942Y-76190476D01*
X91545180Y-75476190D02*
X90830895Y-75476190D01*
X90830895Y-75476190D02*
X90688038Y-75523809D01*
X90688038Y-75523809D02*
X90592800Y-75619047D01*
X90592800Y-75619047D02*
X90545180Y-75761904D01*
X90545180Y-75761904D02*
X90545180Y-75857142D01*
X90545180Y-74523809D02*
X90545180Y-74999999D01*
X90545180Y-74999999D02*
X91545180Y-74999999D01*
X90640419Y-73619047D02*
X90592800Y-73666666D01*
X90592800Y-73666666D02*
X90545180Y-73809523D01*
X90545180Y-73809523D02*
X90545180Y-73904761D01*
X90545180Y-73904761D02*
X90592800Y-74047618D01*
X90592800Y-74047618D02*
X90688038Y-74142856D01*
X90688038Y-74142856D02*
X90783276Y-74190475D01*
X90783276Y-74190475D02*
X90973752Y-74238094D01*
X90973752Y-74238094D02*
X91116609Y-74238094D01*
X91116609Y-74238094D02*
X91307085Y-74190475D01*
X91307085Y-74190475D02*
X91402323Y-74142856D01*
X91402323Y-74142856D02*
X91497561Y-74047618D01*
X91497561Y-74047618D02*
X91545180Y-73904761D01*
X91545180Y-73904761D02*
X91545180Y-73809523D01*
X91545180Y-73809523D02*
X91497561Y-73666666D01*
X91497561Y-73666666D02*
X91449942Y-73619047D01*
X91545180Y-72904761D02*
X90830895Y-72904761D01*
X90830895Y-72904761D02*
X90688038Y-72952380D01*
X90688038Y-72952380D02*
X90592800Y-73047618D01*
X90592800Y-73047618D02*
X90545180Y-73190475D01*
X90545180Y-73190475D02*
X90545180Y-73285713D01*
X90545180Y-71952380D02*
X90545180Y-72428570D01*
X90545180Y-72428570D02*
X91545180Y-72428570D01*
X90640419Y-71047618D02*
X90592800Y-71095237D01*
X90592800Y-71095237D02*
X90545180Y-71238094D01*
X90545180Y-71238094D02*
X90545180Y-71333332D01*
X90545180Y-71333332D02*
X90592800Y-71476189D01*
X90592800Y-71476189D02*
X90688038Y-71571427D01*
X90688038Y-71571427D02*
X90783276Y-71619046D01*
X90783276Y-71619046D02*
X90973752Y-71666665D01*
X90973752Y-71666665D02*
X91116609Y-71666665D01*
X91116609Y-71666665D02*
X91307085Y-71619046D01*
X91307085Y-71619046D02*
X91402323Y-71571427D01*
X91402323Y-71571427D02*
X91497561Y-71476189D01*
X91497561Y-71476189D02*
X91545180Y-71333332D01*
X91545180Y-71333332D02*
X91545180Y-71238094D01*
X91545180Y-71238094D02*
X91497561Y-71095237D01*
X91497561Y-71095237D02*
X91449942Y-71047618D01*
%LPC*%
D11*
X97000000Y-143250000D02*
X92000000Y-143250000D01*
X92000000Y-138250000D01*
X97000000Y-138250000D01*
X97000000Y-143250000D01*
G36*
X97000000Y-143250000D02*
G01*
X92000000Y-143250000D01*
X92000000Y-138250000D01*
X97000000Y-138250000D01*
X97000000Y-143250000D01*
G37*
D12*
X104500000Y-27500000D03*
X94500000Y-150000000D03*
%LPD*%
M02*
