G04 #@! TF.GenerationSoftware,KiCad,Pcbnew,7.0.7-7.0.7~ubuntu22.04.1*
G04 #@! TF.CreationDate,2023-09-25T23:33:28+02:00*
G04 #@! TF.ProjectId,Basic-ADSR,42617369-632d-4414-9453-522e6b696361,rev?*
G04 #@! TF.SameCoordinates,Original*
G04 #@! TF.FileFunction,Legend,Top*
G04 #@! TF.FilePolarity,Positive*
%FSLAX46Y46*%
G04 Gerber Fmt 4.6, Leading zero omitted, Abs format (unit mm)*
G04 Created by KiCad (PCBNEW 7.0.7-7.0.7~ubuntu22.04.1) date 2023-09-25 23:33:28*
%MOMM*%
%LPD*%
G01*
G04 APERTURE LIST*
%ADD10C,0.120000*%
%ADD11C,0.150000*%
%ADD12C,0.400000*%
%ADD13C,0.100000*%
%ADD14O,6.700000X4.200000*%
G04 APERTURE END LIST*
D10*
X92700000Y-133200000D02*
X92500000Y-133100000D01*
X90900000Y-26800000D02*
X91900000Y-26400000D01*
X102600000Y-148500000D02*
X102600000Y-149900000D01*
X94100000Y-26100000D02*
X93900000Y-26200000D01*
X102600000Y-148500000D02*
X102400000Y-148700000D01*
D11*
X93250000Y-111250000D02*
X94900000Y-111250000D01*
X95500000Y-111250000D02*
X97150000Y-111250000D01*
X97750000Y-111250000D02*
X99400000Y-111250000D01*
X100000000Y-111250000D02*
X101650000Y-111250000D01*
X102250000Y-111250000D02*
X103900000Y-111250000D01*
X104500000Y-111250000D02*
X105750000Y-111250000D01*
D10*
X90500000Y-46200000D02*
X89800000Y-47800000D01*
X102600000Y-148500000D02*
X102800000Y-148700000D01*
X94050000Y-27125000D02*
X94500000Y-27800000D01*
X101000000Y-149900000D02*
X102000000Y-149300000D01*
D11*
X93750000Y-106750000D02*
X93750000Y-108400000D01*
X93750000Y-109000000D02*
X93750000Y-110650000D01*
X93750000Y-111250000D02*
X93750000Y-112500000D01*
D10*
X97300000Y-29300000D02*
X97100000Y-29800000D01*
X90500000Y-46200000D02*
X90500000Y-47800000D01*
D12*
X91500000Y-143250000D02*
G75*
G03*
X92000000Y-143750000I500000J0D01*
G01*
D10*
X94850000Y-119300000D02*
X94350000Y-120900000D01*
D12*
X97000000Y-143750000D02*
X92000000Y-143750000D01*
D10*
X93400000Y-28200000D02*
X93400000Y-29800000D01*
D11*
X102284856Y-104000000D02*
X102284856Y-104000000D01*
X102284856Y-104600000D02*
X102284856Y-104600000D01*
X102284856Y-105200000D02*
X102284856Y-105200000D01*
X102284856Y-105800000D02*
X102284856Y-105800000D01*
X102284856Y-106400000D02*
X102284856Y-106400000D01*
X102284856Y-107000000D02*
X102284856Y-107000000D01*
X102284856Y-107600000D02*
X102284856Y-107600000D01*
X102284856Y-108200000D02*
X102284856Y-108200000D01*
X102284856Y-108800000D02*
X102284856Y-108800000D01*
X102284856Y-109400000D02*
X102284856Y-109400000D01*
X102284856Y-110000000D02*
X102284856Y-110000000D01*
X102284856Y-110600000D02*
X102284856Y-110600000D01*
X102284856Y-111200000D02*
X102284856Y-111200000D01*
X102284856Y-111800000D02*
X102284856Y-111800000D01*
X102284856Y-112400000D02*
X102284856Y-112400000D01*
X102284856Y-113000000D02*
X102284856Y-113000000D01*
X102284856Y-113600000D02*
X102284856Y-113600000D01*
X102284856Y-114200000D02*
X102284856Y-114200000D01*
X102284856Y-114800000D02*
X102284856Y-114800000D01*
X102284856Y-115400000D02*
X102284856Y-115400000D01*
D10*
X105000000Y-149900000D02*
X104800000Y-150100000D01*
X92500000Y-27800000D02*
X92700000Y-27800000D01*
D11*
X99500000Y-50000000D02*
X97500000Y-48500000D01*
X101500000Y-48500000D01*
X99500000Y-50000000D01*
G36*
X99500000Y-50000000D02*
G01*
X97500000Y-48500000D01*
X101500000Y-48500000D01*
X99500000Y-50000000D01*
G37*
D10*
X91900000Y-26400000D02*
X91300000Y-26100000D01*
X105600000Y-148700000D02*
X105600000Y-149900000D01*
X104500000Y-150400000D02*
X104300000Y-150400000D01*
D11*
X107100000Y-94000000D02*
G75*
G03*
X107100000Y-94000000I-7600000J0D01*
G01*
D10*
X103100000Y-142150000D02*
X104000000Y-142150000D01*
X96000000Y-29200000D02*
X95200000Y-29800000D01*
X93050000Y-134100000D02*
X93600000Y-134100000D01*
X105600000Y-149300000D02*
X105800000Y-149300000D01*
X105700000Y-150400000D02*
X105500000Y-151600000D01*
X94350000Y-120900000D02*
X94250000Y-120900000D01*
X90200000Y-64100000D02*
X89800000Y-65700000D01*
X105600000Y-148700000D02*
X106400000Y-148700000D01*
X90500000Y-47000000D02*
X90200000Y-47000000D01*
X106700000Y-150400000D02*
X107100000Y-151200000D01*
X104900000Y-129100000D02*
X105700000Y-127400000D01*
X95800000Y-134300000D02*
X95600000Y-134800000D01*
X93400000Y-28200000D02*
X92700000Y-29800000D01*
X95900000Y-133700000D02*
X95200000Y-133800000D01*
D11*
X107100000Y-76000000D02*
G75*
G03*
X107100000Y-76000000I-7600000J0D01*
G01*
D10*
X107000000Y-148100000D02*
X108400000Y-148500000D01*
X96250000Y-119200000D02*
X95450000Y-120100000D01*
X92200000Y-27000000D02*
X91900000Y-27000000D01*
D11*
X99500000Y-68000000D02*
X97500000Y-66500000D01*
X101500000Y-66500000D01*
X99500000Y-68000000D01*
G36*
X99500000Y-68000000D02*
G01*
X97500000Y-66500000D01*
X101500000Y-66500000D01*
X99500000Y-68000000D01*
G37*
D10*
X105200000Y-142150000D02*
X105900000Y-142150000D01*
X104100000Y-129100000D02*
X104000000Y-129100000D01*
X104200000Y-127400000D02*
X104300000Y-127600000D01*
X105700000Y-150400000D02*
X104900000Y-151600000D01*
X90800000Y-82100000D02*
X90600000Y-82000000D01*
X90800000Y-82100000D02*
X90800000Y-82300000D01*
X94900000Y-26175000D02*
X95000000Y-26275000D01*
X92700000Y-133200000D02*
X91700000Y-133800000D01*
X93650000Y-119300000D02*
X94450000Y-119300000D01*
X94087500Y-134800000D02*
X94312500Y-133200000D01*
X94900000Y-29200000D02*
X94200000Y-28200000D01*
X93300000Y-27800000D02*
X94100000Y-26100000D01*
D11*
X98534856Y-103500000D02*
X98534856Y-103500000D01*
X98534856Y-104100000D02*
X98534856Y-104100000D01*
X98534856Y-104700000D02*
X98534856Y-104700000D01*
X98534856Y-105300000D02*
X98534856Y-105300000D01*
X98534856Y-105900000D02*
X98534856Y-105900000D01*
X98534856Y-106500000D02*
X98534856Y-106500000D01*
X98534856Y-107100000D02*
X98534856Y-107100000D01*
X98534856Y-107700000D02*
X98534856Y-107700000D01*
X98534856Y-108300000D02*
X98534856Y-108300000D01*
X98534856Y-108900000D02*
X98534856Y-108900000D01*
X98534856Y-109500000D02*
X98534856Y-109500000D01*
X98534856Y-110100000D02*
X98534856Y-110100000D01*
X98534856Y-110700000D02*
X98534856Y-110700000D01*
X98534856Y-111300000D02*
X98534856Y-111300000D01*
X98534856Y-111900000D02*
X98534856Y-111900000D01*
X98534856Y-112500000D02*
X98534856Y-112500000D01*
X98534856Y-113100000D02*
X98534856Y-113100000D01*
X98534856Y-113700000D02*
X98534856Y-113700000D01*
X98534856Y-114300000D02*
X98534856Y-114300000D01*
X98534856Y-114900000D02*
X98534856Y-114900000D01*
X98534856Y-115500000D02*
X98534856Y-115500000D01*
X98534856Y-116100000D02*
X98534856Y-116100000D01*
D10*
X92200000Y-26200000D02*
X92200000Y-27800000D01*
X105000000Y-149900000D02*
X104800000Y-149700000D01*
X93300000Y-27200000D02*
X92500000Y-27800000D01*
X93500000Y-133200000D02*
X92700000Y-134800000D01*
X106300000Y-150400000D02*
X106100000Y-150400000D01*
D12*
X92000000Y-137750000D02*
G75*
G03*
X91500000Y-138250000I0J-500000D01*
G01*
D10*
X97000000Y-28100000D02*
X96200000Y-29800000D01*
X104200000Y-127400000D02*
X104000000Y-127500000D01*
X102900000Y-150400000D02*
X101900000Y-150600000D01*
X104200000Y-147700000D02*
G75*
G03*
X103800000Y-148100000I0J-400000D01*
G01*
X108400000Y-148500000D02*
X107000000Y-148900000D01*
D11*
X95850483Y-106994708D02*
G75*
G03*
X93750002Y-111250000I2753617J-4005292D01*
G01*
D10*
X103400000Y-129100000D02*
X104200000Y-127400000D01*
X90900000Y-101200000D02*
X90700000Y-101700000D01*
D11*
X95854111Y-107000008D02*
G75*
G03*
X98534856Y-108979389I4269189J2976908D01*
G01*
D10*
X95500000Y-133200000D02*
X95900000Y-133700000D01*
X94200000Y-28200000D02*
X93800000Y-29800000D01*
X92950000Y-119300000D02*
X92850000Y-119300000D01*
X94100000Y-133200000D02*
X94000000Y-133200000D01*
X96100000Y-28200000D02*
X96100000Y-28400000D01*
X94450000Y-119300000D02*
X93425000Y-120900000D01*
X95200000Y-133800000D02*
X95800000Y-134300000D01*
X91800000Y-134800000D02*
X91800000Y-134600000D01*
X96200000Y-120400000D02*
X96300000Y-120500000D01*
X97000000Y-28100000D02*
X97400000Y-28700000D01*
X90900000Y-65100000D02*
X90200000Y-64100000D01*
X102900000Y-150400000D02*
X102900000Y-150600000D01*
X90300000Y-100700000D02*
X90900000Y-101200000D01*
X90300000Y-27800000D02*
X91500000Y-27200000D01*
X91700000Y-133800000D02*
X92600000Y-134200000D01*
X93400000Y-26100000D02*
X92400000Y-26700000D01*
X107000000Y-149900000D02*
X107200000Y-149700000D01*
X94312500Y-133200000D02*
X95112500Y-133200000D01*
X103800000Y-149900000D02*
X105000000Y-149900000D01*
X94850000Y-119300000D02*
X94850000Y-120900000D01*
X94100000Y-133200000D02*
X93300000Y-134800000D01*
X91000000Y-100600000D02*
X90300000Y-100700000D01*
X95200000Y-29800000D02*
X95200000Y-29600000D01*
X95950000Y-120900000D02*
X96300000Y-120500000D01*
X92400000Y-26700000D02*
X93300000Y-27200000D01*
X106700000Y-150400000D02*
X106100000Y-151600000D01*
X107000000Y-148100000D02*
X107000000Y-149900000D01*
X102700000Y-151200000D02*
X101900000Y-151600000D01*
X96250000Y-119200000D02*
X96350000Y-119300000D01*
X103800000Y-148700000D02*
X104200000Y-148700000D01*
X104100000Y-150400000D02*
X103300000Y-150400000D01*
X95200000Y-29800000D02*
X95400000Y-29800000D01*
X92700000Y-133200000D02*
X92700000Y-133400000D01*
X92200000Y-26200000D02*
X91500000Y-27800000D01*
X93500000Y-133200000D02*
X93400000Y-133200000D01*
X90600000Y-100000000D02*
X89800000Y-101700000D01*
X93300000Y-134800000D02*
X93200000Y-134800000D01*
D11*
X105500000Y-107750000D02*
X105500000Y-107750000D01*
X105500000Y-108350000D02*
X105500000Y-108350000D01*
X105500000Y-108950000D02*
X105500000Y-108950000D01*
X105500000Y-109550000D02*
X105500000Y-109550000D01*
X105500000Y-110150000D02*
X105500000Y-110150000D01*
X105500000Y-110750000D02*
X105500000Y-110750000D01*
X105500000Y-111350000D02*
X105500000Y-111350000D01*
X105500000Y-111950000D02*
X105500000Y-111950000D01*
D10*
X95350000Y-119300000D02*
X94850000Y-120900000D01*
X104000000Y-143850000D02*
X105000000Y-142150000D01*
X94100000Y-26100000D02*
X94200000Y-26300000D01*
D11*
X99500000Y-86000000D02*
X97500000Y-84500000D01*
X101500000Y-84500000D01*
X99500000Y-86000000D01*
G36*
X99500000Y-86000000D02*
G01*
X97500000Y-84500000D01*
X101500000Y-84500000D01*
X99500000Y-86000000D01*
G37*
D10*
X106100000Y-151600000D02*
X107100000Y-151200000D01*
X106800000Y-149700000D02*
X107000000Y-149900000D01*
X89900000Y-83700000D02*
X89900000Y-83500000D01*
X95500000Y-133200000D02*
X94700000Y-134800000D01*
D11*
X95854122Y-104500000D02*
X95854122Y-104500000D01*
X95854122Y-105100000D02*
X95854122Y-105100000D01*
X95854122Y-105700000D02*
X95854122Y-105700000D01*
X95854122Y-106300000D02*
X95854122Y-106300000D01*
X95854122Y-106900000D02*
X95854122Y-106900000D01*
X95854122Y-107500000D02*
X95854122Y-107500000D01*
X95854122Y-108100000D02*
X95854122Y-108100000D01*
X95854122Y-108700000D02*
X95854122Y-108700000D01*
X95854122Y-109300000D02*
X95854122Y-109300000D01*
X95854122Y-109900000D02*
X95854122Y-109900000D01*
X95854122Y-110500000D02*
X95854122Y-110500000D01*
X95854122Y-111100000D02*
X95854122Y-111100000D01*
X95854122Y-111700000D02*
X95854122Y-111700000D01*
X95854122Y-112300000D02*
X95854122Y-112300000D01*
X95854122Y-112900000D02*
X95854122Y-112900000D01*
X95854122Y-113500000D02*
X95854122Y-113500000D01*
X95854122Y-114100000D02*
X95854122Y-114100000D01*
X95854122Y-114700000D02*
X95854122Y-114700000D01*
D10*
X103300000Y-150400000D02*
X103300000Y-151600000D01*
X96400000Y-133200000D02*
X97300000Y-133200000D01*
D11*
X107100000Y-40100000D02*
G75*
G03*
X107100000Y-40100000I-7600000J0D01*
G01*
D10*
X105300000Y-150400000D02*
X105100000Y-150400000D01*
X103800000Y-148100000D02*
X103800000Y-149900000D01*
D12*
X91500000Y-138250000D02*
X91500000Y-143250000D01*
X97500000Y-138250000D02*
G75*
G03*
X97000000Y-137750000I-500000J0D01*
G01*
D10*
X92950000Y-119300000D02*
X92350000Y-120900000D01*
X96700000Y-28800000D02*
X97300000Y-29300000D01*
X95100000Y-28800000D02*
X96000000Y-29200000D01*
X93400000Y-26100000D02*
X93200000Y-26000000D01*
X101000000Y-148900000D02*
X102000000Y-148500000D01*
X93800000Y-29800000D02*
X94900000Y-29200000D01*
X105700000Y-127400000D02*
X105600000Y-127400000D01*
X97400000Y-28700000D02*
X96700000Y-28800000D01*
X101900000Y-151600000D02*
X101900000Y-151400000D01*
X94500000Y-27800000D02*
X94600000Y-27700000D01*
X103300000Y-151600000D02*
X104100000Y-150400000D01*
X95112500Y-133200000D02*
X94087500Y-134800000D01*
X94900000Y-26175000D02*
X94050000Y-27125000D01*
X104100000Y-151600000D02*
X105300000Y-150400000D01*
X89800000Y-82700000D02*
X90700000Y-83100000D01*
X92700000Y-134800000D02*
X92600000Y-134800000D01*
X89800000Y-65700000D02*
X90900000Y-65100000D01*
X104100000Y-129100000D02*
X104900000Y-127400000D01*
X90700000Y-83100000D02*
X89900000Y-83700000D01*
X104000000Y-142150000D02*
X103600000Y-143850000D01*
D11*
X102284865Y-108979384D02*
G75*
G03*
X105753231Y-111081095I4105835J2862984D01*
G01*
D10*
X95350000Y-119300000D02*
X95250000Y-119300000D01*
X95450000Y-120100000D02*
X95950000Y-120900000D01*
X101000000Y-148100000D02*
X101000000Y-149900000D01*
X102600000Y-149900000D02*
X103200000Y-149900000D01*
X104900000Y-151600000D02*
X105100000Y-151600000D01*
X105600000Y-149900000D02*
X106400000Y-149900000D01*
X91800000Y-134800000D02*
X92000000Y-134800000D01*
X90600000Y-100000000D02*
X91000000Y-100600000D01*
X103600000Y-143850000D02*
X103100000Y-142150000D01*
D11*
X106000000Y-109750000D02*
G75*
G03*
X106000000Y-109750000I-6500000J0D01*
G01*
D10*
X91300000Y-26100000D02*
X90300000Y-27800000D01*
X91500000Y-27200000D02*
X90900000Y-26800000D01*
X101900000Y-150600000D02*
X102700000Y-151200000D01*
X104500000Y-150400000D02*
X104100000Y-151600000D01*
D12*
X97000000Y-143750000D02*
G75*
G03*
X97500000Y-143250000I0J500000D01*
G01*
X97500000Y-138250000D02*
X97500000Y-143250000D01*
D10*
X104900000Y-127400000D02*
X104900000Y-129100000D01*
X92350000Y-120900000D02*
X93150000Y-120900000D01*
X105500000Y-151600000D02*
X106300000Y-150400000D01*
X96100000Y-28200000D02*
X95900000Y-28100000D01*
X92600000Y-134200000D02*
X91800000Y-134800000D01*
X104300000Y-142150000D02*
X104000000Y-143850000D01*
X96850000Y-133200000D02*
X95900000Y-134800000D01*
X107000000Y-149900000D02*
X107000000Y-149700000D01*
X90800000Y-82100000D02*
X89800000Y-82700000D01*
X93400000Y-29000000D02*
X93100000Y-29000000D01*
D12*
X92000000Y-137750000D02*
X97000000Y-137750000D01*
D10*
X93400000Y-26100000D02*
X93400000Y-26300000D01*
D11*
X107100000Y-58000000D02*
G75*
G03*
X107100000Y-58000000I-7600000J0D01*
G01*
D10*
X104200000Y-147700000D02*
X105000000Y-147700000D01*
D11*
X98534856Y-108979390D02*
X102284856Y-108979390D01*
D10*
X93425000Y-120900000D02*
X93650000Y-119300000D01*
X105600000Y-142150000D02*
X104600000Y-143850000D01*
X89900000Y-83700000D02*
X90100000Y-83700000D01*
X102000000Y-148500000D02*
X101000000Y-148100000D01*
X102000000Y-149300000D02*
X101000000Y-148900000D01*
X96100000Y-28200000D02*
X95100000Y-28800000D01*
X92500000Y-27800000D02*
X92500000Y-27600000D01*
%LPC*%
D13*
X97000000Y-143250000D02*
X92000000Y-143250000D01*
X92000000Y-138250000D01*
X97000000Y-138250000D01*
X97000000Y-143250000D01*
G36*
X97000000Y-143250000D02*
G01*
X92000000Y-143250000D01*
X92000000Y-138250000D01*
X97000000Y-138250000D01*
X97000000Y-143250000D01*
G37*
D14*
X104500000Y-27500000D03*
X94500000Y-150000000D03*
%LPD*%
M02*
