%TF.GenerationSoftware,KiCad,Pcbnew,7.0.7-7.0.7~ubuntu22.04.1*%
%TF.CreationDate,2023-09-25T23:33:28+02:00*%
%TF.ProjectId,Basic-ADSR,42617369-632d-4414-9453-522e6b696361,rev?*%
%TF.SameCoordinates,Original*%
%TF.FileFunction,Drillmap*%
%TF.FilePolarity,Positive*%
%FSLAX45Y45*%
G04 Gerber Fmt 4.5, Leading zero omitted, Abs format (unit mm)*
G04 Created by KiCad (PCBNEW 7.0.7-7.0.7~ubuntu22.04.1) date 2023-09-25 23:33:28*
%MOMM*%
%LPD*%
G01*
G04 APERTURE LIST*
%ADD10C,0.050000*%
%ADD11C,0.200000*%
%ADD12C,0.300000*%
%ADD13C,0.620000*%
%ADD14C,0.700000*%
G04 APERTURE END LIST*
D10*
X10950000Y-15300000D02*
X8950000Y-15300000D01*
X8950000Y-2450000D02*
X8950000Y-15300000D01*
X10950000Y-2450000D02*
X10950000Y-15300000D01*
X8950000Y-2450000D02*
X10950000Y-2450000D01*
D11*
D12*
X9300000Y-14850000D02*
X9600000Y-15150000D01*
X9600000Y-14850000D02*
X9300000Y-15150000D01*
D11*
X9325000Y-15150000D02*
X9575000Y-15150000D01*
X9575000Y-15150000D02*
G75*
G03*
X9575000Y-14850000I0J150000D01*
G01*
X9575000Y-14850000D02*
X9325000Y-14850000D01*
X9325000Y-14850000D02*
G75*
G03*
X9325000Y-15150000I0J-150000D01*
G01*
D12*
X10300000Y-2600000D02*
X10600000Y-2900000D01*
X10600000Y-2600000D02*
X10300000Y-2900000D01*
D11*
X10325000Y-2900000D02*
X10575000Y-2900000D01*
X10575000Y-2900000D02*
G75*
G03*
X10575000Y-2600000I0J150000D01*
G01*
X10575000Y-2600000D02*
X10325000Y-2600000D01*
X10325000Y-2600000D02*
G75*
G03*
X10325000Y-2900000I0J-150000D01*
G01*
D13*
X10760000Y-12220000D02*
G75*
G03*
X10760000Y-12220000I-310000J0D01*
G01*
X10760000Y-13700000D02*
G75*
G03*
X10760000Y-13700000I-310000J0D01*
G01*
D14*
X9450000Y-12350000D02*
X9450000Y-13050000D01*
X9100000Y-12700000D02*
X9800000Y-12700000D01*
X9950000Y-3670000D02*
X9950000Y-4370000D01*
X9600000Y-4020000D02*
X10300000Y-4020000D01*
X9950000Y-5460000D02*
X9950000Y-6160000D01*
X9600000Y-5810000D02*
X10300000Y-5810000D01*
X9950000Y-7260000D02*
X9950000Y-7960000D01*
X9600000Y-7610000D02*
X10300000Y-7610000D01*
X9950000Y-9060000D02*
X9950000Y-9760000D01*
X9600000Y-9410000D02*
X10300000Y-9410000D01*
D11*
X9208277Y-15613984D02*
X9208277Y-15413984D01*
X9208277Y-15413984D02*
X9255896Y-15413984D01*
X9255896Y-15413984D02*
X9284467Y-15423508D01*
X9284467Y-15423508D02*
X9303515Y-15442555D01*
X9303515Y-15442555D02*
X9313039Y-15461603D01*
X9313039Y-15461603D02*
X9322563Y-15499698D01*
X9322563Y-15499698D02*
X9322563Y-15528269D01*
X9322563Y-15528269D02*
X9313039Y-15566365D01*
X9313039Y-15566365D02*
X9303515Y-15585412D01*
X9303515Y-15585412D02*
X9284467Y-15604460D01*
X9284467Y-15604460D02*
X9255896Y-15613984D01*
X9255896Y-15613984D02*
X9208277Y-15613984D01*
X9408277Y-15613984D02*
X9408277Y-15480650D01*
X9408277Y-15518746D02*
X9417801Y-15499698D01*
X9417801Y-15499698D02*
X9427324Y-15490174D01*
X9427324Y-15490174D02*
X9446372Y-15480650D01*
X9446372Y-15480650D02*
X9465420Y-15480650D01*
X9532086Y-15613984D02*
X9532086Y-15480650D01*
X9532086Y-15413984D02*
X9522563Y-15423508D01*
X9522563Y-15423508D02*
X9532086Y-15433031D01*
X9532086Y-15433031D02*
X9541610Y-15423508D01*
X9541610Y-15423508D02*
X9532086Y-15413984D01*
X9532086Y-15413984D02*
X9532086Y-15433031D01*
X9655896Y-15613984D02*
X9636848Y-15604460D01*
X9636848Y-15604460D02*
X9627324Y-15585412D01*
X9627324Y-15585412D02*
X9627324Y-15413984D01*
X9760658Y-15613984D02*
X9741610Y-15604460D01*
X9741610Y-15604460D02*
X9732086Y-15585412D01*
X9732086Y-15585412D02*
X9732086Y-15413984D01*
X9989229Y-15613984D02*
X9989229Y-15413984D01*
X9989229Y-15413984D02*
X10055896Y-15556841D01*
X10055896Y-15556841D02*
X10122563Y-15413984D01*
X10122563Y-15413984D02*
X10122563Y-15613984D01*
X10303515Y-15613984D02*
X10303515Y-15509222D01*
X10303515Y-15509222D02*
X10293991Y-15490174D01*
X10293991Y-15490174D02*
X10274944Y-15480650D01*
X10274944Y-15480650D02*
X10236848Y-15480650D01*
X10236848Y-15480650D02*
X10217801Y-15490174D01*
X10303515Y-15604460D02*
X10284467Y-15613984D01*
X10284467Y-15613984D02*
X10236848Y-15613984D01*
X10236848Y-15613984D02*
X10217801Y-15604460D01*
X10217801Y-15604460D02*
X10208277Y-15585412D01*
X10208277Y-15585412D02*
X10208277Y-15566365D01*
X10208277Y-15566365D02*
X10217801Y-15547317D01*
X10217801Y-15547317D02*
X10236848Y-15537793D01*
X10236848Y-15537793D02*
X10284467Y-15537793D01*
X10284467Y-15537793D02*
X10303515Y-15528269D01*
X10398753Y-15480650D02*
X10398753Y-15680650D01*
X10398753Y-15490174D02*
X10417801Y-15480650D01*
X10417801Y-15480650D02*
X10455896Y-15480650D01*
X10455896Y-15480650D02*
X10474944Y-15490174D01*
X10474944Y-15490174D02*
X10484467Y-15499698D01*
X10484467Y-15499698D02*
X10493991Y-15518746D01*
X10493991Y-15518746D02*
X10493991Y-15575888D01*
X10493991Y-15575888D02*
X10484467Y-15594936D01*
X10484467Y-15594936D02*
X10474944Y-15604460D01*
X10474944Y-15604460D02*
X10455896Y-15613984D01*
X10455896Y-15613984D02*
X10417801Y-15613984D01*
X10417801Y-15613984D02*
X10398753Y-15604460D01*
X10579705Y-15594936D02*
X10589229Y-15604460D01*
X10589229Y-15604460D02*
X10579705Y-15613984D01*
X10579705Y-15613984D02*
X10570182Y-15604460D01*
X10570182Y-15604460D02*
X10579705Y-15594936D01*
X10579705Y-15594936D02*
X10579705Y-15613984D01*
X10579705Y-15490174D02*
X10589229Y-15499698D01*
X10589229Y-15499698D02*
X10579705Y-15509222D01*
X10579705Y-15509222D02*
X10570182Y-15499698D01*
X10570182Y-15499698D02*
X10579705Y-15490174D01*
X10579705Y-15490174D02*
X10579705Y-15509222D01*
X8747500Y-15842500D02*
X8947500Y-16042500D01*
X8947500Y-15842500D02*
X8747500Y-16042500D01*
X9189229Y-15833984D02*
X9313039Y-15833984D01*
X9313039Y-15833984D02*
X9246372Y-15910174D01*
X9246372Y-15910174D02*
X9274944Y-15910174D01*
X9274944Y-15910174D02*
X9293991Y-15919698D01*
X9293991Y-15919698D02*
X9303515Y-15929222D01*
X9303515Y-15929222D02*
X9313039Y-15948269D01*
X9313039Y-15948269D02*
X9313039Y-15995888D01*
X9313039Y-15995888D02*
X9303515Y-16014936D01*
X9303515Y-16014936D02*
X9293991Y-16024460D01*
X9293991Y-16024460D02*
X9274944Y-16033984D01*
X9274944Y-16033984D02*
X9217801Y-16033984D01*
X9217801Y-16033984D02*
X9198753Y-16024460D01*
X9198753Y-16024460D02*
X9189229Y-16014936D01*
X9398753Y-16014936D02*
X9408277Y-16024460D01*
X9408277Y-16024460D02*
X9398753Y-16033984D01*
X9398753Y-16033984D02*
X9389229Y-16024460D01*
X9389229Y-16024460D02*
X9398753Y-16014936D01*
X9398753Y-16014936D02*
X9398753Y-16033984D01*
X9532086Y-15833984D02*
X9551134Y-15833984D01*
X9551134Y-15833984D02*
X9570182Y-15843508D01*
X9570182Y-15843508D02*
X9579705Y-15853031D01*
X9579705Y-15853031D02*
X9589229Y-15872079D01*
X9589229Y-15872079D02*
X9598753Y-15910174D01*
X9598753Y-15910174D02*
X9598753Y-15957793D01*
X9598753Y-15957793D02*
X9589229Y-15995888D01*
X9589229Y-15995888D02*
X9579705Y-16014936D01*
X9579705Y-16014936D02*
X9570182Y-16024460D01*
X9570182Y-16024460D02*
X9551134Y-16033984D01*
X9551134Y-16033984D02*
X9532086Y-16033984D01*
X9532086Y-16033984D02*
X9513039Y-16024460D01*
X9513039Y-16024460D02*
X9503515Y-16014936D01*
X9503515Y-16014936D02*
X9493991Y-15995888D01*
X9493991Y-15995888D02*
X9484467Y-15957793D01*
X9484467Y-15957793D02*
X9484467Y-15910174D01*
X9484467Y-15910174D02*
X9493991Y-15872079D01*
X9493991Y-15872079D02*
X9503515Y-15853031D01*
X9503515Y-15853031D02*
X9513039Y-15843508D01*
X9513039Y-15843508D02*
X9532086Y-15833984D01*
X9722563Y-15833984D02*
X9741610Y-15833984D01*
X9741610Y-15833984D02*
X9760658Y-15843508D01*
X9760658Y-15843508D02*
X9770182Y-15853031D01*
X9770182Y-15853031D02*
X9779705Y-15872079D01*
X9779705Y-15872079D02*
X9789229Y-15910174D01*
X9789229Y-15910174D02*
X9789229Y-15957793D01*
X9789229Y-15957793D02*
X9779705Y-15995888D01*
X9779705Y-15995888D02*
X9770182Y-16014936D01*
X9770182Y-16014936D02*
X9760658Y-16024460D01*
X9760658Y-16024460D02*
X9741610Y-16033984D01*
X9741610Y-16033984D02*
X9722563Y-16033984D01*
X9722563Y-16033984D02*
X9703515Y-16024460D01*
X9703515Y-16024460D02*
X9693991Y-16014936D01*
X9693991Y-16014936D02*
X9684467Y-15995888D01*
X9684467Y-15995888D02*
X9674944Y-15957793D01*
X9674944Y-15957793D02*
X9674944Y-15910174D01*
X9674944Y-15910174D02*
X9684467Y-15872079D01*
X9684467Y-15872079D02*
X9693991Y-15853031D01*
X9693991Y-15853031D02*
X9703515Y-15843508D01*
X9703515Y-15843508D02*
X9722563Y-15833984D01*
X9913039Y-15833984D02*
X9932086Y-15833984D01*
X9932086Y-15833984D02*
X9951134Y-15843508D01*
X9951134Y-15843508D02*
X9960658Y-15853031D01*
X9960658Y-15853031D02*
X9970182Y-15872079D01*
X9970182Y-15872079D02*
X9979705Y-15910174D01*
X9979705Y-15910174D02*
X9979705Y-15957793D01*
X9979705Y-15957793D02*
X9970182Y-15995888D01*
X9970182Y-15995888D02*
X9960658Y-16014936D01*
X9960658Y-16014936D02*
X9951134Y-16024460D01*
X9951134Y-16024460D02*
X9932086Y-16033984D01*
X9932086Y-16033984D02*
X9913039Y-16033984D01*
X9913039Y-16033984D02*
X9893991Y-16024460D01*
X9893991Y-16024460D02*
X9884467Y-16014936D01*
X9884467Y-16014936D02*
X9874944Y-15995888D01*
X9874944Y-15995888D02*
X9865420Y-15957793D01*
X9865420Y-15957793D02*
X9865420Y-15910174D01*
X9865420Y-15910174D02*
X9874944Y-15872079D01*
X9874944Y-15872079D02*
X9884467Y-15853031D01*
X9884467Y-15853031D02*
X9893991Y-15843508D01*
X9893991Y-15843508D02*
X9913039Y-15833984D01*
X10065420Y-16033984D02*
X10065420Y-15900650D01*
X10065420Y-15919698D02*
X10074944Y-15910174D01*
X10074944Y-15910174D02*
X10093991Y-15900650D01*
X10093991Y-15900650D02*
X10122563Y-15900650D01*
X10122563Y-15900650D02*
X10141610Y-15910174D01*
X10141610Y-15910174D02*
X10151134Y-15929222D01*
X10151134Y-15929222D02*
X10151134Y-16033984D01*
X10151134Y-15929222D02*
X10160658Y-15910174D01*
X10160658Y-15910174D02*
X10179705Y-15900650D01*
X10179705Y-15900650D02*
X10208277Y-15900650D01*
X10208277Y-15900650D02*
X10227325Y-15910174D01*
X10227325Y-15910174D02*
X10236848Y-15929222D01*
X10236848Y-15929222D02*
X10236848Y-16033984D01*
X10332086Y-16033984D02*
X10332086Y-15900650D01*
X10332086Y-15919698D02*
X10341610Y-15910174D01*
X10341610Y-15910174D02*
X10360658Y-15900650D01*
X10360658Y-15900650D02*
X10389229Y-15900650D01*
X10389229Y-15900650D02*
X10408277Y-15910174D01*
X10408277Y-15910174D02*
X10417801Y-15929222D01*
X10417801Y-15929222D02*
X10417801Y-16033984D01*
X10417801Y-15929222D02*
X10427325Y-15910174D01*
X10427325Y-15910174D02*
X10446372Y-15900650D01*
X10446372Y-15900650D02*
X10474944Y-15900650D01*
X10474944Y-15900650D02*
X10493991Y-15910174D01*
X10493991Y-15910174D02*
X10503515Y-15929222D01*
X10503515Y-15929222D02*
X10503515Y-16033984D01*
X10893991Y-15824460D02*
X10722563Y-16081603D01*
X11151134Y-15833984D02*
X11170182Y-15833984D01*
X11170182Y-15833984D02*
X11189229Y-15843508D01*
X11189229Y-15843508D02*
X11198753Y-15853031D01*
X11198753Y-15853031D02*
X11208277Y-15872079D01*
X11208277Y-15872079D02*
X11217801Y-15910174D01*
X11217801Y-15910174D02*
X11217801Y-15957793D01*
X11217801Y-15957793D02*
X11208277Y-15995888D01*
X11208277Y-15995888D02*
X11198753Y-16014936D01*
X11198753Y-16014936D02*
X11189229Y-16024460D01*
X11189229Y-16024460D02*
X11170182Y-16033984D01*
X11170182Y-16033984D02*
X11151134Y-16033984D01*
X11151134Y-16033984D02*
X11132087Y-16024460D01*
X11132087Y-16024460D02*
X11122563Y-16014936D01*
X11122563Y-16014936D02*
X11113039Y-15995888D01*
X11113039Y-15995888D02*
X11103515Y-15957793D01*
X11103515Y-15957793D02*
X11103515Y-15910174D01*
X11103515Y-15910174D02*
X11113039Y-15872079D01*
X11113039Y-15872079D02*
X11122563Y-15853031D01*
X11122563Y-15853031D02*
X11132087Y-15843508D01*
X11132087Y-15843508D02*
X11151134Y-15833984D01*
X11303515Y-16014936D02*
X11313039Y-16024460D01*
X11313039Y-16024460D02*
X11303515Y-16033984D01*
X11303515Y-16033984D02*
X11293991Y-16024460D01*
X11293991Y-16024460D02*
X11303515Y-16014936D01*
X11303515Y-16014936D02*
X11303515Y-16033984D01*
X11503515Y-16033984D02*
X11389229Y-16033984D01*
X11446372Y-16033984D02*
X11446372Y-15833984D01*
X11446372Y-15833984D02*
X11427325Y-15862555D01*
X11427325Y-15862555D02*
X11408277Y-15881603D01*
X11408277Y-15881603D02*
X11389229Y-15891127D01*
X11693991Y-16033984D02*
X11579706Y-16033984D01*
X11636848Y-16033984D02*
X11636848Y-15833984D01*
X11636848Y-15833984D02*
X11617801Y-15862555D01*
X11617801Y-15862555D02*
X11598753Y-15881603D01*
X11598753Y-15881603D02*
X11579706Y-15891127D01*
X11808277Y-15919698D02*
X11789229Y-15910174D01*
X11789229Y-15910174D02*
X11779706Y-15900650D01*
X11779706Y-15900650D02*
X11770182Y-15881603D01*
X11770182Y-15881603D02*
X11770182Y-15872079D01*
X11770182Y-15872079D02*
X11779706Y-15853031D01*
X11779706Y-15853031D02*
X11789229Y-15843508D01*
X11789229Y-15843508D02*
X11808277Y-15833984D01*
X11808277Y-15833984D02*
X11846372Y-15833984D01*
X11846372Y-15833984D02*
X11865420Y-15843508D01*
X11865420Y-15843508D02*
X11874944Y-15853031D01*
X11874944Y-15853031D02*
X11884467Y-15872079D01*
X11884467Y-15872079D02*
X11884467Y-15881603D01*
X11884467Y-15881603D02*
X11874944Y-15900650D01*
X11874944Y-15900650D02*
X11865420Y-15910174D01*
X11865420Y-15910174D02*
X11846372Y-15919698D01*
X11846372Y-15919698D02*
X11808277Y-15919698D01*
X11808277Y-15919698D02*
X11789229Y-15929222D01*
X11789229Y-15929222D02*
X11779706Y-15938746D01*
X11779706Y-15938746D02*
X11770182Y-15957793D01*
X11770182Y-15957793D02*
X11770182Y-15995888D01*
X11770182Y-15995888D02*
X11779706Y-16014936D01*
X11779706Y-16014936D02*
X11789229Y-16024460D01*
X11789229Y-16024460D02*
X11808277Y-16033984D01*
X11808277Y-16033984D02*
X11846372Y-16033984D01*
X11846372Y-16033984D02*
X11865420Y-16024460D01*
X11865420Y-16024460D02*
X11874944Y-16014936D01*
X11874944Y-16014936D02*
X11884467Y-15995888D01*
X11884467Y-15995888D02*
X11884467Y-15957793D01*
X11884467Y-15957793D02*
X11874944Y-15938746D01*
X11874944Y-15938746D02*
X11865420Y-15929222D01*
X11865420Y-15929222D02*
X11846372Y-15919698D01*
X12074944Y-16033984D02*
X11960658Y-16033984D01*
X12017801Y-16033984D02*
X12017801Y-15833984D01*
X12017801Y-15833984D02*
X11998753Y-15862555D01*
X11998753Y-15862555D02*
X11979706Y-15881603D01*
X11979706Y-15881603D02*
X11960658Y-15891127D01*
X12151134Y-15833984D02*
X12151134Y-15872079D01*
X12227325Y-15833984D02*
X12227325Y-15872079D01*
X12522563Y-16110174D02*
X12513039Y-16100650D01*
X12513039Y-16100650D02*
X12493991Y-16072079D01*
X12493991Y-16072079D02*
X12484468Y-16053031D01*
X12484468Y-16053031D02*
X12474944Y-16024460D01*
X12474944Y-16024460D02*
X12465420Y-15976841D01*
X12465420Y-15976841D02*
X12465420Y-15938746D01*
X12465420Y-15938746D02*
X12474944Y-15891127D01*
X12474944Y-15891127D02*
X12484468Y-15862555D01*
X12484468Y-15862555D02*
X12493991Y-15843508D01*
X12493991Y-15843508D02*
X12513039Y-15814936D01*
X12513039Y-15814936D02*
X12522563Y-15805412D01*
X12636848Y-15833984D02*
X12655896Y-15833984D01*
X12655896Y-15833984D02*
X12674944Y-15843508D01*
X12674944Y-15843508D02*
X12684468Y-15853031D01*
X12684468Y-15853031D02*
X12693991Y-15872079D01*
X12693991Y-15872079D02*
X12703515Y-15910174D01*
X12703515Y-15910174D02*
X12703515Y-15957793D01*
X12703515Y-15957793D02*
X12693991Y-15995888D01*
X12693991Y-15995888D02*
X12684468Y-16014936D01*
X12684468Y-16014936D02*
X12674944Y-16024460D01*
X12674944Y-16024460D02*
X12655896Y-16033984D01*
X12655896Y-16033984D02*
X12636848Y-16033984D01*
X12636848Y-16033984D02*
X12617801Y-16024460D01*
X12617801Y-16024460D02*
X12608277Y-16014936D01*
X12608277Y-16014936D02*
X12598753Y-15995888D01*
X12598753Y-15995888D02*
X12589229Y-15957793D01*
X12589229Y-15957793D02*
X12589229Y-15910174D01*
X12589229Y-15910174D02*
X12598753Y-15872079D01*
X12598753Y-15872079D02*
X12608277Y-15853031D01*
X12608277Y-15853031D02*
X12617801Y-15843508D01*
X12617801Y-15843508D02*
X12636848Y-15833984D01*
X12941610Y-16033984D02*
X12941610Y-15833984D01*
X13027325Y-16033984D02*
X13027325Y-15929222D01*
X13027325Y-15929222D02*
X13017801Y-15910174D01*
X13017801Y-15910174D02*
X12998753Y-15900650D01*
X12998753Y-15900650D02*
X12970182Y-15900650D01*
X12970182Y-15900650D02*
X12951134Y-15910174D01*
X12951134Y-15910174D02*
X12941610Y-15919698D01*
X13151134Y-16033984D02*
X13132087Y-16024460D01*
X13132087Y-16024460D02*
X13122563Y-16014936D01*
X13122563Y-16014936D02*
X13113039Y-15995888D01*
X13113039Y-15995888D02*
X13113039Y-15938746D01*
X13113039Y-15938746D02*
X13122563Y-15919698D01*
X13122563Y-15919698D02*
X13132087Y-15910174D01*
X13132087Y-15910174D02*
X13151134Y-15900650D01*
X13151134Y-15900650D02*
X13179706Y-15900650D01*
X13179706Y-15900650D02*
X13198753Y-15910174D01*
X13198753Y-15910174D02*
X13208277Y-15919698D01*
X13208277Y-15919698D02*
X13217801Y-15938746D01*
X13217801Y-15938746D02*
X13217801Y-15995888D01*
X13217801Y-15995888D02*
X13208277Y-16014936D01*
X13208277Y-16014936D02*
X13198753Y-16024460D01*
X13198753Y-16024460D02*
X13179706Y-16033984D01*
X13179706Y-16033984D02*
X13151134Y-16033984D01*
X13332087Y-16033984D02*
X13313039Y-16024460D01*
X13313039Y-16024460D02*
X13303515Y-16005412D01*
X13303515Y-16005412D02*
X13303515Y-15833984D01*
X13484468Y-16024460D02*
X13465420Y-16033984D01*
X13465420Y-16033984D02*
X13427325Y-16033984D01*
X13427325Y-16033984D02*
X13408277Y-16024460D01*
X13408277Y-16024460D02*
X13398753Y-16005412D01*
X13398753Y-16005412D02*
X13398753Y-15929222D01*
X13398753Y-15929222D02*
X13408277Y-15910174D01*
X13408277Y-15910174D02*
X13427325Y-15900650D01*
X13427325Y-15900650D02*
X13465420Y-15900650D01*
X13465420Y-15900650D02*
X13484468Y-15910174D01*
X13484468Y-15910174D02*
X13493991Y-15929222D01*
X13493991Y-15929222D02*
X13493991Y-15948269D01*
X13493991Y-15948269D02*
X13398753Y-15967317D01*
X13570182Y-16024460D02*
X13589230Y-16033984D01*
X13589230Y-16033984D02*
X13627325Y-16033984D01*
X13627325Y-16033984D02*
X13646372Y-16024460D01*
X13646372Y-16024460D02*
X13655896Y-16005412D01*
X13655896Y-16005412D02*
X13655896Y-15995888D01*
X13655896Y-15995888D02*
X13646372Y-15976841D01*
X13646372Y-15976841D02*
X13627325Y-15967317D01*
X13627325Y-15967317D02*
X13598753Y-15967317D01*
X13598753Y-15967317D02*
X13579706Y-15957793D01*
X13579706Y-15957793D02*
X13570182Y-15938746D01*
X13570182Y-15938746D02*
X13570182Y-15929222D01*
X13570182Y-15929222D02*
X13579706Y-15910174D01*
X13579706Y-15910174D02*
X13598753Y-15900650D01*
X13598753Y-15900650D02*
X13627325Y-15900650D01*
X13627325Y-15900650D02*
X13646372Y-15910174D01*
X13893992Y-15957793D02*
X14046373Y-15957793D01*
X13970182Y-16033984D02*
X13970182Y-15881603D01*
X14284468Y-15853031D02*
X14293992Y-15843508D01*
X14293992Y-15843508D02*
X14313039Y-15833984D01*
X14313039Y-15833984D02*
X14360658Y-15833984D01*
X14360658Y-15833984D02*
X14379706Y-15843508D01*
X14379706Y-15843508D02*
X14389230Y-15853031D01*
X14389230Y-15853031D02*
X14398753Y-15872079D01*
X14398753Y-15872079D02*
X14398753Y-15891127D01*
X14398753Y-15891127D02*
X14389230Y-15919698D01*
X14389230Y-15919698D02*
X14274944Y-16033984D01*
X14274944Y-16033984D02*
X14398753Y-16033984D01*
X14627325Y-16024460D02*
X14646373Y-16033984D01*
X14646373Y-16033984D02*
X14684468Y-16033984D01*
X14684468Y-16033984D02*
X14703515Y-16024460D01*
X14703515Y-16024460D02*
X14713039Y-16005412D01*
X14713039Y-16005412D02*
X14713039Y-15995888D01*
X14713039Y-15995888D02*
X14703515Y-15976841D01*
X14703515Y-15976841D02*
X14684468Y-15967317D01*
X14684468Y-15967317D02*
X14655896Y-15967317D01*
X14655896Y-15967317D02*
X14636849Y-15957793D01*
X14636849Y-15957793D02*
X14627325Y-15938746D01*
X14627325Y-15938746D02*
X14627325Y-15929222D01*
X14627325Y-15929222D02*
X14636849Y-15910174D01*
X14636849Y-15910174D02*
X14655896Y-15900650D01*
X14655896Y-15900650D02*
X14684468Y-15900650D01*
X14684468Y-15900650D02*
X14703515Y-15910174D01*
X14827325Y-16033984D02*
X14808277Y-16024460D01*
X14808277Y-16024460D02*
X14798754Y-16005412D01*
X14798754Y-16005412D02*
X14798754Y-15833984D01*
X14932087Y-16033984D02*
X14913039Y-16024460D01*
X14913039Y-16024460D02*
X14903515Y-16014936D01*
X14903515Y-16014936D02*
X14893992Y-15995888D01*
X14893992Y-15995888D02*
X14893992Y-15938746D01*
X14893992Y-15938746D02*
X14903515Y-15919698D01*
X14903515Y-15919698D02*
X14913039Y-15910174D01*
X14913039Y-15910174D02*
X14932087Y-15900650D01*
X14932087Y-15900650D02*
X14960658Y-15900650D01*
X14960658Y-15900650D02*
X14979706Y-15910174D01*
X14979706Y-15910174D02*
X14989230Y-15919698D01*
X14989230Y-15919698D02*
X14998754Y-15938746D01*
X14998754Y-15938746D02*
X14998754Y-15995888D01*
X14998754Y-15995888D02*
X14989230Y-16014936D01*
X14989230Y-16014936D02*
X14979706Y-16024460D01*
X14979706Y-16024460D02*
X14960658Y-16033984D01*
X14960658Y-16033984D02*
X14932087Y-16033984D01*
X15055896Y-15900650D02*
X15132087Y-15900650D01*
X15084468Y-15833984D02*
X15084468Y-16005412D01*
X15084468Y-16005412D02*
X15093992Y-16024460D01*
X15093992Y-16024460D02*
X15113039Y-16033984D01*
X15113039Y-16033984D02*
X15132087Y-16033984D01*
X15189230Y-16024460D02*
X15208277Y-16033984D01*
X15208277Y-16033984D02*
X15246373Y-16033984D01*
X15246373Y-16033984D02*
X15265420Y-16024460D01*
X15265420Y-16024460D02*
X15274944Y-16005412D01*
X15274944Y-16005412D02*
X15274944Y-15995888D01*
X15274944Y-15995888D02*
X15265420Y-15976841D01*
X15265420Y-15976841D02*
X15246373Y-15967317D01*
X15246373Y-15967317D02*
X15217801Y-15967317D01*
X15217801Y-15967317D02*
X15198754Y-15957793D01*
X15198754Y-15957793D02*
X15189230Y-15938746D01*
X15189230Y-15938746D02*
X15189230Y-15929222D01*
X15189230Y-15929222D02*
X15198754Y-15910174D01*
X15198754Y-15910174D02*
X15217801Y-15900650D01*
X15217801Y-15900650D02*
X15246373Y-15900650D01*
X15246373Y-15900650D02*
X15265420Y-15910174D01*
X15341611Y-16110174D02*
X15351135Y-16100650D01*
X15351135Y-16100650D02*
X15370182Y-16072079D01*
X15370182Y-16072079D02*
X15379706Y-16053031D01*
X15379706Y-16053031D02*
X15389230Y-16024460D01*
X15389230Y-16024460D02*
X15398754Y-15976841D01*
X15398754Y-15976841D02*
X15398754Y-15938746D01*
X15398754Y-15938746D02*
X15389230Y-15891127D01*
X15389230Y-15891127D02*
X15379706Y-15862555D01*
X15379706Y-15862555D02*
X15370182Y-15843508D01*
X15370182Y-15843508D02*
X15351135Y-15814936D01*
X15351135Y-15814936D02*
X15341611Y-15805412D01*
X8947500Y-16262500D02*
G75*
G03*
X8947500Y-16262500I-100000J0D01*
G01*
X9293991Y-16153984D02*
X9255896Y-16153984D01*
X9255896Y-16153984D02*
X9236848Y-16163508D01*
X9236848Y-16163508D02*
X9227324Y-16173031D01*
X9227324Y-16173031D02*
X9208277Y-16201603D01*
X9208277Y-16201603D02*
X9198753Y-16239698D01*
X9198753Y-16239698D02*
X9198753Y-16315888D01*
X9198753Y-16315888D02*
X9208277Y-16334936D01*
X9208277Y-16334936D02*
X9217801Y-16344460D01*
X9217801Y-16344460D02*
X9236848Y-16353984D01*
X9236848Y-16353984D02*
X9274944Y-16353984D01*
X9274944Y-16353984D02*
X9293991Y-16344460D01*
X9293991Y-16344460D02*
X9303515Y-16334936D01*
X9303515Y-16334936D02*
X9313039Y-16315888D01*
X9313039Y-16315888D02*
X9313039Y-16268269D01*
X9313039Y-16268269D02*
X9303515Y-16249222D01*
X9303515Y-16249222D02*
X9293991Y-16239698D01*
X9293991Y-16239698D02*
X9274944Y-16230174D01*
X9274944Y-16230174D02*
X9236848Y-16230174D01*
X9236848Y-16230174D02*
X9217801Y-16239698D01*
X9217801Y-16239698D02*
X9208277Y-16249222D01*
X9208277Y-16249222D02*
X9198753Y-16268269D01*
X9398753Y-16334936D02*
X9408277Y-16344460D01*
X9408277Y-16344460D02*
X9398753Y-16353984D01*
X9398753Y-16353984D02*
X9389229Y-16344460D01*
X9389229Y-16344460D02*
X9398753Y-16334936D01*
X9398753Y-16334936D02*
X9398753Y-16353984D01*
X9484467Y-16173031D02*
X9493991Y-16163508D01*
X9493991Y-16163508D02*
X9513039Y-16153984D01*
X9513039Y-16153984D02*
X9560658Y-16153984D01*
X9560658Y-16153984D02*
X9579705Y-16163508D01*
X9579705Y-16163508D02*
X9589229Y-16173031D01*
X9589229Y-16173031D02*
X9598753Y-16192079D01*
X9598753Y-16192079D02*
X9598753Y-16211127D01*
X9598753Y-16211127D02*
X9589229Y-16239698D01*
X9589229Y-16239698D02*
X9474944Y-16353984D01*
X9474944Y-16353984D02*
X9598753Y-16353984D01*
X9722563Y-16153984D02*
X9741610Y-16153984D01*
X9741610Y-16153984D02*
X9760658Y-16163508D01*
X9760658Y-16163508D02*
X9770182Y-16173031D01*
X9770182Y-16173031D02*
X9779705Y-16192079D01*
X9779705Y-16192079D02*
X9789229Y-16230174D01*
X9789229Y-16230174D02*
X9789229Y-16277793D01*
X9789229Y-16277793D02*
X9779705Y-16315888D01*
X9779705Y-16315888D02*
X9770182Y-16334936D01*
X9770182Y-16334936D02*
X9760658Y-16344460D01*
X9760658Y-16344460D02*
X9741610Y-16353984D01*
X9741610Y-16353984D02*
X9722563Y-16353984D01*
X9722563Y-16353984D02*
X9703515Y-16344460D01*
X9703515Y-16344460D02*
X9693991Y-16334936D01*
X9693991Y-16334936D02*
X9684467Y-16315888D01*
X9684467Y-16315888D02*
X9674944Y-16277793D01*
X9674944Y-16277793D02*
X9674944Y-16230174D01*
X9674944Y-16230174D02*
X9684467Y-16192079D01*
X9684467Y-16192079D02*
X9693991Y-16173031D01*
X9693991Y-16173031D02*
X9703515Y-16163508D01*
X9703515Y-16163508D02*
X9722563Y-16153984D01*
X9913039Y-16153984D02*
X9932086Y-16153984D01*
X9932086Y-16153984D02*
X9951134Y-16163508D01*
X9951134Y-16163508D02*
X9960658Y-16173031D01*
X9960658Y-16173031D02*
X9970182Y-16192079D01*
X9970182Y-16192079D02*
X9979705Y-16230174D01*
X9979705Y-16230174D02*
X9979705Y-16277793D01*
X9979705Y-16277793D02*
X9970182Y-16315888D01*
X9970182Y-16315888D02*
X9960658Y-16334936D01*
X9960658Y-16334936D02*
X9951134Y-16344460D01*
X9951134Y-16344460D02*
X9932086Y-16353984D01*
X9932086Y-16353984D02*
X9913039Y-16353984D01*
X9913039Y-16353984D02*
X9893991Y-16344460D01*
X9893991Y-16344460D02*
X9884467Y-16334936D01*
X9884467Y-16334936D02*
X9874944Y-16315888D01*
X9874944Y-16315888D02*
X9865420Y-16277793D01*
X9865420Y-16277793D02*
X9865420Y-16230174D01*
X9865420Y-16230174D02*
X9874944Y-16192079D01*
X9874944Y-16192079D02*
X9884467Y-16173031D01*
X9884467Y-16173031D02*
X9893991Y-16163508D01*
X9893991Y-16163508D02*
X9913039Y-16153984D01*
X10065420Y-16353984D02*
X10065420Y-16220650D01*
X10065420Y-16239698D02*
X10074944Y-16230174D01*
X10074944Y-16230174D02*
X10093991Y-16220650D01*
X10093991Y-16220650D02*
X10122563Y-16220650D01*
X10122563Y-16220650D02*
X10141610Y-16230174D01*
X10141610Y-16230174D02*
X10151134Y-16249222D01*
X10151134Y-16249222D02*
X10151134Y-16353984D01*
X10151134Y-16249222D02*
X10160658Y-16230174D01*
X10160658Y-16230174D02*
X10179705Y-16220650D01*
X10179705Y-16220650D02*
X10208277Y-16220650D01*
X10208277Y-16220650D02*
X10227325Y-16230174D01*
X10227325Y-16230174D02*
X10236848Y-16249222D01*
X10236848Y-16249222D02*
X10236848Y-16353984D01*
X10332086Y-16353984D02*
X10332086Y-16220650D01*
X10332086Y-16239698D02*
X10341610Y-16230174D01*
X10341610Y-16230174D02*
X10360658Y-16220650D01*
X10360658Y-16220650D02*
X10389229Y-16220650D01*
X10389229Y-16220650D02*
X10408277Y-16230174D01*
X10408277Y-16230174D02*
X10417801Y-16249222D01*
X10417801Y-16249222D02*
X10417801Y-16353984D01*
X10417801Y-16249222D02*
X10427325Y-16230174D01*
X10427325Y-16230174D02*
X10446372Y-16220650D01*
X10446372Y-16220650D02*
X10474944Y-16220650D01*
X10474944Y-16220650D02*
X10493991Y-16230174D01*
X10493991Y-16230174D02*
X10503515Y-16249222D01*
X10503515Y-16249222D02*
X10503515Y-16353984D01*
X10893991Y-16144460D02*
X10722563Y-16401603D01*
X11151134Y-16153984D02*
X11170182Y-16153984D01*
X11170182Y-16153984D02*
X11189229Y-16163508D01*
X11189229Y-16163508D02*
X11198753Y-16173031D01*
X11198753Y-16173031D02*
X11208277Y-16192079D01*
X11208277Y-16192079D02*
X11217801Y-16230174D01*
X11217801Y-16230174D02*
X11217801Y-16277793D01*
X11217801Y-16277793D02*
X11208277Y-16315888D01*
X11208277Y-16315888D02*
X11198753Y-16334936D01*
X11198753Y-16334936D02*
X11189229Y-16344460D01*
X11189229Y-16344460D02*
X11170182Y-16353984D01*
X11170182Y-16353984D02*
X11151134Y-16353984D01*
X11151134Y-16353984D02*
X11132087Y-16344460D01*
X11132087Y-16344460D02*
X11122563Y-16334936D01*
X11122563Y-16334936D02*
X11113039Y-16315888D01*
X11113039Y-16315888D02*
X11103515Y-16277793D01*
X11103515Y-16277793D02*
X11103515Y-16230174D01*
X11103515Y-16230174D02*
X11113039Y-16192079D01*
X11113039Y-16192079D02*
X11122563Y-16173031D01*
X11122563Y-16173031D02*
X11132087Y-16163508D01*
X11132087Y-16163508D02*
X11151134Y-16153984D01*
X11303515Y-16334936D02*
X11313039Y-16344460D01*
X11313039Y-16344460D02*
X11303515Y-16353984D01*
X11303515Y-16353984D02*
X11293991Y-16344460D01*
X11293991Y-16344460D02*
X11303515Y-16334936D01*
X11303515Y-16334936D02*
X11303515Y-16353984D01*
X11389229Y-16173031D02*
X11398753Y-16163508D01*
X11398753Y-16163508D02*
X11417801Y-16153984D01*
X11417801Y-16153984D02*
X11465420Y-16153984D01*
X11465420Y-16153984D02*
X11484467Y-16163508D01*
X11484467Y-16163508D02*
X11493991Y-16173031D01*
X11493991Y-16173031D02*
X11503515Y-16192079D01*
X11503515Y-16192079D02*
X11503515Y-16211127D01*
X11503515Y-16211127D02*
X11493991Y-16239698D01*
X11493991Y-16239698D02*
X11379706Y-16353984D01*
X11379706Y-16353984D02*
X11503515Y-16353984D01*
X11674944Y-16220650D02*
X11674944Y-16353984D01*
X11627325Y-16144460D02*
X11579706Y-16287317D01*
X11579706Y-16287317D02*
X11703515Y-16287317D01*
X11865420Y-16220650D02*
X11865420Y-16353984D01*
X11817801Y-16144460D02*
X11770182Y-16287317D01*
X11770182Y-16287317D02*
X11893991Y-16287317D01*
X12074944Y-16353984D02*
X11960658Y-16353984D01*
X12017801Y-16353984D02*
X12017801Y-16153984D01*
X12017801Y-16153984D02*
X11998753Y-16182555D01*
X11998753Y-16182555D02*
X11979706Y-16201603D01*
X11979706Y-16201603D02*
X11960658Y-16211127D01*
X12151134Y-16153984D02*
X12151134Y-16192079D01*
X12227325Y-16153984D02*
X12227325Y-16192079D01*
X12522563Y-16430174D02*
X12513039Y-16420650D01*
X12513039Y-16420650D02*
X12493991Y-16392079D01*
X12493991Y-16392079D02*
X12484468Y-16373031D01*
X12484468Y-16373031D02*
X12474944Y-16344460D01*
X12474944Y-16344460D02*
X12465420Y-16296841D01*
X12465420Y-16296841D02*
X12465420Y-16258746D01*
X12465420Y-16258746D02*
X12474944Y-16211127D01*
X12474944Y-16211127D02*
X12484468Y-16182555D01*
X12484468Y-16182555D02*
X12493991Y-16163508D01*
X12493991Y-16163508D02*
X12513039Y-16134936D01*
X12513039Y-16134936D02*
X12522563Y-16125412D01*
X12589229Y-16173031D02*
X12598753Y-16163508D01*
X12598753Y-16163508D02*
X12617801Y-16153984D01*
X12617801Y-16153984D02*
X12665420Y-16153984D01*
X12665420Y-16153984D02*
X12684468Y-16163508D01*
X12684468Y-16163508D02*
X12693991Y-16173031D01*
X12693991Y-16173031D02*
X12703515Y-16192079D01*
X12703515Y-16192079D02*
X12703515Y-16211127D01*
X12703515Y-16211127D02*
X12693991Y-16239698D01*
X12693991Y-16239698D02*
X12579706Y-16353984D01*
X12579706Y-16353984D02*
X12703515Y-16353984D01*
X12941610Y-16353984D02*
X12941610Y-16153984D01*
X13027325Y-16353984D02*
X13027325Y-16249222D01*
X13027325Y-16249222D02*
X13017801Y-16230174D01*
X13017801Y-16230174D02*
X12998753Y-16220650D01*
X12998753Y-16220650D02*
X12970182Y-16220650D01*
X12970182Y-16220650D02*
X12951134Y-16230174D01*
X12951134Y-16230174D02*
X12941610Y-16239698D01*
X13151134Y-16353984D02*
X13132087Y-16344460D01*
X13132087Y-16344460D02*
X13122563Y-16334936D01*
X13122563Y-16334936D02*
X13113039Y-16315888D01*
X13113039Y-16315888D02*
X13113039Y-16258746D01*
X13113039Y-16258746D02*
X13122563Y-16239698D01*
X13122563Y-16239698D02*
X13132087Y-16230174D01*
X13132087Y-16230174D02*
X13151134Y-16220650D01*
X13151134Y-16220650D02*
X13179706Y-16220650D01*
X13179706Y-16220650D02*
X13198753Y-16230174D01*
X13198753Y-16230174D02*
X13208277Y-16239698D01*
X13208277Y-16239698D02*
X13217801Y-16258746D01*
X13217801Y-16258746D02*
X13217801Y-16315888D01*
X13217801Y-16315888D02*
X13208277Y-16334936D01*
X13208277Y-16334936D02*
X13198753Y-16344460D01*
X13198753Y-16344460D02*
X13179706Y-16353984D01*
X13179706Y-16353984D02*
X13151134Y-16353984D01*
X13332087Y-16353984D02*
X13313039Y-16344460D01*
X13313039Y-16344460D02*
X13303515Y-16325412D01*
X13303515Y-16325412D02*
X13303515Y-16153984D01*
X13484468Y-16344460D02*
X13465420Y-16353984D01*
X13465420Y-16353984D02*
X13427325Y-16353984D01*
X13427325Y-16353984D02*
X13408277Y-16344460D01*
X13408277Y-16344460D02*
X13398753Y-16325412D01*
X13398753Y-16325412D02*
X13398753Y-16249222D01*
X13398753Y-16249222D02*
X13408277Y-16230174D01*
X13408277Y-16230174D02*
X13427325Y-16220650D01*
X13427325Y-16220650D02*
X13465420Y-16220650D01*
X13465420Y-16220650D02*
X13484468Y-16230174D01*
X13484468Y-16230174D02*
X13493991Y-16249222D01*
X13493991Y-16249222D02*
X13493991Y-16268269D01*
X13493991Y-16268269D02*
X13398753Y-16287317D01*
X13570182Y-16344460D02*
X13589230Y-16353984D01*
X13589230Y-16353984D02*
X13627325Y-16353984D01*
X13627325Y-16353984D02*
X13646372Y-16344460D01*
X13646372Y-16344460D02*
X13655896Y-16325412D01*
X13655896Y-16325412D02*
X13655896Y-16315888D01*
X13655896Y-16315888D02*
X13646372Y-16296841D01*
X13646372Y-16296841D02*
X13627325Y-16287317D01*
X13627325Y-16287317D02*
X13598753Y-16287317D01*
X13598753Y-16287317D02*
X13579706Y-16277793D01*
X13579706Y-16277793D02*
X13570182Y-16258746D01*
X13570182Y-16258746D02*
X13570182Y-16249222D01*
X13570182Y-16249222D02*
X13579706Y-16230174D01*
X13579706Y-16230174D02*
X13598753Y-16220650D01*
X13598753Y-16220650D02*
X13627325Y-16220650D01*
X13627325Y-16220650D02*
X13646372Y-16230174D01*
X13722563Y-16430174D02*
X13732087Y-16420650D01*
X13732087Y-16420650D02*
X13751134Y-16392079D01*
X13751134Y-16392079D02*
X13760658Y-16373031D01*
X13760658Y-16373031D02*
X13770182Y-16344460D01*
X13770182Y-16344460D02*
X13779706Y-16296841D01*
X13779706Y-16296841D02*
X13779706Y-16258746D01*
X13779706Y-16258746D02*
X13770182Y-16211127D01*
X13770182Y-16211127D02*
X13760658Y-16182555D01*
X13760658Y-16182555D02*
X13751134Y-16163508D01*
X13751134Y-16163508D02*
X13732087Y-16134936D01*
X13732087Y-16134936D02*
X13722563Y-16125412D01*
X8847500Y-16482500D02*
X8847500Y-16682500D01*
X8747500Y-16582500D02*
X8947500Y-16582500D01*
X9189229Y-16473984D02*
X9322563Y-16473984D01*
X9322563Y-16473984D02*
X9236848Y-16673984D01*
X9398753Y-16654936D02*
X9408277Y-16664460D01*
X9408277Y-16664460D02*
X9398753Y-16673984D01*
X9398753Y-16673984D02*
X9389229Y-16664460D01*
X9389229Y-16664460D02*
X9398753Y-16654936D01*
X9398753Y-16654936D02*
X9398753Y-16673984D01*
X9532086Y-16473984D02*
X9551134Y-16473984D01*
X9551134Y-16473984D02*
X9570182Y-16483508D01*
X9570182Y-16483508D02*
X9579705Y-16493031D01*
X9579705Y-16493031D02*
X9589229Y-16512079D01*
X9589229Y-16512079D02*
X9598753Y-16550174D01*
X9598753Y-16550174D02*
X9598753Y-16597793D01*
X9598753Y-16597793D02*
X9589229Y-16635888D01*
X9589229Y-16635888D02*
X9579705Y-16654936D01*
X9579705Y-16654936D02*
X9570182Y-16664460D01*
X9570182Y-16664460D02*
X9551134Y-16673984D01*
X9551134Y-16673984D02*
X9532086Y-16673984D01*
X9532086Y-16673984D02*
X9513039Y-16664460D01*
X9513039Y-16664460D02*
X9503515Y-16654936D01*
X9503515Y-16654936D02*
X9493991Y-16635888D01*
X9493991Y-16635888D02*
X9484467Y-16597793D01*
X9484467Y-16597793D02*
X9484467Y-16550174D01*
X9484467Y-16550174D02*
X9493991Y-16512079D01*
X9493991Y-16512079D02*
X9503515Y-16493031D01*
X9503515Y-16493031D02*
X9513039Y-16483508D01*
X9513039Y-16483508D02*
X9532086Y-16473984D01*
X9722563Y-16473984D02*
X9741610Y-16473984D01*
X9741610Y-16473984D02*
X9760658Y-16483508D01*
X9760658Y-16483508D02*
X9770182Y-16493031D01*
X9770182Y-16493031D02*
X9779705Y-16512079D01*
X9779705Y-16512079D02*
X9789229Y-16550174D01*
X9789229Y-16550174D02*
X9789229Y-16597793D01*
X9789229Y-16597793D02*
X9779705Y-16635888D01*
X9779705Y-16635888D02*
X9770182Y-16654936D01*
X9770182Y-16654936D02*
X9760658Y-16664460D01*
X9760658Y-16664460D02*
X9741610Y-16673984D01*
X9741610Y-16673984D02*
X9722563Y-16673984D01*
X9722563Y-16673984D02*
X9703515Y-16664460D01*
X9703515Y-16664460D02*
X9693991Y-16654936D01*
X9693991Y-16654936D02*
X9684467Y-16635888D01*
X9684467Y-16635888D02*
X9674944Y-16597793D01*
X9674944Y-16597793D02*
X9674944Y-16550174D01*
X9674944Y-16550174D02*
X9684467Y-16512079D01*
X9684467Y-16512079D02*
X9693991Y-16493031D01*
X9693991Y-16493031D02*
X9703515Y-16483508D01*
X9703515Y-16483508D02*
X9722563Y-16473984D01*
X9913039Y-16473984D02*
X9932086Y-16473984D01*
X9932086Y-16473984D02*
X9951134Y-16483508D01*
X9951134Y-16483508D02*
X9960658Y-16493031D01*
X9960658Y-16493031D02*
X9970182Y-16512079D01*
X9970182Y-16512079D02*
X9979705Y-16550174D01*
X9979705Y-16550174D02*
X9979705Y-16597793D01*
X9979705Y-16597793D02*
X9970182Y-16635888D01*
X9970182Y-16635888D02*
X9960658Y-16654936D01*
X9960658Y-16654936D02*
X9951134Y-16664460D01*
X9951134Y-16664460D02*
X9932086Y-16673984D01*
X9932086Y-16673984D02*
X9913039Y-16673984D01*
X9913039Y-16673984D02*
X9893991Y-16664460D01*
X9893991Y-16664460D02*
X9884467Y-16654936D01*
X9884467Y-16654936D02*
X9874944Y-16635888D01*
X9874944Y-16635888D02*
X9865420Y-16597793D01*
X9865420Y-16597793D02*
X9865420Y-16550174D01*
X9865420Y-16550174D02*
X9874944Y-16512079D01*
X9874944Y-16512079D02*
X9884467Y-16493031D01*
X9884467Y-16493031D02*
X9893991Y-16483508D01*
X9893991Y-16483508D02*
X9913039Y-16473984D01*
X10065420Y-16673984D02*
X10065420Y-16540650D01*
X10065420Y-16559698D02*
X10074944Y-16550174D01*
X10074944Y-16550174D02*
X10093991Y-16540650D01*
X10093991Y-16540650D02*
X10122563Y-16540650D01*
X10122563Y-16540650D02*
X10141610Y-16550174D01*
X10141610Y-16550174D02*
X10151134Y-16569222D01*
X10151134Y-16569222D02*
X10151134Y-16673984D01*
X10151134Y-16569222D02*
X10160658Y-16550174D01*
X10160658Y-16550174D02*
X10179705Y-16540650D01*
X10179705Y-16540650D02*
X10208277Y-16540650D01*
X10208277Y-16540650D02*
X10227325Y-16550174D01*
X10227325Y-16550174D02*
X10236848Y-16569222D01*
X10236848Y-16569222D02*
X10236848Y-16673984D01*
X10332086Y-16673984D02*
X10332086Y-16540650D01*
X10332086Y-16559698D02*
X10341610Y-16550174D01*
X10341610Y-16550174D02*
X10360658Y-16540650D01*
X10360658Y-16540650D02*
X10389229Y-16540650D01*
X10389229Y-16540650D02*
X10408277Y-16550174D01*
X10408277Y-16550174D02*
X10417801Y-16569222D01*
X10417801Y-16569222D02*
X10417801Y-16673984D01*
X10417801Y-16569222D02*
X10427325Y-16550174D01*
X10427325Y-16550174D02*
X10446372Y-16540650D01*
X10446372Y-16540650D02*
X10474944Y-16540650D01*
X10474944Y-16540650D02*
X10493991Y-16550174D01*
X10493991Y-16550174D02*
X10503515Y-16569222D01*
X10503515Y-16569222D02*
X10503515Y-16673984D01*
X10893991Y-16464460D02*
X10722563Y-16721603D01*
X11151134Y-16473984D02*
X11170182Y-16473984D01*
X11170182Y-16473984D02*
X11189229Y-16483508D01*
X11189229Y-16483508D02*
X11198753Y-16493031D01*
X11198753Y-16493031D02*
X11208277Y-16512079D01*
X11208277Y-16512079D02*
X11217801Y-16550174D01*
X11217801Y-16550174D02*
X11217801Y-16597793D01*
X11217801Y-16597793D02*
X11208277Y-16635888D01*
X11208277Y-16635888D02*
X11198753Y-16654936D01*
X11198753Y-16654936D02*
X11189229Y-16664460D01*
X11189229Y-16664460D02*
X11170182Y-16673984D01*
X11170182Y-16673984D02*
X11151134Y-16673984D01*
X11151134Y-16673984D02*
X11132087Y-16664460D01*
X11132087Y-16664460D02*
X11122563Y-16654936D01*
X11122563Y-16654936D02*
X11113039Y-16635888D01*
X11113039Y-16635888D02*
X11103515Y-16597793D01*
X11103515Y-16597793D02*
X11103515Y-16550174D01*
X11103515Y-16550174D02*
X11113039Y-16512079D01*
X11113039Y-16512079D02*
X11122563Y-16493031D01*
X11122563Y-16493031D02*
X11132087Y-16483508D01*
X11132087Y-16483508D02*
X11151134Y-16473984D01*
X11303515Y-16654936D02*
X11313039Y-16664460D01*
X11313039Y-16664460D02*
X11303515Y-16673984D01*
X11303515Y-16673984D02*
X11293991Y-16664460D01*
X11293991Y-16664460D02*
X11303515Y-16654936D01*
X11303515Y-16654936D02*
X11303515Y-16673984D01*
X11389229Y-16493031D02*
X11398753Y-16483508D01*
X11398753Y-16483508D02*
X11417801Y-16473984D01*
X11417801Y-16473984D02*
X11465420Y-16473984D01*
X11465420Y-16473984D02*
X11484467Y-16483508D01*
X11484467Y-16483508D02*
X11493991Y-16493031D01*
X11493991Y-16493031D02*
X11503515Y-16512079D01*
X11503515Y-16512079D02*
X11503515Y-16531127D01*
X11503515Y-16531127D02*
X11493991Y-16559698D01*
X11493991Y-16559698D02*
X11379706Y-16673984D01*
X11379706Y-16673984D02*
X11503515Y-16673984D01*
X11570182Y-16473984D02*
X11703515Y-16473984D01*
X11703515Y-16473984D02*
X11617801Y-16673984D01*
X11874944Y-16473984D02*
X11779706Y-16473984D01*
X11779706Y-16473984D02*
X11770182Y-16569222D01*
X11770182Y-16569222D02*
X11779706Y-16559698D01*
X11779706Y-16559698D02*
X11798753Y-16550174D01*
X11798753Y-16550174D02*
X11846372Y-16550174D01*
X11846372Y-16550174D02*
X11865420Y-16559698D01*
X11865420Y-16559698D02*
X11874944Y-16569222D01*
X11874944Y-16569222D02*
X11884467Y-16588269D01*
X11884467Y-16588269D02*
X11884467Y-16635888D01*
X11884467Y-16635888D02*
X11874944Y-16654936D01*
X11874944Y-16654936D02*
X11865420Y-16664460D01*
X11865420Y-16664460D02*
X11846372Y-16673984D01*
X11846372Y-16673984D02*
X11798753Y-16673984D01*
X11798753Y-16673984D02*
X11779706Y-16664460D01*
X11779706Y-16664460D02*
X11770182Y-16654936D01*
X12055896Y-16473984D02*
X12017801Y-16473984D01*
X12017801Y-16473984D02*
X11998753Y-16483508D01*
X11998753Y-16483508D02*
X11989229Y-16493031D01*
X11989229Y-16493031D02*
X11970182Y-16521603D01*
X11970182Y-16521603D02*
X11960658Y-16559698D01*
X11960658Y-16559698D02*
X11960658Y-16635888D01*
X11960658Y-16635888D02*
X11970182Y-16654936D01*
X11970182Y-16654936D02*
X11979706Y-16664460D01*
X11979706Y-16664460D02*
X11998753Y-16673984D01*
X11998753Y-16673984D02*
X12036848Y-16673984D01*
X12036848Y-16673984D02*
X12055896Y-16664460D01*
X12055896Y-16664460D02*
X12065420Y-16654936D01*
X12065420Y-16654936D02*
X12074944Y-16635888D01*
X12074944Y-16635888D02*
X12074944Y-16588269D01*
X12074944Y-16588269D02*
X12065420Y-16569222D01*
X12065420Y-16569222D02*
X12055896Y-16559698D01*
X12055896Y-16559698D02*
X12036848Y-16550174D01*
X12036848Y-16550174D02*
X11998753Y-16550174D01*
X11998753Y-16550174D02*
X11979706Y-16559698D01*
X11979706Y-16559698D02*
X11970182Y-16569222D01*
X11970182Y-16569222D02*
X11960658Y-16588269D01*
X12151134Y-16473984D02*
X12151134Y-16512079D01*
X12227325Y-16473984D02*
X12227325Y-16512079D01*
X12522563Y-16750174D02*
X12513039Y-16740650D01*
X12513039Y-16740650D02*
X12493991Y-16712079D01*
X12493991Y-16712079D02*
X12484468Y-16693031D01*
X12484468Y-16693031D02*
X12474944Y-16664460D01*
X12474944Y-16664460D02*
X12465420Y-16616841D01*
X12465420Y-16616841D02*
X12465420Y-16578746D01*
X12465420Y-16578746D02*
X12474944Y-16531127D01*
X12474944Y-16531127D02*
X12484468Y-16502555D01*
X12484468Y-16502555D02*
X12493991Y-16483508D01*
X12493991Y-16483508D02*
X12513039Y-16454936D01*
X12513039Y-16454936D02*
X12522563Y-16445412D01*
X12693991Y-16473984D02*
X12598753Y-16473984D01*
X12598753Y-16473984D02*
X12589229Y-16569222D01*
X12589229Y-16569222D02*
X12598753Y-16559698D01*
X12598753Y-16559698D02*
X12617801Y-16550174D01*
X12617801Y-16550174D02*
X12665420Y-16550174D01*
X12665420Y-16550174D02*
X12684468Y-16559698D01*
X12684468Y-16559698D02*
X12693991Y-16569222D01*
X12693991Y-16569222D02*
X12703515Y-16588269D01*
X12703515Y-16588269D02*
X12703515Y-16635888D01*
X12703515Y-16635888D02*
X12693991Y-16654936D01*
X12693991Y-16654936D02*
X12684468Y-16664460D01*
X12684468Y-16664460D02*
X12665420Y-16673984D01*
X12665420Y-16673984D02*
X12617801Y-16673984D01*
X12617801Y-16673984D02*
X12598753Y-16664460D01*
X12598753Y-16664460D02*
X12589229Y-16654936D01*
X12941610Y-16673984D02*
X12941610Y-16473984D01*
X13027325Y-16673984D02*
X13027325Y-16569222D01*
X13027325Y-16569222D02*
X13017801Y-16550174D01*
X13017801Y-16550174D02*
X12998753Y-16540650D01*
X12998753Y-16540650D02*
X12970182Y-16540650D01*
X12970182Y-16540650D02*
X12951134Y-16550174D01*
X12951134Y-16550174D02*
X12941610Y-16559698D01*
X13151134Y-16673984D02*
X13132087Y-16664460D01*
X13132087Y-16664460D02*
X13122563Y-16654936D01*
X13122563Y-16654936D02*
X13113039Y-16635888D01*
X13113039Y-16635888D02*
X13113039Y-16578746D01*
X13113039Y-16578746D02*
X13122563Y-16559698D01*
X13122563Y-16559698D02*
X13132087Y-16550174D01*
X13132087Y-16550174D02*
X13151134Y-16540650D01*
X13151134Y-16540650D02*
X13179706Y-16540650D01*
X13179706Y-16540650D02*
X13198753Y-16550174D01*
X13198753Y-16550174D02*
X13208277Y-16559698D01*
X13208277Y-16559698D02*
X13217801Y-16578746D01*
X13217801Y-16578746D02*
X13217801Y-16635888D01*
X13217801Y-16635888D02*
X13208277Y-16654936D01*
X13208277Y-16654936D02*
X13198753Y-16664460D01*
X13198753Y-16664460D02*
X13179706Y-16673984D01*
X13179706Y-16673984D02*
X13151134Y-16673984D01*
X13332087Y-16673984D02*
X13313039Y-16664460D01*
X13313039Y-16664460D02*
X13303515Y-16645412D01*
X13303515Y-16645412D02*
X13303515Y-16473984D01*
X13484468Y-16664460D02*
X13465420Y-16673984D01*
X13465420Y-16673984D02*
X13427325Y-16673984D01*
X13427325Y-16673984D02*
X13408277Y-16664460D01*
X13408277Y-16664460D02*
X13398753Y-16645412D01*
X13398753Y-16645412D02*
X13398753Y-16569222D01*
X13398753Y-16569222D02*
X13408277Y-16550174D01*
X13408277Y-16550174D02*
X13427325Y-16540650D01*
X13427325Y-16540650D02*
X13465420Y-16540650D01*
X13465420Y-16540650D02*
X13484468Y-16550174D01*
X13484468Y-16550174D02*
X13493991Y-16569222D01*
X13493991Y-16569222D02*
X13493991Y-16588269D01*
X13493991Y-16588269D02*
X13398753Y-16607317D01*
X13570182Y-16664460D02*
X13589230Y-16673984D01*
X13589230Y-16673984D02*
X13627325Y-16673984D01*
X13627325Y-16673984D02*
X13646372Y-16664460D01*
X13646372Y-16664460D02*
X13655896Y-16645412D01*
X13655896Y-16645412D02*
X13655896Y-16635888D01*
X13655896Y-16635888D02*
X13646372Y-16616841D01*
X13646372Y-16616841D02*
X13627325Y-16607317D01*
X13627325Y-16607317D02*
X13598753Y-16607317D01*
X13598753Y-16607317D02*
X13579706Y-16597793D01*
X13579706Y-16597793D02*
X13570182Y-16578746D01*
X13570182Y-16578746D02*
X13570182Y-16569222D01*
X13570182Y-16569222D02*
X13579706Y-16550174D01*
X13579706Y-16550174D02*
X13598753Y-16540650D01*
X13598753Y-16540650D02*
X13627325Y-16540650D01*
X13627325Y-16540650D02*
X13646372Y-16550174D01*
X13722563Y-16750174D02*
X13732087Y-16740650D01*
X13732087Y-16740650D02*
X13751134Y-16712079D01*
X13751134Y-16712079D02*
X13760658Y-16693031D01*
X13760658Y-16693031D02*
X13770182Y-16664460D01*
X13770182Y-16664460D02*
X13779706Y-16616841D01*
X13779706Y-16616841D02*
X13779706Y-16578746D01*
X13779706Y-16578746D02*
X13770182Y-16531127D01*
X13770182Y-16531127D02*
X13760658Y-16502555D01*
X13760658Y-16502555D02*
X13751134Y-16483508D01*
X13751134Y-16483508D02*
X13732087Y-16454936D01*
X13732087Y-16454936D02*
X13722563Y-16445412D01*
M02*
