G04 #@! TF.GenerationSoftware,KiCad,Pcbnew,7.0.7-7.0.7~ubuntu22.04.1*
G04 #@! TF.CreationDate,2024-01-01T18:28:44+01:00*
G04 #@! TF.ProjectId,Basic-ADSR,42617369-632d-4414-9453-522e6b696361,rev?*
G04 #@! TF.SameCoordinates,Original*
G04 #@! TF.FileFunction,Copper,L2,Bot*
G04 #@! TF.FilePolarity,Positive*
%FSLAX46Y46*%
G04 Gerber Fmt 4.6, Leading zero omitted, Abs format (unit mm)*
G04 Created by KiCad (PCBNEW 7.0.7-7.0.7~ubuntu22.04.1) date 2024-01-01 18:28:44*
%MOMM*%
%LPD*%
G01*
G04 APERTURE LIST*
G04 #@! TA.AperFunction,ComponentPad*
%ADD10O,6.700000X4.200000*%
G04 #@! TD*
G04 #@! TA.AperFunction,ViaPad*
%ADD11C,8.000000*%
G04 #@! TD*
G04 APERTURE END LIST*
D10*
X104500000Y-27500000D03*
X94500000Y-150000000D03*
D11*
X94500000Y-127000000D03*
X104500000Y-122200000D03*
X99500000Y-76100000D03*
X99500000Y-94100000D03*
X99500000Y-58100000D03*
X99500000Y-40200000D03*
X104500000Y-137000000D03*
G04 #@! TA.AperFunction,Conductor*
G36*
X109442539Y-24520185D02*
G01*
X109488294Y-24572989D01*
X109499500Y-24624500D01*
X109499500Y-152875500D01*
X109479815Y-152942539D01*
X109427011Y-152988294D01*
X109375500Y-152999500D01*
X89624500Y-152999500D01*
X89557461Y-152979815D01*
X89511706Y-152927011D01*
X89500500Y-152875500D01*
X89500500Y-150080483D01*
X90637782Y-150080483D01*
X90667471Y-150400880D01*
X90667472Y-150400886D01*
X90736309Y-150715206D01*
X90790356Y-150868578D01*
X90843253Y-151018689D01*
X90986680Y-151306729D01*
X91164416Y-151574960D01*
X91164419Y-151574963D01*
X91164420Y-151574965D01*
X91271856Y-151700365D01*
X91373768Y-151819316D01*
X91611562Y-152036094D01*
X91611565Y-152036096D01*
X91874174Y-152221994D01*
X91874182Y-152221998D01*
X91874192Y-152222006D01*
X92157679Y-152374235D01*
X92319635Y-152436977D01*
X92457715Y-152490470D01*
X92457718Y-152490470D01*
X92457724Y-152490473D01*
X92769779Y-152568958D01*
X92889529Y-152583786D01*
X93089108Y-152608500D01*
X93089113Y-152608500D01*
X95830363Y-152608500D01*
X95830368Y-152608500D01*
X96071163Y-152593648D01*
X96387458Y-152534523D01*
X96694090Y-152436976D01*
X96986410Y-152302487D01*
X97259987Y-152133096D01*
X97510675Y-151931368D01*
X97734672Y-151700363D01*
X97928584Y-151443582D01*
X98089471Y-151164918D01*
X98214894Y-150868595D01*
X98302951Y-150559105D01*
X98352308Y-150241139D01*
X98362217Y-149919518D01*
X98332528Y-149599118D01*
X98263690Y-149284794D01*
X98156747Y-148981311D01*
X98013320Y-148693271D01*
X97835584Y-148425040D01*
X97728145Y-148299637D01*
X97626234Y-148180686D01*
X97626229Y-148180681D01*
X97388444Y-147963911D01*
X97388434Y-147963903D01*
X97125825Y-147778005D01*
X97125813Y-147777998D01*
X97125808Y-147777994D01*
X97125799Y-147777989D01*
X96842333Y-147625771D01*
X96842328Y-147625768D01*
X96842321Y-147625765D01*
X96773944Y-147599275D01*
X96542284Y-147509529D01*
X96230217Y-147431041D01*
X95910892Y-147391500D01*
X95910887Y-147391500D01*
X93169632Y-147391500D01*
X93106971Y-147395364D01*
X92928839Y-147406351D01*
X92612544Y-147465476D01*
X92612542Y-147465477D01*
X92305915Y-147563022D01*
X92305912Y-147563023D01*
X92305910Y-147563024D01*
X92190447Y-147616145D01*
X92013589Y-147697513D01*
X91740025Y-147866895D01*
X91740005Y-147866909D01*
X91489328Y-148068628D01*
X91265329Y-148299634D01*
X91071413Y-148556421D01*
X91071411Y-148556424D01*
X90910533Y-148835074D01*
X90910523Y-148835094D01*
X90785108Y-149131398D01*
X90785100Y-149131421D01*
X90697049Y-149440893D01*
X90647691Y-149758866D01*
X90637782Y-150080483D01*
X89500500Y-150080483D01*
X89500500Y-138250000D01*
X92000000Y-138250000D01*
X92000000Y-143250000D01*
X97000000Y-143250000D01*
X97000000Y-138250000D01*
X92000000Y-138250000D01*
X89500500Y-138250000D01*
X89500500Y-27580483D01*
X100637782Y-27580483D01*
X100667471Y-27900880D01*
X100667472Y-27900886D01*
X100736309Y-28215206D01*
X100790356Y-28368578D01*
X100843253Y-28518689D01*
X100986680Y-28806729D01*
X101164416Y-29074960D01*
X101164419Y-29074963D01*
X101164420Y-29074965D01*
X101271856Y-29200365D01*
X101373768Y-29319316D01*
X101611562Y-29536094D01*
X101611565Y-29536096D01*
X101874174Y-29721994D01*
X101874182Y-29721998D01*
X101874192Y-29722006D01*
X102157679Y-29874235D01*
X102319635Y-29936977D01*
X102457715Y-29990470D01*
X102457718Y-29990470D01*
X102457724Y-29990473D01*
X102769779Y-30068958D01*
X102889529Y-30083786D01*
X103089108Y-30108500D01*
X103089113Y-30108500D01*
X105830363Y-30108500D01*
X105830368Y-30108500D01*
X106071163Y-30093648D01*
X106387458Y-30034523D01*
X106694090Y-29936976D01*
X106986410Y-29802487D01*
X107259987Y-29633096D01*
X107510675Y-29431368D01*
X107734672Y-29200363D01*
X107928584Y-28943582D01*
X108089471Y-28664918D01*
X108214894Y-28368595D01*
X108302951Y-28059105D01*
X108352308Y-27741139D01*
X108362217Y-27419518D01*
X108332528Y-27099118D01*
X108263690Y-26784794D01*
X108156747Y-26481311D01*
X108013320Y-26193271D01*
X107835584Y-25925040D01*
X107728145Y-25799637D01*
X107626234Y-25680686D01*
X107626229Y-25680681D01*
X107388444Y-25463911D01*
X107388434Y-25463903D01*
X107125825Y-25278005D01*
X107125813Y-25277998D01*
X107125808Y-25277994D01*
X107125799Y-25277989D01*
X106842333Y-25125771D01*
X106842328Y-25125768D01*
X106842321Y-25125765D01*
X106773944Y-25099275D01*
X106542284Y-25009529D01*
X106230217Y-24931041D01*
X105910892Y-24891500D01*
X105910887Y-24891500D01*
X103169632Y-24891500D01*
X103106971Y-24895364D01*
X102928839Y-24906351D01*
X102612544Y-24965476D01*
X102612542Y-24965477D01*
X102305915Y-25063022D01*
X102305912Y-25063023D01*
X102305910Y-25063024D01*
X102190447Y-25116145D01*
X102013589Y-25197513D01*
X101740025Y-25366895D01*
X101740005Y-25366909D01*
X101489328Y-25568628D01*
X101265329Y-25799634D01*
X101071413Y-26056421D01*
X101071411Y-26056424D01*
X100910533Y-26335074D01*
X100910523Y-26335094D01*
X100785108Y-26631398D01*
X100785100Y-26631421D01*
X100697049Y-26940893D01*
X100647691Y-27258866D01*
X100637782Y-27580483D01*
X89500500Y-27580483D01*
X89500500Y-24624500D01*
X89520185Y-24557461D01*
X89572989Y-24511706D01*
X89624500Y-24500500D01*
X109375500Y-24500500D01*
X109442539Y-24520185D01*
G37*
G04 #@! TD.AperFunction*
M02*
