%TF.GenerationSoftware,KiCad,Pcbnew,7.0.7-7.0.7~ubuntu22.04.1*%
%TF.CreationDate,2023-09-25T23:33:37+02:00*%
%TF.ProjectId,Basic-ADSR,42617369-632d-4414-9453-522e6b696361,rev?*%
%TF.SameCoordinates,Original*%
%TF.FileFunction,Drillmap*%
%TF.FilePolarity,Positive*%
%FSLAX45Y45*%
G04 Gerber Fmt 4.5, Leading zero omitted, Abs format (unit mm)*
G04 Created by KiCad (PCBNEW 7.0.7-7.0.7~ubuntu22.04.1) date 2023-09-25 23:33:37*
%MOMM*%
%LPD*%
G01*
G04 APERTURE LIST*
%ADD10C,0.050000*%
%ADD11C,0.200000*%
%ADD12C,0.040000*%
%ADD13C,0.075000*%
%ADD14C,0.080000*%
%ADD15C,0.100000*%
G04 APERTURE END LIST*
D10*
X2860000Y-3400000D02*
X4860000Y-3400000D01*
X4860000Y-3400000D02*
X4860000Y-14350000D01*
X2860000Y-3400000D02*
X2860000Y-14350000D01*
X2860000Y-14350000D02*
X4860000Y-14350000D01*
D11*
D12*
X3577000Y-10360000D02*
X3617000Y-10400000D01*
X3617000Y-10360000D02*
X3577000Y-10400000D01*
X3660000Y-8440000D02*
X3700000Y-8480000D01*
X3700000Y-8440000D02*
X3660000Y-8480000D01*
X3720000Y-6360000D02*
X3760000Y-6400000D01*
X3760000Y-6360000D02*
X3720000Y-6400000D01*
X3940000Y-7020000D02*
X3980000Y-7060000D01*
X3980000Y-7020000D02*
X3940000Y-7060000D01*
X4540000Y-6360000D02*
X4580000Y-6400000D01*
X4580000Y-6360000D02*
X4540000Y-6400000D01*
D13*
X3317500Y-8090000D02*
G75*
G03*
X3317500Y-8090000I-37500J0D01*
G01*
X3317500Y-8217000D02*
G75*
G03*
X3317500Y-8217000I-37500J0D01*
G01*
X3317500Y-8344000D02*
G75*
G03*
X3317500Y-8344000I-37500J0D01*
G01*
X3317500Y-8663000D02*
G75*
G03*
X3317500Y-8663000I-37500J0D01*
G01*
X3317500Y-8790000D02*
G75*
G03*
X3317500Y-8790000I-37500J0D01*
G01*
X3317500Y-8917000D02*
G75*
G03*
X3317500Y-8917000I-37500J0D01*
G01*
X3317500Y-9223000D02*
G75*
G03*
X3317500Y-9223000I-37500J0D01*
G01*
X3317500Y-9350000D02*
G75*
G03*
X3317500Y-9350000I-37500J0D01*
G01*
X3317500Y-9477000D02*
G75*
G03*
X3317500Y-9477000I-37500J0D01*
G01*
D14*
X3180000Y-3814489D02*
X3180000Y-3894489D01*
X3140000Y-3854489D02*
X3220000Y-3854489D01*
X3180000Y-4014489D02*
X3180000Y-4094489D01*
X3140000Y-4054489D02*
X3220000Y-4054489D01*
X3280000Y-6820000D02*
X3280000Y-6900000D01*
X3240000Y-6860000D02*
X3320000Y-6860000D01*
X3280000Y-7320000D02*
X3280000Y-7400000D01*
X3240000Y-7360000D02*
X3320000Y-7360000D01*
X3352000Y-5770000D02*
X3352000Y-5850000D01*
X3312000Y-5810000D02*
X3392000Y-5810000D01*
X3379000Y-5470000D02*
X3379000Y-5550000D01*
X3339000Y-5510000D02*
X3419000Y-5510000D01*
X3380000Y-4550000D02*
X3380000Y-4630000D01*
X3340000Y-4590000D02*
X3420000Y-4590000D01*
X3380000Y-4850000D02*
X3380000Y-4930000D01*
X3340000Y-4890000D02*
X3420000Y-4890000D01*
X3380000Y-5170000D02*
X3380000Y-5250000D01*
X3340000Y-5210000D02*
X3420000Y-5210000D01*
X3440000Y-11220000D02*
X3440000Y-11300000D01*
X3400000Y-11260000D02*
X3480000Y-11260000D01*
X3440000Y-11800000D02*
X3440000Y-11880000D01*
X3400000Y-11840000D02*
X3480000Y-11840000D01*
X3600000Y-6090000D02*
X3600000Y-6170000D01*
X3560000Y-6130000D02*
X3640000Y-6130000D01*
X3600000Y-6852000D02*
X3600000Y-6932000D01*
X3560000Y-6892000D02*
X3640000Y-6892000D01*
X3618000Y-3500000D02*
X3618000Y-3580000D01*
X3578000Y-3540000D02*
X3658000Y-3540000D01*
X3618000Y-4262000D02*
X3618000Y-4342000D01*
X3578000Y-4302000D02*
X3658000Y-4302000D01*
X3640000Y-11220000D02*
X3640000Y-11300000D01*
X3600000Y-11260000D02*
X3680000Y-11260000D01*
X3640000Y-11800000D02*
X3640000Y-11880000D01*
X3600000Y-11840000D02*
X3680000Y-11840000D01*
X3712000Y-7450000D02*
X3712000Y-7530000D01*
X3672000Y-7490000D02*
X3752000Y-7490000D01*
X3712000Y-7770000D02*
X3712000Y-7850000D01*
X3672000Y-7810000D02*
X3752000Y-7810000D01*
X3712000Y-8690000D02*
X3712000Y-8770000D01*
X3672000Y-8730000D02*
X3752000Y-8730000D01*
X3712000Y-9010000D02*
X3712000Y-9090000D01*
X3672000Y-9050000D02*
X3752000Y-9050000D01*
X3712000Y-9330000D02*
X3712000Y-9410000D01*
X3672000Y-9370000D02*
X3752000Y-9370000D01*
X3712000Y-9930000D02*
X3712000Y-10010000D01*
X3672000Y-9970000D02*
X3752000Y-9970000D01*
X3819000Y-7150000D02*
X3819000Y-7230000D01*
X3779000Y-7190000D02*
X3859000Y-7190000D01*
X3839000Y-8070000D02*
X3839000Y-8150000D01*
X3799000Y-8110000D02*
X3879000Y-8110000D01*
X3839000Y-9630000D02*
X3839000Y-9710000D01*
X3799000Y-9670000D02*
X3879000Y-9670000D01*
X3854000Y-6090000D02*
X3854000Y-6170000D01*
X3814000Y-6130000D02*
X3894000Y-6130000D01*
X3854000Y-6852000D02*
X3854000Y-6932000D01*
X3814000Y-6892000D02*
X3894000Y-6892000D01*
X3872000Y-3500000D02*
X3872000Y-3580000D01*
X3832000Y-3540000D02*
X3912000Y-3540000D01*
X3872000Y-4262000D02*
X3872000Y-4342000D01*
X3832000Y-4302000D02*
X3912000Y-4302000D01*
X3970000Y-8370000D02*
X3970000Y-8450000D01*
X3930000Y-8410000D02*
X4010000Y-8410000D01*
X4080000Y-13750000D02*
X4080000Y-13830000D01*
X4040000Y-13790000D02*
X4120000Y-13790000D01*
X4108000Y-6090000D02*
X4108000Y-6170000D01*
X4068000Y-6130000D02*
X4148000Y-6130000D01*
X4108000Y-6852000D02*
X4108000Y-6932000D01*
X4068000Y-6892000D02*
X4148000Y-6892000D01*
X4126000Y-3500000D02*
X4126000Y-3580000D01*
X4086000Y-3540000D02*
X4166000Y-3540000D01*
X4126000Y-4262000D02*
X4126000Y-4342000D01*
X4086000Y-4302000D02*
X4166000Y-4302000D01*
X4140000Y-12730000D02*
X4140000Y-12810000D01*
X4100000Y-12770000D02*
X4180000Y-12770000D01*
X4141000Y-5470000D02*
X4141000Y-5550000D01*
X4101000Y-5510000D02*
X4181000Y-5510000D01*
X4142000Y-4550000D02*
X4142000Y-4630000D01*
X4102000Y-4590000D02*
X4182000Y-4590000D01*
X4280000Y-13750000D02*
X4280000Y-13830000D01*
X4240000Y-13790000D02*
X4320000Y-13790000D01*
X4340000Y-12730000D02*
X4340000Y-12810000D01*
X4300000Y-12770000D02*
X4380000Y-12770000D01*
X4362000Y-6090000D02*
X4362000Y-6170000D01*
X4322000Y-6130000D02*
X4402000Y-6130000D01*
X4362000Y-6852000D02*
X4362000Y-6932000D01*
X4322000Y-6892000D02*
X4402000Y-6892000D01*
X4368000Y-5770000D02*
X4368000Y-5850000D01*
X4328000Y-5810000D02*
X4408000Y-5810000D01*
X4380000Y-3500000D02*
X4380000Y-3580000D01*
X4340000Y-3540000D02*
X4420000Y-3540000D01*
X4380000Y-4262000D02*
X4380000Y-4342000D01*
X4340000Y-4302000D02*
X4420000Y-4302000D01*
X4396000Y-4850000D02*
X4396000Y-4930000D01*
X4356000Y-4890000D02*
X4436000Y-4890000D01*
X4396000Y-5170000D02*
X4396000Y-5250000D01*
X4356000Y-5210000D02*
X4436000Y-5210000D01*
X4470000Y-8370000D02*
X4470000Y-8450000D01*
X4430000Y-8410000D02*
X4510000Y-8410000D01*
X4581000Y-7150000D02*
X4581000Y-7230000D01*
X4541000Y-7190000D02*
X4621000Y-7190000D01*
X4601000Y-8070000D02*
X4601000Y-8150000D01*
X4561000Y-8110000D02*
X4641000Y-8110000D01*
X4601000Y-9630000D02*
X4601000Y-9710000D01*
X4561000Y-9670000D02*
X4641000Y-9670000D01*
X4680000Y-4702000D02*
X4680000Y-4782000D01*
X4640000Y-4742000D02*
X4720000Y-4742000D01*
X4680000Y-5718000D02*
X4680000Y-5798000D01*
X4640000Y-5758000D02*
X4720000Y-5758000D01*
X4680000Y-6100000D02*
X4680000Y-6180000D01*
X4640000Y-6140000D02*
X4720000Y-6140000D01*
X4680000Y-6600000D02*
X4680000Y-6680000D01*
X4640000Y-6640000D02*
X4720000Y-6640000D01*
X4700000Y-3510000D02*
X4700000Y-3590000D01*
X4660000Y-3550000D02*
X4740000Y-3550000D01*
X4700000Y-4010000D02*
X4700000Y-4090000D01*
X4660000Y-4050000D02*
X4740000Y-4050000D01*
X4728000Y-7450000D02*
X4728000Y-7530000D01*
X4688000Y-7490000D02*
X4768000Y-7490000D01*
X4728000Y-7770000D02*
X4728000Y-7850000D01*
X4688000Y-7810000D02*
X4768000Y-7810000D01*
X4728000Y-8690000D02*
X4728000Y-8770000D01*
X4688000Y-8730000D02*
X4768000Y-8730000D01*
X4728000Y-9010000D02*
X4728000Y-9090000D01*
X4688000Y-9050000D02*
X4768000Y-9050000D01*
X4728000Y-9330000D02*
X4728000Y-9410000D01*
X4688000Y-9370000D02*
X4768000Y-9370000D01*
X4728000Y-9930000D02*
X4728000Y-10010000D01*
X4688000Y-9970000D02*
X4768000Y-9970000D01*
D15*
X3075356Y-4945356D02*
X3075356Y-4874644D01*
X3004644Y-4874644D01*
X3004644Y-4945356D01*
X3075356Y-4945356D01*
X3075356Y-5199356D02*
X3075356Y-5128644D01*
X3004644Y-5128644D01*
X3004644Y-5199356D01*
X3075356Y-5199356D01*
X3075356Y-5453356D02*
X3075356Y-5382644D01*
X3004644Y-5382644D01*
X3004644Y-5453356D01*
X3075356Y-5453356D01*
X3075356Y-5707356D02*
X3075356Y-5636644D01*
X3004644Y-5636644D01*
X3004644Y-5707356D01*
X3075356Y-5707356D01*
X3075356Y-5961356D02*
X3075356Y-5890644D01*
X3004644Y-5890644D01*
X3004644Y-5961356D01*
X3075356Y-5961356D01*
X3075356Y-6215356D02*
X3075356Y-6144644D01*
X3004644Y-6144644D01*
X3004644Y-6215356D01*
X3075356Y-6215356D01*
X3075356Y-6469356D02*
X3075356Y-6398644D01*
X3004644Y-6398644D01*
X3004644Y-6469356D01*
X3075356Y-6469356D01*
X3075356Y-6723356D02*
X3075356Y-6652644D01*
X3004644Y-6652644D01*
X3004644Y-6723356D01*
X3075356Y-6723356D01*
X3075356Y-10085356D02*
X3075356Y-10014644D01*
X3004644Y-10014644D01*
X3004644Y-10085356D01*
X3075356Y-10085356D01*
X3075356Y-10339356D02*
X3075356Y-10268644D01*
X3004644Y-10268644D01*
X3004644Y-10339356D01*
X3075356Y-10339356D01*
X3075356Y-10593356D02*
X3075356Y-10522644D01*
X3004644Y-10522644D01*
X3004644Y-10593356D01*
X3075356Y-10593356D01*
X3075356Y-10847356D02*
X3075356Y-10776644D01*
X3004644Y-10776644D01*
X3004644Y-10847356D01*
X3075356Y-10847356D01*
X3075356Y-11101356D02*
X3075356Y-11030644D01*
X3004644Y-11030644D01*
X3004644Y-11101356D01*
X3075356Y-11101356D01*
X3075356Y-11355356D02*
X3075356Y-11284644D01*
X3004644Y-11284644D01*
X3004644Y-11355356D01*
X3075356Y-11355356D01*
X3075356Y-11609356D02*
X3075356Y-11538644D01*
X3004644Y-11538644D01*
X3004644Y-11609356D01*
X3075356Y-11609356D01*
X3075356Y-11863356D02*
X3075356Y-11792644D01*
X3004644Y-11792644D01*
X3004644Y-11863356D01*
X3075356Y-11863356D01*
X3261356Y-12797356D02*
X3261356Y-12726644D01*
X3190644Y-12726644D01*
X3190644Y-12797356D01*
X3261356Y-12797356D01*
X3261356Y-13051356D02*
X3261356Y-12980644D01*
X3190644Y-12980644D01*
X3190644Y-13051356D01*
X3261356Y-13051356D01*
X3261356Y-13305356D02*
X3261356Y-13234644D01*
X3190644Y-13234644D01*
X3190644Y-13305356D01*
X3261356Y-13305356D01*
X3261356Y-13559356D02*
X3261356Y-13488644D01*
X3190644Y-13488644D01*
X3190644Y-13559356D01*
X3261356Y-13559356D01*
X3261356Y-13813356D02*
X3261356Y-13742644D01*
X3190644Y-13742644D01*
X3190644Y-13813356D01*
X3261356Y-13813356D01*
X3515356Y-12797356D02*
X3515356Y-12726644D01*
X3444644Y-12726644D01*
X3444644Y-12797356D01*
X3515356Y-12797356D01*
X3515356Y-13051356D02*
X3515356Y-12980644D01*
X3444644Y-12980644D01*
X3444644Y-13051356D01*
X3515356Y-13051356D01*
X3515356Y-13305356D02*
X3515356Y-13234644D01*
X3444644Y-13234644D01*
X3444644Y-13305356D01*
X3515356Y-13305356D01*
X3515356Y-13559356D02*
X3515356Y-13488644D01*
X3444644Y-13488644D01*
X3444644Y-13559356D01*
X3515356Y-13559356D01*
X3515356Y-13813356D02*
X3515356Y-13742644D01*
X3444644Y-13742644D01*
X3444644Y-13813356D01*
X3515356Y-13813356D01*
D11*
X3118277Y-14663984D02*
X3118277Y-14463984D01*
X3118277Y-14463984D02*
X3165896Y-14463984D01*
X3165896Y-14463984D02*
X3194467Y-14473508D01*
X3194467Y-14473508D02*
X3213515Y-14492555D01*
X3213515Y-14492555D02*
X3223039Y-14511603D01*
X3223039Y-14511603D02*
X3232562Y-14549698D01*
X3232562Y-14549698D02*
X3232562Y-14578269D01*
X3232562Y-14578269D02*
X3223039Y-14616365D01*
X3223039Y-14616365D02*
X3213515Y-14635412D01*
X3213515Y-14635412D02*
X3194467Y-14654460D01*
X3194467Y-14654460D02*
X3165896Y-14663984D01*
X3165896Y-14663984D02*
X3118277Y-14663984D01*
X3318277Y-14663984D02*
X3318277Y-14530650D01*
X3318277Y-14568746D02*
X3327801Y-14549698D01*
X3327801Y-14549698D02*
X3337324Y-14540174D01*
X3337324Y-14540174D02*
X3356372Y-14530650D01*
X3356372Y-14530650D02*
X3375420Y-14530650D01*
X3442086Y-14663984D02*
X3442086Y-14530650D01*
X3442086Y-14463984D02*
X3432562Y-14473508D01*
X3432562Y-14473508D02*
X3442086Y-14483031D01*
X3442086Y-14483031D02*
X3451610Y-14473508D01*
X3451610Y-14473508D02*
X3442086Y-14463984D01*
X3442086Y-14463984D02*
X3442086Y-14483031D01*
X3565896Y-14663984D02*
X3546848Y-14654460D01*
X3546848Y-14654460D02*
X3537324Y-14635412D01*
X3537324Y-14635412D02*
X3537324Y-14463984D01*
X3670658Y-14663984D02*
X3651610Y-14654460D01*
X3651610Y-14654460D02*
X3642086Y-14635412D01*
X3642086Y-14635412D02*
X3642086Y-14463984D01*
X3899229Y-14663984D02*
X3899229Y-14463984D01*
X3899229Y-14463984D02*
X3965896Y-14606841D01*
X3965896Y-14606841D02*
X4032562Y-14463984D01*
X4032562Y-14463984D02*
X4032562Y-14663984D01*
X4213515Y-14663984D02*
X4213515Y-14559222D01*
X4213515Y-14559222D02*
X4203991Y-14540174D01*
X4203991Y-14540174D02*
X4184943Y-14530650D01*
X4184943Y-14530650D02*
X4146848Y-14530650D01*
X4146848Y-14530650D02*
X4127801Y-14540174D01*
X4213515Y-14654460D02*
X4194467Y-14663984D01*
X4194467Y-14663984D02*
X4146848Y-14663984D01*
X4146848Y-14663984D02*
X4127801Y-14654460D01*
X4127801Y-14654460D02*
X4118277Y-14635412D01*
X4118277Y-14635412D02*
X4118277Y-14616365D01*
X4118277Y-14616365D02*
X4127801Y-14597317D01*
X4127801Y-14597317D02*
X4146848Y-14587793D01*
X4146848Y-14587793D02*
X4194467Y-14587793D01*
X4194467Y-14587793D02*
X4213515Y-14578269D01*
X4308753Y-14530650D02*
X4308753Y-14730650D01*
X4308753Y-14540174D02*
X4327801Y-14530650D01*
X4327801Y-14530650D02*
X4365896Y-14530650D01*
X4365896Y-14530650D02*
X4384944Y-14540174D01*
X4384944Y-14540174D02*
X4394467Y-14549698D01*
X4394467Y-14549698D02*
X4403991Y-14568746D01*
X4403991Y-14568746D02*
X4403991Y-14625888D01*
X4403991Y-14625888D02*
X4394467Y-14644936D01*
X4394467Y-14644936D02*
X4384944Y-14654460D01*
X4384944Y-14654460D02*
X4365896Y-14663984D01*
X4365896Y-14663984D02*
X4327801Y-14663984D01*
X4327801Y-14663984D02*
X4308753Y-14654460D01*
X4489705Y-14644936D02*
X4499229Y-14654460D01*
X4499229Y-14654460D02*
X4489705Y-14663984D01*
X4489705Y-14663984D02*
X4480182Y-14654460D01*
X4480182Y-14654460D02*
X4489705Y-14644936D01*
X4489705Y-14644936D02*
X4489705Y-14663984D01*
X4489705Y-14540174D02*
X4499229Y-14549698D01*
X4499229Y-14549698D02*
X4489705Y-14559222D01*
X4489705Y-14559222D02*
X4480182Y-14549698D01*
X4480182Y-14549698D02*
X4489705Y-14540174D01*
X4489705Y-14540174D02*
X4489705Y-14559222D01*
D12*
X2817500Y-14972500D02*
X2857500Y-15012500D01*
X2857500Y-14972500D02*
X2817500Y-15012500D01*
D11*
X3156372Y-14883984D02*
X3175420Y-14883984D01*
X3175420Y-14883984D02*
X3194467Y-14893508D01*
X3194467Y-14893508D02*
X3203991Y-14903031D01*
X3203991Y-14903031D02*
X3213515Y-14922079D01*
X3213515Y-14922079D02*
X3223039Y-14960174D01*
X3223039Y-14960174D02*
X3223039Y-15007793D01*
X3223039Y-15007793D02*
X3213515Y-15045888D01*
X3213515Y-15045888D02*
X3203991Y-15064936D01*
X3203991Y-15064936D02*
X3194467Y-15074460D01*
X3194467Y-15074460D02*
X3175420Y-15083984D01*
X3175420Y-15083984D02*
X3156372Y-15083984D01*
X3156372Y-15083984D02*
X3137324Y-15074460D01*
X3137324Y-15074460D02*
X3127801Y-15064936D01*
X3127801Y-15064936D02*
X3118277Y-15045888D01*
X3118277Y-15045888D02*
X3108753Y-15007793D01*
X3108753Y-15007793D02*
X3108753Y-14960174D01*
X3108753Y-14960174D02*
X3118277Y-14922079D01*
X3118277Y-14922079D02*
X3127801Y-14903031D01*
X3127801Y-14903031D02*
X3137324Y-14893508D01*
X3137324Y-14893508D02*
X3156372Y-14883984D01*
X3308753Y-15064936D02*
X3318277Y-15074460D01*
X3318277Y-15074460D02*
X3308753Y-15083984D01*
X3308753Y-15083984D02*
X3299229Y-15074460D01*
X3299229Y-15074460D02*
X3308753Y-15064936D01*
X3308753Y-15064936D02*
X3308753Y-15083984D01*
X3489705Y-14950650D02*
X3489705Y-15083984D01*
X3442086Y-14874460D02*
X3394467Y-15017317D01*
X3394467Y-15017317D02*
X3518277Y-15017317D01*
X3632562Y-14883984D02*
X3651610Y-14883984D01*
X3651610Y-14883984D02*
X3670658Y-14893508D01*
X3670658Y-14893508D02*
X3680182Y-14903031D01*
X3680182Y-14903031D02*
X3689705Y-14922079D01*
X3689705Y-14922079D02*
X3699229Y-14960174D01*
X3699229Y-14960174D02*
X3699229Y-15007793D01*
X3699229Y-15007793D02*
X3689705Y-15045888D01*
X3689705Y-15045888D02*
X3680182Y-15064936D01*
X3680182Y-15064936D02*
X3670658Y-15074460D01*
X3670658Y-15074460D02*
X3651610Y-15083984D01*
X3651610Y-15083984D02*
X3632562Y-15083984D01*
X3632562Y-15083984D02*
X3613515Y-15074460D01*
X3613515Y-15074460D02*
X3603991Y-15064936D01*
X3603991Y-15064936D02*
X3594467Y-15045888D01*
X3594467Y-15045888D02*
X3584943Y-15007793D01*
X3584943Y-15007793D02*
X3584943Y-14960174D01*
X3584943Y-14960174D02*
X3594467Y-14922079D01*
X3594467Y-14922079D02*
X3603991Y-14903031D01*
X3603991Y-14903031D02*
X3613515Y-14893508D01*
X3613515Y-14893508D02*
X3632562Y-14883984D01*
X3823039Y-14883984D02*
X3842086Y-14883984D01*
X3842086Y-14883984D02*
X3861134Y-14893508D01*
X3861134Y-14893508D02*
X3870658Y-14903031D01*
X3870658Y-14903031D02*
X3880182Y-14922079D01*
X3880182Y-14922079D02*
X3889705Y-14960174D01*
X3889705Y-14960174D02*
X3889705Y-15007793D01*
X3889705Y-15007793D02*
X3880182Y-15045888D01*
X3880182Y-15045888D02*
X3870658Y-15064936D01*
X3870658Y-15064936D02*
X3861134Y-15074460D01*
X3861134Y-15074460D02*
X3842086Y-15083984D01*
X3842086Y-15083984D02*
X3823039Y-15083984D01*
X3823039Y-15083984D02*
X3803991Y-15074460D01*
X3803991Y-15074460D02*
X3794467Y-15064936D01*
X3794467Y-15064936D02*
X3784943Y-15045888D01*
X3784943Y-15045888D02*
X3775420Y-15007793D01*
X3775420Y-15007793D02*
X3775420Y-14960174D01*
X3775420Y-14960174D02*
X3784943Y-14922079D01*
X3784943Y-14922079D02*
X3794467Y-14903031D01*
X3794467Y-14903031D02*
X3803991Y-14893508D01*
X3803991Y-14893508D02*
X3823039Y-14883984D01*
X3975420Y-15083984D02*
X3975420Y-14950650D01*
X3975420Y-14969698D02*
X3984943Y-14960174D01*
X3984943Y-14960174D02*
X4003991Y-14950650D01*
X4003991Y-14950650D02*
X4032563Y-14950650D01*
X4032563Y-14950650D02*
X4051610Y-14960174D01*
X4051610Y-14960174D02*
X4061134Y-14979222D01*
X4061134Y-14979222D02*
X4061134Y-15083984D01*
X4061134Y-14979222D02*
X4070658Y-14960174D01*
X4070658Y-14960174D02*
X4089705Y-14950650D01*
X4089705Y-14950650D02*
X4118277Y-14950650D01*
X4118277Y-14950650D02*
X4137324Y-14960174D01*
X4137324Y-14960174D02*
X4146848Y-14979222D01*
X4146848Y-14979222D02*
X4146848Y-15083984D01*
X4242086Y-15083984D02*
X4242086Y-14950650D01*
X4242086Y-14969698D02*
X4251610Y-14960174D01*
X4251610Y-14960174D02*
X4270658Y-14950650D01*
X4270658Y-14950650D02*
X4299229Y-14950650D01*
X4299229Y-14950650D02*
X4318277Y-14960174D01*
X4318277Y-14960174D02*
X4327801Y-14979222D01*
X4327801Y-14979222D02*
X4327801Y-15083984D01*
X4327801Y-14979222D02*
X4337325Y-14960174D01*
X4337325Y-14960174D02*
X4356372Y-14950650D01*
X4356372Y-14950650D02*
X4384944Y-14950650D01*
X4384944Y-14950650D02*
X4403991Y-14960174D01*
X4403991Y-14960174D02*
X4413515Y-14979222D01*
X4413515Y-14979222D02*
X4413515Y-15083984D01*
X4803991Y-14874460D02*
X4632563Y-15131603D01*
X5061134Y-14883984D02*
X5080182Y-14883984D01*
X5080182Y-14883984D02*
X5099229Y-14893508D01*
X5099229Y-14893508D02*
X5108753Y-14903031D01*
X5108753Y-14903031D02*
X5118277Y-14922079D01*
X5118277Y-14922079D02*
X5127801Y-14960174D01*
X5127801Y-14960174D02*
X5127801Y-15007793D01*
X5127801Y-15007793D02*
X5118277Y-15045888D01*
X5118277Y-15045888D02*
X5108753Y-15064936D01*
X5108753Y-15064936D02*
X5099229Y-15074460D01*
X5099229Y-15074460D02*
X5080182Y-15083984D01*
X5080182Y-15083984D02*
X5061134Y-15083984D01*
X5061134Y-15083984D02*
X5042087Y-15074460D01*
X5042087Y-15074460D02*
X5032563Y-15064936D01*
X5032563Y-15064936D02*
X5023039Y-15045888D01*
X5023039Y-15045888D02*
X5013515Y-15007793D01*
X5013515Y-15007793D02*
X5013515Y-14960174D01*
X5013515Y-14960174D02*
X5023039Y-14922079D01*
X5023039Y-14922079D02*
X5032563Y-14903031D01*
X5032563Y-14903031D02*
X5042087Y-14893508D01*
X5042087Y-14893508D02*
X5061134Y-14883984D01*
X5213515Y-15064936D02*
X5223039Y-15074460D01*
X5223039Y-15074460D02*
X5213515Y-15083984D01*
X5213515Y-15083984D02*
X5203991Y-15074460D01*
X5203991Y-15074460D02*
X5213515Y-15064936D01*
X5213515Y-15064936D02*
X5213515Y-15083984D01*
X5346848Y-14883984D02*
X5365896Y-14883984D01*
X5365896Y-14883984D02*
X5384944Y-14893508D01*
X5384944Y-14893508D02*
X5394468Y-14903031D01*
X5394468Y-14903031D02*
X5403991Y-14922079D01*
X5403991Y-14922079D02*
X5413515Y-14960174D01*
X5413515Y-14960174D02*
X5413515Y-15007793D01*
X5413515Y-15007793D02*
X5403991Y-15045888D01*
X5403991Y-15045888D02*
X5394468Y-15064936D01*
X5394468Y-15064936D02*
X5384944Y-15074460D01*
X5384944Y-15074460D02*
X5365896Y-15083984D01*
X5365896Y-15083984D02*
X5346848Y-15083984D01*
X5346848Y-15083984D02*
X5327801Y-15074460D01*
X5327801Y-15074460D02*
X5318277Y-15064936D01*
X5318277Y-15064936D02*
X5308753Y-15045888D01*
X5308753Y-15045888D02*
X5299229Y-15007793D01*
X5299229Y-15007793D02*
X5299229Y-14960174D01*
X5299229Y-14960174D02*
X5308753Y-14922079D01*
X5308753Y-14922079D02*
X5318277Y-14903031D01*
X5318277Y-14903031D02*
X5327801Y-14893508D01*
X5327801Y-14893508D02*
X5346848Y-14883984D01*
X5603991Y-15083984D02*
X5489706Y-15083984D01*
X5546848Y-15083984D02*
X5546848Y-14883984D01*
X5546848Y-14883984D02*
X5527801Y-14912555D01*
X5527801Y-14912555D02*
X5508753Y-14931603D01*
X5508753Y-14931603D02*
X5489706Y-14941127D01*
X5784944Y-14883984D02*
X5689706Y-14883984D01*
X5689706Y-14883984D02*
X5680182Y-14979222D01*
X5680182Y-14979222D02*
X5689706Y-14969698D01*
X5689706Y-14969698D02*
X5708753Y-14960174D01*
X5708753Y-14960174D02*
X5756372Y-14960174D01*
X5756372Y-14960174D02*
X5775420Y-14969698D01*
X5775420Y-14969698D02*
X5784944Y-14979222D01*
X5784944Y-14979222D02*
X5794467Y-14998269D01*
X5794467Y-14998269D02*
X5794467Y-15045888D01*
X5794467Y-15045888D02*
X5784944Y-15064936D01*
X5784944Y-15064936D02*
X5775420Y-15074460D01*
X5775420Y-15074460D02*
X5756372Y-15083984D01*
X5756372Y-15083984D02*
X5708753Y-15083984D01*
X5708753Y-15083984D02*
X5689706Y-15074460D01*
X5689706Y-15074460D02*
X5680182Y-15064936D01*
X5861134Y-14883984D02*
X5994467Y-14883984D01*
X5994467Y-14883984D02*
X5908753Y-15083984D01*
X6061134Y-14883984D02*
X6061134Y-14922079D01*
X6137325Y-14883984D02*
X6137325Y-14922079D01*
X6432563Y-15160174D02*
X6423039Y-15150650D01*
X6423039Y-15150650D02*
X6403991Y-15122079D01*
X6403991Y-15122079D02*
X6394468Y-15103031D01*
X6394468Y-15103031D02*
X6384944Y-15074460D01*
X6384944Y-15074460D02*
X6375420Y-15026841D01*
X6375420Y-15026841D02*
X6375420Y-14988746D01*
X6375420Y-14988746D02*
X6384944Y-14941127D01*
X6384944Y-14941127D02*
X6394468Y-14912555D01*
X6394468Y-14912555D02*
X6403991Y-14893508D01*
X6403991Y-14893508D02*
X6423039Y-14864936D01*
X6423039Y-14864936D02*
X6432563Y-14855412D01*
X6603991Y-14883984D02*
X6508753Y-14883984D01*
X6508753Y-14883984D02*
X6499229Y-14979222D01*
X6499229Y-14979222D02*
X6508753Y-14969698D01*
X6508753Y-14969698D02*
X6527801Y-14960174D01*
X6527801Y-14960174D02*
X6575420Y-14960174D01*
X6575420Y-14960174D02*
X6594468Y-14969698D01*
X6594468Y-14969698D02*
X6603991Y-14979222D01*
X6603991Y-14979222D02*
X6613515Y-14998269D01*
X6613515Y-14998269D02*
X6613515Y-15045888D01*
X6613515Y-15045888D02*
X6603991Y-15064936D01*
X6603991Y-15064936D02*
X6594468Y-15074460D01*
X6594468Y-15074460D02*
X6575420Y-15083984D01*
X6575420Y-15083984D02*
X6527801Y-15083984D01*
X6527801Y-15083984D02*
X6508753Y-15074460D01*
X6508753Y-15074460D02*
X6499229Y-15064936D01*
X6851610Y-15083984D02*
X6851610Y-14883984D01*
X6937325Y-15083984D02*
X6937325Y-14979222D01*
X6937325Y-14979222D02*
X6927801Y-14960174D01*
X6927801Y-14960174D02*
X6908753Y-14950650D01*
X6908753Y-14950650D02*
X6880182Y-14950650D01*
X6880182Y-14950650D02*
X6861134Y-14960174D01*
X6861134Y-14960174D02*
X6851610Y-14969698D01*
X7061134Y-15083984D02*
X7042087Y-15074460D01*
X7042087Y-15074460D02*
X7032563Y-15064936D01*
X7032563Y-15064936D02*
X7023039Y-15045888D01*
X7023039Y-15045888D02*
X7023039Y-14988746D01*
X7023039Y-14988746D02*
X7032563Y-14969698D01*
X7032563Y-14969698D02*
X7042087Y-14960174D01*
X7042087Y-14960174D02*
X7061134Y-14950650D01*
X7061134Y-14950650D02*
X7089706Y-14950650D01*
X7089706Y-14950650D02*
X7108753Y-14960174D01*
X7108753Y-14960174D02*
X7118277Y-14969698D01*
X7118277Y-14969698D02*
X7127801Y-14988746D01*
X7127801Y-14988746D02*
X7127801Y-15045888D01*
X7127801Y-15045888D02*
X7118277Y-15064936D01*
X7118277Y-15064936D02*
X7108753Y-15074460D01*
X7108753Y-15074460D02*
X7089706Y-15083984D01*
X7089706Y-15083984D02*
X7061134Y-15083984D01*
X7242087Y-15083984D02*
X7223039Y-15074460D01*
X7223039Y-15074460D02*
X7213515Y-15055412D01*
X7213515Y-15055412D02*
X7213515Y-14883984D01*
X7394468Y-15074460D02*
X7375420Y-15083984D01*
X7375420Y-15083984D02*
X7337325Y-15083984D01*
X7337325Y-15083984D02*
X7318277Y-15074460D01*
X7318277Y-15074460D02*
X7308753Y-15055412D01*
X7308753Y-15055412D02*
X7308753Y-14979222D01*
X7308753Y-14979222D02*
X7318277Y-14960174D01*
X7318277Y-14960174D02*
X7337325Y-14950650D01*
X7337325Y-14950650D02*
X7375420Y-14950650D01*
X7375420Y-14950650D02*
X7394468Y-14960174D01*
X7394468Y-14960174D02*
X7403991Y-14979222D01*
X7403991Y-14979222D02*
X7403991Y-14998269D01*
X7403991Y-14998269D02*
X7308753Y-15017317D01*
X7480182Y-15074460D02*
X7499230Y-15083984D01*
X7499230Y-15083984D02*
X7537325Y-15083984D01*
X7537325Y-15083984D02*
X7556372Y-15074460D01*
X7556372Y-15074460D02*
X7565896Y-15055412D01*
X7565896Y-15055412D02*
X7565896Y-15045888D01*
X7565896Y-15045888D02*
X7556372Y-15026841D01*
X7556372Y-15026841D02*
X7537325Y-15017317D01*
X7537325Y-15017317D02*
X7508753Y-15017317D01*
X7508753Y-15017317D02*
X7489706Y-15007793D01*
X7489706Y-15007793D02*
X7480182Y-14988746D01*
X7480182Y-14988746D02*
X7480182Y-14979222D01*
X7480182Y-14979222D02*
X7489706Y-14960174D01*
X7489706Y-14960174D02*
X7508753Y-14950650D01*
X7508753Y-14950650D02*
X7537325Y-14950650D01*
X7537325Y-14950650D02*
X7556372Y-14960174D01*
X7632563Y-15160174D02*
X7642087Y-15150650D01*
X7642087Y-15150650D02*
X7661134Y-15122079D01*
X7661134Y-15122079D02*
X7670658Y-15103031D01*
X7670658Y-15103031D02*
X7680182Y-15074460D01*
X7680182Y-15074460D02*
X7689706Y-15026841D01*
X7689706Y-15026841D02*
X7689706Y-14988746D01*
X7689706Y-14988746D02*
X7680182Y-14941127D01*
X7680182Y-14941127D02*
X7670658Y-14912555D01*
X7670658Y-14912555D02*
X7661134Y-14893508D01*
X7661134Y-14893508D02*
X7642087Y-14864936D01*
X7642087Y-14864936D02*
X7632563Y-14855412D01*
D13*
X2857500Y-15256500D02*
G75*
G03*
X2857500Y-15256500I-37500J0D01*
G01*
D11*
X3156372Y-15147984D02*
X3175420Y-15147984D01*
X3175420Y-15147984D02*
X3194467Y-15157508D01*
X3194467Y-15157508D02*
X3203991Y-15167031D01*
X3203991Y-15167031D02*
X3213515Y-15186079D01*
X3213515Y-15186079D02*
X3223039Y-15224174D01*
X3223039Y-15224174D02*
X3223039Y-15271793D01*
X3223039Y-15271793D02*
X3213515Y-15309888D01*
X3213515Y-15309888D02*
X3203991Y-15328936D01*
X3203991Y-15328936D02*
X3194467Y-15338460D01*
X3194467Y-15338460D02*
X3175420Y-15347984D01*
X3175420Y-15347984D02*
X3156372Y-15347984D01*
X3156372Y-15347984D02*
X3137324Y-15338460D01*
X3137324Y-15338460D02*
X3127801Y-15328936D01*
X3127801Y-15328936D02*
X3118277Y-15309888D01*
X3118277Y-15309888D02*
X3108753Y-15271793D01*
X3108753Y-15271793D02*
X3108753Y-15224174D01*
X3108753Y-15224174D02*
X3118277Y-15186079D01*
X3118277Y-15186079D02*
X3127801Y-15167031D01*
X3127801Y-15167031D02*
X3137324Y-15157508D01*
X3137324Y-15157508D02*
X3156372Y-15147984D01*
X3308753Y-15328936D02*
X3318277Y-15338460D01*
X3318277Y-15338460D02*
X3308753Y-15347984D01*
X3308753Y-15347984D02*
X3299229Y-15338460D01*
X3299229Y-15338460D02*
X3308753Y-15328936D01*
X3308753Y-15328936D02*
X3308753Y-15347984D01*
X3384943Y-15147984D02*
X3518277Y-15147984D01*
X3518277Y-15147984D02*
X3432562Y-15347984D01*
X3689705Y-15147984D02*
X3594467Y-15147984D01*
X3594467Y-15147984D02*
X3584943Y-15243222D01*
X3584943Y-15243222D02*
X3594467Y-15233698D01*
X3594467Y-15233698D02*
X3613515Y-15224174D01*
X3613515Y-15224174D02*
X3661134Y-15224174D01*
X3661134Y-15224174D02*
X3680182Y-15233698D01*
X3680182Y-15233698D02*
X3689705Y-15243222D01*
X3689705Y-15243222D02*
X3699229Y-15262269D01*
X3699229Y-15262269D02*
X3699229Y-15309888D01*
X3699229Y-15309888D02*
X3689705Y-15328936D01*
X3689705Y-15328936D02*
X3680182Y-15338460D01*
X3680182Y-15338460D02*
X3661134Y-15347984D01*
X3661134Y-15347984D02*
X3613515Y-15347984D01*
X3613515Y-15347984D02*
X3594467Y-15338460D01*
X3594467Y-15338460D02*
X3584943Y-15328936D01*
X3823039Y-15147984D02*
X3842086Y-15147984D01*
X3842086Y-15147984D02*
X3861134Y-15157508D01*
X3861134Y-15157508D02*
X3870658Y-15167031D01*
X3870658Y-15167031D02*
X3880182Y-15186079D01*
X3880182Y-15186079D02*
X3889705Y-15224174D01*
X3889705Y-15224174D02*
X3889705Y-15271793D01*
X3889705Y-15271793D02*
X3880182Y-15309888D01*
X3880182Y-15309888D02*
X3870658Y-15328936D01*
X3870658Y-15328936D02*
X3861134Y-15338460D01*
X3861134Y-15338460D02*
X3842086Y-15347984D01*
X3842086Y-15347984D02*
X3823039Y-15347984D01*
X3823039Y-15347984D02*
X3803991Y-15338460D01*
X3803991Y-15338460D02*
X3794467Y-15328936D01*
X3794467Y-15328936D02*
X3784943Y-15309888D01*
X3784943Y-15309888D02*
X3775420Y-15271793D01*
X3775420Y-15271793D02*
X3775420Y-15224174D01*
X3775420Y-15224174D02*
X3784943Y-15186079D01*
X3784943Y-15186079D02*
X3794467Y-15167031D01*
X3794467Y-15167031D02*
X3803991Y-15157508D01*
X3803991Y-15157508D02*
X3823039Y-15147984D01*
X3975420Y-15347984D02*
X3975420Y-15214650D01*
X3975420Y-15233698D02*
X3984943Y-15224174D01*
X3984943Y-15224174D02*
X4003991Y-15214650D01*
X4003991Y-15214650D02*
X4032563Y-15214650D01*
X4032563Y-15214650D02*
X4051610Y-15224174D01*
X4051610Y-15224174D02*
X4061134Y-15243222D01*
X4061134Y-15243222D02*
X4061134Y-15347984D01*
X4061134Y-15243222D02*
X4070658Y-15224174D01*
X4070658Y-15224174D02*
X4089705Y-15214650D01*
X4089705Y-15214650D02*
X4118277Y-15214650D01*
X4118277Y-15214650D02*
X4137324Y-15224174D01*
X4137324Y-15224174D02*
X4146848Y-15243222D01*
X4146848Y-15243222D02*
X4146848Y-15347984D01*
X4242086Y-15347984D02*
X4242086Y-15214650D01*
X4242086Y-15233698D02*
X4251610Y-15224174D01*
X4251610Y-15224174D02*
X4270658Y-15214650D01*
X4270658Y-15214650D02*
X4299229Y-15214650D01*
X4299229Y-15214650D02*
X4318277Y-15224174D01*
X4318277Y-15224174D02*
X4327801Y-15243222D01*
X4327801Y-15243222D02*
X4327801Y-15347984D01*
X4327801Y-15243222D02*
X4337325Y-15224174D01*
X4337325Y-15224174D02*
X4356372Y-15214650D01*
X4356372Y-15214650D02*
X4384944Y-15214650D01*
X4384944Y-15214650D02*
X4403991Y-15224174D01*
X4403991Y-15224174D02*
X4413515Y-15243222D01*
X4413515Y-15243222D02*
X4413515Y-15347984D01*
X4803991Y-15138460D02*
X4632563Y-15395603D01*
X5061134Y-15147984D02*
X5080182Y-15147984D01*
X5080182Y-15147984D02*
X5099229Y-15157508D01*
X5099229Y-15157508D02*
X5108753Y-15167031D01*
X5108753Y-15167031D02*
X5118277Y-15186079D01*
X5118277Y-15186079D02*
X5127801Y-15224174D01*
X5127801Y-15224174D02*
X5127801Y-15271793D01*
X5127801Y-15271793D02*
X5118277Y-15309888D01*
X5118277Y-15309888D02*
X5108753Y-15328936D01*
X5108753Y-15328936D02*
X5099229Y-15338460D01*
X5099229Y-15338460D02*
X5080182Y-15347984D01*
X5080182Y-15347984D02*
X5061134Y-15347984D01*
X5061134Y-15347984D02*
X5042087Y-15338460D01*
X5042087Y-15338460D02*
X5032563Y-15328936D01*
X5032563Y-15328936D02*
X5023039Y-15309888D01*
X5023039Y-15309888D02*
X5013515Y-15271793D01*
X5013515Y-15271793D02*
X5013515Y-15224174D01*
X5013515Y-15224174D02*
X5023039Y-15186079D01*
X5023039Y-15186079D02*
X5032563Y-15167031D01*
X5032563Y-15167031D02*
X5042087Y-15157508D01*
X5042087Y-15157508D02*
X5061134Y-15147984D01*
X5213515Y-15328936D02*
X5223039Y-15338460D01*
X5223039Y-15338460D02*
X5213515Y-15347984D01*
X5213515Y-15347984D02*
X5203991Y-15338460D01*
X5203991Y-15338460D02*
X5213515Y-15328936D01*
X5213515Y-15328936D02*
X5213515Y-15347984D01*
X5346848Y-15147984D02*
X5365896Y-15147984D01*
X5365896Y-15147984D02*
X5384944Y-15157508D01*
X5384944Y-15157508D02*
X5394468Y-15167031D01*
X5394468Y-15167031D02*
X5403991Y-15186079D01*
X5403991Y-15186079D02*
X5413515Y-15224174D01*
X5413515Y-15224174D02*
X5413515Y-15271793D01*
X5413515Y-15271793D02*
X5403991Y-15309888D01*
X5403991Y-15309888D02*
X5394468Y-15328936D01*
X5394468Y-15328936D02*
X5384944Y-15338460D01*
X5384944Y-15338460D02*
X5365896Y-15347984D01*
X5365896Y-15347984D02*
X5346848Y-15347984D01*
X5346848Y-15347984D02*
X5327801Y-15338460D01*
X5327801Y-15338460D02*
X5318277Y-15328936D01*
X5318277Y-15328936D02*
X5308753Y-15309888D01*
X5308753Y-15309888D02*
X5299229Y-15271793D01*
X5299229Y-15271793D02*
X5299229Y-15224174D01*
X5299229Y-15224174D02*
X5308753Y-15186079D01*
X5308753Y-15186079D02*
X5318277Y-15167031D01*
X5318277Y-15167031D02*
X5327801Y-15157508D01*
X5327801Y-15157508D02*
X5346848Y-15147984D01*
X5489706Y-15167031D02*
X5499229Y-15157508D01*
X5499229Y-15157508D02*
X5518277Y-15147984D01*
X5518277Y-15147984D02*
X5565896Y-15147984D01*
X5565896Y-15147984D02*
X5584944Y-15157508D01*
X5584944Y-15157508D02*
X5594467Y-15167031D01*
X5594467Y-15167031D02*
X5603991Y-15186079D01*
X5603991Y-15186079D02*
X5603991Y-15205127D01*
X5603991Y-15205127D02*
X5594467Y-15233698D01*
X5594467Y-15233698D02*
X5480182Y-15347984D01*
X5480182Y-15347984D02*
X5603991Y-15347984D01*
X5699229Y-15347984D02*
X5737325Y-15347984D01*
X5737325Y-15347984D02*
X5756372Y-15338460D01*
X5756372Y-15338460D02*
X5765896Y-15328936D01*
X5765896Y-15328936D02*
X5784944Y-15300365D01*
X5784944Y-15300365D02*
X5794467Y-15262269D01*
X5794467Y-15262269D02*
X5794467Y-15186079D01*
X5794467Y-15186079D02*
X5784944Y-15167031D01*
X5784944Y-15167031D02*
X5775420Y-15157508D01*
X5775420Y-15157508D02*
X5756372Y-15147984D01*
X5756372Y-15147984D02*
X5718277Y-15147984D01*
X5718277Y-15147984D02*
X5699229Y-15157508D01*
X5699229Y-15157508D02*
X5689706Y-15167031D01*
X5689706Y-15167031D02*
X5680182Y-15186079D01*
X5680182Y-15186079D02*
X5680182Y-15233698D01*
X5680182Y-15233698D02*
X5689706Y-15252746D01*
X5689706Y-15252746D02*
X5699229Y-15262269D01*
X5699229Y-15262269D02*
X5718277Y-15271793D01*
X5718277Y-15271793D02*
X5756372Y-15271793D01*
X5756372Y-15271793D02*
X5775420Y-15262269D01*
X5775420Y-15262269D02*
X5784944Y-15252746D01*
X5784944Y-15252746D02*
X5794467Y-15233698D01*
X5975420Y-15147984D02*
X5880182Y-15147984D01*
X5880182Y-15147984D02*
X5870658Y-15243222D01*
X5870658Y-15243222D02*
X5880182Y-15233698D01*
X5880182Y-15233698D02*
X5899229Y-15224174D01*
X5899229Y-15224174D02*
X5946848Y-15224174D01*
X5946848Y-15224174D02*
X5965896Y-15233698D01*
X5965896Y-15233698D02*
X5975420Y-15243222D01*
X5975420Y-15243222D02*
X5984944Y-15262269D01*
X5984944Y-15262269D02*
X5984944Y-15309888D01*
X5984944Y-15309888D02*
X5975420Y-15328936D01*
X5975420Y-15328936D02*
X5965896Y-15338460D01*
X5965896Y-15338460D02*
X5946848Y-15347984D01*
X5946848Y-15347984D02*
X5899229Y-15347984D01*
X5899229Y-15347984D02*
X5880182Y-15338460D01*
X5880182Y-15338460D02*
X5870658Y-15328936D01*
X6061134Y-15147984D02*
X6061134Y-15186079D01*
X6137325Y-15147984D02*
X6137325Y-15186079D01*
X6432563Y-15424174D02*
X6423039Y-15414650D01*
X6423039Y-15414650D02*
X6403991Y-15386079D01*
X6403991Y-15386079D02*
X6394468Y-15367031D01*
X6394468Y-15367031D02*
X6384944Y-15338460D01*
X6384944Y-15338460D02*
X6375420Y-15290841D01*
X6375420Y-15290841D02*
X6375420Y-15252746D01*
X6375420Y-15252746D02*
X6384944Y-15205127D01*
X6384944Y-15205127D02*
X6394468Y-15176555D01*
X6394468Y-15176555D02*
X6403991Y-15157508D01*
X6403991Y-15157508D02*
X6423039Y-15128936D01*
X6423039Y-15128936D02*
X6432563Y-15119412D01*
X6518277Y-15347984D02*
X6556372Y-15347984D01*
X6556372Y-15347984D02*
X6575420Y-15338460D01*
X6575420Y-15338460D02*
X6584944Y-15328936D01*
X6584944Y-15328936D02*
X6603991Y-15300365D01*
X6603991Y-15300365D02*
X6613515Y-15262269D01*
X6613515Y-15262269D02*
X6613515Y-15186079D01*
X6613515Y-15186079D02*
X6603991Y-15167031D01*
X6603991Y-15167031D02*
X6594468Y-15157508D01*
X6594468Y-15157508D02*
X6575420Y-15147984D01*
X6575420Y-15147984D02*
X6537325Y-15147984D01*
X6537325Y-15147984D02*
X6518277Y-15157508D01*
X6518277Y-15157508D02*
X6508753Y-15167031D01*
X6508753Y-15167031D02*
X6499229Y-15186079D01*
X6499229Y-15186079D02*
X6499229Y-15233698D01*
X6499229Y-15233698D02*
X6508753Y-15252746D01*
X6508753Y-15252746D02*
X6518277Y-15262269D01*
X6518277Y-15262269D02*
X6537325Y-15271793D01*
X6537325Y-15271793D02*
X6575420Y-15271793D01*
X6575420Y-15271793D02*
X6594468Y-15262269D01*
X6594468Y-15262269D02*
X6603991Y-15252746D01*
X6603991Y-15252746D02*
X6613515Y-15233698D01*
X6851610Y-15347984D02*
X6851610Y-15147984D01*
X6937325Y-15347984D02*
X6937325Y-15243222D01*
X6937325Y-15243222D02*
X6927801Y-15224174D01*
X6927801Y-15224174D02*
X6908753Y-15214650D01*
X6908753Y-15214650D02*
X6880182Y-15214650D01*
X6880182Y-15214650D02*
X6861134Y-15224174D01*
X6861134Y-15224174D02*
X6851610Y-15233698D01*
X7061134Y-15347984D02*
X7042087Y-15338460D01*
X7042087Y-15338460D02*
X7032563Y-15328936D01*
X7032563Y-15328936D02*
X7023039Y-15309888D01*
X7023039Y-15309888D02*
X7023039Y-15252746D01*
X7023039Y-15252746D02*
X7032563Y-15233698D01*
X7032563Y-15233698D02*
X7042087Y-15224174D01*
X7042087Y-15224174D02*
X7061134Y-15214650D01*
X7061134Y-15214650D02*
X7089706Y-15214650D01*
X7089706Y-15214650D02*
X7108753Y-15224174D01*
X7108753Y-15224174D02*
X7118277Y-15233698D01*
X7118277Y-15233698D02*
X7127801Y-15252746D01*
X7127801Y-15252746D02*
X7127801Y-15309888D01*
X7127801Y-15309888D02*
X7118277Y-15328936D01*
X7118277Y-15328936D02*
X7108753Y-15338460D01*
X7108753Y-15338460D02*
X7089706Y-15347984D01*
X7089706Y-15347984D02*
X7061134Y-15347984D01*
X7242087Y-15347984D02*
X7223039Y-15338460D01*
X7223039Y-15338460D02*
X7213515Y-15319412D01*
X7213515Y-15319412D02*
X7213515Y-15147984D01*
X7394468Y-15338460D02*
X7375420Y-15347984D01*
X7375420Y-15347984D02*
X7337325Y-15347984D01*
X7337325Y-15347984D02*
X7318277Y-15338460D01*
X7318277Y-15338460D02*
X7308753Y-15319412D01*
X7308753Y-15319412D02*
X7308753Y-15243222D01*
X7308753Y-15243222D02*
X7318277Y-15224174D01*
X7318277Y-15224174D02*
X7337325Y-15214650D01*
X7337325Y-15214650D02*
X7375420Y-15214650D01*
X7375420Y-15214650D02*
X7394468Y-15224174D01*
X7394468Y-15224174D02*
X7403991Y-15243222D01*
X7403991Y-15243222D02*
X7403991Y-15262269D01*
X7403991Y-15262269D02*
X7308753Y-15281317D01*
X7480182Y-15338460D02*
X7499230Y-15347984D01*
X7499230Y-15347984D02*
X7537325Y-15347984D01*
X7537325Y-15347984D02*
X7556372Y-15338460D01*
X7556372Y-15338460D02*
X7565896Y-15319412D01*
X7565896Y-15319412D02*
X7565896Y-15309888D01*
X7565896Y-15309888D02*
X7556372Y-15290841D01*
X7556372Y-15290841D02*
X7537325Y-15281317D01*
X7537325Y-15281317D02*
X7508753Y-15281317D01*
X7508753Y-15281317D02*
X7489706Y-15271793D01*
X7489706Y-15271793D02*
X7480182Y-15252746D01*
X7480182Y-15252746D02*
X7480182Y-15243222D01*
X7480182Y-15243222D02*
X7489706Y-15224174D01*
X7489706Y-15224174D02*
X7508753Y-15214650D01*
X7508753Y-15214650D02*
X7537325Y-15214650D01*
X7537325Y-15214650D02*
X7556372Y-15224174D01*
X7632563Y-15424174D02*
X7642087Y-15414650D01*
X7642087Y-15414650D02*
X7661134Y-15386079D01*
X7661134Y-15386079D02*
X7670658Y-15367031D01*
X7670658Y-15367031D02*
X7680182Y-15338460D01*
X7680182Y-15338460D02*
X7689706Y-15290841D01*
X7689706Y-15290841D02*
X7689706Y-15252746D01*
X7689706Y-15252746D02*
X7680182Y-15205127D01*
X7680182Y-15205127D02*
X7670658Y-15176555D01*
X7670658Y-15176555D02*
X7661134Y-15157508D01*
X7661134Y-15157508D02*
X7642087Y-15128936D01*
X7642087Y-15128936D02*
X7632563Y-15119412D01*
D14*
X2817500Y-15480500D02*
X2817500Y-15560500D01*
X2777500Y-15520500D02*
X2857500Y-15520500D01*
D11*
X3156372Y-15411984D02*
X3175420Y-15411984D01*
X3175420Y-15411984D02*
X3194467Y-15421508D01*
X3194467Y-15421508D02*
X3203991Y-15431031D01*
X3203991Y-15431031D02*
X3213515Y-15450079D01*
X3213515Y-15450079D02*
X3223039Y-15488174D01*
X3223039Y-15488174D02*
X3223039Y-15535793D01*
X3223039Y-15535793D02*
X3213515Y-15573888D01*
X3213515Y-15573888D02*
X3203991Y-15592936D01*
X3203991Y-15592936D02*
X3194467Y-15602460D01*
X3194467Y-15602460D02*
X3175420Y-15611984D01*
X3175420Y-15611984D02*
X3156372Y-15611984D01*
X3156372Y-15611984D02*
X3137324Y-15602460D01*
X3137324Y-15602460D02*
X3127801Y-15592936D01*
X3127801Y-15592936D02*
X3118277Y-15573888D01*
X3118277Y-15573888D02*
X3108753Y-15535793D01*
X3108753Y-15535793D02*
X3108753Y-15488174D01*
X3108753Y-15488174D02*
X3118277Y-15450079D01*
X3118277Y-15450079D02*
X3127801Y-15431031D01*
X3127801Y-15431031D02*
X3137324Y-15421508D01*
X3137324Y-15421508D02*
X3156372Y-15411984D01*
X3308753Y-15592936D02*
X3318277Y-15602460D01*
X3318277Y-15602460D02*
X3308753Y-15611984D01*
X3308753Y-15611984D02*
X3299229Y-15602460D01*
X3299229Y-15602460D02*
X3308753Y-15592936D01*
X3308753Y-15592936D02*
X3308753Y-15611984D01*
X3432562Y-15497698D02*
X3413515Y-15488174D01*
X3413515Y-15488174D02*
X3403991Y-15478650D01*
X3403991Y-15478650D02*
X3394467Y-15459603D01*
X3394467Y-15459603D02*
X3394467Y-15450079D01*
X3394467Y-15450079D02*
X3403991Y-15431031D01*
X3403991Y-15431031D02*
X3413515Y-15421508D01*
X3413515Y-15421508D02*
X3432562Y-15411984D01*
X3432562Y-15411984D02*
X3470658Y-15411984D01*
X3470658Y-15411984D02*
X3489705Y-15421508D01*
X3489705Y-15421508D02*
X3499229Y-15431031D01*
X3499229Y-15431031D02*
X3508753Y-15450079D01*
X3508753Y-15450079D02*
X3508753Y-15459603D01*
X3508753Y-15459603D02*
X3499229Y-15478650D01*
X3499229Y-15478650D02*
X3489705Y-15488174D01*
X3489705Y-15488174D02*
X3470658Y-15497698D01*
X3470658Y-15497698D02*
X3432562Y-15497698D01*
X3432562Y-15497698D02*
X3413515Y-15507222D01*
X3413515Y-15507222D02*
X3403991Y-15516746D01*
X3403991Y-15516746D02*
X3394467Y-15535793D01*
X3394467Y-15535793D02*
X3394467Y-15573888D01*
X3394467Y-15573888D02*
X3403991Y-15592936D01*
X3403991Y-15592936D02*
X3413515Y-15602460D01*
X3413515Y-15602460D02*
X3432562Y-15611984D01*
X3432562Y-15611984D02*
X3470658Y-15611984D01*
X3470658Y-15611984D02*
X3489705Y-15602460D01*
X3489705Y-15602460D02*
X3499229Y-15592936D01*
X3499229Y-15592936D02*
X3508753Y-15573888D01*
X3508753Y-15573888D02*
X3508753Y-15535793D01*
X3508753Y-15535793D02*
X3499229Y-15516746D01*
X3499229Y-15516746D02*
X3489705Y-15507222D01*
X3489705Y-15507222D02*
X3470658Y-15497698D01*
X3632562Y-15411984D02*
X3651610Y-15411984D01*
X3651610Y-15411984D02*
X3670658Y-15421508D01*
X3670658Y-15421508D02*
X3680182Y-15431031D01*
X3680182Y-15431031D02*
X3689705Y-15450079D01*
X3689705Y-15450079D02*
X3699229Y-15488174D01*
X3699229Y-15488174D02*
X3699229Y-15535793D01*
X3699229Y-15535793D02*
X3689705Y-15573888D01*
X3689705Y-15573888D02*
X3680182Y-15592936D01*
X3680182Y-15592936D02*
X3670658Y-15602460D01*
X3670658Y-15602460D02*
X3651610Y-15611984D01*
X3651610Y-15611984D02*
X3632562Y-15611984D01*
X3632562Y-15611984D02*
X3613515Y-15602460D01*
X3613515Y-15602460D02*
X3603991Y-15592936D01*
X3603991Y-15592936D02*
X3594467Y-15573888D01*
X3594467Y-15573888D02*
X3584943Y-15535793D01*
X3584943Y-15535793D02*
X3584943Y-15488174D01*
X3584943Y-15488174D02*
X3594467Y-15450079D01*
X3594467Y-15450079D02*
X3603991Y-15431031D01*
X3603991Y-15431031D02*
X3613515Y-15421508D01*
X3613515Y-15421508D02*
X3632562Y-15411984D01*
X3823039Y-15411984D02*
X3842086Y-15411984D01*
X3842086Y-15411984D02*
X3861134Y-15421508D01*
X3861134Y-15421508D02*
X3870658Y-15431031D01*
X3870658Y-15431031D02*
X3880182Y-15450079D01*
X3880182Y-15450079D02*
X3889705Y-15488174D01*
X3889705Y-15488174D02*
X3889705Y-15535793D01*
X3889705Y-15535793D02*
X3880182Y-15573888D01*
X3880182Y-15573888D02*
X3870658Y-15592936D01*
X3870658Y-15592936D02*
X3861134Y-15602460D01*
X3861134Y-15602460D02*
X3842086Y-15611984D01*
X3842086Y-15611984D02*
X3823039Y-15611984D01*
X3823039Y-15611984D02*
X3803991Y-15602460D01*
X3803991Y-15602460D02*
X3794467Y-15592936D01*
X3794467Y-15592936D02*
X3784943Y-15573888D01*
X3784943Y-15573888D02*
X3775420Y-15535793D01*
X3775420Y-15535793D02*
X3775420Y-15488174D01*
X3775420Y-15488174D02*
X3784943Y-15450079D01*
X3784943Y-15450079D02*
X3794467Y-15431031D01*
X3794467Y-15431031D02*
X3803991Y-15421508D01*
X3803991Y-15421508D02*
X3823039Y-15411984D01*
X3975420Y-15611984D02*
X3975420Y-15478650D01*
X3975420Y-15497698D02*
X3984943Y-15488174D01*
X3984943Y-15488174D02*
X4003991Y-15478650D01*
X4003991Y-15478650D02*
X4032563Y-15478650D01*
X4032563Y-15478650D02*
X4051610Y-15488174D01*
X4051610Y-15488174D02*
X4061134Y-15507222D01*
X4061134Y-15507222D02*
X4061134Y-15611984D01*
X4061134Y-15507222D02*
X4070658Y-15488174D01*
X4070658Y-15488174D02*
X4089705Y-15478650D01*
X4089705Y-15478650D02*
X4118277Y-15478650D01*
X4118277Y-15478650D02*
X4137324Y-15488174D01*
X4137324Y-15488174D02*
X4146848Y-15507222D01*
X4146848Y-15507222D02*
X4146848Y-15611984D01*
X4242086Y-15611984D02*
X4242086Y-15478650D01*
X4242086Y-15497698D02*
X4251610Y-15488174D01*
X4251610Y-15488174D02*
X4270658Y-15478650D01*
X4270658Y-15478650D02*
X4299229Y-15478650D01*
X4299229Y-15478650D02*
X4318277Y-15488174D01*
X4318277Y-15488174D02*
X4327801Y-15507222D01*
X4327801Y-15507222D02*
X4327801Y-15611984D01*
X4327801Y-15507222D02*
X4337325Y-15488174D01*
X4337325Y-15488174D02*
X4356372Y-15478650D01*
X4356372Y-15478650D02*
X4384944Y-15478650D01*
X4384944Y-15478650D02*
X4403991Y-15488174D01*
X4403991Y-15488174D02*
X4413515Y-15507222D01*
X4413515Y-15507222D02*
X4413515Y-15611984D01*
X4803991Y-15402460D02*
X4632563Y-15659603D01*
X5061134Y-15411984D02*
X5080182Y-15411984D01*
X5080182Y-15411984D02*
X5099229Y-15421508D01*
X5099229Y-15421508D02*
X5108753Y-15431031D01*
X5108753Y-15431031D02*
X5118277Y-15450079D01*
X5118277Y-15450079D02*
X5127801Y-15488174D01*
X5127801Y-15488174D02*
X5127801Y-15535793D01*
X5127801Y-15535793D02*
X5118277Y-15573888D01*
X5118277Y-15573888D02*
X5108753Y-15592936D01*
X5108753Y-15592936D02*
X5099229Y-15602460D01*
X5099229Y-15602460D02*
X5080182Y-15611984D01*
X5080182Y-15611984D02*
X5061134Y-15611984D01*
X5061134Y-15611984D02*
X5042087Y-15602460D01*
X5042087Y-15602460D02*
X5032563Y-15592936D01*
X5032563Y-15592936D02*
X5023039Y-15573888D01*
X5023039Y-15573888D02*
X5013515Y-15535793D01*
X5013515Y-15535793D02*
X5013515Y-15488174D01*
X5013515Y-15488174D02*
X5023039Y-15450079D01*
X5023039Y-15450079D02*
X5032563Y-15431031D01*
X5032563Y-15431031D02*
X5042087Y-15421508D01*
X5042087Y-15421508D02*
X5061134Y-15411984D01*
X5213515Y-15592936D02*
X5223039Y-15602460D01*
X5223039Y-15602460D02*
X5213515Y-15611984D01*
X5213515Y-15611984D02*
X5203991Y-15602460D01*
X5203991Y-15602460D02*
X5213515Y-15592936D01*
X5213515Y-15592936D02*
X5213515Y-15611984D01*
X5346848Y-15411984D02*
X5365896Y-15411984D01*
X5365896Y-15411984D02*
X5384944Y-15421508D01*
X5384944Y-15421508D02*
X5394468Y-15431031D01*
X5394468Y-15431031D02*
X5403991Y-15450079D01*
X5403991Y-15450079D02*
X5413515Y-15488174D01*
X5413515Y-15488174D02*
X5413515Y-15535793D01*
X5413515Y-15535793D02*
X5403991Y-15573888D01*
X5403991Y-15573888D02*
X5394468Y-15592936D01*
X5394468Y-15592936D02*
X5384944Y-15602460D01*
X5384944Y-15602460D02*
X5365896Y-15611984D01*
X5365896Y-15611984D02*
X5346848Y-15611984D01*
X5346848Y-15611984D02*
X5327801Y-15602460D01*
X5327801Y-15602460D02*
X5318277Y-15592936D01*
X5318277Y-15592936D02*
X5308753Y-15573888D01*
X5308753Y-15573888D02*
X5299229Y-15535793D01*
X5299229Y-15535793D02*
X5299229Y-15488174D01*
X5299229Y-15488174D02*
X5308753Y-15450079D01*
X5308753Y-15450079D02*
X5318277Y-15431031D01*
X5318277Y-15431031D02*
X5327801Y-15421508D01*
X5327801Y-15421508D02*
X5346848Y-15411984D01*
X5480182Y-15411984D02*
X5603991Y-15411984D01*
X5603991Y-15411984D02*
X5537325Y-15488174D01*
X5537325Y-15488174D02*
X5565896Y-15488174D01*
X5565896Y-15488174D02*
X5584944Y-15497698D01*
X5584944Y-15497698D02*
X5594467Y-15507222D01*
X5594467Y-15507222D02*
X5603991Y-15526269D01*
X5603991Y-15526269D02*
X5603991Y-15573888D01*
X5603991Y-15573888D02*
X5594467Y-15592936D01*
X5594467Y-15592936D02*
X5584944Y-15602460D01*
X5584944Y-15602460D02*
X5565896Y-15611984D01*
X5565896Y-15611984D02*
X5508753Y-15611984D01*
X5508753Y-15611984D02*
X5489706Y-15602460D01*
X5489706Y-15602460D02*
X5480182Y-15592936D01*
X5794467Y-15611984D02*
X5680182Y-15611984D01*
X5737325Y-15611984D02*
X5737325Y-15411984D01*
X5737325Y-15411984D02*
X5718277Y-15440555D01*
X5718277Y-15440555D02*
X5699229Y-15459603D01*
X5699229Y-15459603D02*
X5680182Y-15469127D01*
X5975420Y-15411984D02*
X5880182Y-15411984D01*
X5880182Y-15411984D02*
X5870658Y-15507222D01*
X5870658Y-15507222D02*
X5880182Y-15497698D01*
X5880182Y-15497698D02*
X5899229Y-15488174D01*
X5899229Y-15488174D02*
X5946848Y-15488174D01*
X5946848Y-15488174D02*
X5965896Y-15497698D01*
X5965896Y-15497698D02*
X5975420Y-15507222D01*
X5975420Y-15507222D02*
X5984944Y-15526269D01*
X5984944Y-15526269D02*
X5984944Y-15573888D01*
X5984944Y-15573888D02*
X5975420Y-15592936D01*
X5975420Y-15592936D02*
X5965896Y-15602460D01*
X5965896Y-15602460D02*
X5946848Y-15611984D01*
X5946848Y-15611984D02*
X5899229Y-15611984D01*
X5899229Y-15611984D02*
X5880182Y-15602460D01*
X5880182Y-15602460D02*
X5870658Y-15592936D01*
X6061134Y-15411984D02*
X6061134Y-15450079D01*
X6137325Y-15411984D02*
X6137325Y-15450079D01*
X6432563Y-15688174D02*
X6423039Y-15678650D01*
X6423039Y-15678650D02*
X6403991Y-15650079D01*
X6403991Y-15650079D02*
X6394468Y-15631031D01*
X6394468Y-15631031D02*
X6384944Y-15602460D01*
X6384944Y-15602460D02*
X6375420Y-15554841D01*
X6375420Y-15554841D02*
X6375420Y-15516746D01*
X6375420Y-15516746D02*
X6384944Y-15469127D01*
X6384944Y-15469127D02*
X6394468Y-15440555D01*
X6394468Y-15440555D02*
X6403991Y-15421508D01*
X6403991Y-15421508D02*
X6423039Y-15392936D01*
X6423039Y-15392936D02*
X6432563Y-15383412D01*
X6594468Y-15411984D02*
X6556372Y-15411984D01*
X6556372Y-15411984D02*
X6537325Y-15421508D01*
X6537325Y-15421508D02*
X6527801Y-15431031D01*
X6527801Y-15431031D02*
X6508753Y-15459603D01*
X6508753Y-15459603D02*
X6499229Y-15497698D01*
X6499229Y-15497698D02*
X6499229Y-15573888D01*
X6499229Y-15573888D02*
X6508753Y-15592936D01*
X6508753Y-15592936D02*
X6518277Y-15602460D01*
X6518277Y-15602460D02*
X6537325Y-15611984D01*
X6537325Y-15611984D02*
X6575420Y-15611984D01*
X6575420Y-15611984D02*
X6594468Y-15602460D01*
X6594468Y-15602460D02*
X6603991Y-15592936D01*
X6603991Y-15592936D02*
X6613515Y-15573888D01*
X6613515Y-15573888D02*
X6613515Y-15526269D01*
X6613515Y-15526269D02*
X6603991Y-15507222D01*
X6603991Y-15507222D02*
X6594468Y-15497698D01*
X6594468Y-15497698D02*
X6575420Y-15488174D01*
X6575420Y-15488174D02*
X6537325Y-15488174D01*
X6537325Y-15488174D02*
X6518277Y-15497698D01*
X6518277Y-15497698D02*
X6508753Y-15507222D01*
X6508753Y-15507222D02*
X6499229Y-15526269D01*
X6784944Y-15478650D02*
X6784944Y-15611984D01*
X6737325Y-15402460D02*
X6689706Y-15545317D01*
X6689706Y-15545317D02*
X6813515Y-15545317D01*
X7042087Y-15611984D02*
X7042087Y-15411984D01*
X7127801Y-15611984D02*
X7127801Y-15507222D01*
X7127801Y-15507222D02*
X7118277Y-15488174D01*
X7118277Y-15488174D02*
X7099230Y-15478650D01*
X7099230Y-15478650D02*
X7070658Y-15478650D01*
X7070658Y-15478650D02*
X7051610Y-15488174D01*
X7051610Y-15488174D02*
X7042087Y-15497698D01*
X7251610Y-15611984D02*
X7232563Y-15602460D01*
X7232563Y-15602460D02*
X7223039Y-15592936D01*
X7223039Y-15592936D02*
X7213515Y-15573888D01*
X7213515Y-15573888D02*
X7213515Y-15516746D01*
X7213515Y-15516746D02*
X7223039Y-15497698D01*
X7223039Y-15497698D02*
X7232563Y-15488174D01*
X7232563Y-15488174D02*
X7251610Y-15478650D01*
X7251610Y-15478650D02*
X7280182Y-15478650D01*
X7280182Y-15478650D02*
X7299230Y-15488174D01*
X7299230Y-15488174D02*
X7308753Y-15497698D01*
X7308753Y-15497698D02*
X7318277Y-15516746D01*
X7318277Y-15516746D02*
X7318277Y-15573888D01*
X7318277Y-15573888D02*
X7308753Y-15592936D01*
X7308753Y-15592936D02*
X7299230Y-15602460D01*
X7299230Y-15602460D02*
X7280182Y-15611984D01*
X7280182Y-15611984D02*
X7251610Y-15611984D01*
X7432563Y-15611984D02*
X7413515Y-15602460D01*
X7413515Y-15602460D02*
X7403991Y-15583412D01*
X7403991Y-15583412D02*
X7403991Y-15411984D01*
X7584944Y-15602460D02*
X7565896Y-15611984D01*
X7565896Y-15611984D02*
X7527801Y-15611984D01*
X7527801Y-15611984D02*
X7508753Y-15602460D01*
X7508753Y-15602460D02*
X7499230Y-15583412D01*
X7499230Y-15583412D02*
X7499230Y-15507222D01*
X7499230Y-15507222D02*
X7508753Y-15488174D01*
X7508753Y-15488174D02*
X7527801Y-15478650D01*
X7527801Y-15478650D02*
X7565896Y-15478650D01*
X7565896Y-15478650D02*
X7584944Y-15488174D01*
X7584944Y-15488174D02*
X7594468Y-15507222D01*
X7594468Y-15507222D02*
X7594468Y-15526269D01*
X7594468Y-15526269D02*
X7499230Y-15545317D01*
X7670658Y-15602460D02*
X7689706Y-15611984D01*
X7689706Y-15611984D02*
X7727801Y-15611984D01*
X7727801Y-15611984D02*
X7746849Y-15602460D01*
X7746849Y-15602460D02*
X7756372Y-15583412D01*
X7756372Y-15583412D02*
X7756372Y-15573888D01*
X7756372Y-15573888D02*
X7746849Y-15554841D01*
X7746849Y-15554841D02*
X7727801Y-15545317D01*
X7727801Y-15545317D02*
X7699230Y-15545317D01*
X7699230Y-15545317D02*
X7680182Y-15535793D01*
X7680182Y-15535793D02*
X7670658Y-15516746D01*
X7670658Y-15516746D02*
X7670658Y-15507222D01*
X7670658Y-15507222D02*
X7680182Y-15488174D01*
X7680182Y-15488174D02*
X7699230Y-15478650D01*
X7699230Y-15478650D02*
X7727801Y-15478650D01*
X7727801Y-15478650D02*
X7746849Y-15488174D01*
X7823039Y-15688174D02*
X7832563Y-15678650D01*
X7832563Y-15678650D02*
X7851611Y-15650079D01*
X7851611Y-15650079D02*
X7861134Y-15631031D01*
X7861134Y-15631031D02*
X7870658Y-15602460D01*
X7870658Y-15602460D02*
X7880182Y-15554841D01*
X7880182Y-15554841D02*
X7880182Y-15516746D01*
X7880182Y-15516746D02*
X7870658Y-15469127D01*
X7870658Y-15469127D02*
X7861134Y-15440555D01*
X7861134Y-15440555D02*
X7851611Y-15421508D01*
X7851611Y-15421508D02*
X7832563Y-15392936D01*
X7832563Y-15392936D02*
X7823039Y-15383412D01*
D15*
X2842856Y-15819856D02*
X2842856Y-15749144D01*
X2772144Y-15749144D01*
X2772144Y-15819856D01*
X2842856Y-15819856D01*
D11*
X3223039Y-15875984D02*
X3108753Y-15875984D01*
X3165896Y-15875984D02*
X3165896Y-15675984D01*
X3165896Y-15675984D02*
X3146848Y-15704555D01*
X3146848Y-15704555D02*
X3127801Y-15723603D01*
X3127801Y-15723603D02*
X3108753Y-15733127D01*
X3308753Y-15856936D02*
X3318277Y-15866460D01*
X3318277Y-15866460D02*
X3308753Y-15875984D01*
X3308753Y-15875984D02*
X3299229Y-15866460D01*
X3299229Y-15866460D02*
X3308753Y-15856936D01*
X3308753Y-15856936D02*
X3308753Y-15875984D01*
X3442086Y-15675984D02*
X3461134Y-15675984D01*
X3461134Y-15675984D02*
X3480182Y-15685508D01*
X3480182Y-15685508D02*
X3489705Y-15695031D01*
X3489705Y-15695031D02*
X3499229Y-15714079D01*
X3499229Y-15714079D02*
X3508753Y-15752174D01*
X3508753Y-15752174D02*
X3508753Y-15799793D01*
X3508753Y-15799793D02*
X3499229Y-15837888D01*
X3499229Y-15837888D02*
X3489705Y-15856936D01*
X3489705Y-15856936D02*
X3480182Y-15866460D01*
X3480182Y-15866460D02*
X3461134Y-15875984D01*
X3461134Y-15875984D02*
X3442086Y-15875984D01*
X3442086Y-15875984D02*
X3423039Y-15866460D01*
X3423039Y-15866460D02*
X3413515Y-15856936D01*
X3413515Y-15856936D02*
X3403991Y-15837888D01*
X3403991Y-15837888D02*
X3394467Y-15799793D01*
X3394467Y-15799793D02*
X3394467Y-15752174D01*
X3394467Y-15752174D02*
X3403991Y-15714079D01*
X3403991Y-15714079D02*
X3413515Y-15695031D01*
X3413515Y-15695031D02*
X3423039Y-15685508D01*
X3423039Y-15685508D02*
X3442086Y-15675984D01*
X3632562Y-15675984D02*
X3651610Y-15675984D01*
X3651610Y-15675984D02*
X3670658Y-15685508D01*
X3670658Y-15685508D02*
X3680182Y-15695031D01*
X3680182Y-15695031D02*
X3689705Y-15714079D01*
X3689705Y-15714079D02*
X3699229Y-15752174D01*
X3699229Y-15752174D02*
X3699229Y-15799793D01*
X3699229Y-15799793D02*
X3689705Y-15837888D01*
X3689705Y-15837888D02*
X3680182Y-15856936D01*
X3680182Y-15856936D02*
X3670658Y-15866460D01*
X3670658Y-15866460D02*
X3651610Y-15875984D01*
X3651610Y-15875984D02*
X3632562Y-15875984D01*
X3632562Y-15875984D02*
X3613515Y-15866460D01*
X3613515Y-15866460D02*
X3603991Y-15856936D01*
X3603991Y-15856936D02*
X3594467Y-15837888D01*
X3594467Y-15837888D02*
X3584943Y-15799793D01*
X3584943Y-15799793D02*
X3584943Y-15752174D01*
X3584943Y-15752174D02*
X3594467Y-15714079D01*
X3594467Y-15714079D02*
X3603991Y-15695031D01*
X3603991Y-15695031D02*
X3613515Y-15685508D01*
X3613515Y-15685508D02*
X3632562Y-15675984D01*
X3823039Y-15675984D02*
X3842086Y-15675984D01*
X3842086Y-15675984D02*
X3861134Y-15685508D01*
X3861134Y-15685508D02*
X3870658Y-15695031D01*
X3870658Y-15695031D02*
X3880182Y-15714079D01*
X3880182Y-15714079D02*
X3889705Y-15752174D01*
X3889705Y-15752174D02*
X3889705Y-15799793D01*
X3889705Y-15799793D02*
X3880182Y-15837888D01*
X3880182Y-15837888D02*
X3870658Y-15856936D01*
X3870658Y-15856936D02*
X3861134Y-15866460D01*
X3861134Y-15866460D02*
X3842086Y-15875984D01*
X3842086Y-15875984D02*
X3823039Y-15875984D01*
X3823039Y-15875984D02*
X3803991Y-15866460D01*
X3803991Y-15866460D02*
X3794467Y-15856936D01*
X3794467Y-15856936D02*
X3784943Y-15837888D01*
X3784943Y-15837888D02*
X3775420Y-15799793D01*
X3775420Y-15799793D02*
X3775420Y-15752174D01*
X3775420Y-15752174D02*
X3784943Y-15714079D01*
X3784943Y-15714079D02*
X3794467Y-15695031D01*
X3794467Y-15695031D02*
X3803991Y-15685508D01*
X3803991Y-15685508D02*
X3823039Y-15675984D01*
X3975420Y-15875984D02*
X3975420Y-15742650D01*
X3975420Y-15761698D02*
X3984943Y-15752174D01*
X3984943Y-15752174D02*
X4003991Y-15742650D01*
X4003991Y-15742650D02*
X4032563Y-15742650D01*
X4032563Y-15742650D02*
X4051610Y-15752174D01*
X4051610Y-15752174D02*
X4061134Y-15771222D01*
X4061134Y-15771222D02*
X4061134Y-15875984D01*
X4061134Y-15771222D02*
X4070658Y-15752174D01*
X4070658Y-15752174D02*
X4089705Y-15742650D01*
X4089705Y-15742650D02*
X4118277Y-15742650D01*
X4118277Y-15742650D02*
X4137324Y-15752174D01*
X4137324Y-15752174D02*
X4146848Y-15771222D01*
X4146848Y-15771222D02*
X4146848Y-15875984D01*
X4242086Y-15875984D02*
X4242086Y-15742650D01*
X4242086Y-15761698D02*
X4251610Y-15752174D01*
X4251610Y-15752174D02*
X4270658Y-15742650D01*
X4270658Y-15742650D02*
X4299229Y-15742650D01*
X4299229Y-15742650D02*
X4318277Y-15752174D01*
X4318277Y-15752174D02*
X4327801Y-15771222D01*
X4327801Y-15771222D02*
X4327801Y-15875984D01*
X4327801Y-15771222D02*
X4337325Y-15752174D01*
X4337325Y-15752174D02*
X4356372Y-15742650D01*
X4356372Y-15742650D02*
X4384944Y-15742650D01*
X4384944Y-15742650D02*
X4403991Y-15752174D01*
X4403991Y-15752174D02*
X4413515Y-15771222D01*
X4413515Y-15771222D02*
X4413515Y-15875984D01*
X4803991Y-15666460D02*
X4632563Y-15923603D01*
X5061134Y-15675984D02*
X5080182Y-15675984D01*
X5080182Y-15675984D02*
X5099229Y-15685508D01*
X5099229Y-15685508D02*
X5108753Y-15695031D01*
X5108753Y-15695031D02*
X5118277Y-15714079D01*
X5118277Y-15714079D02*
X5127801Y-15752174D01*
X5127801Y-15752174D02*
X5127801Y-15799793D01*
X5127801Y-15799793D02*
X5118277Y-15837888D01*
X5118277Y-15837888D02*
X5108753Y-15856936D01*
X5108753Y-15856936D02*
X5099229Y-15866460D01*
X5099229Y-15866460D02*
X5080182Y-15875984D01*
X5080182Y-15875984D02*
X5061134Y-15875984D01*
X5061134Y-15875984D02*
X5042087Y-15866460D01*
X5042087Y-15866460D02*
X5032563Y-15856936D01*
X5032563Y-15856936D02*
X5023039Y-15837888D01*
X5023039Y-15837888D02*
X5013515Y-15799793D01*
X5013515Y-15799793D02*
X5013515Y-15752174D01*
X5013515Y-15752174D02*
X5023039Y-15714079D01*
X5023039Y-15714079D02*
X5032563Y-15695031D01*
X5032563Y-15695031D02*
X5042087Y-15685508D01*
X5042087Y-15685508D02*
X5061134Y-15675984D01*
X5213515Y-15856936D02*
X5223039Y-15866460D01*
X5223039Y-15866460D02*
X5213515Y-15875984D01*
X5213515Y-15875984D02*
X5203991Y-15866460D01*
X5203991Y-15866460D02*
X5213515Y-15856936D01*
X5213515Y-15856936D02*
X5213515Y-15875984D01*
X5346848Y-15675984D02*
X5365896Y-15675984D01*
X5365896Y-15675984D02*
X5384944Y-15685508D01*
X5384944Y-15685508D02*
X5394468Y-15695031D01*
X5394468Y-15695031D02*
X5403991Y-15714079D01*
X5403991Y-15714079D02*
X5413515Y-15752174D01*
X5413515Y-15752174D02*
X5413515Y-15799793D01*
X5413515Y-15799793D02*
X5403991Y-15837888D01*
X5403991Y-15837888D02*
X5394468Y-15856936D01*
X5394468Y-15856936D02*
X5384944Y-15866460D01*
X5384944Y-15866460D02*
X5365896Y-15875984D01*
X5365896Y-15875984D02*
X5346848Y-15875984D01*
X5346848Y-15875984D02*
X5327801Y-15866460D01*
X5327801Y-15866460D02*
X5318277Y-15856936D01*
X5318277Y-15856936D02*
X5308753Y-15837888D01*
X5308753Y-15837888D02*
X5299229Y-15799793D01*
X5299229Y-15799793D02*
X5299229Y-15752174D01*
X5299229Y-15752174D02*
X5308753Y-15714079D01*
X5308753Y-15714079D02*
X5318277Y-15695031D01*
X5318277Y-15695031D02*
X5327801Y-15685508D01*
X5327801Y-15685508D02*
X5346848Y-15675984D01*
X5480182Y-15675984D02*
X5603991Y-15675984D01*
X5603991Y-15675984D02*
X5537325Y-15752174D01*
X5537325Y-15752174D02*
X5565896Y-15752174D01*
X5565896Y-15752174D02*
X5584944Y-15761698D01*
X5584944Y-15761698D02*
X5594467Y-15771222D01*
X5594467Y-15771222D02*
X5603991Y-15790269D01*
X5603991Y-15790269D02*
X5603991Y-15837888D01*
X5603991Y-15837888D02*
X5594467Y-15856936D01*
X5594467Y-15856936D02*
X5584944Y-15866460D01*
X5584944Y-15866460D02*
X5565896Y-15875984D01*
X5565896Y-15875984D02*
X5508753Y-15875984D01*
X5508753Y-15875984D02*
X5489706Y-15866460D01*
X5489706Y-15866460D02*
X5480182Y-15856936D01*
X5699229Y-15875984D02*
X5737325Y-15875984D01*
X5737325Y-15875984D02*
X5756372Y-15866460D01*
X5756372Y-15866460D02*
X5765896Y-15856936D01*
X5765896Y-15856936D02*
X5784944Y-15828365D01*
X5784944Y-15828365D02*
X5794467Y-15790269D01*
X5794467Y-15790269D02*
X5794467Y-15714079D01*
X5794467Y-15714079D02*
X5784944Y-15695031D01*
X5784944Y-15695031D02*
X5775420Y-15685508D01*
X5775420Y-15685508D02*
X5756372Y-15675984D01*
X5756372Y-15675984D02*
X5718277Y-15675984D01*
X5718277Y-15675984D02*
X5699229Y-15685508D01*
X5699229Y-15685508D02*
X5689706Y-15695031D01*
X5689706Y-15695031D02*
X5680182Y-15714079D01*
X5680182Y-15714079D02*
X5680182Y-15761698D01*
X5680182Y-15761698D02*
X5689706Y-15780746D01*
X5689706Y-15780746D02*
X5699229Y-15790269D01*
X5699229Y-15790269D02*
X5718277Y-15799793D01*
X5718277Y-15799793D02*
X5756372Y-15799793D01*
X5756372Y-15799793D02*
X5775420Y-15790269D01*
X5775420Y-15790269D02*
X5784944Y-15780746D01*
X5784944Y-15780746D02*
X5794467Y-15761698D01*
X5965896Y-15742650D02*
X5965896Y-15875984D01*
X5918277Y-15666460D02*
X5870658Y-15809317D01*
X5870658Y-15809317D02*
X5994467Y-15809317D01*
X6061134Y-15675984D02*
X6061134Y-15714079D01*
X6137325Y-15675984D02*
X6137325Y-15714079D01*
X6432563Y-15952174D02*
X6423039Y-15942650D01*
X6423039Y-15942650D02*
X6403991Y-15914079D01*
X6403991Y-15914079D02*
X6394468Y-15895031D01*
X6394468Y-15895031D02*
X6384944Y-15866460D01*
X6384944Y-15866460D02*
X6375420Y-15818841D01*
X6375420Y-15818841D02*
X6375420Y-15780746D01*
X6375420Y-15780746D02*
X6384944Y-15733127D01*
X6384944Y-15733127D02*
X6394468Y-15704555D01*
X6394468Y-15704555D02*
X6403991Y-15685508D01*
X6403991Y-15685508D02*
X6423039Y-15656936D01*
X6423039Y-15656936D02*
X6432563Y-15647412D01*
X6499229Y-15695031D02*
X6508753Y-15685508D01*
X6508753Y-15685508D02*
X6527801Y-15675984D01*
X6527801Y-15675984D02*
X6575420Y-15675984D01*
X6575420Y-15675984D02*
X6594468Y-15685508D01*
X6594468Y-15685508D02*
X6603991Y-15695031D01*
X6603991Y-15695031D02*
X6613515Y-15714079D01*
X6613515Y-15714079D02*
X6613515Y-15733127D01*
X6613515Y-15733127D02*
X6603991Y-15761698D01*
X6603991Y-15761698D02*
X6489706Y-15875984D01*
X6489706Y-15875984D02*
X6613515Y-15875984D01*
X6784944Y-15675984D02*
X6746848Y-15675984D01*
X6746848Y-15675984D02*
X6727801Y-15685508D01*
X6727801Y-15685508D02*
X6718277Y-15695031D01*
X6718277Y-15695031D02*
X6699229Y-15723603D01*
X6699229Y-15723603D02*
X6689706Y-15761698D01*
X6689706Y-15761698D02*
X6689706Y-15837888D01*
X6689706Y-15837888D02*
X6699229Y-15856936D01*
X6699229Y-15856936D02*
X6708753Y-15866460D01*
X6708753Y-15866460D02*
X6727801Y-15875984D01*
X6727801Y-15875984D02*
X6765896Y-15875984D01*
X6765896Y-15875984D02*
X6784944Y-15866460D01*
X6784944Y-15866460D02*
X6794468Y-15856936D01*
X6794468Y-15856936D02*
X6803991Y-15837888D01*
X6803991Y-15837888D02*
X6803991Y-15790269D01*
X6803991Y-15790269D02*
X6794468Y-15771222D01*
X6794468Y-15771222D02*
X6784944Y-15761698D01*
X6784944Y-15761698D02*
X6765896Y-15752174D01*
X6765896Y-15752174D02*
X6727801Y-15752174D01*
X6727801Y-15752174D02*
X6708753Y-15761698D01*
X6708753Y-15761698D02*
X6699229Y-15771222D01*
X6699229Y-15771222D02*
X6689706Y-15790269D01*
X7042087Y-15875984D02*
X7042087Y-15675984D01*
X7127801Y-15875984D02*
X7127801Y-15771222D01*
X7127801Y-15771222D02*
X7118277Y-15752174D01*
X7118277Y-15752174D02*
X7099230Y-15742650D01*
X7099230Y-15742650D02*
X7070658Y-15742650D01*
X7070658Y-15742650D02*
X7051610Y-15752174D01*
X7051610Y-15752174D02*
X7042087Y-15761698D01*
X7251610Y-15875984D02*
X7232563Y-15866460D01*
X7232563Y-15866460D02*
X7223039Y-15856936D01*
X7223039Y-15856936D02*
X7213515Y-15837888D01*
X7213515Y-15837888D02*
X7213515Y-15780746D01*
X7213515Y-15780746D02*
X7223039Y-15761698D01*
X7223039Y-15761698D02*
X7232563Y-15752174D01*
X7232563Y-15752174D02*
X7251610Y-15742650D01*
X7251610Y-15742650D02*
X7280182Y-15742650D01*
X7280182Y-15742650D02*
X7299230Y-15752174D01*
X7299230Y-15752174D02*
X7308753Y-15761698D01*
X7308753Y-15761698D02*
X7318277Y-15780746D01*
X7318277Y-15780746D02*
X7318277Y-15837888D01*
X7318277Y-15837888D02*
X7308753Y-15856936D01*
X7308753Y-15856936D02*
X7299230Y-15866460D01*
X7299230Y-15866460D02*
X7280182Y-15875984D01*
X7280182Y-15875984D02*
X7251610Y-15875984D01*
X7432563Y-15875984D02*
X7413515Y-15866460D01*
X7413515Y-15866460D02*
X7403991Y-15847412D01*
X7403991Y-15847412D02*
X7403991Y-15675984D01*
X7584944Y-15866460D02*
X7565896Y-15875984D01*
X7565896Y-15875984D02*
X7527801Y-15875984D01*
X7527801Y-15875984D02*
X7508753Y-15866460D01*
X7508753Y-15866460D02*
X7499230Y-15847412D01*
X7499230Y-15847412D02*
X7499230Y-15771222D01*
X7499230Y-15771222D02*
X7508753Y-15752174D01*
X7508753Y-15752174D02*
X7527801Y-15742650D01*
X7527801Y-15742650D02*
X7565896Y-15742650D01*
X7565896Y-15742650D02*
X7584944Y-15752174D01*
X7584944Y-15752174D02*
X7594468Y-15771222D01*
X7594468Y-15771222D02*
X7594468Y-15790269D01*
X7594468Y-15790269D02*
X7499230Y-15809317D01*
X7670658Y-15866460D02*
X7689706Y-15875984D01*
X7689706Y-15875984D02*
X7727801Y-15875984D01*
X7727801Y-15875984D02*
X7746849Y-15866460D01*
X7746849Y-15866460D02*
X7756372Y-15847412D01*
X7756372Y-15847412D02*
X7756372Y-15837888D01*
X7756372Y-15837888D02*
X7746849Y-15818841D01*
X7746849Y-15818841D02*
X7727801Y-15809317D01*
X7727801Y-15809317D02*
X7699230Y-15809317D01*
X7699230Y-15809317D02*
X7680182Y-15799793D01*
X7680182Y-15799793D02*
X7670658Y-15780746D01*
X7670658Y-15780746D02*
X7670658Y-15771222D01*
X7670658Y-15771222D02*
X7680182Y-15752174D01*
X7680182Y-15752174D02*
X7699230Y-15742650D01*
X7699230Y-15742650D02*
X7727801Y-15742650D01*
X7727801Y-15742650D02*
X7746849Y-15752174D01*
X7823039Y-15952174D02*
X7832563Y-15942650D01*
X7832563Y-15942650D02*
X7851611Y-15914079D01*
X7851611Y-15914079D02*
X7861134Y-15895031D01*
X7861134Y-15895031D02*
X7870658Y-15866460D01*
X7870658Y-15866460D02*
X7880182Y-15818841D01*
X7880182Y-15818841D02*
X7880182Y-15780746D01*
X7880182Y-15780746D02*
X7870658Y-15733127D01*
X7870658Y-15733127D02*
X7861134Y-15704555D01*
X7861134Y-15704555D02*
X7851611Y-15685508D01*
X7851611Y-15685508D02*
X7832563Y-15656936D01*
X7832563Y-15656936D02*
X7823039Y-15647412D01*
M02*
