G04 #@! TF.GenerationSoftware,KiCad,Pcbnew,7.0.7-7.0.7~ubuntu22.04.1*
G04 #@! TF.CreationDate,2024-01-01T18:28:25+01:00*
G04 #@! TF.ProjectId,Basic-ADSR,42617369-632d-4414-9453-522e6b696361,rev?*
G04 #@! TF.SameCoordinates,Original*
G04 #@! TF.FileFunction,Legend,Top*
G04 #@! TF.FilePolarity,Positive*
%FSLAX46Y46*%
G04 Gerber Fmt 4.6, Leading zero omitted, Abs format (unit mm)*
G04 Created by KiCad (PCBNEW 7.0.7-7.0.7~ubuntu22.04.1) date 2024-01-01 18:28:25*
%MOMM*%
%LPD*%
G01*
G04 APERTURE LIST*
%ADD10C,0.150000*%
%ADD11C,0.120000*%
%ADD12R,1.700000X1.700000*%
%ADD13O,1.700000X1.700000*%
%ADD14C,3.200000*%
%ADD15R,1.600000X1.600000*%
%ADD16O,1.600000X1.600000*%
%ADD17C,1.600000*%
%ADD18R,1.500000X1.050000*%
%ADD19O,1.500000X1.050000*%
%ADD20C,1.700000*%
G04 APERTURE END LIST*
D10*
X33290476Y-121526009D02*
X33433333Y-121573628D01*
X33433333Y-121573628D02*
X33480952Y-121621247D01*
X33480952Y-121621247D02*
X33528571Y-121716485D01*
X33528571Y-121716485D02*
X33528571Y-121859342D01*
X33528571Y-121859342D02*
X33480952Y-121954580D01*
X33480952Y-121954580D02*
X33433333Y-122002200D01*
X33433333Y-122002200D02*
X33338095Y-122049819D01*
X33338095Y-122049819D02*
X32957143Y-122049819D01*
X32957143Y-122049819D02*
X32957143Y-121049819D01*
X32957143Y-121049819D02*
X33290476Y-121049819D01*
X33290476Y-121049819D02*
X33385714Y-121097438D01*
X33385714Y-121097438D02*
X33433333Y-121145057D01*
X33433333Y-121145057D02*
X33480952Y-121240295D01*
X33480952Y-121240295D02*
X33480952Y-121335533D01*
X33480952Y-121335533D02*
X33433333Y-121430771D01*
X33433333Y-121430771D02*
X33385714Y-121478390D01*
X33385714Y-121478390D02*
X33290476Y-121526009D01*
X33290476Y-121526009D02*
X32957143Y-121526009D01*
X34385714Y-122049819D02*
X34385714Y-121526009D01*
X34385714Y-121526009D02*
X34338095Y-121430771D01*
X34338095Y-121430771D02*
X34242857Y-121383152D01*
X34242857Y-121383152D02*
X34052381Y-121383152D01*
X34052381Y-121383152D02*
X33957143Y-121430771D01*
X34385714Y-122002200D02*
X34290476Y-122049819D01*
X34290476Y-122049819D02*
X34052381Y-122049819D01*
X34052381Y-122049819D02*
X33957143Y-122002200D01*
X33957143Y-122002200D02*
X33909524Y-121906961D01*
X33909524Y-121906961D02*
X33909524Y-121811723D01*
X33909524Y-121811723D02*
X33957143Y-121716485D01*
X33957143Y-121716485D02*
X34052381Y-121668866D01*
X34052381Y-121668866D02*
X34290476Y-121668866D01*
X34290476Y-121668866D02*
X34385714Y-121621247D01*
X34814286Y-122002200D02*
X34909524Y-122049819D01*
X34909524Y-122049819D02*
X35100000Y-122049819D01*
X35100000Y-122049819D02*
X35195238Y-122002200D01*
X35195238Y-122002200D02*
X35242857Y-121906961D01*
X35242857Y-121906961D02*
X35242857Y-121859342D01*
X35242857Y-121859342D02*
X35195238Y-121764104D01*
X35195238Y-121764104D02*
X35100000Y-121716485D01*
X35100000Y-121716485D02*
X34957143Y-121716485D01*
X34957143Y-121716485D02*
X34861905Y-121668866D01*
X34861905Y-121668866D02*
X34814286Y-121573628D01*
X34814286Y-121573628D02*
X34814286Y-121526009D01*
X34814286Y-121526009D02*
X34861905Y-121430771D01*
X34861905Y-121430771D02*
X34957143Y-121383152D01*
X34957143Y-121383152D02*
X35100000Y-121383152D01*
X35100000Y-121383152D02*
X35195238Y-121430771D01*
X35671429Y-122049819D02*
X35671429Y-121383152D01*
X35671429Y-121049819D02*
X35623810Y-121097438D01*
X35623810Y-121097438D02*
X35671429Y-121145057D01*
X35671429Y-121145057D02*
X35719048Y-121097438D01*
X35719048Y-121097438D02*
X35671429Y-121049819D01*
X35671429Y-121049819D02*
X35671429Y-121145057D01*
X36576190Y-122002200D02*
X36480952Y-122049819D01*
X36480952Y-122049819D02*
X36290476Y-122049819D01*
X36290476Y-122049819D02*
X36195238Y-122002200D01*
X36195238Y-122002200D02*
X36147619Y-121954580D01*
X36147619Y-121954580D02*
X36100000Y-121859342D01*
X36100000Y-121859342D02*
X36100000Y-121573628D01*
X36100000Y-121573628D02*
X36147619Y-121478390D01*
X36147619Y-121478390D02*
X36195238Y-121430771D01*
X36195238Y-121430771D02*
X36290476Y-121383152D01*
X36290476Y-121383152D02*
X36480952Y-121383152D01*
X36480952Y-121383152D02*
X36576190Y-121430771D01*
X37719048Y-121764104D02*
X38195238Y-121764104D01*
X37623810Y-122049819D02*
X37957143Y-121049819D01*
X37957143Y-121049819D02*
X38290476Y-122049819D01*
X38623810Y-122049819D02*
X38623810Y-121049819D01*
X38623810Y-121049819D02*
X38861905Y-121049819D01*
X38861905Y-121049819D02*
X39004762Y-121097438D01*
X39004762Y-121097438D02*
X39100000Y-121192676D01*
X39100000Y-121192676D02*
X39147619Y-121287914D01*
X39147619Y-121287914D02*
X39195238Y-121478390D01*
X39195238Y-121478390D02*
X39195238Y-121621247D01*
X39195238Y-121621247D02*
X39147619Y-121811723D01*
X39147619Y-121811723D02*
X39100000Y-121906961D01*
X39100000Y-121906961D02*
X39004762Y-122002200D01*
X39004762Y-122002200D02*
X38861905Y-122049819D01*
X38861905Y-122049819D02*
X38623810Y-122049819D01*
X39576191Y-122002200D02*
X39719048Y-122049819D01*
X39719048Y-122049819D02*
X39957143Y-122049819D01*
X39957143Y-122049819D02*
X40052381Y-122002200D01*
X40052381Y-122002200D02*
X40100000Y-121954580D01*
X40100000Y-121954580D02*
X40147619Y-121859342D01*
X40147619Y-121859342D02*
X40147619Y-121764104D01*
X40147619Y-121764104D02*
X40100000Y-121668866D01*
X40100000Y-121668866D02*
X40052381Y-121621247D01*
X40052381Y-121621247D02*
X39957143Y-121573628D01*
X39957143Y-121573628D02*
X39766667Y-121526009D01*
X39766667Y-121526009D02*
X39671429Y-121478390D01*
X39671429Y-121478390D02*
X39623810Y-121430771D01*
X39623810Y-121430771D02*
X39576191Y-121335533D01*
X39576191Y-121335533D02*
X39576191Y-121240295D01*
X39576191Y-121240295D02*
X39623810Y-121145057D01*
X39623810Y-121145057D02*
X39671429Y-121097438D01*
X39671429Y-121097438D02*
X39766667Y-121049819D01*
X39766667Y-121049819D02*
X40004762Y-121049819D01*
X40004762Y-121049819D02*
X40147619Y-121097438D01*
X41147619Y-122049819D02*
X40814286Y-121573628D01*
X40576191Y-122049819D02*
X40576191Y-121049819D01*
X40576191Y-121049819D02*
X40957143Y-121049819D01*
X40957143Y-121049819D02*
X41052381Y-121097438D01*
X41052381Y-121097438D02*
X41100000Y-121145057D01*
X41100000Y-121145057D02*
X41147619Y-121240295D01*
X41147619Y-121240295D02*
X41147619Y-121383152D01*
X41147619Y-121383152D02*
X41100000Y-121478390D01*
X41100000Y-121478390D02*
X41052381Y-121526009D01*
X41052381Y-121526009D02*
X40957143Y-121573628D01*
X40957143Y-121573628D02*
X40576191Y-121573628D01*
X42861905Y-122049819D02*
X42290477Y-122049819D01*
X42576191Y-122049819D02*
X42576191Y-121049819D01*
X42576191Y-121049819D02*
X42480953Y-121192676D01*
X42480953Y-121192676D02*
X42385715Y-121287914D01*
X42385715Y-121287914D02*
X42290477Y-121335533D01*
X43290477Y-121954580D02*
X43338096Y-122002200D01*
X43338096Y-122002200D02*
X43290477Y-122049819D01*
X43290477Y-122049819D02*
X43242858Y-122002200D01*
X43242858Y-122002200D02*
X43290477Y-121954580D01*
X43290477Y-121954580D02*
X43290477Y-122049819D01*
X44290476Y-122049819D02*
X43719048Y-122049819D01*
X44004762Y-122049819D02*
X44004762Y-121049819D01*
X44004762Y-121049819D02*
X43909524Y-121192676D01*
X43909524Y-121192676D02*
X43814286Y-121287914D01*
X43814286Y-121287914D02*
X43719048Y-121335533D01*
X32147618Y-123136009D02*
X32290475Y-123183628D01*
X32290475Y-123183628D02*
X32338094Y-123231247D01*
X32338094Y-123231247D02*
X32385713Y-123326485D01*
X32385713Y-123326485D02*
X32385713Y-123469342D01*
X32385713Y-123469342D02*
X32338094Y-123564580D01*
X32338094Y-123564580D02*
X32290475Y-123612200D01*
X32290475Y-123612200D02*
X32195237Y-123659819D01*
X32195237Y-123659819D02*
X31814285Y-123659819D01*
X31814285Y-123659819D02*
X31814285Y-122659819D01*
X31814285Y-122659819D02*
X32147618Y-122659819D01*
X32147618Y-122659819D02*
X32242856Y-122707438D01*
X32242856Y-122707438D02*
X32290475Y-122755057D01*
X32290475Y-122755057D02*
X32338094Y-122850295D01*
X32338094Y-122850295D02*
X32338094Y-122945533D01*
X32338094Y-122945533D02*
X32290475Y-123040771D01*
X32290475Y-123040771D02*
X32242856Y-123088390D01*
X32242856Y-123088390D02*
X32147618Y-123136009D01*
X32147618Y-123136009D02*
X31814285Y-123136009D01*
X32957142Y-123659819D02*
X32861904Y-123612200D01*
X32861904Y-123612200D02*
X32814285Y-123516961D01*
X32814285Y-123516961D02*
X32814285Y-122659819D01*
X33719047Y-123612200D02*
X33623809Y-123659819D01*
X33623809Y-123659819D02*
X33433333Y-123659819D01*
X33433333Y-123659819D02*
X33338095Y-123612200D01*
X33338095Y-123612200D02*
X33290476Y-123516961D01*
X33290476Y-123516961D02*
X33290476Y-123136009D01*
X33290476Y-123136009D02*
X33338095Y-123040771D01*
X33338095Y-123040771D02*
X33433333Y-122993152D01*
X33433333Y-122993152D02*
X33623809Y-122993152D01*
X33623809Y-122993152D02*
X33719047Y-123040771D01*
X33719047Y-123040771D02*
X33766666Y-123136009D01*
X33766666Y-123136009D02*
X33766666Y-123231247D01*
X33766666Y-123231247D02*
X33290476Y-123326485D01*
X34576190Y-123612200D02*
X34480952Y-123659819D01*
X34480952Y-123659819D02*
X34290476Y-123659819D01*
X34290476Y-123659819D02*
X34195238Y-123612200D01*
X34195238Y-123612200D02*
X34147619Y-123516961D01*
X34147619Y-123516961D02*
X34147619Y-123136009D01*
X34147619Y-123136009D02*
X34195238Y-123040771D01*
X34195238Y-123040771D02*
X34290476Y-122993152D01*
X34290476Y-122993152D02*
X34480952Y-122993152D01*
X34480952Y-122993152D02*
X34576190Y-123040771D01*
X34576190Y-123040771D02*
X34623809Y-123136009D01*
X34623809Y-123136009D02*
X34623809Y-123231247D01*
X34623809Y-123231247D02*
X34147619Y-123326485D01*
X35052381Y-122993152D02*
X35052381Y-123993152D01*
X35052381Y-123040771D02*
X35147619Y-122993152D01*
X35147619Y-122993152D02*
X35338095Y-122993152D01*
X35338095Y-122993152D02*
X35433333Y-123040771D01*
X35433333Y-123040771D02*
X35480952Y-123088390D01*
X35480952Y-123088390D02*
X35528571Y-123183628D01*
X35528571Y-123183628D02*
X35528571Y-123469342D01*
X35528571Y-123469342D02*
X35480952Y-123564580D01*
X35480952Y-123564580D02*
X35433333Y-123612200D01*
X35433333Y-123612200D02*
X35338095Y-123659819D01*
X35338095Y-123659819D02*
X35147619Y-123659819D01*
X35147619Y-123659819D02*
X35052381Y-123612200D01*
X36671429Y-123612200D02*
X36814286Y-123659819D01*
X36814286Y-123659819D02*
X37052381Y-123659819D01*
X37052381Y-123659819D02*
X37147619Y-123612200D01*
X37147619Y-123612200D02*
X37195238Y-123564580D01*
X37195238Y-123564580D02*
X37242857Y-123469342D01*
X37242857Y-123469342D02*
X37242857Y-123374104D01*
X37242857Y-123374104D02*
X37195238Y-123278866D01*
X37195238Y-123278866D02*
X37147619Y-123231247D01*
X37147619Y-123231247D02*
X37052381Y-123183628D01*
X37052381Y-123183628D02*
X36861905Y-123136009D01*
X36861905Y-123136009D02*
X36766667Y-123088390D01*
X36766667Y-123088390D02*
X36719048Y-123040771D01*
X36719048Y-123040771D02*
X36671429Y-122945533D01*
X36671429Y-122945533D02*
X36671429Y-122850295D01*
X36671429Y-122850295D02*
X36719048Y-122755057D01*
X36719048Y-122755057D02*
X36766667Y-122707438D01*
X36766667Y-122707438D02*
X36861905Y-122659819D01*
X36861905Y-122659819D02*
X37100000Y-122659819D01*
X37100000Y-122659819D02*
X37242857Y-122707438D01*
X37814286Y-123659819D02*
X37719048Y-123612200D01*
X37719048Y-123612200D02*
X37671429Y-123564580D01*
X37671429Y-123564580D02*
X37623810Y-123469342D01*
X37623810Y-123469342D02*
X37623810Y-123183628D01*
X37623810Y-123183628D02*
X37671429Y-123088390D01*
X37671429Y-123088390D02*
X37719048Y-123040771D01*
X37719048Y-123040771D02*
X37814286Y-122993152D01*
X37814286Y-122993152D02*
X37957143Y-122993152D01*
X37957143Y-122993152D02*
X38052381Y-123040771D01*
X38052381Y-123040771D02*
X38100000Y-123088390D01*
X38100000Y-123088390D02*
X38147619Y-123183628D01*
X38147619Y-123183628D02*
X38147619Y-123469342D01*
X38147619Y-123469342D02*
X38100000Y-123564580D01*
X38100000Y-123564580D02*
X38052381Y-123612200D01*
X38052381Y-123612200D02*
X37957143Y-123659819D01*
X37957143Y-123659819D02*
X37814286Y-123659819D01*
X39004762Y-122993152D02*
X39004762Y-123659819D01*
X38576191Y-122993152D02*
X38576191Y-123516961D01*
X38576191Y-123516961D02*
X38623810Y-123612200D01*
X38623810Y-123612200D02*
X38719048Y-123659819D01*
X38719048Y-123659819D02*
X38861905Y-123659819D01*
X38861905Y-123659819D02*
X38957143Y-123612200D01*
X38957143Y-123612200D02*
X39004762Y-123564580D01*
X39480953Y-122993152D02*
X39480953Y-123659819D01*
X39480953Y-123088390D02*
X39528572Y-123040771D01*
X39528572Y-123040771D02*
X39623810Y-122993152D01*
X39623810Y-122993152D02*
X39766667Y-122993152D01*
X39766667Y-122993152D02*
X39861905Y-123040771D01*
X39861905Y-123040771D02*
X39909524Y-123136009D01*
X39909524Y-123136009D02*
X39909524Y-123659819D01*
X40814286Y-123659819D02*
X40814286Y-122659819D01*
X40814286Y-123612200D02*
X40719048Y-123659819D01*
X40719048Y-123659819D02*
X40528572Y-123659819D01*
X40528572Y-123659819D02*
X40433334Y-123612200D01*
X40433334Y-123612200D02*
X40385715Y-123564580D01*
X40385715Y-123564580D02*
X40338096Y-123469342D01*
X40338096Y-123469342D02*
X40338096Y-123183628D01*
X40338096Y-123183628D02*
X40385715Y-123088390D01*
X40385715Y-123088390D02*
X40433334Y-123040771D01*
X40433334Y-123040771D02*
X40528572Y-122993152D01*
X40528572Y-122993152D02*
X40719048Y-122993152D01*
X40719048Y-122993152D02*
X40814286Y-123040771D01*
X42004763Y-122755057D02*
X42052382Y-122707438D01*
X42052382Y-122707438D02*
X42147620Y-122659819D01*
X42147620Y-122659819D02*
X42385715Y-122659819D01*
X42385715Y-122659819D02*
X42480953Y-122707438D01*
X42480953Y-122707438D02*
X42528572Y-122755057D01*
X42528572Y-122755057D02*
X42576191Y-122850295D01*
X42576191Y-122850295D02*
X42576191Y-122945533D01*
X42576191Y-122945533D02*
X42528572Y-123088390D01*
X42528572Y-123088390D02*
X41957144Y-123659819D01*
X41957144Y-123659819D02*
X42576191Y-123659819D01*
X43195239Y-122659819D02*
X43290477Y-122659819D01*
X43290477Y-122659819D02*
X43385715Y-122707438D01*
X43385715Y-122707438D02*
X43433334Y-122755057D01*
X43433334Y-122755057D02*
X43480953Y-122850295D01*
X43480953Y-122850295D02*
X43528572Y-123040771D01*
X43528572Y-123040771D02*
X43528572Y-123278866D01*
X43528572Y-123278866D02*
X43480953Y-123469342D01*
X43480953Y-123469342D02*
X43433334Y-123564580D01*
X43433334Y-123564580D02*
X43385715Y-123612200D01*
X43385715Y-123612200D02*
X43290477Y-123659819D01*
X43290477Y-123659819D02*
X43195239Y-123659819D01*
X43195239Y-123659819D02*
X43100001Y-123612200D01*
X43100001Y-123612200D02*
X43052382Y-123564580D01*
X43052382Y-123564580D02*
X43004763Y-123469342D01*
X43004763Y-123469342D02*
X42957144Y-123278866D01*
X42957144Y-123278866D02*
X42957144Y-123040771D01*
X42957144Y-123040771D02*
X43004763Y-122850295D01*
X43004763Y-122850295D02*
X43052382Y-122755057D01*
X43052382Y-122755057D02*
X43100001Y-122707438D01*
X43100001Y-122707438D02*
X43195239Y-122659819D01*
X43909525Y-122755057D02*
X43957144Y-122707438D01*
X43957144Y-122707438D02*
X44052382Y-122659819D01*
X44052382Y-122659819D02*
X44290477Y-122659819D01*
X44290477Y-122659819D02*
X44385715Y-122707438D01*
X44385715Y-122707438D02*
X44433334Y-122755057D01*
X44433334Y-122755057D02*
X44480953Y-122850295D01*
X44480953Y-122850295D02*
X44480953Y-122945533D01*
X44480953Y-122945533D02*
X44433334Y-123088390D01*
X44433334Y-123088390D02*
X43861906Y-123659819D01*
X43861906Y-123659819D02*
X44480953Y-123659819D01*
X45338096Y-122993152D02*
X45338096Y-123659819D01*
X45100001Y-122612200D02*
X44861906Y-123326485D01*
X44861906Y-123326485D02*
X45480953Y-123326485D01*
X30066666Y-97184819D02*
X30066666Y-97899104D01*
X30066666Y-97899104D02*
X30019047Y-98041961D01*
X30019047Y-98041961D02*
X29923809Y-98137200D01*
X29923809Y-98137200D02*
X29780952Y-98184819D01*
X29780952Y-98184819D02*
X29685714Y-98184819D01*
X30971428Y-97518152D02*
X30971428Y-98184819D01*
X30733333Y-97137200D02*
X30495238Y-97851485D01*
X30495238Y-97851485D02*
X31114285Y-97851485D01*
X30133333Y-45892295D02*
X30133333Y-46463723D01*
X30133333Y-46463723D02*
X30095238Y-46578009D01*
X30095238Y-46578009D02*
X30019047Y-46654200D01*
X30019047Y-46654200D02*
X29904762Y-46692295D01*
X29904762Y-46692295D02*
X29828571Y-46692295D01*
X30438095Y-45892295D02*
X30933333Y-45892295D01*
X30933333Y-45892295D02*
X30666667Y-46197057D01*
X30666667Y-46197057D02*
X30780952Y-46197057D01*
X30780952Y-46197057D02*
X30857143Y-46235152D01*
X30857143Y-46235152D02*
X30895238Y-46273247D01*
X30895238Y-46273247D02*
X30933333Y-46349438D01*
X30933333Y-46349438D02*
X30933333Y-46539914D01*
X30933333Y-46539914D02*
X30895238Y-46616104D01*
X30895238Y-46616104D02*
X30857143Y-46654200D01*
X30857143Y-46654200D02*
X30780952Y-46692295D01*
X30780952Y-46692295D02*
X30552381Y-46692295D01*
X30552381Y-46692295D02*
X30476190Y-46654200D01*
X30476190Y-46654200D02*
X30438095Y-46616104D01*
D11*
X29070000Y-101770000D02*
X29070000Y-119610000D01*
X29070000Y-101770000D02*
X31730000Y-101770000D01*
X29070000Y-119610000D02*
X31730000Y-119610000D01*
X30400000Y-99170000D02*
X31730000Y-99170000D01*
X31730000Y-99170000D02*
X31730000Y-100500000D01*
X31730000Y-101770000D02*
X31730000Y-119610000D01*
X29070000Y-50370000D02*
X29070000Y-68210000D01*
X29070000Y-50370000D02*
X31730000Y-50370000D01*
X29070000Y-68210000D02*
X31730000Y-68210000D01*
X30400000Y-47770000D02*
X31730000Y-47770000D01*
X31730000Y-47770000D02*
X31730000Y-49100000D01*
X31730000Y-50370000D02*
X31730000Y-68210000D01*
%LPC*%
D12*
X30400000Y-100500000D03*
D13*
X30400000Y-103040000D03*
X30400000Y-105580000D03*
X30400000Y-108120000D03*
X30400000Y-110660000D03*
X30400000Y-113200000D03*
X30400000Y-115740000D03*
X30400000Y-118280000D03*
D14*
X44600000Y-107700000D03*
D12*
X30400000Y-49100000D03*
D13*
X30400000Y-51640000D03*
X30400000Y-54180000D03*
X30400000Y-56720000D03*
X30400000Y-59260000D03*
X30400000Y-61800000D03*
X30400000Y-64340000D03*
X30400000Y-66880000D03*
D15*
X33790000Y-55100000D03*
D16*
X41410000Y-55100000D03*
D17*
X37120000Y-93700000D03*
D16*
X47280000Y-93700000D03*
D17*
X47280000Y-99700000D03*
D16*
X37120000Y-99700000D03*
D17*
X39700000Y-84100000D03*
X44700000Y-84100000D03*
D18*
X32800000Y-92230000D03*
D19*
X32800000Y-93500000D03*
X32800000Y-94770000D03*
D15*
X34400000Y-112600000D03*
D17*
X36400000Y-112600000D03*
X37120000Y-78100000D03*
D16*
X47280000Y-78100000D03*
D15*
X34400000Y-118400000D03*
D17*
X36400000Y-118400000D03*
X32800000Y-68600000D03*
X32800000Y-73600000D03*
X46800000Y-57580000D03*
D16*
X46800000Y-47420000D03*
D17*
X37120000Y-87300000D03*
D16*
X47280000Y-87300000D03*
D18*
X32800000Y-80900000D03*
D19*
X32800000Y-82170000D03*
X32800000Y-83440000D03*
D17*
X43960000Y-52100000D03*
D16*
X33800000Y-52100000D03*
D15*
X38390000Y-81100000D03*
D16*
X46010000Y-81100000D03*
D17*
X33520000Y-58100000D03*
D16*
X43680000Y-58100000D03*
G36*
G01*
X35650000Y-127020000D02*
X35650000Y-128220000D01*
G75*
G02*
X35400000Y-128470000I-250000J0D01*
G01*
X34200000Y-128470000D01*
G75*
G02*
X33950000Y-128220000I0J250000D01*
G01*
X33950000Y-127020000D01*
G75*
G02*
X34200000Y-126770000I250000J0D01*
G01*
X35400000Y-126770000D01*
G75*
G02*
X35650000Y-127020000I0J-250000D01*
G01*
G37*
D20*
X32260000Y-127620000D03*
X34800000Y-130160000D03*
X32260000Y-130160000D03*
X34800000Y-132700000D03*
X32260000Y-132700000D03*
X34800000Y-135240000D03*
X32260000Y-135240000D03*
X34800000Y-137780000D03*
X32260000Y-137780000D03*
D17*
X47280000Y-90500000D03*
D16*
X37120000Y-90500000D03*
D15*
X38390000Y-96700000D03*
D16*
X46010000Y-96700000D03*
D15*
X43800000Y-43020000D03*
D16*
X41260000Y-43020000D03*
X38720000Y-43020000D03*
X36180000Y-43020000D03*
X36180000Y-35400000D03*
X38720000Y-35400000D03*
X41260000Y-35400000D03*
X43800000Y-35400000D03*
D15*
X41420000Y-45900000D03*
D16*
X33800000Y-45900000D03*
D17*
X33800000Y-48900000D03*
D16*
X43960000Y-48900000D03*
D18*
X32800000Y-86630000D03*
D19*
X32800000Y-87900000D03*
X32800000Y-89170000D03*
D17*
X47000000Y-35500000D03*
X47000000Y-40500000D03*
X37120000Y-74900000D03*
D16*
X47280000Y-74900000D03*
D15*
X31800000Y-38544888D03*
D17*
X31800000Y-40544888D03*
D15*
X38190000Y-71900000D03*
D16*
X45810000Y-71900000D03*
D15*
X40800000Y-137900000D03*
D17*
X42800000Y-137900000D03*
X46800000Y-66400000D03*
X46800000Y-61400000D03*
D15*
X43400000Y-127700000D03*
D17*
X41400000Y-127700000D03*
D15*
X36000000Y-61300000D03*
D16*
X38540000Y-61300000D03*
X41080000Y-61300000D03*
X43620000Y-61300000D03*
X43620000Y-68920000D03*
X41080000Y-68920000D03*
X38540000Y-68920000D03*
X36000000Y-68920000D03*
%LPD*%
M02*
