G04 #@! TF.GenerationSoftware,KiCad,Pcbnew,7.0.7-7.0.7~ubuntu22.04.1*
G04 #@! TF.CreationDate,2024-01-01T18:28:25+01:00*
G04 #@! TF.ProjectId,Basic-ADSR,42617369-632d-4414-9453-522e6b696361,rev?*
G04 #@! TF.SameCoordinates,Original*
G04 #@! TF.FileFunction,Copper,L2,Bot*
G04 #@! TF.FilePolarity,Positive*
%FSLAX46Y46*%
G04 Gerber Fmt 4.6, Leading zero omitted, Abs format (unit mm)*
G04 Created by KiCad (PCBNEW 7.0.7-7.0.7~ubuntu22.04.1) date 2024-01-01 18:28:25*
%MOMM*%
%LPD*%
G01*
G04 APERTURE LIST*
G04 #@! TA.AperFunction,ComponentPad*
%ADD10R,1.700000X1.700000*%
G04 #@! TD*
G04 #@! TA.AperFunction,ComponentPad*
%ADD11O,1.700000X1.700000*%
G04 #@! TD*
G04 #@! TA.AperFunction,ComponentPad*
%ADD12R,1.600000X1.600000*%
G04 #@! TD*
G04 #@! TA.AperFunction,ComponentPad*
%ADD13O,1.600000X1.600000*%
G04 #@! TD*
G04 #@! TA.AperFunction,ComponentPad*
%ADD14C,1.600000*%
G04 #@! TD*
G04 #@! TA.AperFunction,ComponentPad*
%ADD15R,1.500000X1.050000*%
G04 #@! TD*
G04 #@! TA.AperFunction,ComponentPad*
%ADD16O,1.500000X1.050000*%
G04 #@! TD*
G04 #@! TA.AperFunction,ComponentPad*
%ADD17C,1.700000*%
G04 #@! TD*
G04 #@! TA.AperFunction,ViaPad*
%ADD18C,0.800000*%
G04 #@! TD*
G04 #@! TA.AperFunction,Conductor*
%ADD19C,0.300000*%
G04 #@! TD*
G04 #@! TA.AperFunction,Conductor*
%ADD20C,0.600000*%
G04 #@! TD*
G04 APERTURE END LIST*
D10*
X30400000Y-100500000D03*
D11*
X30400000Y-103040000D03*
X30400000Y-105580000D03*
X30400000Y-108120000D03*
X30400000Y-110660000D03*
X30400000Y-113200000D03*
X30400000Y-115740000D03*
X30400000Y-118280000D03*
D10*
X30400000Y-49100000D03*
D11*
X30400000Y-51640000D03*
X30400000Y-54180000D03*
X30400000Y-56720000D03*
X30400000Y-59260000D03*
X30400000Y-61800000D03*
X30400000Y-64340000D03*
X30400000Y-66880000D03*
D12*
X33790000Y-55100000D03*
D13*
X41410000Y-55100000D03*
D14*
X37120000Y-93700000D03*
D13*
X47280000Y-93700000D03*
D14*
X47280000Y-99700000D03*
D13*
X37120000Y-99700000D03*
D14*
X39700000Y-84100000D03*
X44700000Y-84100000D03*
D15*
X32800000Y-92230000D03*
D16*
X32800000Y-93500000D03*
X32800000Y-94770000D03*
D12*
X34400000Y-112600000D03*
D14*
X36400000Y-112600000D03*
X37120000Y-78100000D03*
D13*
X47280000Y-78100000D03*
D12*
X34400000Y-118400000D03*
D14*
X36400000Y-118400000D03*
X32800000Y-68600000D03*
X32800000Y-73600000D03*
X46800000Y-57580000D03*
D13*
X46800000Y-47420000D03*
D14*
X37120000Y-87300000D03*
D13*
X47280000Y-87300000D03*
D15*
X32800000Y-80900000D03*
D16*
X32800000Y-82170000D03*
X32800000Y-83440000D03*
D14*
X43960000Y-52100000D03*
D13*
X33800000Y-52100000D03*
D12*
X38390000Y-81100000D03*
D13*
X46010000Y-81100000D03*
D14*
X33520000Y-58100000D03*
D13*
X43680000Y-58100000D03*
G04 #@! TA.AperFunction,ComponentPad*
G36*
G01*
X35650000Y-127020000D02*
X35650000Y-128220000D01*
G75*
G02*
X35400000Y-128470000I-250000J0D01*
G01*
X34200000Y-128470000D01*
G75*
G02*
X33950000Y-128220000I0J250000D01*
G01*
X33950000Y-127020000D01*
G75*
G02*
X34200000Y-126770000I250000J0D01*
G01*
X35400000Y-126770000D01*
G75*
G02*
X35650000Y-127020000I0J-250000D01*
G01*
G37*
G04 #@! TD.AperFunction*
D17*
X32260000Y-127620000D03*
X34800000Y-130160000D03*
X32260000Y-130160000D03*
X34800000Y-132700000D03*
X32260000Y-132700000D03*
X34800000Y-135240000D03*
X32260000Y-135240000D03*
X34800000Y-137780000D03*
X32260000Y-137780000D03*
D14*
X47280000Y-90500000D03*
D13*
X37120000Y-90500000D03*
D12*
X38390000Y-96700000D03*
D13*
X46010000Y-96700000D03*
D12*
X43800000Y-43020000D03*
D13*
X41260000Y-43020000D03*
X38720000Y-43020000D03*
X36180000Y-43020000D03*
X36180000Y-35400000D03*
X38720000Y-35400000D03*
X41260000Y-35400000D03*
X43800000Y-35400000D03*
D12*
X41420000Y-45900000D03*
D13*
X33800000Y-45900000D03*
D14*
X33800000Y-48900000D03*
D13*
X43960000Y-48900000D03*
D15*
X32800000Y-86630000D03*
D16*
X32800000Y-87900000D03*
X32800000Y-89170000D03*
D14*
X47000000Y-35500000D03*
X47000000Y-40500000D03*
X37120000Y-74900000D03*
D13*
X47280000Y-74900000D03*
D12*
X31800000Y-38544888D03*
D14*
X31800000Y-40544888D03*
D12*
X38190000Y-71900000D03*
D13*
X45810000Y-71900000D03*
D12*
X40800000Y-137900000D03*
D14*
X42800000Y-137900000D03*
X46800000Y-66400000D03*
X46800000Y-61400000D03*
D12*
X43400000Y-127700000D03*
D14*
X41400000Y-127700000D03*
D12*
X36000000Y-61300000D03*
D13*
X38540000Y-61300000D03*
X41080000Y-61300000D03*
X43620000Y-61300000D03*
X43620000Y-68920000D03*
X41080000Y-68920000D03*
X38540000Y-68920000D03*
X36000000Y-68920000D03*
D18*
X29949500Y-71200000D03*
X36000000Y-45300000D03*
X43900000Y-64400000D03*
X46500000Y-68500000D03*
X40800000Y-40300000D03*
X30700000Y-70500000D03*
X43900000Y-55500000D03*
X33200000Y-97000000D03*
X31400000Y-69700000D03*
X40600000Y-57500000D03*
X43900000Y-66400000D03*
X34100000Y-43900000D03*
X34200000Y-97000000D03*
X43900000Y-65400000D03*
X46500000Y-69500000D03*
X39800000Y-40300000D03*
X40600000Y-58500000D03*
X36000000Y-46200000D03*
X40300000Y-39300000D03*
X43900000Y-54500000D03*
X37400000Y-63800000D03*
X45600000Y-63800000D03*
X39600000Y-70400000D03*
X35970000Y-103800000D03*
X36800000Y-84600000D03*
D19*
X47280000Y-93700000D02*
X47280000Y-98073654D01*
X47280000Y-87300000D02*
X46130000Y-88450000D01*
X43800000Y-35400000D02*
X46900000Y-35400000D01*
X48079999Y-74100001D02*
X48079999Y-60879999D01*
X48079999Y-60879999D02*
X45300000Y-58100000D01*
X36000000Y-68920000D02*
X33120000Y-68920000D01*
X39773654Y-105580000D02*
X30400000Y-105580000D01*
D20*
X45400000Y-119761522D02*
X31218478Y-105580000D01*
D19*
X46900000Y-35400000D02*
X47000000Y-35500000D01*
D20*
X40800000Y-137900000D02*
X44000000Y-134700000D01*
D19*
X46130000Y-88450000D02*
X46130000Y-92550000D01*
D20*
X31218478Y-105580000D02*
X30400000Y-105580000D01*
X45400000Y-133200000D02*
X45400000Y-119761522D01*
D19*
X46130000Y-92550000D02*
X47280000Y-93700000D01*
X45200000Y-37300000D02*
X47000000Y-35500000D01*
X36000000Y-72010000D02*
X36000000Y-68920000D01*
X45200000Y-56580000D02*
X45200000Y-37300000D01*
X47280000Y-98073654D02*
X39773654Y-105580000D01*
X47280000Y-74900000D02*
X38890000Y-74900000D01*
D20*
X44000000Y-134600000D02*
X45400000Y-133200000D01*
D19*
X47280000Y-74900000D02*
X48079999Y-74100001D01*
X47280000Y-79726346D02*
X46130000Y-78576346D01*
X45300000Y-58100000D02*
X43680000Y-58100000D01*
D20*
X44000000Y-134700000D02*
X44000000Y-134600000D01*
D19*
X47280000Y-87300000D02*
X47280000Y-79726346D01*
X38890000Y-74900000D02*
X36000000Y-72010000D01*
X46130000Y-76050000D02*
X47280000Y-74900000D01*
X46130000Y-78576346D02*
X46130000Y-76050000D01*
X33120000Y-68920000D02*
X32800000Y-68600000D01*
X43680000Y-58100000D02*
X45200000Y-56580000D01*
X43720000Y-61400000D02*
X43620000Y-61300000D01*
X32323654Y-67450000D02*
X29200000Y-70573654D01*
X29200000Y-124560000D02*
X32260000Y-127620000D01*
X29200000Y-70573654D02*
X29200000Y-124560000D01*
X37470000Y-67450000D02*
X32323654Y-67450000D01*
X43620000Y-61300000D02*
X37470000Y-67450000D01*
X46800000Y-61400000D02*
X43720000Y-61400000D01*
X44700000Y-82300000D02*
X43500000Y-81100000D01*
X44700000Y-84100000D02*
X44700000Y-82300000D01*
X43500000Y-81100000D02*
X38390000Y-81100000D01*
X37400000Y-63800000D02*
X37390000Y-63790000D01*
X37390000Y-46890000D02*
X41260000Y-43020000D01*
X37390000Y-63790000D02*
X37390000Y-46890000D01*
X43766346Y-70400000D02*
X45600000Y-68566346D01*
X45600000Y-68566346D02*
X45600000Y-63800000D01*
X39600000Y-70400000D02*
X43766346Y-70400000D01*
X42410000Y-39090000D02*
X42410000Y-44910000D01*
X35970000Y-85430000D02*
X36800000Y-84600000D01*
X42410000Y-44910000D02*
X41420000Y-45900000D01*
X41410000Y-45910000D02*
X41420000Y-45900000D01*
X38720000Y-35400000D02*
X42410000Y-39090000D01*
X35970000Y-103800000D02*
X35970000Y-85430000D01*
X41410000Y-55100000D02*
X41410000Y-45910000D01*
G04 #@! TA.AperFunction,Conductor*
G36*
X46080779Y-100306646D02*
G01*
X46136712Y-100348518D01*
X46139264Y-100352389D01*
X46139372Y-100352314D01*
X46142475Y-100356745D01*
X46142477Y-100356749D01*
X46273802Y-100544300D01*
X46435700Y-100706198D01*
X46623251Y-100837523D01*
X46748091Y-100895736D01*
X46830750Y-100934281D01*
X46830752Y-100934281D01*
X46830757Y-100934284D01*
X47051913Y-100993543D01*
X47214832Y-101007796D01*
X47279998Y-101013498D01*
X47280000Y-101013498D01*
X47280002Y-101013498D01*
X47337021Y-101008509D01*
X47508087Y-100993543D01*
X47729243Y-100934284D01*
X47923097Y-100843888D01*
X47992173Y-100833397D01*
X48055957Y-100861917D01*
X48094196Y-100920393D01*
X48099500Y-100956271D01*
X48099500Y-142875500D01*
X48079815Y-142942539D01*
X48027011Y-142988294D01*
X47975500Y-142999500D01*
X29224500Y-142999500D01*
X29157461Y-142979815D01*
X29111706Y-142927011D01*
X29100500Y-142875500D01*
X29100500Y-134286820D01*
X29100499Y-125691120D01*
X29120184Y-125624082D01*
X29172988Y-125578327D01*
X29242146Y-125568383D01*
X29305702Y-125597408D01*
X29312167Y-125603428D01*
X30036624Y-126327884D01*
X30903792Y-127195052D01*
X30937277Y-127256375D01*
X30936317Y-127313173D01*
X30915435Y-127395635D01*
X30896844Y-127619994D01*
X30896844Y-127620005D01*
X30915434Y-127844359D01*
X30915436Y-127844371D01*
X30970703Y-128062614D01*
X31061140Y-128268792D01*
X31184276Y-128457265D01*
X31184284Y-128457276D01*
X31336756Y-128622902D01*
X31336760Y-128622906D01*
X31514424Y-128761189D01*
X31557695Y-128784606D01*
X31607286Y-128833825D01*
X31622394Y-128902042D01*
X31598224Y-128967597D01*
X31569801Y-128995236D01*
X31498626Y-129045072D01*
X31498625Y-129045072D01*
X32000883Y-129547330D01*
X32034368Y-129608653D01*
X32029384Y-129678345D01*
X31992357Y-129727805D01*
X31993602Y-129729241D01*
X31878238Y-129829202D01*
X31843046Y-129883962D01*
X31790242Y-129929717D01*
X31721083Y-129939660D01*
X31657528Y-129910634D01*
X31651050Y-129904603D01*
X31145072Y-129398625D01*
X31086401Y-129482419D01*
X30986570Y-129696507D01*
X30986566Y-129696516D01*
X30925432Y-129924673D01*
X30925430Y-129924684D01*
X30904843Y-130159998D01*
X30904843Y-130160001D01*
X30925430Y-130395315D01*
X30925432Y-130395326D01*
X30986566Y-130623483D01*
X30986570Y-130623492D01*
X31086400Y-130837579D01*
X31086402Y-130837583D01*
X31145072Y-130921373D01*
X31145073Y-130921373D01*
X31651050Y-130415395D01*
X31712373Y-130381910D01*
X31782064Y-130386894D01*
X31837998Y-130428765D01*
X31843039Y-130436025D01*
X31843048Y-130436039D01*
X31878239Y-130490798D01*
X31993602Y-130590759D01*
X31991293Y-130593422D01*
X32026006Y-130633499D01*
X32035935Y-130702660D01*
X32006898Y-130766210D01*
X32000882Y-130772669D01*
X31498625Y-131274925D01*
X31575031Y-131328425D01*
X31618655Y-131383002D01*
X31625848Y-131452501D01*
X31594326Y-131514855D01*
X31575029Y-131531576D01*
X31498625Y-131585072D01*
X32000883Y-132087330D01*
X32034368Y-132148653D01*
X32029384Y-132218345D01*
X31992357Y-132267805D01*
X31993602Y-132269241D01*
X31878238Y-132369202D01*
X31843046Y-132423962D01*
X31790242Y-132469717D01*
X31721083Y-132479660D01*
X31657528Y-132450634D01*
X31651050Y-132444603D01*
X31145072Y-131938625D01*
X31086401Y-132022419D01*
X30986570Y-132236507D01*
X30986566Y-132236516D01*
X30925432Y-132464673D01*
X30925430Y-132464684D01*
X30904843Y-132699998D01*
X30904843Y-132700001D01*
X30925430Y-132935315D01*
X30925432Y-132935326D01*
X30986566Y-133163483D01*
X30986570Y-133163492D01*
X31086400Y-133377579D01*
X31086402Y-133377583D01*
X31145072Y-133461373D01*
X31145073Y-133461373D01*
X31651050Y-132955395D01*
X31712373Y-132921910D01*
X31782064Y-132926894D01*
X31837998Y-132968765D01*
X31843039Y-132976025D01*
X31843048Y-132976039D01*
X31878239Y-133030798D01*
X31993602Y-133130759D01*
X31991293Y-133133422D01*
X32026006Y-133173499D01*
X32035935Y-133242660D01*
X32006898Y-133306210D01*
X32000882Y-133312669D01*
X31498625Y-133814925D01*
X31575031Y-133868425D01*
X31618655Y-133923002D01*
X31625848Y-133992501D01*
X31594326Y-134054855D01*
X31575029Y-134071576D01*
X31498625Y-134125072D01*
X32000883Y-134627330D01*
X32034368Y-134688653D01*
X32029384Y-134758345D01*
X31992357Y-134807805D01*
X31993602Y-134809241D01*
X31878238Y-134909202D01*
X31843046Y-134963962D01*
X31790242Y-135009717D01*
X31721083Y-135019660D01*
X31657528Y-134990634D01*
X31651050Y-134984603D01*
X31145072Y-134478625D01*
X31086401Y-134562419D01*
X30986570Y-134776507D01*
X30986566Y-134776516D01*
X30925432Y-135004673D01*
X30925430Y-135004684D01*
X30904843Y-135239998D01*
X30904843Y-135240001D01*
X30925430Y-135475315D01*
X30925432Y-135475326D01*
X30986566Y-135703483D01*
X30986570Y-135703492D01*
X31086400Y-135917579D01*
X31086402Y-135917583D01*
X31145072Y-136001373D01*
X31145073Y-136001373D01*
X31651050Y-135495395D01*
X31712373Y-135461910D01*
X31782064Y-135466894D01*
X31837998Y-135508765D01*
X31843039Y-135516025D01*
X31843048Y-135516039D01*
X31878239Y-135570798D01*
X31993602Y-135670759D01*
X31991293Y-135673422D01*
X32026006Y-135713499D01*
X32035935Y-135782660D01*
X32006898Y-135846210D01*
X32000882Y-135852669D01*
X31498625Y-136354925D01*
X31569801Y-136404763D01*
X31613426Y-136459340D01*
X31620620Y-136528838D01*
X31589097Y-136591193D01*
X31557697Y-136615392D01*
X31514427Y-136638809D01*
X31514422Y-136638812D01*
X31336761Y-136777092D01*
X31336756Y-136777097D01*
X31184284Y-136942723D01*
X31184276Y-136942734D01*
X31061140Y-137131207D01*
X30970703Y-137337385D01*
X30915436Y-137555628D01*
X30915434Y-137555640D01*
X30896844Y-137779994D01*
X30896844Y-137780005D01*
X30915434Y-138004359D01*
X30915436Y-138004371D01*
X30970703Y-138222614D01*
X31061140Y-138428792D01*
X31184276Y-138617265D01*
X31184284Y-138617276D01*
X31336756Y-138782902D01*
X31336760Y-138782906D01*
X31514424Y-138921189D01*
X31514425Y-138921189D01*
X31514427Y-138921191D01*
X31621296Y-138979025D01*
X31712426Y-139028342D01*
X31925365Y-139101444D01*
X32147431Y-139138500D01*
X32372569Y-139138500D01*
X32594635Y-139101444D01*
X32807574Y-139028342D01*
X33005576Y-138921189D01*
X33183240Y-138782906D01*
X33335722Y-138617268D01*
X33426193Y-138478791D01*
X33479336Y-138433437D01*
X33548567Y-138424013D01*
X33611903Y-138453515D01*
X33633807Y-138478793D01*
X33724276Y-138617265D01*
X33724284Y-138617276D01*
X33876756Y-138782902D01*
X33876760Y-138782906D01*
X34054424Y-138921189D01*
X34054425Y-138921189D01*
X34054427Y-138921191D01*
X34161296Y-138979025D01*
X34252426Y-139028342D01*
X34465365Y-139101444D01*
X34687431Y-139138500D01*
X34912569Y-139138500D01*
X35134635Y-139101444D01*
X35347574Y-139028342D01*
X35545576Y-138921189D01*
X35723240Y-138782906D01*
X35875722Y-138617268D01*
X35998860Y-138428791D01*
X36089296Y-138222616D01*
X36144564Y-138004368D01*
X36153212Y-137900002D01*
X36163156Y-137780005D01*
X36163156Y-137779994D01*
X36144565Y-137555640D01*
X36144563Y-137555628D01*
X36099788Y-137378817D01*
X36089296Y-137337384D01*
X35998860Y-137131209D01*
X35966191Y-137081206D01*
X35875723Y-136942734D01*
X35875715Y-136942723D01*
X35723243Y-136777097D01*
X35723238Y-136777092D01*
X35545577Y-136638812D01*
X35545577Y-136638811D01*
X35502303Y-136615393D01*
X35452713Y-136566173D01*
X35437605Y-136497957D01*
X35461775Y-136432401D01*
X35490198Y-136404763D01*
X35561373Y-136354925D01*
X35059116Y-135852669D01*
X35025631Y-135791346D01*
X35030615Y-135721655D01*
X35067640Y-135672193D01*
X35066398Y-135670759D01*
X35073100Y-135664952D01*
X35181761Y-135570798D01*
X35216954Y-135516037D01*
X35269755Y-135470283D01*
X35338914Y-135460339D01*
X35402470Y-135489363D01*
X35408949Y-135495396D01*
X35914925Y-136001373D01*
X35914926Y-136001373D01*
X35973598Y-135917582D01*
X35973600Y-135917578D01*
X36073429Y-135703492D01*
X36073433Y-135703483D01*
X36134567Y-135475326D01*
X36134569Y-135475315D01*
X36155157Y-135240001D01*
X36155157Y-135239998D01*
X36134569Y-135004684D01*
X36134567Y-135004673D01*
X36073433Y-134776516D01*
X36073429Y-134776507D01*
X35973600Y-134562423D01*
X35973599Y-134562421D01*
X35914925Y-134478626D01*
X35914925Y-134478625D01*
X35408949Y-134984602D01*
X35347626Y-135018087D01*
X35277934Y-135013103D01*
X35222001Y-134971231D01*
X35216953Y-134963961D01*
X35181761Y-134909202D01*
X35066398Y-134809241D01*
X35068708Y-134806574D01*
X35034005Y-134766528D01*
X35024058Y-134697370D01*
X35053080Y-134633813D01*
X35059116Y-134627330D01*
X35561373Y-134125073D01*
X35484969Y-134071576D01*
X35441344Y-134016999D01*
X35434150Y-133947501D01*
X35465672Y-133885146D01*
X35484968Y-133868425D01*
X35561373Y-133814925D01*
X35059116Y-133312669D01*
X35025631Y-133251346D01*
X35030615Y-133181655D01*
X35067640Y-133132193D01*
X35066398Y-133130759D01*
X35073100Y-133124952D01*
X35181761Y-133030798D01*
X35216954Y-132976037D01*
X35269755Y-132930283D01*
X35338914Y-132920339D01*
X35402470Y-132949363D01*
X35408949Y-132955396D01*
X35914925Y-133461373D01*
X35914926Y-133461373D01*
X35973598Y-133377582D01*
X35973600Y-133377578D01*
X36073429Y-133163492D01*
X36073433Y-133163483D01*
X36134567Y-132935326D01*
X36134569Y-132935315D01*
X36155157Y-132700001D01*
X36155157Y-132699998D01*
X36134569Y-132464684D01*
X36134567Y-132464673D01*
X36073433Y-132236516D01*
X36073429Y-132236507D01*
X35973600Y-132022423D01*
X35973599Y-132022421D01*
X35914925Y-131938626D01*
X35914925Y-131938625D01*
X35408949Y-132444602D01*
X35347626Y-132478087D01*
X35277934Y-132473103D01*
X35222001Y-132431231D01*
X35216953Y-132423961D01*
X35181761Y-132369202D01*
X35066398Y-132269241D01*
X35068708Y-132266574D01*
X35034005Y-132226528D01*
X35024058Y-132157370D01*
X35053080Y-132093813D01*
X35059116Y-132087330D01*
X35561373Y-131585073D01*
X35484969Y-131531576D01*
X35441344Y-131476999D01*
X35434150Y-131407501D01*
X35465672Y-131345146D01*
X35484968Y-131328425D01*
X35561373Y-131274925D01*
X35059116Y-130772669D01*
X35025631Y-130711346D01*
X35030615Y-130641655D01*
X35067640Y-130592193D01*
X35066398Y-130590759D01*
X35073100Y-130584952D01*
X35181761Y-130490798D01*
X35216954Y-130436037D01*
X35269755Y-130390283D01*
X35338914Y-130380339D01*
X35402470Y-130409363D01*
X35408949Y-130415396D01*
X35914925Y-130921373D01*
X35914926Y-130921373D01*
X35973598Y-130837582D01*
X35973600Y-130837578D01*
X36073429Y-130623492D01*
X36073433Y-130623483D01*
X36134567Y-130395326D01*
X36134569Y-130395315D01*
X36155157Y-130160001D01*
X36155157Y-130159998D01*
X36134569Y-129924684D01*
X36134567Y-129924673D01*
X36073433Y-129696516D01*
X36073429Y-129696507D01*
X35973600Y-129482423D01*
X35973599Y-129482421D01*
X35914925Y-129398626D01*
X35914925Y-129398625D01*
X35408949Y-129904602D01*
X35347626Y-129938087D01*
X35277934Y-129933103D01*
X35222001Y-129891231D01*
X35216953Y-129883961D01*
X35181761Y-129829202D01*
X35066398Y-129729241D01*
X35068708Y-129726574D01*
X35034005Y-129686528D01*
X35024058Y-129617370D01*
X35053080Y-129553813D01*
X35059116Y-129547330D01*
X35568746Y-129037700D01*
X35576926Y-128996998D01*
X35625541Y-128946815D01*
X35647679Y-128936986D01*
X35722738Y-128912115D01*
X35873652Y-128819030D01*
X35999030Y-128693652D01*
X36092115Y-128542738D01*
X36147887Y-128374426D01*
X36158500Y-128270545D01*
X36158499Y-126969456D01*
X36147887Y-126865574D01*
X36092115Y-126697262D01*
X35999030Y-126546348D01*
X35873652Y-126420970D01*
X35779898Y-126363142D01*
X35722740Y-126327886D01*
X35722735Y-126327884D01*
X35554427Y-126272113D01*
X35450545Y-126261500D01*
X34149462Y-126261500D01*
X34149446Y-126261501D01*
X34045572Y-126272113D01*
X33877264Y-126327884D01*
X33877259Y-126327886D01*
X33726346Y-126420971D01*
X33600971Y-126546346D01*
X33507886Y-126697259D01*
X33507882Y-126697268D01*
X33507749Y-126697672D01*
X33507582Y-126697912D01*
X33504835Y-126703805D01*
X33503827Y-126703335D01*
X33467972Y-126755114D01*
X33403454Y-126781932D01*
X33334680Y-126769612D01*
X33298817Y-126742643D01*
X33183240Y-126617094D01*
X33183237Y-126617092D01*
X33183238Y-126617092D01*
X33005577Y-126478812D01*
X33005572Y-126478808D01*
X32807580Y-126371661D01*
X32807577Y-126371659D01*
X32807574Y-126371658D01*
X32807571Y-126371657D01*
X32807569Y-126371656D01*
X32594637Y-126298556D01*
X32372569Y-126261500D01*
X32147431Y-126261500D01*
X31940716Y-126295994D01*
X31871351Y-126287612D01*
X31832626Y-126261366D01*
X29894819Y-124323558D01*
X29861334Y-124262235D01*
X29858500Y-124235877D01*
X29858500Y-119704100D01*
X29878185Y-119637061D01*
X29930989Y-119591306D01*
X30000147Y-119581362D01*
X30022764Y-119586819D01*
X30065364Y-119601444D01*
X30287431Y-119638500D01*
X30512569Y-119638500D01*
X30734635Y-119601444D01*
X30947574Y-119528342D01*
X31145576Y-119421189D01*
X31323240Y-119282906D01*
X31354771Y-119248654D01*
X33091500Y-119248654D01*
X33098011Y-119309202D01*
X33098011Y-119309204D01*
X33149111Y-119446203D01*
X33149111Y-119446204D01*
X33236739Y-119563261D01*
X33353796Y-119650889D01*
X33490799Y-119701989D01*
X33518050Y-119704918D01*
X33551345Y-119708499D01*
X33551362Y-119708500D01*
X35248638Y-119708500D01*
X35248654Y-119708499D01*
X35275692Y-119705591D01*
X35309201Y-119701989D01*
X35446204Y-119650889D01*
X35563261Y-119563261D01*
X35570907Y-119553046D01*
X35626840Y-119511174D01*
X35696531Y-119506188D01*
X35741302Y-119525782D01*
X35747514Y-119530132D01*
X35747516Y-119530133D01*
X35953673Y-119626265D01*
X35953682Y-119626269D01*
X36173389Y-119685139D01*
X36173400Y-119685141D01*
X36399998Y-119704966D01*
X36400002Y-119704966D01*
X36626599Y-119685141D01*
X36626610Y-119685139D01*
X36846317Y-119626269D01*
X36846331Y-119626264D01*
X37052478Y-119530136D01*
X37125472Y-119479025D01*
X36583866Y-118937419D01*
X36550381Y-118876096D01*
X36555365Y-118806404D01*
X36597237Y-118750471D01*
X36615245Y-118739258D01*
X36638045Y-118727641D01*
X36727641Y-118638045D01*
X36739254Y-118615252D01*
X36787225Y-118564458D01*
X36855046Y-118547661D01*
X36921181Y-118570197D01*
X36937419Y-118583866D01*
X37479025Y-119125472D01*
X37530136Y-119052478D01*
X37626264Y-118846331D01*
X37626269Y-118846317D01*
X37685139Y-118626610D01*
X37685141Y-118626599D01*
X37704966Y-118400002D01*
X37704966Y-118399997D01*
X37685141Y-118173400D01*
X37685139Y-118173389D01*
X37626269Y-117953682D01*
X37626265Y-117953673D01*
X37530133Y-117747516D01*
X37530131Y-117747512D01*
X37479026Y-117674526D01*
X37479025Y-117674526D01*
X36937419Y-118216132D01*
X36876096Y-118249617D01*
X36806404Y-118244633D01*
X36750471Y-118202761D01*
X36739256Y-118184751D01*
X36727641Y-118161955D01*
X36727637Y-118161951D01*
X36727636Y-118161949D01*
X36638050Y-118072363D01*
X36638044Y-118072358D01*
X36628109Y-118067296D01*
X36615250Y-118060744D01*
X36564456Y-118012773D01*
X36547660Y-117944952D01*
X36570197Y-117878817D01*
X36583865Y-117862580D01*
X37125472Y-117320973D01*
X37052483Y-117269866D01*
X37052481Y-117269865D01*
X36846326Y-117173734D01*
X36846317Y-117173730D01*
X36626610Y-117114860D01*
X36626599Y-117114858D01*
X36400002Y-117095034D01*
X36399998Y-117095034D01*
X36173400Y-117114858D01*
X36173389Y-117114860D01*
X35953682Y-117173730D01*
X35953673Y-117173734D01*
X35747518Y-117269865D01*
X35747515Y-117269867D01*
X35741291Y-117274225D01*
X35675083Y-117296547D01*
X35607317Y-117279531D01*
X35570909Y-117246955D01*
X35563263Y-117236742D01*
X35563261Y-117236739D01*
X35446204Y-117149111D01*
X35418584Y-117138809D01*
X35309203Y-117098011D01*
X35248654Y-117091500D01*
X35248638Y-117091500D01*
X33551362Y-117091500D01*
X33551345Y-117091500D01*
X33490797Y-117098011D01*
X33490795Y-117098011D01*
X33353795Y-117149111D01*
X33236739Y-117236739D01*
X33149111Y-117353795D01*
X33098011Y-117490795D01*
X33098011Y-117490797D01*
X33091500Y-117551345D01*
X33091500Y-119248654D01*
X31354771Y-119248654D01*
X31475722Y-119117268D01*
X31598860Y-118928791D01*
X31689296Y-118722616D01*
X31744564Y-118504368D01*
X31753212Y-118400002D01*
X31763156Y-118280005D01*
X31763156Y-118279994D01*
X31744565Y-118055640D01*
X31744563Y-118055628D01*
X31699788Y-117878817D01*
X31689296Y-117837384D01*
X31598860Y-117631209D01*
X31475722Y-117442732D01*
X31475719Y-117442729D01*
X31475715Y-117442723D01*
X31323243Y-117277097D01*
X31323238Y-117277092D01*
X31204797Y-117184905D01*
X31145576Y-117138811D01*
X31109070Y-117119055D01*
X31059479Y-117069836D01*
X31044371Y-117001619D01*
X31068541Y-116936064D01*
X31109070Y-116900945D01*
X31109084Y-116900936D01*
X31145576Y-116881189D01*
X31323240Y-116742906D01*
X31475722Y-116577268D01*
X31598860Y-116388791D01*
X31689296Y-116182616D01*
X31744564Y-115964368D01*
X31763156Y-115740000D01*
X31744564Y-115515632D01*
X31689296Y-115297384D01*
X31598860Y-115091209D01*
X31475722Y-114902732D01*
X31475719Y-114902729D01*
X31475715Y-114902723D01*
X31323243Y-114737097D01*
X31323238Y-114737092D01*
X31145577Y-114598812D01*
X31145578Y-114598812D01*
X31145576Y-114598811D01*
X31109070Y-114579055D01*
X31059479Y-114529836D01*
X31044371Y-114461619D01*
X31068541Y-114396064D01*
X31109070Y-114360945D01*
X31109084Y-114360936D01*
X31145576Y-114341189D01*
X31323240Y-114202906D01*
X31475722Y-114037268D01*
X31598860Y-113848791D01*
X31689296Y-113642616D01*
X31744564Y-113424368D01*
X31763156Y-113200000D01*
X31757970Y-113137419D01*
X31744565Y-112975640D01*
X31744563Y-112975628D01*
X31696002Y-112783866D01*
X31689296Y-112757384D01*
X31598860Y-112551209D01*
X31475722Y-112362732D01*
X31475719Y-112362729D01*
X31475715Y-112362723D01*
X31323243Y-112197097D01*
X31323238Y-112197092D01*
X31145577Y-112058812D01*
X31145572Y-112058808D01*
X31109068Y-112039053D01*
X31059478Y-111989833D01*
X31044371Y-111921616D01*
X31068542Y-111856061D01*
X31109069Y-111820945D01*
X31145576Y-111801189D01*
X31323240Y-111662906D01*
X31475722Y-111497268D01*
X31598860Y-111308791D01*
X31689296Y-111102616D01*
X31744564Y-110884368D01*
X31763156Y-110660000D01*
X31744564Y-110435632D01*
X31689296Y-110217384D01*
X31598860Y-110011209D01*
X31475722Y-109822732D01*
X31475719Y-109822729D01*
X31475715Y-109822723D01*
X31323243Y-109657097D01*
X31323238Y-109657092D01*
X31204797Y-109564905D01*
X31145576Y-109518811D01*
X31145575Y-109518810D01*
X31145572Y-109518808D01*
X31109068Y-109499053D01*
X31059478Y-109449833D01*
X31044371Y-109381616D01*
X31068542Y-109316061D01*
X31109069Y-109280945D01*
X31145576Y-109261189D01*
X31323240Y-109122906D01*
X31475722Y-108957268D01*
X31598860Y-108768791D01*
X31689296Y-108562616D01*
X31744564Y-108344368D01*
X31759070Y-108169314D01*
X31763156Y-108120005D01*
X31763156Y-108119994D01*
X31744565Y-107895640D01*
X31744563Y-107895628D01*
X31741876Y-107885018D01*
X31689296Y-107677384D01*
X31598860Y-107471209D01*
X31560334Y-107412240D01*
X31540146Y-107345350D01*
X31559325Y-107278165D01*
X31611784Y-107232014D01*
X31680866Y-107221551D01*
X31744638Y-107250097D01*
X31751823Y-107256737D01*
X35771097Y-111276011D01*
X35804582Y-111337334D01*
X35799598Y-111407026D01*
X35757726Y-111462959D01*
X35751785Y-111466877D01*
X35741291Y-111474225D01*
X35675083Y-111496547D01*
X35607317Y-111479531D01*
X35570909Y-111446955D01*
X35563263Y-111436742D01*
X35563261Y-111436739D01*
X35446204Y-111349111D01*
X35414629Y-111337334D01*
X35309203Y-111298011D01*
X35248654Y-111291500D01*
X35248638Y-111291500D01*
X33551362Y-111291500D01*
X33551345Y-111291500D01*
X33490797Y-111298011D01*
X33490795Y-111298011D01*
X33353795Y-111349111D01*
X33236739Y-111436739D01*
X33149111Y-111553795D01*
X33098011Y-111690795D01*
X33098011Y-111690797D01*
X33091500Y-111751345D01*
X33091500Y-113448654D01*
X33098011Y-113509202D01*
X33098011Y-113509204D01*
X33147772Y-113642614D01*
X33149111Y-113646204D01*
X33236739Y-113763261D01*
X33353796Y-113850889D01*
X33490799Y-113901989D01*
X33518050Y-113904918D01*
X33551345Y-113908499D01*
X33551362Y-113908500D01*
X35248638Y-113908500D01*
X35248654Y-113908499D01*
X35275692Y-113905591D01*
X35309201Y-113901989D01*
X35446204Y-113850889D01*
X35563261Y-113763261D01*
X35570907Y-113753046D01*
X35626840Y-113711174D01*
X35696531Y-113706188D01*
X35741302Y-113725782D01*
X35747514Y-113730132D01*
X35747516Y-113730133D01*
X35953673Y-113826265D01*
X35953682Y-113826269D01*
X36173389Y-113885139D01*
X36173400Y-113885141D01*
X36399998Y-113904966D01*
X36400002Y-113904966D01*
X36626599Y-113885141D01*
X36626610Y-113885139D01*
X36846317Y-113826269D01*
X36846331Y-113826264D01*
X37052478Y-113730136D01*
X37125472Y-113679025D01*
X36583866Y-113137419D01*
X36550381Y-113076096D01*
X36555365Y-113006404D01*
X36597237Y-112950471D01*
X36615245Y-112939258D01*
X36638045Y-112927641D01*
X36727641Y-112838045D01*
X36739254Y-112815252D01*
X36787225Y-112764458D01*
X36855046Y-112747661D01*
X36921181Y-112770197D01*
X36937419Y-112783866D01*
X37479025Y-113325472D01*
X37533239Y-113248048D01*
X37534703Y-113249073D01*
X37579482Y-113206371D01*
X37648088Y-113193145D01*
X37712955Y-113219109D01*
X37723989Y-113228903D01*
X44555182Y-120060096D01*
X44588666Y-120121417D01*
X44591500Y-120147775D01*
X44591500Y-126333780D01*
X44571815Y-126400819D01*
X44519011Y-126446574D01*
X44449853Y-126456518D01*
X44424167Y-126449962D01*
X44307379Y-126406403D01*
X44307372Y-126406401D01*
X44247844Y-126400000D01*
X43650000Y-126400000D01*
X43650000Y-127189424D01*
X43630315Y-127256463D01*
X43577511Y-127302218D01*
X43508353Y-127312162D01*
X43506602Y-127311897D01*
X43431486Y-127300000D01*
X43431481Y-127300000D01*
X43368519Y-127300000D01*
X43368514Y-127300000D01*
X43293398Y-127311897D01*
X43224104Y-127302942D01*
X43170652Y-127257946D01*
X43150013Y-127191194D01*
X43150000Y-127189424D01*
X43150000Y-126400000D01*
X42552155Y-126400000D01*
X42492627Y-126406401D01*
X42492620Y-126406403D01*
X42357913Y-126456645D01*
X42357906Y-126456649D01*
X42242812Y-126542809D01*
X42242811Y-126542810D01*
X42241149Y-126545031D01*
X42238930Y-126546691D01*
X42236541Y-126549081D01*
X42236197Y-126548737D01*
X42185213Y-126586899D01*
X42115521Y-126591880D01*
X42070763Y-126572290D01*
X42056749Y-126562477D01*
X42056743Y-126562474D01*
X41849249Y-126465718D01*
X41849238Y-126465714D01*
X41628089Y-126406457D01*
X41628081Y-126406456D01*
X41400002Y-126386502D01*
X41399998Y-126386502D01*
X41171918Y-126406456D01*
X41171910Y-126406457D01*
X40950761Y-126465714D01*
X40950750Y-126465718D01*
X40743254Y-126562475D01*
X40743252Y-126562476D01*
X40708373Y-126586899D01*
X40555700Y-126693802D01*
X40555698Y-126693803D01*
X40555695Y-126693806D01*
X40393806Y-126855695D01*
X40393803Y-126855698D01*
X40393802Y-126855700D01*
X40329178Y-126947993D01*
X40262476Y-127043252D01*
X40262475Y-127043254D01*
X40165718Y-127250750D01*
X40165714Y-127250761D01*
X40106457Y-127471910D01*
X40106456Y-127471918D01*
X40086502Y-127699998D01*
X40086502Y-127700001D01*
X40106456Y-127928081D01*
X40106457Y-127928089D01*
X40165714Y-128149238D01*
X40165718Y-128149249D01*
X40262475Y-128356745D01*
X40262477Y-128356749D01*
X40393802Y-128544300D01*
X40555700Y-128706198D01*
X40743251Y-128837523D01*
X40868091Y-128895736D01*
X40950750Y-128934281D01*
X40950752Y-128934281D01*
X40950757Y-128934284D01*
X41171913Y-128993543D01*
X41334832Y-129007796D01*
X41399998Y-129013498D01*
X41400000Y-129013498D01*
X41400002Y-129013498D01*
X41457021Y-129008509D01*
X41628087Y-128993543D01*
X41849243Y-128934284D01*
X42056749Y-128837523D01*
X42070761Y-128827711D01*
X42136966Y-128805383D01*
X42204734Y-128822392D01*
X42241154Y-128854975D01*
X42242810Y-128857188D01*
X42242814Y-128857191D01*
X42357906Y-128943350D01*
X42357913Y-128943354D01*
X42492620Y-128993596D01*
X42492627Y-128993598D01*
X42552155Y-128999999D01*
X42552172Y-129000000D01*
X43150000Y-129000000D01*
X43150000Y-128210575D01*
X43169685Y-128143536D01*
X43222489Y-128097781D01*
X43291647Y-128087837D01*
X43293331Y-128088091D01*
X43325699Y-128093218D01*
X43368515Y-128100000D01*
X43368519Y-128100000D01*
X43431485Y-128100000D01*
X43474300Y-128093218D01*
X43506602Y-128088102D01*
X43575894Y-128097056D01*
X43629347Y-128142052D01*
X43649987Y-128208803D01*
X43650000Y-128210575D01*
X43650000Y-129000000D01*
X44247828Y-129000000D01*
X44247844Y-128999999D01*
X44307372Y-128993598D01*
X44307376Y-128993597D01*
X44424166Y-128950037D01*
X44493858Y-128945053D01*
X44555181Y-128978538D01*
X44588666Y-129039861D01*
X44591500Y-129066219D01*
X44591500Y-132813745D01*
X44571815Y-132880784D01*
X44555181Y-132901426D01*
X43475277Y-133981330D01*
X43363888Y-134092720D01*
X43341436Y-134128451D01*
X43337411Y-134134123D01*
X43311092Y-134167128D01*
X43292775Y-134205159D01*
X43289412Y-134211245D01*
X43266959Y-134246981D01*
X43266952Y-134246993D01*
X43253017Y-134286820D01*
X43250358Y-134293242D01*
X43247423Y-134299338D01*
X43223378Y-134333229D01*
X41001427Y-136555181D01*
X40940104Y-136588666D01*
X40913746Y-136591500D01*
X39951345Y-136591500D01*
X39890797Y-136598011D01*
X39890795Y-136598011D01*
X39753795Y-136649111D01*
X39636739Y-136736739D01*
X39549111Y-136853795D01*
X39498011Y-136990795D01*
X39498011Y-136990797D01*
X39491500Y-137051345D01*
X39491500Y-138748654D01*
X39498011Y-138809202D01*
X39498011Y-138809204D01*
X39549111Y-138946203D01*
X39549111Y-138946204D01*
X39636739Y-139063261D01*
X39753796Y-139150889D01*
X39890799Y-139201989D01*
X39918050Y-139204918D01*
X39951345Y-139208499D01*
X39951362Y-139208500D01*
X41648638Y-139208500D01*
X41648654Y-139208499D01*
X41675692Y-139205591D01*
X41709201Y-139201989D01*
X41846204Y-139150889D01*
X41963261Y-139063261D01*
X41970907Y-139053046D01*
X42026840Y-139011174D01*
X42096531Y-139006188D01*
X42141302Y-139025782D01*
X42147514Y-139030132D01*
X42147516Y-139030133D01*
X42353673Y-139126265D01*
X42353682Y-139126269D01*
X42573389Y-139185139D01*
X42573400Y-139185141D01*
X42799998Y-139204966D01*
X42800002Y-139204966D01*
X43026599Y-139185141D01*
X43026610Y-139185139D01*
X43246317Y-139126269D01*
X43246331Y-139126264D01*
X43452478Y-139030136D01*
X43525472Y-138979025D01*
X42983866Y-138437419D01*
X42950381Y-138376096D01*
X42955365Y-138306404D01*
X42997237Y-138250471D01*
X43015245Y-138239258D01*
X43038045Y-138227641D01*
X43127641Y-138138045D01*
X43139254Y-138115252D01*
X43187225Y-138064458D01*
X43255046Y-138047661D01*
X43321181Y-138070197D01*
X43337419Y-138083866D01*
X43879025Y-138625472D01*
X43930136Y-138552478D01*
X44026264Y-138346331D01*
X44026269Y-138346317D01*
X44085139Y-138126610D01*
X44085141Y-138126599D01*
X44104966Y-137900002D01*
X44104966Y-137899997D01*
X44085141Y-137673400D01*
X44085139Y-137673389D01*
X44026269Y-137453682D01*
X44026265Y-137453673D01*
X43930133Y-137247516D01*
X43930131Y-137247512D01*
X43879026Y-137174526D01*
X43879025Y-137174526D01*
X43337419Y-137716132D01*
X43276096Y-137749617D01*
X43206404Y-137744633D01*
X43150471Y-137702761D01*
X43139256Y-137684751D01*
X43127641Y-137661955D01*
X43127637Y-137661951D01*
X43127636Y-137661949D01*
X43038050Y-137572363D01*
X43038044Y-137572358D01*
X43028109Y-137567296D01*
X43015250Y-137560744D01*
X42964456Y-137512773D01*
X42947660Y-137444952D01*
X42970197Y-137378817D01*
X42983865Y-137362580D01*
X43525472Y-136820973D01*
X43452483Y-136769866D01*
X43452481Y-136769865D01*
X43354536Y-136724192D01*
X43302097Y-136678019D01*
X43282945Y-136610825D01*
X43303161Y-136543944D01*
X43319253Y-136524136D01*
X44507278Y-135336112D01*
X44507281Y-135336111D01*
X44636111Y-135207281D01*
X44658574Y-135171529D01*
X44662589Y-135165870D01*
X44688908Y-135132870D01*
X44707226Y-135094828D01*
X44710575Y-135088770D01*
X44733043Y-135053015D01*
X44746989Y-135013157D01*
X44749635Y-135006768D01*
X44752591Y-135000628D01*
X44776617Y-134966773D01*
X46003803Y-133739589D01*
X46040203Y-133703189D01*
X46042653Y-133696869D01*
X46058570Y-133671535D01*
X46062588Y-133665873D01*
X46088909Y-133632870D01*
X46107226Y-133594830D01*
X46110587Y-133588752D01*
X46133042Y-133553016D01*
X46133043Y-133553015D01*
X46146983Y-133513173D01*
X46149639Y-133506758D01*
X46167959Y-133468720D01*
X46177357Y-133427542D01*
X46179269Y-133420906D01*
X46193217Y-133381047D01*
X46197942Y-133339106D01*
X46199108Y-133332244D01*
X46200970Y-133324081D01*
X46208500Y-133291097D01*
X46208500Y-133108903D01*
X46208500Y-119716116D01*
X46208500Y-119716115D01*
X46208500Y-119670426D01*
X46199108Y-119629279D01*
X46197942Y-119622417D01*
X46194437Y-119591306D01*
X46193217Y-119580475D01*
X46179271Y-119540619D01*
X46177354Y-119533965D01*
X46167959Y-119492802D01*
X46149642Y-119454766D01*
X46146983Y-119448346D01*
X46133043Y-119408507D01*
X46110574Y-119372749D01*
X46107220Y-119366678D01*
X46088910Y-119328656D01*
X46088909Y-119328653D01*
X46062590Y-119295650D01*
X46058564Y-119289975D01*
X46036112Y-119254243D01*
X46036110Y-119254240D01*
X34549633Y-107767763D01*
X42745787Y-107767763D01*
X42775413Y-108037013D01*
X42775415Y-108037024D01*
X42843926Y-108299082D01*
X42843928Y-108299088D01*
X42949870Y-108548390D01*
X43021998Y-108666575D01*
X43090979Y-108779605D01*
X43090986Y-108779615D01*
X43264253Y-108987819D01*
X43264259Y-108987824D01*
X43425649Y-109132429D01*
X43465998Y-109168582D01*
X43691910Y-109318044D01*
X43937176Y-109433020D01*
X43937183Y-109433022D01*
X43937185Y-109433023D01*
X44196557Y-109511057D01*
X44196564Y-109511058D01*
X44196569Y-109511060D01*
X44464561Y-109550500D01*
X44464566Y-109550500D01*
X44667636Y-109550500D01*
X44719133Y-109546730D01*
X44870156Y-109535677D01*
X44982758Y-109510593D01*
X45134546Y-109476782D01*
X45134548Y-109476781D01*
X45134553Y-109476780D01*
X45387558Y-109380014D01*
X45623777Y-109247441D01*
X45838177Y-109081888D01*
X46026186Y-108886881D01*
X46183799Y-108666579D01*
X46257787Y-108522669D01*
X46307649Y-108425690D01*
X46307651Y-108425684D01*
X46307656Y-108425675D01*
X46395118Y-108169305D01*
X46444319Y-107902933D01*
X46454212Y-107632235D01*
X46424586Y-107362982D01*
X46356072Y-107100912D01*
X46250130Y-106851610D01*
X46109018Y-106620390D01*
X46019747Y-106513119D01*
X45935746Y-106412180D01*
X45935740Y-106412175D01*
X45734002Y-106231418D01*
X45508092Y-106081957D01*
X45469447Y-106063841D01*
X45262824Y-105966980D01*
X45262819Y-105966978D01*
X45262814Y-105966976D01*
X45003442Y-105888942D01*
X45003428Y-105888939D01*
X44887791Y-105871921D01*
X44735439Y-105849500D01*
X44532369Y-105849500D01*
X44532364Y-105849500D01*
X44329844Y-105864323D01*
X44329831Y-105864325D01*
X44065453Y-105923217D01*
X44065446Y-105923220D01*
X43812439Y-106019987D01*
X43576226Y-106152557D01*
X43576224Y-106152558D01*
X43576223Y-106152559D01*
X43543080Y-106178151D01*
X43361822Y-106318112D01*
X43173822Y-106513109D01*
X43173816Y-106513116D01*
X43016202Y-106733419D01*
X43016199Y-106733424D01*
X42892350Y-106974309D01*
X42892343Y-106974327D01*
X42804884Y-107230685D01*
X42804881Y-107230699D01*
X42755681Y-107497068D01*
X42755680Y-107497075D01*
X42745787Y-107767763D01*
X34549633Y-107767763D01*
X33232051Y-106450181D01*
X33198566Y-106388858D01*
X33203550Y-106319166D01*
X33245422Y-106263233D01*
X33310886Y-106238816D01*
X33319732Y-106238500D01*
X39687263Y-106238500D01*
X39703400Y-106240281D01*
X39703422Y-106240054D01*
X39711188Y-106240788D01*
X39711190Y-106240787D01*
X39711191Y-106240788D01*
X39783996Y-106238500D01*
X39815086Y-106238500D01*
X39822476Y-106237566D01*
X39828305Y-106237107D01*
X39877485Y-106235562D01*
X39898237Y-106229532D01*
X39917275Y-106225590D01*
X39938718Y-106222882D01*
X39984488Y-106204760D01*
X39990002Y-106202873D01*
X40016529Y-106195165D01*
X40037254Y-106189145D01*
X40055850Y-106178146D01*
X40073318Y-106169589D01*
X40093410Y-106161635D01*
X40133236Y-106132698D01*
X40138095Y-106129506D01*
X40180461Y-106104453D01*
X40195744Y-106089168D01*
X40210527Y-106076542D01*
X40228011Y-106063841D01*
X40259386Y-106025913D01*
X40263290Y-106021622D01*
X45949766Y-100335145D01*
X46011087Y-100301662D01*
X46080779Y-100306646D01*
G37*
G04 #@! TD.AperFunction*
G04 #@! TA.AperFunction,Conductor*
G36*
X32862470Y-135489363D02*
G01*
X32868949Y-135495396D01*
X33374925Y-136001373D01*
X33428424Y-135924970D01*
X33483001Y-135881345D01*
X33552499Y-135874152D01*
X33614854Y-135905674D01*
X33631574Y-135924970D01*
X33685072Y-136001373D01*
X33685073Y-136001373D01*
X34191050Y-135495395D01*
X34252373Y-135461910D01*
X34322064Y-135466894D01*
X34377998Y-135508765D01*
X34383039Y-135516025D01*
X34383048Y-135516039D01*
X34418239Y-135570798D01*
X34533602Y-135670759D01*
X34531293Y-135673422D01*
X34566006Y-135713499D01*
X34575935Y-135782660D01*
X34546898Y-135846210D01*
X34540882Y-135852669D01*
X34038625Y-136354925D01*
X34109801Y-136404763D01*
X34153426Y-136459340D01*
X34160620Y-136528838D01*
X34129097Y-136591193D01*
X34097697Y-136615392D01*
X34054427Y-136638809D01*
X34054422Y-136638812D01*
X33876761Y-136777092D01*
X33876756Y-136777097D01*
X33724284Y-136942723D01*
X33724276Y-136942734D01*
X33633807Y-137081206D01*
X33580660Y-137126563D01*
X33511429Y-137135986D01*
X33448093Y-137106483D01*
X33426191Y-137081206D01*
X33335722Y-136942732D01*
X33335717Y-136942727D01*
X33335715Y-136942723D01*
X33183243Y-136777097D01*
X33183238Y-136777092D01*
X33005577Y-136638812D01*
X33005577Y-136638811D01*
X32962303Y-136615393D01*
X32912713Y-136566173D01*
X32897605Y-136497957D01*
X32921775Y-136432401D01*
X32950198Y-136404763D01*
X33021373Y-136354925D01*
X32519116Y-135852669D01*
X32485631Y-135791346D01*
X32490615Y-135721655D01*
X32527640Y-135672193D01*
X32526398Y-135670759D01*
X32533100Y-135664952D01*
X32641761Y-135570798D01*
X32676954Y-135516037D01*
X32729755Y-135470283D01*
X32798914Y-135460339D01*
X32862470Y-135489363D01*
G37*
G04 #@! TD.AperFunction*
G04 #@! TA.AperFunction,Conductor*
G36*
X32862470Y-132949363D02*
G01*
X32868949Y-132955396D01*
X33374925Y-133461373D01*
X33428425Y-133384968D01*
X33483002Y-133341344D01*
X33552501Y-133334151D01*
X33614855Y-133365673D01*
X33631576Y-133384969D01*
X33685073Y-133461372D01*
X34191050Y-132955395D01*
X34252373Y-132921910D01*
X34322064Y-132926894D01*
X34377998Y-132968765D01*
X34383039Y-132976025D01*
X34383048Y-132976039D01*
X34418239Y-133030798D01*
X34533602Y-133130759D01*
X34531293Y-133133422D01*
X34566006Y-133173499D01*
X34575935Y-133242660D01*
X34546898Y-133306210D01*
X34540882Y-133312669D01*
X34038625Y-133814925D01*
X34115031Y-133868425D01*
X34158655Y-133923002D01*
X34165848Y-133992501D01*
X34134326Y-134054855D01*
X34115029Y-134071576D01*
X34038625Y-134125072D01*
X34540883Y-134627330D01*
X34574368Y-134688653D01*
X34569384Y-134758345D01*
X34532357Y-134807805D01*
X34533602Y-134809241D01*
X34418238Y-134909202D01*
X34383046Y-134963962D01*
X34330242Y-135009717D01*
X34261083Y-135019660D01*
X34197528Y-134990634D01*
X34191050Y-134984603D01*
X33685072Y-134478625D01*
X33685072Y-134478626D01*
X33631574Y-134555030D01*
X33576998Y-134598655D01*
X33507499Y-134605849D01*
X33445144Y-134574326D01*
X33428424Y-134555030D01*
X33374925Y-134478626D01*
X33374925Y-134478625D01*
X32868949Y-134984602D01*
X32807626Y-135018087D01*
X32737934Y-135013103D01*
X32682001Y-134971231D01*
X32676953Y-134963961D01*
X32641761Y-134909202D01*
X32526398Y-134809241D01*
X32528708Y-134806574D01*
X32494005Y-134766528D01*
X32484058Y-134697370D01*
X32513080Y-134633813D01*
X32519116Y-134627330D01*
X33021373Y-134125073D01*
X32944969Y-134071576D01*
X32901344Y-134016999D01*
X32894150Y-133947501D01*
X32925672Y-133885146D01*
X32944968Y-133868425D01*
X33021373Y-133814925D01*
X32519116Y-133312669D01*
X32485631Y-133251346D01*
X32490615Y-133181655D01*
X32527640Y-133132193D01*
X32526398Y-133130759D01*
X32533100Y-133124952D01*
X32641761Y-133030798D01*
X32676954Y-132976037D01*
X32729755Y-132930283D01*
X32798914Y-132920339D01*
X32862470Y-132949363D01*
G37*
G04 #@! TD.AperFunction*
G04 #@! TA.AperFunction,Conductor*
G36*
X32862470Y-130409363D02*
G01*
X32868949Y-130415396D01*
X33374925Y-130921373D01*
X33428425Y-130844968D01*
X33483002Y-130801344D01*
X33552501Y-130794151D01*
X33614855Y-130825673D01*
X33631576Y-130844969D01*
X33685073Y-130921372D01*
X34191050Y-130415395D01*
X34252373Y-130381910D01*
X34322064Y-130386894D01*
X34377998Y-130428765D01*
X34383039Y-130436025D01*
X34383048Y-130436039D01*
X34418239Y-130490798D01*
X34533602Y-130590759D01*
X34531293Y-130593422D01*
X34566006Y-130633499D01*
X34575935Y-130702660D01*
X34546898Y-130766210D01*
X34540882Y-130772669D01*
X34038625Y-131274925D01*
X34115031Y-131328425D01*
X34158655Y-131383002D01*
X34165848Y-131452501D01*
X34134326Y-131514855D01*
X34115029Y-131531576D01*
X34038625Y-131585072D01*
X34540883Y-132087330D01*
X34574368Y-132148653D01*
X34569384Y-132218345D01*
X34532357Y-132267805D01*
X34533602Y-132269241D01*
X34418238Y-132369202D01*
X34383046Y-132423962D01*
X34330242Y-132469717D01*
X34261083Y-132479660D01*
X34197528Y-132450634D01*
X34191050Y-132444603D01*
X33685072Y-131938625D01*
X33685072Y-131938626D01*
X33631574Y-132015030D01*
X33576998Y-132058655D01*
X33507499Y-132065849D01*
X33445144Y-132034326D01*
X33428424Y-132015030D01*
X33374925Y-131938626D01*
X33374925Y-131938625D01*
X32868949Y-132444602D01*
X32807626Y-132478087D01*
X32737934Y-132473103D01*
X32682001Y-132431231D01*
X32676953Y-132423961D01*
X32641761Y-132369202D01*
X32526398Y-132269241D01*
X32528708Y-132266574D01*
X32494005Y-132226528D01*
X32484058Y-132157370D01*
X32513080Y-132093813D01*
X32519116Y-132087330D01*
X33021373Y-131585073D01*
X32944969Y-131531576D01*
X32901344Y-131476999D01*
X32894150Y-131407501D01*
X32925672Y-131345146D01*
X32944968Y-131328425D01*
X33021373Y-131274925D01*
X32519116Y-130772669D01*
X32485631Y-130711346D01*
X32490615Y-130641655D01*
X32527640Y-130592193D01*
X32526398Y-130590759D01*
X32533100Y-130584952D01*
X32641761Y-130490798D01*
X32676954Y-130436037D01*
X32729755Y-130390283D01*
X32798914Y-130380339D01*
X32862470Y-130409363D01*
G37*
G04 #@! TD.AperFunction*
G04 #@! TA.AperFunction,Conductor*
G36*
X33428542Y-128463467D02*
G01*
X33486158Y-128502991D01*
X33504474Y-128536362D01*
X33504835Y-128536195D01*
X33507389Y-128541672D01*
X33507749Y-128542329D01*
X33507885Y-128542738D01*
X33600970Y-128693652D01*
X33726348Y-128819030D01*
X33877262Y-128912115D01*
X33952314Y-128936984D01*
X34009759Y-128976756D01*
X34036582Y-129041272D01*
X34036600Y-129043047D01*
X34540883Y-129547330D01*
X34574368Y-129608653D01*
X34569384Y-129678345D01*
X34532357Y-129727805D01*
X34533602Y-129729241D01*
X34418238Y-129829202D01*
X34383046Y-129883962D01*
X34330242Y-129929717D01*
X34261083Y-129939660D01*
X34197528Y-129910634D01*
X34191050Y-129904603D01*
X33685072Y-129398625D01*
X33685072Y-129398626D01*
X33631574Y-129475030D01*
X33576998Y-129518655D01*
X33507499Y-129525849D01*
X33445144Y-129494326D01*
X33428424Y-129475030D01*
X33374925Y-129398626D01*
X33374925Y-129398625D01*
X32868949Y-129904602D01*
X32807626Y-129938087D01*
X32737934Y-129933103D01*
X32682001Y-129891231D01*
X32676953Y-129883961D01*
X32641761Y-129829202D01*
X32526398Y-129729241D01*
X32528708Y-129726574D01*
X32494005Y-129686528D01*
X32484058Y-129617370D01*
X32513080Y-129553813D01*
X32519116Y-129547330D01*
X33021373Y-129045073D01*
X33021373Y-129045072D01*
X32950199Y-128995236D01*
X32906574Y-128940659D01*
X32899380Y-128871161D01*
X32930903Y-128808806D01*
X32962305Y-128784606D01*
X33005576Y-128761189D01*
X33183240Y-128622906D01*
X33298818Y-128497355D01*
X33358704Y-128461366D01*
X33428542Y-128463467D01*
G37*
G04 #@! TD.AperFunction*
G04 #@! TA.AperFunction,Conductor*
G36*
X31600779Y-69206647D02*
G01*
X31656712Y-69248519D01*
X31659265Y-69252388D01*
X31659372Y-69252314D01*
X31662476Y-69256747D01*
X31662477Y-69256749D01*
X31793802Y-69444300D01*
X31955700Y-69606198D01*
X32143251Y-69737523D01*
X32268091Y-69795736D01*
X32350750Y-69834281D01*
X32350752Y-69834281D01*
X32350757Y-69834284D01*
X32571913Y-69893543D01*
X32734832Y-69907796D01*
X32799998Y-69913498D01*
X32800000Y-69913498D01*
X32800002Y-69913498D01*
X32857021Y-69908509D01*
X33028087Y-69893543D01*
X33249243Y-69834284D01*
X33456749Y-69737523D01*
X33644300Y-69606198D01*
X33644304Y-69606193D01*
X33648734Y-69603092D01*
X33649693Y-69604462D01*
X33706755Y-69579496D01*
X33722441Y-69578500D01*
X34799153Y-69578500D01*
X34866192Y-69598185D01*
X34900725Y-69631373D01*
X34993802Y-69764300D01*
X34993806Y-69764304D01*
X35155698Y-69926197D01*
X35288623Y-70019271D01*
X35332248Y-70073847D01*
X35341500Y-70120846D01*
X35341500Y-71923609D01*
X35339718Y-71939746D01*
X35339946Y-71939768D01*
X35339211Y-71947534D01*
X35341500Y-72020342D01*
X35341500Y-72051434D01*
X35342433Y-72058829D01*
X35342891Y-72064647D01*
X35344437Y-72113829D01*
X35344438Y-72113832D01*
X35350464Y-72134577D01*
X35354407Y-72153618D01*
X35357116Y-72175053D01*
X35357117Y-72175057D01*
X35357118Y-72175064D01*
X35373284Y-72215897D01*
X35375234Y-72220822D01*
X35377125Y-72226348D01*
X35390854Y-72273598D01*
X35401850Y-72292191D01*
X35410410Y-72309665D01*
X35418363Y-72329754D01*
X35447289Y-72369565D01*
X35450490Y-72374437D01*
X35475547Y-72416807D01*
X35475551Y-72416811D01*
X35490821Y-72432081D01*
X35503458Y-72446876D01*
X35516159Y-72464357D01*
X35554072Y-72495721D01*
X35558383Y-72499643D01*
X36096263Y-73037523D01*
X36582157Y-73523417D01*
X36615642Y-73584740D01*
X36610658Y-73654432D01*
X36568786Y-73710365D01*
X36546881Y-73723480D01*
X36463251Y-73762476D01*
X36355330Y-73838044D01*
X36275700Y-73893802D01*
X36275698Y-73893803D01*
X36275695Y-73893806D01*
X36113806Y-74055695D01*
X36113803Y-74055698D01*
X36113802Y-74055700D01*
X36056582Y-74137419D01*
X35982476Y-74243252D01*
X35982475Y-74243254D01*
X35885718Y-74450750D01*
X35885714Y-74450761D01*
X35826457Y-74671910D01*
X35826456Y-74671918D01*
X35806502Y-74899998D01*
X35806502Y-74900001D01*
X35826456Y-75128081D01*
X35826457Y-75128089D01*
X35885714Y-75349238D01*
X35885718Y-75349249D01*
X35967636Y-75524922D01*
X35982477Y-75556749D01*
X36113802Y-75744300D01*
X36275700Y-75906198D01*
X36463251Y-76037523D01*
X36556602Y-76081053D01*
X36670750Y-76134281D01*
X36670752Y-76134281D01*
X36670757Y-76134284D01*
X36891913Y-76193543D01*
X37054832Y-76207796D01*
X37119998Y-76213498D01*
X37120000Y-76213498D01*
X37120002Y-76213498D01*
X37177021Y-76208509D01*
X37348087Y-76193543D01*
X37569243Y-76134284D01*
X37776749Y-76037523D01*
X37964300Y-75906198D01*
X38126198Y-75744300D01*
X38257523Y-75556749D01*
X38292815Y-75481063D01*
X38297775Y-75470428D01*
X38343947Y-75417988D01*
X38411140Y-75398836D01*
X38478022Y-75419051D01*
X38495044Y-75432443D01*
X38499867Y-75436972D01*
X38518803Y-75447382D01*
X38535049Y-75458053D01*
X38552132Y-75471304D01*
X38597307Y-75490853D01*
X38602528Y-75493410D01*
X38645663Y-75517124D01*
X38665843Y-75522305D01*
X38666586Y-75522496D01*
X38684997Y-75528800D01*
X38704823Y-75537380D01*
X38753452Y-75545081D01*
X38759141Y-75546260D01*
X38806812Y-75558500D01*
X38828414Y-75558500D01*
X38847810Y-75560026D01*
X38869152Y-75563406D01*
X38918144Y-75558774D01*
X38923981Y-75558500D01*
X45436406Y-75558500D01*
X45503445Y-75578185D01*
X45549200Y-75630989D01*
X45559144Y-75700147D01*
X45550207Y-75731749D01*
X45539150Y-75757296D01*
X45536580Y-75762543D01*
X45512876Y-75805661D01*
X45507502Y-75826589D01*
X45501203Y-75844987D01*
X45492619Y-75864825D01*
X45484923Y-75913420D01*
X45483738Y-75919143D01*
X45471500Y-75966809D01*
X45471500Y-75988413D01*
X45469974Y-76007808D01*
X45466594Y-76029151D01*
X45471225Y-76078143D01*
X45471500Y-76083981D01*
X45471500Y-78489955D01*
X45469718Y-78506092D01*
X45469946Y-78506114D01*
X45469211Y-78513880D01*
X45471500Y-78586688D01*
X45471500Y-78617780D01*
X45472433Y-78625175D01*
X45472891Y-78630993D01*
X45474437Y-78680175D01*
X45474438Y-78680178D01*
X45480464Y-78700923D01*
X45484407Y-78719964D01*
X45487116Y-78741399D01*
X45487117Y-78741403D01*
X45487118Y-78741410D01*
X45503284Y-78782243D01*
X45505234Y-78787168D01*
X45507125Y-78792694D01*
X45520854Y-78839944D01*
X45531850Y-78858537D01*
X45540410Y-78876011D01*
X45548363Y-78896100D01*
X45577289Y-78935911D01*
X45580490Y-78940783D01*
X45605547Y-78983153D01*
X45605551Y-78983157D01*
X45620821Y-78998427D01*
X45633458Y-79013222D01*
X45646159Y-79030703D01*
X45684072Y-79062067D01*
X45688383Y-79065989D01*
X45986806Y-79364412D01*
X46263859Y-79641465D01*
X46297344Y-79702788D01*
X46292360Y-79772480D01*
X46259999Y-79816248D01*
X46259999Y-80589424D01*
X46240314Y-80656464D01*
X46187510Y-80702218D01*
X46118352Y-80712162D01*
X46116601Y-80711897D01*
X46041486Y-80700000D01*
X46041481Y-80700000D01*
X45978519Y-80700000D01*
X45978514Y-80700000D01*
X45903398Y-80711897D01*
X45834104Y-80702942D01*
X45780652Y-80657946D01*
X45760013Y-80591194D01*
X45760000Y-80589424D01*
X45760000Y-79821127D01*
X45563671Y-79873734D01*
X45357517Y-79969865D01*
X45171179Y-80100342D01*
X45010342Y-80261179D01*
X44879865Y-80447517D01*
X44783734Y-80653673D01*
X44783730Y-80653682D01*
X44731127Y-80849999D01*
X44731128Y-80850000D01*
X45499424Y-80850000D01*
X45566463Y-80869685D01*
X45612218Y-80922489D01*
X45622162Y-80991647D01*
X45621897Y-80993397D01*
X45605014Y-81099996D01*
X45605014Y-81100003D01*
X45621897Y-81206603D01*
X45612942Y-81275896D01*
X45567946Y-81329348D01*
X45501194Y-81349987D01*
X45499424Y-81350000D01*
X44732621Y-81350000D01*
X44665582Y-81330315D01*
X44644940Y-81313681D01*
X44556407Y-81225148D01*
X44026717Y-80695457D01*
X44016564Y-80682785D01*
X44016388Y-80682931D01*
X44011419Y-80676926D01*
X44011416Y-80676920D01*
X43985754Y-80652822D01*
X43958315Y-80627054D01*
X43936333Y-80605072D01*
X43930439Y-80600501D01*
X43926002Y-80596711D01*
X43890133Y-80563028D01*
X43890131Y-80563026D01*
X43871200Y-80552619D01*
X43854948Y-80541944D01*
X43837868Y-80528696D01*
X43837864Y-80528694D01*
X43792702Y-80509150D01*
X43787455Y-80506580D01*
X43744337Y-80482875D01*
X43744338Y-80482875D01*
X43723411Y-80477502D01*
X43705006Y-80471201D01*
X43685174Y-80462619D01*
X43636569Y-80454921D01*
X43630847Y-80453736D01*
X43597188Y-80445094D01*
X43583188Y-80441500D01*
X43583187Y-80441500D01*
X43561581Y-80441500D01*
X43542183Y-80439973D01*
X43533603Y-80438614D01*
X43520849Y-80436594D01*
X43520848Y-80436594D01*
X43471855Y-80441225D01*
X43466019Y-80441500D01*
X39822500Y-80441500D01*
X39755461Y-80421815D01*
X39709706Y-80369011D01*
X39698500Y-80317500D01*
X39698500Y-80251362D01*
X39698499Y-80251345D01*
X39695157Y-80220270D01*
X39691989Y-80190799D01*
X39640889Y-80053796D01*
X39553261Y-79936739D01*
X39436204Y-79849111D01*
X39436204Y-79849110D01*
X39299203Y-79798011D01*
X39238654Y-79791500D01*
X39238638Y-79791500D01*
X37541362Y-79791500D01*
X37541345Y-79791500D01*
X37480797Y-79798011D01*
X37480795Y-79798011D01*
X37343795Y-79849111D01*
X37226739Y-79936739D01*
X37139111Y-80053795D01*
X37088011Y-80190795D01*
X37088011Y-80190797D01*
X37081500Y-80251345D01*
X37081500Y-81948654D01*
X37088011Y-82009202D01*
X37088011Y-82009204D01*
X37116826Y-82086457D01*
X37139111Y-82146204D01*
X37226739Y-82263261D01*
X37343796Y-82350889D01*
X37480799Y-82401989D01*
X37508050Y-82404918D01*
X37541345Y-82408499D01*
X37541362Y-82408500D01*
X39238638Y-82408500D01*
X39238654Y-82408499D01*
X39265692Y-82405591D01*
X39299201Y-82401989D01*
X39436204Y-82350889D01*
X39553261Y-82263261D01*
X39640889Y-82146204D01*
X39691989Y-82009201D01*
X39696483Y-81967399D01*
X39698499Y-81948654D01*
X39698500Y-81948637D01*
X39698500Y-81882500D01*
X39718185Y-81815461D01*
X39770989Y-81769706D01*
X39822500Y-81758500D01*
X43175878Y-81758500D01*
X43242917Y-81778185D01*
X43263559Y-81794819D01*
X44005181Y-82536440D01*
X44038666Y-82597763D01*
X44041500Y-82624121D01*
X44041500Y-82899152D01*
X44021815Y-82966191D01*
X43988624Y-83000726D01*
X43855699Y-83093802D01*
X43693806Y-83255695D01*
X43693803Y-83255698D01*
X43693802Y-83255700D01*
X43631665Y-83344441D01*
X43562476Y-83443252D01*
X43562475Y-83443254D01*
X43465718Y-83650750D01*
X43465714Y-83650761D01*
X43406457Y-83871910D01*
X43406456Y-83871918D01*
X43386502Y-84099998D01*
X43386502Y-84100001D01*
X43406456Y-84328081D01*
X43406457Y-84328089D01*
X43465714Y-84549238D01*
X43465718Y-84549249D01*
X43562475Y-84756745D01*
X43562477Y-84756749D01*
X43693802Y-84944300D01*
X43855700Y-85106198D01*
X44043251Y-85237523D01*
X44131908Y-85278864D01*
X44250750Y-85334281D01*
X44250752Y-85334281D01*
X44250757Y-85334284D01*
X44471913Y-85393543D01*
X44634832Y-85407796D01*
X44699998Y-85413498D01*
X44700000Y-85413498D01*
X44700002Y-85413498D01*
X44757021Y-85408509D01*
X44928087Y-85393543D01*
X45149243Y-85334284D01*
X45356749Y-85237523D01*
X45544300Y-85106198D01*
X45706198Y-84944300D01*
X45837523Y-84756749D01*
X45934284Y-84549243D01*
X45993543Y-84328087D01*
X46013498Y-84100000D01*
X45993543Y-83871913D01*
X45934284Y-83650757D01*
X45837523Y-83443251D01*
X45706198Y-83255700D01*
X45544300Y-83093802D01*
X45503167Y-83065000D01*
X45411376Y-83000726D01*
X45367751Y-82946149D01*
X45358500Y-82899152D01*
X45358500Y-82425233D01*
X45378185Y-82358194D01*
X45430989Y-82312439D01*
X45500147Y-82302495D01*
X45534905Y-82312851D01*
X45563673Y-82326266D01*
X45563682Y-82326269D01*
X45759999Y-82378872D01*
X45760000Y-82378871D01*
X45760000Y-81610575D01*
X45779685Y-81543536D01*
X45832489Y-81497781D01*
X45901647Y-81487837D01*
X45903331Y-81488091D01*
X45935699Y-81493218D01*
X45978515Y-81500000D01*
X45978519Y-81500000D01*
X46041485Y-81500000D01*
X46084300Y-81493218D01*
X46116602Y-81488102D01*
X46185894Y-81497056D01*
X46239347Y-81542052D01*
X46259987Y-81608803D01*
X46260000Y-81610575D01*
X46260000Y-82378872D01*
X46461555Y-82324866D01*
X46461935Y-82326287D01*
X46524791Y-82322279D01*
X46585854Y-82356235D01*
X46618866Y-82417815D01*
X46621500Y-82443238D01*
X46621500Y-86099152D01*
X46601815Y-86166191D01*
X46568624Y-86200726D01*
X46435699Y-86293802D01*
X46273806Y-86455695D01*
X46142476Y-86643252D01*
X46142475Y-86643254D01*
X46045718Y-86850750D01*
X46045714Y-86850761D01*
X45986457Y-87071910D01*
X45986456Y-87071918D01*
X45966502Y-87299998D01*
X45966502Y-87300001D01*
X45986456Y-87528081D01*
X45986459Y-87528098D01*
X45996286Y-87564774D01*
X45994622Y-87634623D01*
X45964192Y-87684546D01*
X45725453Y-87923285D01*
X45712785Y-87933435D01*
X45712931Y-87933611D01*
X45706920Y-87938583D01*
X45657053Y-87991686D01*
X45635072Y-88013667D01*
X45630492Y-88019569D01*
X45626708Y-88023998D01*
X45593029Y-88059865D01*
X45593024Y-88059872D01*
X45582618Y-88078800D01*
X45571942Y-88095054D01*
X45558695Y-88112133D01*
X45539150Y-88157297D01*
X45536580Y-88162543D01*
X45512876Y-88205661D01*
X45507502Y-88226589D01*
X45501203Y-88244987D01*
X45492619Y-88264825D01*
X45484923Y-88313420D01*
X45483738Y-88319143D01*
X45471500Y-88366809D01*
X45471500Y-88388413D01*
X45469974Y-88407808D01*
X45466594Y-88429151D01*
X45471225Y-88478143D01*
X45471500Y-88483981D01*
X45471500Y-92463609D01*
X45469718Y-92479746D01*
X45469946Y-92479768D01*
X45469211Y-92487534D01*
X45471500Y-92560342D01*
X45471500Y-92591434D01*
X45472433Y-92598829D01*
X45472891Y-92604647D01*
X45474437Y-92653829D01*
X45474438Y-92653832D01*
X45480464Y-92674577D01*
X45484407Y-92693618D01*
X45487116Y-92715053D01*
X45487117Y-92715057D01*
X45487118Y-92715064D01*
X45503284Y-92755897D01*
X45505234Y-92760822D01*
X45507125Y-92766348D01*
X45520854Y-92813598D01*
X45531850Y-92832191D01*
X45540410Y-92849665D01*
X45548363Y-92869754D01*
X45577289Y-92909565D01*
X45580490Y-92914437D01*
X45605547Y-92956807D01*
X45605551Y-92956811D01*
X45620821Y-92972081D01*
X45633459Y-92986877D01*
X45643864Y-93001199D01*
X45646159Y-93004357D01*
X45684072Y-93035721D01*
X45688383Y-93039643D01*
X45899490Y-93250750D01*
X45964192Y-93315452D01*
X45997677Y-93376775D01*
X45996287Y-93435223D01*
X45986458Y-93471908D01*
X45986456Y-93471918D01*
X45966502Y-93699998D01*
X45966502Y-93700001D01*
X45986456Y-93928081D01*
X45986457Y-93928089D01*
X46045714Y-94149238D01*
X46045718Y-94149249D01*
X46142475Y-94356745D01*
X46142477Y-94356749D01*
X46273802Y-94544300D01*
X46273805Y-94544304D01*
X46273806Y-94544304D01*
X46435698Y-94706197D01*
X46568623Y-94799271D01*
X46612248Y-94853847D01*
X46621500Y-94900846D01*
X46621500Y-95356761D01*
X46601815Y-95423800D01*
X46549011Y-95469555D01*
X46479853Y-95479499D01*
X46461610Y-95474922D01*
X46461554Y-95475135D01*
X46259999Y-95421127D01*
X46259999Y-96189424D01*
X46240314Y-96256464D01*
X46187510Y-96302218D01*
X46118352Y-96312162D01*
X46116601Y-96311897D01*
X46041486Y-96300000D01*
X46041481Y-96300000D01*
X45978519Y-96300000D01*
X45978514Y-96300000D01*
X45903398Y-96311897D01*
X45834104Y-96302942D01*
X45780652Y-96257946D01*
X45760013Y-96191194D01*
X45760000Y-96189424D01*
X45760000Y-95421127D01*
X45563671Y-95473734D01*
X45357517Y-95569865D01*
X45171179Y-95700342D01*
X45010342Y-95861179D01*
X44879865Y-96047517D01*
X44783734Y-96253673D01*
X44783730Y-96253682D01*
X44731127Y-96449999D01*
X44731128Y-96450000D01*
X45499424Y-96450000D01*
X45566463Y-96469685D01*
X45612218Y-96522489D01*
X45622162Y-96591647D01*
X45621897Y-96593397D01*
X45605014Y-96699996D01*
X45605014Y-96700003D01*
X45621897Y-96806603D01*
X45612942Y-96875896D01*
X45567946Y-96929348D01*
X45501194Y-96949987D01*
X45499424Y-96950000D01*
X44731128Y-96950000D01*
X44783730Y-97146317D01*
X44783734Y-97146326D01*
X44879865Y-97352482D01*
X45010342Y-97538820D01*
X45171179Y-97699657D01*
X45357517Y-97830134D01*
X45563673Y-97926265D01*
X45563682Y-97926269D01*
X45759999Y-97978872D01*
X45760000Y-97978871D01*
X45760000Y-97210575D01*
X45779685Y-97143536D01*
X45832489Y-97097781D01*
X45901647Y-97087837D01*
X45903331Y-97088091D01*
X45935699Y-97093218D01*
X45978515Y-97100000D01*
X45978519Y-97100000D01*
X46041485Y-97100000D01*
X46084300Y-97093218D01*
X46116602Y-97088102D01*
X46185894Y-97097056D01*
X46239347Y-97142052D01*
X46259987Y-97208803D01*
X46260000Y-97210575D01*
X46260000Y-97983892D01*
X46292867Y-98028905D01*
X46297022Y-98098651D01*
X46263859Y-98158533D01*
X39537213Y-104885181D01*
X39475890Y-104918666D01*
X39449532Y-104921500D01*
X36243180Y-104921500D01*
X36176141Y-104901815D01*
X36130386Y-104849011D01*
X36120442Y-104779853D01*
X36149467Y-104716297D01*
X36208245Y-104678523D01*
X36217399Y-104676210D01*
X36220969Y-104675450D01*
X36252288Y-104668794D01*
X36426752Y-104591118D01*
X36581253Y-104478866D01*
X36709040Y-104336944D01*
X36804527Y-104171556D01*
X36863542Y-103989928D01*
X36883504Y-103800000D01*
X36863542Y-103610072D01*
X36804527Y-103428444D01*
X36709040Y-103263056D01*
X36660350Y-103208980D01*
X36630120Y-103145988D01*
X36628500Y-103126008D01*
X36628500Y-101084561D01*
X36648185Y-101017522D01*
X36700989Y-100971767D01*
X36770147Y-100961823D01*
X36784582Y-100964783D01*
X36891913Y-100993543D01*
X37054832Y-101007796D01*
X37119998Y-101013498D01*
X37120000Y-101013498D01*
X37120002Y-101013498D01*
X37177021Y-101008509D01*
X37348087Y-100993543D01*
X37569243Y-100934284D01*
X37776749Y-100837523D01*
X37964300Y-100706198D01*
X38126198Y-100544300D01*
X38257523Y-100356749D01*
X38354284Y-100149243D01*
X38413543Y-99928087D01*
X38433498Y-99700000D01*
X38413543Y-99471913D01*
X38354284Y-99250757D01*
X38257523Y-99043251D01*
X38126198Y-98855700D01*
X37964300Y-98693802D01*
X37776749Y-98562477D01*
X37776745Y-98562475D01*
X37569249Y-98465718D01*
X37569238Y-98465714D01*
X37348089Y-98406457D01*
X37348081Y-98406456D01*
X37120002Y-98386502D01*
X37119998Y-98386502D01*
X36891918Y-98406456D01*
X36891907Y-98406458D01*
X36784593Y-98435213D01*
X36714743Y-98433550D01*
X36656881Y-98394387D01*
X36629377Y-98330159D01*
X36628500Y-98315438D01*
X36628500Y-97548654D01*
X37081500Y-97548654D01*
X37088011Y-97609202D01*
X37088011Y-97609204D01*
X37139111Y-97746204D01*
X37226739Y-97863261D01*
X37343796Y-97950889D01*
X37480799Y-98001989D01*
X37508050Y-98004918D01*
X37541345Y-98008499D01*
X37541362Y-98008500D01*
X39238638Y-98008500D01*
X39238654Y-98008499D01*
X39265692Y-98005591D01*
X39299201Y-98001989D01*
X39436204Y-97950889D01*
X39553261Y-97863261D01*
X39640889Y-97746204D01*
X39691989Y-97609201D01*
X39695591Y-97575692D01*
X39698499Y-97548654D01*
X39698500Y-97548637D01*
X39698500Y-95851362D01*
X39698499Y-95851345D01*
X39695157Y-95820270D01*
X39691989Y-95790799D01*
X39640889Y-95653796D01*
X39553261Y-95536739D01*
X39436204Y-95449111D01*
X39436204Y-95449110D01*
X39299203Y-95398011D01*
X39238654Y-95391500D01*
X39238638Y-95391500D01*
X37541362Y-95391500D01*
X37541345Y-95391500D01*
X37480797Y-95398011D01*
X37480795Y-95398011D01*
X37343795Y-95449111D01*
X37226739Y-95536739D01*
X37139111Y-95653795D01*
X37088011Y-95790795D01*
X37088011Y-95790797D01*
X37081500Y-95851345D01*
X37081500Y-97548654D01*
X36628500Y-97548654D01*
X36628500Y-95084561D01*
X36648185Y-95017522D01*
X36700989Y-94971767D01*
X36770147Y-94961823D01*
X36784582Y-94964783D01*
X36891913Y-94993543D01*
X37054832Y-95007796D01*
X37119998Y-95013498D01*
X37120000Y-95013498D01*
X37120002Y-95013498D01*
X37177021Y-95008509D01*
X37348087Y-94993543D01*
X37569243Y-94934284D01*
X37776749Y-94837523D01*
X37964300Y-94706198D01*
X38126198Y-94544300D01*
X38257523Y-94356749D01*
X38354284Y-94149243D01*
X38413543Y-93928087D01*
X38430647Y-93732583D01*
X38433498Y-93700001D01*
X38433498Y-93699998D01*
X38413543Y-93471918D01*
X38413543Y-93471913D01*
X38354284Y-93250757D01*
X38257523Y-93043251D01*
X38126198Y-92855700D01*
X37964300Y-92693802D01*
X37776749Y-92562477D01*
X37776745Y-92562475D01*
X37569249Y-92465718D01*
X37569238Y-92465714D01*
X37348089Y-92406457D01*
X37348081Y-92406456D01*
X37120002Y-92386502D01*
X37119998Y-92386502D01*
X36891918Y-92406456D01*
X36891907Y-92406458D01*
X36784593Y-92435213D01*
X36714743Y-92433550D01*
X36656881Y-92394387D01*
X36629377Y-92330159D01*
X36628500Y-92315438D01*
X36628500Y-91884561D01*
X36648185Y-91817522D01*
X36700989Y-91771767D01*
X36770147Y-91761823D01*
X36784582Y-91764783D01*
X36891913Y-91793543D01*
X37054832Y-91807796D01*
X37119998Y-91813498D01*
X37120000Y-91813498D01*
X37120002Y-91813498D01*
X37177021Y-91808509D01*
X37348087Y-91793543D01*
X37569243Y-91734284D01*
X37776749Y-91637523D01*
X37964300Y-91506198D01*
X38126198Y-91344300D01*
X38257523Y-91156749D01*
X38354284Y-90949243D01*
X38413543Y-90728087D01*
X38433498Y-90500000D01*
X38413543Y-90271913D01*
X38354284Y-90050757D01*
X38342916Y-90026379D01*
X38257524Y-89843254D01*
X38257523Y-89843252D01*
X38257523Y-89843251D01*
X38126198Y-89655700D01*
X37964300Y-89493802D01*
X37776749Y-89362477D01*
X37776745Y-89362475D01*
X37569249Y-89265718D01*
X37569238Y-89265714D01*
X37348089Y-89206457D01*
X37348081Y-89206456D01*
X37120002Y-89186502D01*
X37119998Y-89186502D01*
X36891918Y-89206456D01*
X36891907Y-89206458D01*
X36784593Y-89235213D01*
X36714743Y-89233550D01*
X36656881Y-89194387D01*
X36629377Y-89130159D01*
X36628500Y-89115438D01*
X36628500Y-88684561D01*
X36648185Y-88617522D01*
X36700989Y-88571767D01*
X36770147Y-88561823D01*
X36784582Y-88564783D01*
X36891913Y-88593543D01*
X37054832Y-88607796D01*
X37119998Y-88613498D01*
X37120000Y-88613498D01*
X37120002Y-88613498D01*
X37177021Y-88608509D01*
X37348087Y-88593543D01*
X37569243Y-88534284D01*
X37776749Y-88437523D01*
X37964300Y-88306198D01*
X38126198Y-88144300D01*
X38257523Y-87956749D01*
X38354284Y-87749243D01*
X38413543Y-87528087D01*
X38433498Y-87300000D01*
X38413543Y-87071913D01*
X38354284Y-86850757D01*
X38257523Y-86643251D01*
X38126198Y-86455700D01*
X37964300Y-86293802D01*
X37776749Y-86162477D01*
X37776745Y-86162475D01*
X37569249Y-86065718D01*
X37569238Y-86065714D01*
X37348089Y-86006457D01*
X37348081Y-86006456D01*
X37120002Y-85986502D01*
X37119998Y-85986502D01*
X36891918Y-86006456D01*
X36891907Y-86006458D01*
X36784593Y-86035213D01*
X36714743Y-86033550D01*
X36656881Y-85994387D01*
X36629377Y-85930159D01*
X36628500Y-85915438D01*
X36628500Y-85754121D01*
X36648185Y-85687082D01*
X36664814Y-85666445D01*
X36786442Y-85544817D01*
X36847764Y-85511334D01*
X36874122Y-85508500D01*
X36895487Y-85508500D01*
X37082288Y-85468794D01*
X37256752Y-85391118D01*
X37411253Y-85278866D01*
X37539040Y-85136944D01*
X37634527Y-84971556D01*
X37693542Y-84789928D01*
X37713504Y-84600000D01*
X37693542Y-84410072D01*
X37634527Y-84228444D01*
X37560370Y-84100001D01*
X38386502Y-84100001D01*
X38406456Y-84328081D01*
X38406457Y-84328089D01*
X38465714Y-84549238D01*
X38465718Y-84549249D01*
X38562475Y-84756745D01*
X38562477Y-84756749D01*
X38693802Y-84944300D01*
X38855700Y-85106198D01*
X39043251Y-85237523D01*
X39131908Y-85278864D01*
X39250750Y-85334281D01*
X39250752Y-85334281D01*
X39250757Y-85334284D01*
X39471913Y-85393543D01*
X39634832Y-85407796D01*
X39699998Y-85413498D01*
X39700000Y-85413498D01*
X39700002Y-85413498D01*
X39757021Y-85408509D01*
X39928087Y-85393543D01*
X40149243Y-85334284D01*
X40356749Y-85237523D01*
X40544300Y-85106198D01*
X40706198Y-84944300D01*
X40837523Y-84756749D01*
X40934284Y-84549243D01*
X40993543Y-84328087D01*
X41013498Y-84100000D01*
X40993543Y-83871913D01*
X40934284Y-83650757D01*
X40837523Y-83443251D01*
X40706198Y-83255700D01*
X40544300Y-83093802D01*
X40356749Y-82962477D01*
X40356745Y-82962475D01*
X40149249Y-82865718D01*
X40149238Y-82865714D01*
X39928089Y-82806457D01*
X39928081Y-82806456D01*
X39700002Y-82786502D01*
X39699998Y-82786502D01*
X39471918Y-82806456D01*
X39471910Y-82806457D01*
X39250761Y-82865714D01*
X39250750Y-82865718D01*
X39043254Y-82962475D01*
X39043252Y-82962476D01*
X38988626Y-83000726D01*
X38855700Y-83093802D01*
X38855698Y-83093803D01*
X38855695Y-83093806D01*
X38693806Y-83255695D01*
X38693803Y-83255698D01*
X38693802Y-83255700D01*
X38631665Y-83344441D01*
X38562476Y-83443252D01*
X38562475Y-83443254D01*
X38465718Y-83650750D01*
X38465714Y-83650761D01*
X38406457Y-83871910D01*
X38406456Y-83871918D01*
X38386502Y-84099998D01*
X38386502Y-84100001D01*
X37560370Y-84100001D01*
X37539040Y-84063056D01*
X37411253Y-83921134D01*
X37256752Y-83808882D01*
X37082288Y-83731206D01*
X37082286Y-83731205D01*
X36895487Y-83691500D01*
X36704513Y-83691500D01*
X36517714Y-83731205D01*
X36343246Y-83808883D01*
X36188745Y-83921135D01*
X36060959Y-84063057D01*
X35965473Y-84228443D01*
X35965470Y-84228450D01*
X35906459Y-84410067D01*
X35906458Y-84410070D01*
X35893171Y-84536489D01*
X35866586Y-84601104D01*
X35857531Y-84611208D01*
X35565454Y-84903285D01*
X35552785Y-84913435D01*
X35552931Y-84913611D01*
X35546920Y-84918583D01*
X35497053Y-84971686D01*
X35475072Y-84993667D01*
X35470492Y-84999569D01*
X35466708Y-85003998D01*
X35433029Y-85039865D01*
X35433024Y-85039872D01*
X35422618Y-85058800D01*
X35411942Y-85075054D01*
X35398695Y-85092133D01*
X35379150Y-85137297D01*
X35376580Y-85142543D01*
X35352876Y-85185661D01*
X35347502Y-85206589D01*
X35341203Y-85224987D01*
X35332619Y-85244825D01*
X35324923Y-85293420D01*
X35323738Y-85299143D01*
X35311500Y-85346809D01*
X35311500Y-85368413D01*
X35309974Y-85387808D01*
X35306594Y-85409151D01*
X35311225Y-85458143D01*
X35311500Y-85463981D01*
X35311500Y-103126008D01*
X35291815Y-103193047D01*
X35279650Y-103208980D01*
X35230959Y-103263057D01*
X35135473Y-103428443D01*
X35135470Y-103428450D01*
X35076459Y-103610068D01*
X35076458Y-103610072D01*
X35056496Y-103800000D01*
X35076458Y-103989928D01*
X35076459Y-103989931D01*
X35135470Y-104171549D01*
X35135473Y-104171556D01*
X35230960Y-104336944D01*
X35358747Y-104478866D01*
X35513248Y-104591118D01*
X35687712Y-104668794D01*
X35713708Y-104674319D01*
X35722601Y-104676210D01*
X35784083Y-104709402D01*
X35817859Y-104770565D01*
X35813207Y-104840280D01*
X35771602Y-104896412D01*
X35706255Y-104921141D01*
X35696820Y-104921500D01*
X31732870Y-104921500D01*
X31665831Y-104901815D01*
X31655557Y-104894447D01*
X31651349Y-104891091D01*
X31651347Y-104891090D01*
X31613319Y-104872777D01*
X31607230Y-104869411D01*
X31581508Y-104853250D01*
X31571493Y-104846957D01*
X31571491Y-104846956D01*
X31571486Y-104846953D01*
X31565217Y-104843934D01*
X31566258Y-104841770D01*
X31518616Y-104807585D01*
X31512552Y-104799105D01*
X31475721Y-104742730D01*
X31323243Y-104577097D01*
X31323238Y-104577092D01*
X31197038Y-104478866D01*
X31145576Y-104438811D01*
X31109070Y-104419055D01*
X31059479Y-104369836D01*
X31044371Y-104301619D01*
X31068541Y-104236064D01*
X31109070Y-104200945D01*
X31109084Y-104200936D01*
X31145576Y-104181189D01*
X31323240Y-104042906D01*
X31475722Y-103877268D01*
X31598860Y-103688791D01*
X31689296Y-103482616D01*
X31744564Y-103264368D01*
X31752085Y-103173607D01*
X31763156Y-103040005D01*
X31763156Y-103039994D01*
X31744565Y-102815640D01*
X31744563Y-102815628D01*
X31689296Y-102597385D01*
X31598859Y-102391207D01*
X31475723Y-102202734D01*
X31475715Y-102202723D01*
X31330510Y-102044991D01*
X31299587Y-101982337D01*
X31307447Y-101912911D01*
X31351594Y-101858755D01*
X31378405Y-101844827D01*
X31458584Y-101814920D01*
X31496204Y-101800889D01*
X31613261Y-101713261D01*
X31700889Y-101596204D01*
X31751989Y-101459201D01*
X31755591Y-101425692D01*
X31758499Y-101398654D01*
X31758500Y-101398637D01*
X31758500Y-99601362D01*
X31758499Y-99601345D01*
X31755157Y-99570270D01*
X31751989Y-99540799D01*
X31700889Y-99403796D01*
X31613261Y-99286739D01*
X31496204Y-99199111D01*
X31496204Y-99199110D01*
X31359203Y-99148011D01*
X31298654Y-99141500D01*
X31298638Y-99141500D01*
X29982500Y-99141500D01*
X29915461Y-99121815D01*
X29869706Y-99069011D01*
X29858500Y-99017500D01*
X29858500Y-93500000D01*
X31536499Y-93500000D01*
X31556453Y-93702599D01*
X31556454Y-93702601D01*
X31615550Y-93897417D01*
X31615551Y-93897420D01*
X31615552Y-93897421D01*
X31615553Y-93897424D01*
X31714389Y-94082333D01*
X31712701Y-94083235D01*
X31730929Y-94141433D01*
X31716307Y-94202109D01*
X31623442Y-94375846D01*
X31579715Y-94520000D01*
X32311808Y-94520000D01*
X32378847Y-94539685D01*
X32424602Y-94592489D01*
X32434546Y-94661647D01*
X32432013Y-94674441D01*
X32431448Y-94676670D01*
X32421113Y-94801392D01*
X32421113Y-94801395D01*
X32421114Y-94801395D01*
X32437362Y-94865559D01*
X32437363Y-94865560D01*
X32434738Y-94935381D01*
X32394781Y-94992698D01*
X32330180Y-95019314D01*
X32317157Y-95020000D01*
X31579715Y-95020000D01*
X31623442Y-95164153D01*
X31718615Y-95342209D01*
X31718620Y-95342215D01*
X31846707Y-95498292D01*
X32002784Y-95626379D01*
X32002790Y-95626384D01*
X32180845Y-95721556D01*
X32374067Y-95780170D01*
X32524642Y-95795000D01*
X32550000Y-95795000D01*
X32550000Y-95254330D01*
X32569685Y-95187291D01*
X32622489Y-95141536D01*
X32691647Y-95131592D01*
X32714262Y-95137048D01*
X32737424Y-95145000D01*
X32831072Y-95145000D01*
X32831073Y-95145000D01*
X32905592Y-95132565D01*
X32974955Y-95140947D01*
X33028777Y-95185500D01*
X33049968Y-95252078D01*
X33050000Y-95254874D01*
X33050000Y-95795000D01*
X33075358Y-95795000D01*
X33225932Y-95780170D01*
X33419154Y-95721556D01*
X33597209Y-95626384D01*
X33597215Y-95626379D01*
X33753292Y-95498292D01*
X33881379Y-95342215D01*
X33881384Y-95342209D01*
X33976557Y-95164153D01*
X34020285Y-95020000D01*
X33288192Y-95020000D01*
X33221153Y-95000315D01*
X33175398Y-94947511D01*
X33165454Y-94878353D01*
X33167987Y-94865559D01*
X33168551Y-94863329D01*
X33178886Y-94738605D01*
X33175077Y-94723563D01*
X33162637Y-94674438D01*
X33165262Y-94604619D01*
X33205219Y-94547302D01*
X33269820Y-94520686D01*
X33282843Y-94520000D01*
X34020285Y-94520000D01*
X33976557Y-94375848D01*
X33883691Y-94202110D01*
X33869449Y-94133707D01*
X33887055Y-94083104D01*
X33885610Y-94082332D01*
X33888480Y-94076962D01*
X33888482Y-94076960D01*
X33984450Y-93897417D01*
X34043546Y-93702601D01*
X34063501Y-93500000D01*
X34043546Y-93297399D01*
X33985523Y-93106123D01*
X33984901Y-93036260D01*
X33998028Y-93009748D01*
X33996638Y-93008989D01*
X34000886Y-93001207D01*
X34000889Y-93001204D01*
X34009176Y-92978985D01*
X34051987Y-92864207D01*
X34051988Y-92864204D01*
X34051989Y-92864201D01*
X34057429Y-92813600D01*
X34058499Y-92803654D01*
X34058500Y-92803637D01*
X34058500Y-91656362D01*
X34058499Y-91656345D01*
X34055157Y-91625270D01*
X34051989Y-91595799D01*
X34000889Y-91458796D01*
X33913261Y-91341739D01*
X33796204Y-91254111D01*
X33796204Y-91254110D01*
X33659203Y-91203011D01*
X33598654Y-91196500D01*
X33598638Y-91196500D01*
X32001362Y-91196500D01*
X32001345Y-91196500D01*
X31940797Y-91203011D01*
X31940795Y-91203011D01*
X31803795Y-91254111D01*
X31686739Y-91341739D01*
X31599111Y-91458795D01*
X31548011Y-91595795D01*
X31548011Y-91595797D01*
X31541500Y-91656345D01*
X31541500Y-92803654D01*
X31548011Y-92864202D01*
X31548011Y-92864204D01*
X31565814Y-92911933D01*
X31599111Y-93001204D01*
X31599115Y-93001209D01*
X31603362Y-93008988D01*
X31600564Y-93010515D01*
X31619499Y-93061300D01*
X31614475Y-93106126D01*
X31556453Y-93297400D01*
X31536499Y-93500000D01*
X29858500Y-93500000D01*
X29858499Y-87900000D01*
X31536499Y-87900000D01*
X31556453Y-88102599D01*
X31556454Y-88102601D01*
X31615550Y-88297417D01*
X31615551Y-88297420D01*
X31615552Y-88297421D01*
X31615553Y-88297424D01*
X31714389Y-88482333D01*
X31712701Y-88483235D01*
X31730929Y-88541433D01*
X31716307Y-88602109D01*
X31623442Y-88775846D01*
X31579715Y-88920000D01*
X32311808Y-88920000D01*
X32378847Y-88939685D01*
X32424602Y-88992489D01*
X32434546Y-89061647D01*
X32432013Y-89074441D01*
X32431448Y-89076670D01*
X32421113Y-89201392D01*
X32422396Y-89206457D01*
X32437362Y-89265559D01*
X32437363Y-89265560D01*
X32434738Y-89335381D01*
X32394781Y-89392698D01*
X32330180Y-89419314D01*
X32317157Y-89420000D01*
X31579715Y-89420000D01*
X31623442Y-89564153D01*
X31718615Y-89742209D01*
X31718620Y-89742215D01*
X31846707Y-89898292D01*
X32002784Y-90026379D01*
X32002790Y-90026384D01*
X32180845Y-90121556D01*
X32374067Y-90180170D01*
X32524642Y-90195000D01*
X32550000Y-90195000D01*
X32550000Y-89654330D01*
X32569685Y-89587291D01*
X32622489Y-89541536D01*
X32691647Y-89531592D01*
X32714262Y-89537048D01*
X32737424Y-89545000D01*
X32831072Y-89545000D01*
X32831073Y-89545000D01*
X32905592Y-89532565D01*
X32974955Y-89540947D01*
X33028777Y-89585500D01*
X33049968Y-89652078D01*
X33050000Y-89654874D01*
X33050000Y-90195000D01*
X33075358Y-90195000D01*
X33225932Y-90180170D01*
X33419154Y-90121556D01*
X33597209Y-90026384D01*
X33597215Y-90026379D01*
X33753292Y-89898292D01*
X33881379Y-89742215D01*
X33881384Y-89742209D01*
X33976557Y-89564153D01*
X34020285Y-89420000D01*
X33288192Y-89420000D01*
X33221153Y-89400315D01*
X33175398Y-89347511D01*
X33165454Y-89278353D01*
X33167987Y-89265559D01*
X33168551Y-89263329D01*
X33173264Y-89206458D01*
X33178886Y-89138605D01*
X33162637Y-89074438D01*
X33165262Y-89004619D01*
X33205219Y-88947302D01*
X33269820Y-88920686D01*
X33282843Y-88920000D01*
X34020285Y-88920000D01*
X33976557Y-88775848D01*
X33883691Y-88602110D01*
X33869449Y-88533707D01*
X33887055Y-88483104D01*
X33885610Y-88482332D01*
X33888480Y-88476962D01*
X33888482Y-88476960D01*
X33984450Y-88297417D01*
X34043546Y-88102601D01*
X34063501Y-87900000D01*
X34043546Y-87697399D01*
X33985523Y-87506123D01*
X33984901Y-87436260D01*
X33998028Y-87409748D01*
X33996638Y-87408989D01*
X34000886Y-87401207D01*
X34000889Y-87401204D01*
X34051989Y-87264201D01*
X34055591Y-87230692D01*
X34058499Y-87203654D01*
X34058500Y-87203637D01*
X34058500Y-86056362D01*
X34058499Y-86056345D01*
X34055157Y-86025270D01*
X34051989Y-85995799D01*
X34051462Y-85994387D01*
X34027506Y-85930159D01*
X34000889Y-85858796D01*
X33913261Y-85741739D01*
X33796204Y-85654111D01*
X33796204Y-85654110D01*
X33659203Y-85603011D01*
X33598654Y-85596500D01*
X33598638Y-85596500D01*
X32001362Y-85596500D01*
X32001345Y-85596500D01*
X31940797Y-85603011D01*
X31940795Y-85603011D01*
X31803795Y-85654111D01*
X31686739Y-85741739D01*
X31599111Y-85858795D01*
X31548011Y-85995795D01*
X31548011Y-85995797D01*
X31541500Y-86056345D01*
X31541500Y-87203654D01*
X31548011Y-87264202D01*
X31548011Y-87264204D01*
X31583505Y-87359363D01*
X31599111Y-87401204D01*
X31599115Y-87401209D01*
X31603362Y-87408988D01*
X31600564Y-87410515D01*
X31619499Y-87461300D01*
X31614475Y-87506126D01*
X31556453Y-87697400D01*
X31536499Y-87900000D01*
X29858499Y-87900000D01*
X29858499Y-82170000D01*
X31536499Y-82170000D01*
X31556453Y-82372599D01*
X31576152Y-82437539D01*
X31615550Y-82567417D01*
X31615551Y-82567420D01*
X31615552Y-82567421D01*
X31615553Y-82567424D01*
X31714389Y-82752333D01*
X31712701Y-82753235D01*
X31730929Y-82811433D01*
X31716307Y-82872109D01*
X31623442Y-83045846D01*
X31579715Y-83190000D01*
X32311808Y-83190000D01*
X32378847Y-83209685D01*
X32424602Y-83262489D01*
X32434546Y-83331647D01*
X32432013Y-83344441D01*
X32431448Y-83346670D01*
X32421113Y-83471392D01*
X32421113Y-83471395D01*
X32421114Y-83471395D01*
X32437362Y-83535559D01*
X32437363Y-83535560D01*
X32434738Y-83605381D01*
X32394781Y-83662698D01*
X32330180Y-83689314D01*
X32317157Y-83690000D01*
X31579715Y-83690000D01*
X31623442Y-83834153D01*
X31718615Y-84012209D01*
X31718620Y-84012215D01*
X31846707Y-84168292D01*
X32002784Y-84296379D01*
X32002790Y-84296384D01*
X32180845Y-84391556D01*
X32374067Y-84450170D01*
X32524642Y-84465000D01*
X32550000Y-84465000D01*
X32550000Y-83924330D01*
X32569685Y-83857291D01*
X32622489Y-83811536D01*
X32691647Y-83801592D01*
X32714262Y-83807048D01*
X32737424Y-83815000D01*
X32831072Y-83815000D01*
X32831073Y-83815000D01*
X32905592Y-83802565D01*
X32974955Y-83810947D01*
X33028777Y-83855500D01*
X33049968Y-83922078D01*
X33050000Y-83924874D01*
X33050000Y-84465000D01*
X33075358Y-84465000D01*
X33225932Y-84450170D01*
X33419154Y-84391556D01*
X33597209Y-84296384D01*
X33597215Y-84296379D01*
X33753292Y-84168292D01*
X33881379Y-84012215D01*
X33881384Y-84012209D01*
X33976557Y-83834153D01*
X34020285Y-83690000D01*
X33288192Y-83690000D01*
X33221153Y-83670315D01*
X33175398Y-83617511D01*
X33165454Y-83548353D01*
X33167987Y-83535559D01*
X33168551Y-83533329D01*
X33178886Y-83408605D01*
X33163202Y-83346670D01*
X33162637Y-83344438D01*
X33165262Y-83274619D01*
X33205219Y-83217302D01*
X33269820Y-83190686D01*
X33282843Y-83190000D01*
X34020285Y-83190000D01*
X33976557Y-83045848D01*
X33883691Y-82872110D01*
X33869449Y-82803707D01*
X33887055Y-82753104D01*
X33885610Y-82752332D01*
X33888480Y-82746962D01*
X33888482Y-82746960D01*
X33984450Y-82567417D01*
X34043546Y-82372601D01*
X34063501Y-82170000D01*
X34043546Y-81967399D01*
X33985523Y-81776123D01*
X33984901Y-81706260D01*
X33998028Y-81679748D01*
X33996638Y-81678989D01*
X34000886Y-81671207D01*
X34000889Y-81671204D01*
X34051989Y-81534201D01*
X34055666Y-81500000D01*
X34058499Y-81473654D01*
X34058500Y-81473637D01*
X34058500Y-80326362D01*
X34058499Y-80326345D01*
X34055157Y-80295270D01*
X34051989Y-80265799D01*
X34046604Y-80251362D01*
X34024014Y-80190795D01*
X34000889Y-80128796D01*
X33913261Y-80011739D01*
X33796204Y-79924111D01*
X33796203Y-79924110D01*
X33659203Y-79873011D01*
X33598654Y-79866500D01*
X33598638Y-79866500D01*
X32001362Y-79866500D01*
X32001345Y-79866500D01*
X31940797Y-79873011D01*
X31940795Y-79873011D01*
X31803795Y-79924111D01*
X31686739Y-80011739D01*
X31599111Y-80128795D01*
X31548011Y-80265795D01*
X31548011Y-80265797D01*
X31541500Y-80326345D01*
X31541500Y-81473654D01*
X31548011Y-81534202D01*
X31548011Y-81534204D01*
X31575836Y-81608803D01*
X31599111Y-81671204D01*
X31599115Y-81671209D01*
X31603362Y-81678988D01*
X31600564Y-81680515D01*
X31619499Y-81731300D01*
X31614475Y-81776126D01*
X31556453Y-81967400D01*
X31536499Y-82170000D01*
X29858499Y-82170000D01*
X29858499Y-78100001D01*
X35806502Y-78100001D01*
X35826456Y-78328081D01*
X35826457Y-78328089D01*
X35885714Y-78549238D01*
X35885718Y-78549249D01*
X35956445Y-78700923D01*
X35982477Y-78756749D01*
X36113802Y-78944300D01*
X36275700Y-79106198D01*
X36463251Y-79237523D01*
X36588091Y-79295736D01*
X36670750Y-79334281D01*
X36670752Y-79334281D01*
X36670757Y-79334284D01*
X36891913Y-79393543D01*
X37054832Y-79407796D01*
X37119998Y-79413498D01*
X37120000Y-79413498D01*
X37120002Y-79413498D01*
X37177021Y-79408509D01*
X37348087Y-79393543D01*
X37569243Y-79334284D01*
X37776749Y-79237523D01*
X37964300Y-79106198D01*
X38126198Y-78944300D01*
X38257523Y-78756749D01*
X38354284Y-78549243D01*
X38413543Y-78328087D01*
X38433498Y-78100000D01*
X38413543Y-77871913D01*
X38354284Y-77650757D01*
X38257523Y-77443251D01*
X38126198Y-77255700D01*
X37964300Y-77093802D01*
X37776749Y-76962477D01*
X37776745Y-76962475D01*
X37569249Y-76865718D01*
X37569238Y-76865714D01*
X37348089Y-76806457D01*
X37348081Y-76806456D01*
X37120002Y-76786502D01*
X37119998Y-76786502D01*
X36891918Y-76806456D01*
X36891910Y-76806457D01*
X36670761Y-76865714D01*
X36670750Y-76865718D01*
X36463254Y-76962475D01*
X36463252Y-76962476D01*
X36463249Y-76962477D01*
X36463251Y-76962477D01*
X36275700Y-77093802D01*
X36275698Y-77093803D01*
X36275695Y-77093806D01*
X36113806Y-77255695D01*
X35982476Y-77443252D01*
X35982475Y-77443254D01*
X35885718Y-77650750D01*
X35885714Y-77650761D01*
X35826457Y-77871910D01*
X35826456Y-77871918D01*
X35806502Y-78099998D01*
X35806502Y-78100001D01*
X29858499Y-78100001D01*
X29858499Y-73600002D01*
X31495034Y-73600002D01*
X31514858Y-73826599D01*
X31514860Y-73826610D01*
X31573730Y-74046317D01*
X31573734Y-74046326D01*
X31669865Y-74252481D01*
X31669866Y-74252483D01*
X31720973Y-74325471D01*
X31720973Y-74325472D01*
X32262580Y-73783865D01*
X32323903Y-73750380D01*
X32393594Y-73755364D01*
X32449528Y-73797235D01*
X32460742Y-73815246D01*
X32466527Y-73826599D01*
X32472358Y-73838044D01*
X32472363Y-73838050D01*
X32561949Y-73927636D01*
X32561951Y-73927637D01*
X32561955Y-73927641D01*
X32584747Y-73939254D01*
X32635542Y-73987228D01*
X32652337Y-74055049D01*
X32629799Y-74121184D01*
X32616132Y-74137419D01*
X32074526Y-74679025D01*
X32074526Y-74679026D01*
X32147512Y-74730131D01*
X32147516Y-74730133D01*
X32353673Y-74826265D01*
X32353682Y-74826269D01*
X32573389Y-74885139D01*
X32573400Y-74885141D01*
X32799998Y-74904966D01*
X32800002Y-74904966D01*
X33026599Y-74885141D01*
X33026610Y-74885139D01*
X33246317Y-74826269D01*
X33246331Y-74826264D01*
X33452478Y-74730136D01*
X33525472Y-74679025D01*
X32983866Y-74137419D01*
X32950381Y-74076096D01*
X32955365Y-74006404D01*
X32997237Y-73950471D01*
X33015245Y-73939258D01*
X33038045Y-73927641D01*
X33127641Y-73838045D01*
X33139254Y-73815252D01*
X33187225Y-73764458D01*
X33255046Y-73747661D01*
X33321181Y-73770197D01*
X33337419Y-73783866D01*
X33879025Y-74325472D01*
X33930136Y-74252478D01*
X34026264Y-74046331D01*
X34026269Y-74046317D01*
X34085139Y-73826610D01*
X34085141Y-73826599D01*
X34104966Y-73600002D01*
X34104966Y-73599997D01*
X34085141Y-73373400D01*
X34085139Y-73373389D01*
X34026269Y-73153682D01*
X34026265Y-73153673D01*
X33930133Y-72947516D01*
X33930131Y-72947512D01*
X33879026Y-72874526D01*
X33879025Y-72874526D01*
X33337419Y-73416132D01*
X33276096Y-73449617D01*
X33206404Y-73444633D01*
X33150471Y-73402761D01*
X33139256Y-73384751D01*
X33127641Y-73361955D01*
X33127637Y-73361951D01*
X33127636Y-73361949D01*
X33038050Y-73272363D01*
X33038044Y-73272358D01*
X33028109Y-73267296D01*
X33015250Y-73260744D01*
X32964456Y-73212773D01*
X32947660Y-73144952D01*
X32970197Y-73078817D01*
X32983865Y-73062580D01*
X33525472Y-72520973D01*
X33452483Y-72469866D01*
X33452481Y-72469865D01*
X33246326Y-72373734D01*
X33246317Y-72373730D01*
X33026610Y-72314860D01*
X33026599Y-72314858D01*
X32800002Y-72295034D01*
X32799998Y-72295034D01*
X32573400Y-72314858D01*
X32573389Y-72314860D01*
X32353682Y-72373730D01*
X32353673Y-72373734D01*
X32147513Y-72469868D01*
X32074526Y-72520973D01*
X32616133Y-73062580D01*
X32649618Y-73123903D01*
X32644634Y-73193595D01*
X32602762Y-73249528D01*
X32584748Y-73260745D01*
X32561956Y-73272358D01*
X32561949Y-73272363D01*
X32472363Y-73361949D01*
X32472358Y-73361956D01*
X32460745Y-73384748D01*
X32412770Y-73435544D01*
X32344949Y-73452338D01*
X32278814Y-73429800D01*
X32262580Y-73416133D01*
X31720973Y-72874526D01*
X31669868Y-72947513D01*
X31573734Y-73153673D01*
X31573730Y-73153682D01*
X31514860Y-73373389D01*
X31514858Y-73373400D01*
X31495034Y-73599997D01*
X31495034Y-73600002D01*
X29858499Y-73600002D01*
X29858499Y-70897775D01*
X29878184Y-70830736D01*
X29894813Y-70810099D01*
X31469766Y-69235146D01*
X31531087Y-69201663D01*
X31600779Y-69206647D01*
G37*
G04 #@! TD.AperFunction*
G04 #@! TA.AperFunction,Conductor*
G36*
X47377938Y-67644852D02*
G01*
X47416188Y-67703322D01*
X47421499Y-67739222D01*
X47421498Y-73463559D01*
X47401813Y-73530598D01*
X47349009Y-73576353D01*
X47286693Y-73587087D01*
X47280005Y-73586502D01*
X47279998Y-73586502D01*
X47051918Y-73606456D01*
X47051910Y-73606457D01*
X46830761Y-73665714D01*
X46830750Y-73665718D01*
X46623254Y-73762475D01*
X46623252Y-73762476D01*
X46552856Y-73811767D01*
X46435700Y-73893802D01*
X46435698Y-73893803D01*
X46435695Y-73893806D01*
X46273806Y-74055695D01*
X46273803Y-74055698D01*
X46273802Y-74055700D01*
X46180726Y-74188625D01*
X46126150Y-74232249D01*
X46079153Y-74241500D01*
X39214121Y-74241500D01*
X39147082Y-74221815D01*
X39126440Y-74205181D01*
X38341440Y-73420181D01*
X38307955Y-73358858D01*
X38312939Y-73289166D01*
X38354811Y-73233233D01*
X38420275Y-73208816D01*
X38429121Y-73208500D01*
X39038638Y-73208500D01*
X39038654Y-73208499D01*
X39065692Y-73205591D01*
X39099201Y-73201989D01*
X39236204Y-73150889D01*
X39353261Y-73063261D01*
X39440889Y-72946204D01*
X39491989Y-72809201D01*
X39495591Y-72775692D01*
X39498499Y-72748654D01*
X39498500Y-72748637D01*
X39498500Y-71900001D01*
X44496502Y-71900001D01*
X44516456Y-72128081D01*
X44516457Y-72128089D01*
X44575714Y-72349238D01*
X44575718Y-72349249D01*
X44645853Y-72499654D01*
X44672477Y-72556749D01*
X44803802Y-72744300D01*
X44965700Y-72906198D01*
X45153251Y-73037523D01*
X45208445Y-73063260D01*
X45360750Y-73134281D01*
X45360752Y-73134281D01*
X45360757Y-73134284D01*
X45581913Y-73193543D01*
X45744832Y-73207796D01*
X45809998Y-73213498D01*
X45810000Y-73213498D01*
X45810002Y-73213498D01*
X45867139Y-73208499D01*
X46038087Y-73193543D01*
X46259243Y-73134284D01*
X46466749Y-73037523D01*
X46654300Y-72906198D01*
X46816198Y-72744300D01*
X46947523Y-72556749D01*
X47044284Y-72349243D01*
X47103543Y-72128087D01*
X47120647Y-71932583D01*
X47123498Y-71900001D01*
X47123498Y-71899998D01*
X47103543Y-71671918D01*
X47103543Y-71671913D01*
X47044284Y-71450757D01*
X46947523Y-71243251D01*
X46816198Y-71055700D01*
X46654300Y-70893802D01*
X46466749Y-70762477D01*
X46466745Y-70762475D01*
X46259249Y-70665718D01*
X46259238Y-70665714D01*
X46038089Y-70606457D01*
X46038081Y-70606456D01*
X45810002Y-70586502D01*
X45809998Y-70586502D01*
X45581918Y-70606456D01*
X45581910Y-70606457D01*
X45360761Y-70665714D01*
X45360750Y-70665718D01*
X45153254Y-70762475D01*
X45153252Y-70762476D01*
X45153249Y-70762477D01*
X45153251Y-70762477D01*
X44965700Y-70893802D01*
X44965698Y-70893803D01*
X44965695Y-70893806D01*
X44803806Y-71055695D01*
X44803803Y-71055698D01*
X44803802Y-71055700D01*
X44787581Y-71078866D01*
X44672476Y-71243252D01*
X44672475Y-71243254D01*
X44575718Y-71450750D01*
X44575714Y-71450761D01*
X44516457Y-71671910D01*
X44516456Y-71671918D01*
X44496502Y-71899998D01*
X44496502Y-71900001D01*
X39498500Y-71900001D01*
X39498500Y-71432500D01*
X39518185Y-71365461D01*
X39570989Y-71319706D01*
X39622500Y-71308500D01*
X39695487Y-71308500D01*
X39882288Y-71268794D01*
X40056752Y-71191118D01*
X40206689Y-71082181D01*
X40272494Y-71058702D01*
X40279574Y-71058500D01*
X43679955Y-71058500D01*
X43696092Y-71060281D01*
X43696114Y-71060054D01*
X43703880Y-71060788D01*
X43703882Y-71060787D01*
X43703883Y-71060788D01*
X43776688Y-71058500D01*
X43807778Y-71058500D01*
X43815168Y-71057566D01*
X43820997Y-71057107D01*
X43870177Y-71055562D01*
X43890929Y-71049532D01*
X43909967Y-71045590D01*
X43931410Y-71042882D01*
X43977180Y-71024760D01*
X43982694Y-71022873D01*
X44009221Y-71015165D01*
X44029946Y-71009145D01*
X44048542Y-70998146D01*
X44066010Y-70989589D01*
X44086102Y-70981635D01*
X44125928Y-70952698D01*
X44130787Y-70949506D01*
X44173153Y-70924453D01*
X44188436Y-70909168D01*
X44203219Y-70896542D01*
X44220703Y-70883841D01*
X44252078Y-70845913D01*
X44255982Y-70841622D01*
X46004540Y-69093063D01*
X46017209Y-69082915D01*
X46017063Y-69082739D01*
X46023069Y-69077768D01*
X46023080Y-69077762D01*
X46072960Y-69024644D01*
X46094926Y-69002679D01*
X46099488Y-68996797D01*
X46103280Y-68992356D01*
X46136972Y-68956479D01*
X46147375Y-68937554D01*
X46158061Y-68921286D01*
X46171304Y-68904215D01*
X46190850Y-68859045D01*
X46193410Y-68853816D01*
X46217124Y-68810683D01*
X46222496Y-68789755D01*
X46228796Y-68771355D01*
X46237379Y-68751523D01*
X46245077Y-68702917D01*
X46246257Y-68697211D01*
X46258500Y-68649534D01*
X46258500Y-68627927D01*
X46260027Y-68608526D01*
X46263406Y-68587195D01*
X46258775Y-68538204D01*
X46258500Y-68532366D01*
X46258500Y-67762365D01*
X46278185Y-67695326D01*
X46330989Y-67649571D01*
X46400147Y-67639627D01*
X46414594Y-67642590D01*
X46573392Y-67685140D01*
X46573400Y-67685141D01*
X46799998Y-67704966D01*
X46800002Y-67704966D01*
X47026599Y-67685141D01*
X47026610Y-67685139D01*
X47246317Y-67626269D01*
X47251406Y-67624417D01*
X47251913Y-67625809D01*
X47314148Y-67616345D01*
X47377938Y-67644852D01*
G37*
G04 #@! TD.AperFunction*
G04 #@! TA.AperFunction,Conductor*
G36*
X30577512Y-67379507D02*
G01*
X30630315Y-67425262D01*
X30650000Y-67492301D01*
X30650000Y-68141031D01*
X30630315Y-68208070D01*
X30613681Y-68228712D01*
X29312180Y-69530213D01*
X29250857Y-69563698D01*
X29181165Y-69558714D01*
X29125232Y-69516842D01*
X29100815Y-69451378D01*
X29100499Y-69442532D01*
X29100499Y-68608526D01*
X29100499Y-67771045D01*
X29120183Y-67704011D01*
X29172986Y-67658256D01*
X29242145Y-67648312D01*
X29305701Y-67677337D01*
X29326072Y-67699925D01*
X29361892Y-67751080D01*
X29528917Y-67918105D01*
X29722421Y-68053600D01*
X29936507Y-68153429D01*
X29936516Y-68153433D01*
X30150000Y-68210634D01*
X30150000Y-67492301D01*
X30169685Y-67425262D01*
X30222489Y-67379507D01*
X30291647Y-67369563D01*
X30364237Y-67380000D01*
X30364238Y-67380000D01*
X30435762Y-67380000D01*
X30435763Y-67380000D01*
X30508353Y-67369563D01*
X30577512Y-67379507D01*
G37*
G04 #@! TD.AperFunction*
G04 #@! TA.AperFunction,Conductor*
G36*
X45666192Y-62078185D02*
G01*
X45700725Y-62111373D01*
X45793802Y-62244300D01*
X45955700Y-62406198D01*
X46143251Y-62537523D01*
X46251970Y-62588219D01*
X46350750Y-62634281D01*
X46350752Y-62634281D01*
X46350757Y-62634284D01*
X46571913Y-62693543D01*
X46734832Y-62707796D01*
X46799998Y-62713498D01*
X46800000Y-62713498D01*
X46800002Y-62713498D01*
X46857021Y-62708509D01*
X47028087Y-62693543D01*
X47249243Y-62634284D01*
X47249251Y-62634280D01*
X47254324Y-62632434D01*
X47255150Y-62634704D01*
X47314100Y-62625716D01*
X47377901Y-62654199D01*
X47416174Y-62712653D01*
X47421499Y-62748600D01*
X47421499Y-65060777D01*
X47401814Y-65127816D01*
X47349010Y-65173571D01*
X47279852Y-65183515D01*
X47251584Y-65175093D01*
X47251406Y-65175583D01*
X47246317Y-65173730D01*
X47026610Y-65114860D01*
X47026599Y-65114858D01*
X46800002Y-65095034D01*
X46799998Y-65095034D01*
X46573400Y-65114858D01*
X46573389Y-65114860D01*
X46414593Y-65157409D01*
X46344743Y-65155746D01*
X46286881Y-65116583D01*
X46259377Y-65052354D01*
X46258500Y-65037634D01*
X46258500Y-64473991D01*
X46278185Y-64406952D01*
X46290351Y-64391018D01*
X46339040Y-64336944D01*
X46434527Y-64171556D01*
X46493542Y-63989928D01*
X46513504Y-63800000D01*
X46493542Y-63610072D01*
X46434527Y-63428444D01*
X46339040Y-63263056D01*
X46211253Y-63121134D01*
X46056752Y-63008882D01*
X45882288Y-62931206D01*
X45882286Y-62931205D01*
X45695487Y-62891500D01*
X45504513Y-62891500D01*
X45317714Y-62931205D01*
X45143246Y-63008883D01*
X44988745Y-63121135D01*
X44860959Y-63263057D01*
X44765473Y-63428443D01*
X44765470Y-63428450D01*
X44727270Y-63546019D01*
X44706458Y-63610072D01*
X44686496Y-63800000D01*
X44706458Y-63989928D01*
X44706459Y-63989931D01*
X44765470Y-64171549D01*
X44765473Y-64171556D01*
X44860959Y-64336943D01*
X44909649Y-64391018D01*
X44939880Y-64454010D01*
X44941500Y-64473991D01*
X44941500Y-68132720D01*
X44921815Y-68199759D01*
X44869011Y-68245514D01*
X44799853Y-68255458D01*
X44736297Y-68226433D01*
X44715927Y-68203847D01*
X44626198Y-68075700D01*
X44464300Y-67913802D01*
X44276749Y-67782477D01*
X44252244Y-67771050D01*
X44069249Y-67685718D01*
X44069238Y-67685714D01*
X43848089Y-67626457D01*
X43848081Y-67626456D01*
X43620002Y-67606502D01*
X43619998Y-67606502D01*
X43391918Y-67626456D01*
X43391910Y-67626457D01*
X43170761Y-67685714D01*
X43170750Y-67685718D01*
X42963254Y-67782475D01*
X42963252Y-67782476D01*
X42963249Y-67782477D01*
X42963251Y-67782477D01*
X42775700Y-67913802D01*
X42775698Y-67913803D01*
X42775695Y-67913806D01*
X42613806Y-68075695D01*
X42482476Y-68263251D01*
X42462382Y-68306345D01*
X42416209Y-68358784D01*
X42349016Y-68377936D01*
X42282135Y-68357720D01*
X42237618Y-68306345D01*
X42217523Y-68263251D01*
X42193338Y-68228712D01*
X42086198Y-68075700D01*
X41924300Y-67913802D01*
X41736749Y-67782477D01*
X41712244Y-67771050D01*
X41529249Y-67685718D01*
X41529238Y-67685714D01*
X41308089Y-67626457D01*
X41308081Y-67626456D01*
X41080002Y-67606502D01*
X41079998Y-67606502D01*
X40851918Y-67626456D01*
X40851910Y-67626457D01*
X40630761Y-67685714D01*
X40630750Y-67685718D01*
X40423254Y-67782475D01*
X40423252Y-67782476D01*
X40423249Y-67782477D01*
X40423251Y-67782477D01*
X40235700Y-67913802D01*
X40235698Y-67913803D01*
X40235695Y-67913806D01*
X40073806Y-68075695D01*
X39942476Y-68263251D01*
X39922382Y-68306345D01*
X39876209Y-68358784D01*
X39809016Y-68377936D01*
X39742135Y-68357720D01*
X39697618Y-68306345D01*
X39677523Y-68263251D01*
X39653338Y-68228712D01*
X39546198Y-68075700D01*
X39384300Y-67913802D01*
X39196749Y-67782477D01*
X39172244Y-67771050D01*
X38989249Y-67685718D01*
X38989238Y-67685714D01*
X38768089Y-67626457D01*
X38768081Y-67626456D01*
X38534607Y-67606030D01*
X38534804Y-67603767D01*
X38477080Y-67586817D01*
X38431325Y-67534013D01*
X38421381Y-67464855D01*
X38450406Y-67401299D01*
X38456438Y-67394821D01*
X39648839Y-66202420D01*
X43235453Y-62615804D01*
X43296774Y-62582321D01*
X43355227Y-62583713D01*
X43391905Y-62593541D01*
X43391906Y-62593541D01*
X43391913Y-62593543D01*
X43586031Y-62610526D01*
X43619998Y-62613498D01*
X43620000Y-62613498D01*
X43620002Y-62613498D01*
X43677139Y-62608499D01*
X43848087Y-62593543D01*
X44069243Y-62534284D01*
X44276749Y-62437523D01*
X44464300Y-62306198D01*
X44626198Y-62144300D01*
X44649252Y-62111374D01*
X44703829Y-62067751D01*
X44750826Y-62058500D01*
X45599153Y-62058500D01*
X45666192Y-62078185D01*
G37*
G04 #@! TD.AperFunction*
G04 #@! TA.AperFunction,Conductor*
G36*
X35041291Y-34520185D02*
G01*
X35087046Y-34572989D01*
X35096990Y-34642147D01*
X35075827Y-34695622D01*
X35057834Y-34721318D01*
X35042477Y-34743250D01*
X35042475Y-34743254D01*
X34945718Y-34950750D01*
X34945714Y-34950761D01*
X34886457Y-35171910D01*
X34886456Y-35171918D01*
X34866502Y-35399998D01*
X34866502Y-35400001D01*
X34886456Y-35628081D01*
X34886457Y-35628089D01*
X34945714Y-35849238D01*
X34945718Y-35849249D01*
X35022382Y-36013655D01*
X35042477Y-36056749D01*
X35173802Y-36244300D01*
X35335700Y-36406198D01*
X35523251Y-36537523D01*
X35648091Y-36595736D01*
X35730750Y-36634281D01*
X35730752Y-36634281D01*
X35730757Y-36634284D01*
X35951913Y-36693543D01*
X36114832Y-36707796D01*
X36179998Y-36713498D01*
X36180000Y-36713498D01*
X36180002Y-36713498D01*
X36237021Y-36708509D01*
X36408087Y-36693543D01*
X36629243Y-36634284D01*
X36836749Y-36537523D01*
X37024300Y-36406198D01*
X37186198Y-36244300D01*
X37317523Y-36056749D01*
X37337617Y-36013655D01*
X37383790Y-35961215D01*
X37450983Y-35942063D01*
X37517864Y-35962278D01*
X37562382Y-36013655D01*
X37582477Y-36056749D01*
X37713802Y-36244300D01*
X37875700Y-36406198D01*
X38063251Y-36537523D01*
X38188091Y-36595736D01*
X38270750Y-36634281D01*
X38270752Y-36634281D01*
X38270757Y-36634284D01*
X38491913Y-36693543D01*
X38654832Y-36707796D01*
X38719998Y-36713498D01*
X38720000Y-36713498D01*
X38720002Y-36713498D01*
X38751614Y-36710732D01*
X38948087Y-36693543D01*
X38984771Y-36683713D01*
X39054618Y-36685374D01*
X39104546Y-36715806D01*
X41715181Y-39326441D01*
X41748666Y-39387764D01*
X41751500Y-39414122D01*
X41751500Y-41635438D01*
X41731815Y-41702477D01*
X41679011Y-41748232D01*
X41609853Y-41758176D01*
X41595407Y-41755213D01*
X41488092Y-41726458D01*
X41488088Y-41726457D01*
X41488087Y-41726457D01*
X41488086Y-41726456D01*
X41488081Y-41726456D01*
X41260002Y-41706502D01*
X41259998Y-41706502D01*
X41031918Y-41726456D01*
X41031910Y-41726457D01*
X40810761Y-41785714D01*
X40810750Y-41785718D01*
X40603254Y-41882475D01*
X40603252Y-41882476D01*
X40603249Y-41882477D01*
X40603251Y-41882477D01*
X40415700Y-42013802D01*
X40415698Y-42013803D01*
X40415695Y-42013806D01*
X40253806Y-42175695D01*
X40122476Y-42363251D01*
X40102382Y-42406345D01*
X40056209Y-42458784D01*
X39989016Y-42477936D01*
X39922135Y-42457720D01*
X39877618Y-42406345D01*
X39857523Y-42363251D01*
X39857523Y-42363250D01*
X39726198Y-42175700D01*
X39564300Y-42013802D01*
X39376749Y-41882477D01*
X39376745Y-41882475D01*
X39169249Y-41785718D01*
X39169238Y-41785714D01*
X38948089Y-41726457D01*
X38948081Y-41726456D01*
X38720002Y-41706502D01*
X38719998Y-41706502D01*
X38491918Y-41726456D01*
X38491910Y-41726457D01*
X38270761Y-41785714D01*
X38270750Y-41785718D01*
X38063254Y-41882475D01*
X38063252Y-41882476D01*
X38063249Y-41882477D01*
X38063251Y-41882477D01*
X37875700Y-42013802D01*
X37875698Y-42013803D01*
X37875695Y-42013806D01*
X37713806Y-42175695D01*
X37582476Y-42363251D01*
X37562382Y-42406345D01*
X37516209Y-42458784D01*
X37449016Y-42477936D01*
X37382135Y-42457720D01*
X37337618Y-42406345D01*
X37317523Y-42363251D01*
X37186198Y-42175700D01*
X37024300Y-42013802D01*
X36836749Y-41882477D01*
X36836745Y-41882475D01*
X36629249Y-41785718D01*
X36629238Y-41785714D01*
X36408089Y-41726457D01*
X36408081Y-41726456D01*
X36180002Y-41706502D01*
X36179998Y-41706502D01*
X35951918Y-41726456D01*
X35951910Y-41726457D01*
X35730761Y-41785714D01*
X35730750Y-41785718D01*
X35523254Y-41882475D01*
X35523252Y-41882476D01*
X35523249Y-41882477D01*
X35523251Y-41882477D01*
X35335700Y-42013802D01*
X35335698Y-42013803D01*
X35335695Y-42013806D01*
X35173806Y-42175695D01*
X35042476Y-42363252D01*
X35042475Y-42363254D01*
X34945718Y-42570750D01*
X34945714Y-42570761D01*
X34886457Y-42791910D01*
X34886456Y-42791918D01*
X34866502Y-43019998D01*
X34866502Y-43020001D01*
X34886456Y-43248081D01*
X34886457Y-43248089D01*
X34945714Y-43469238D01*
X34945718Y-43469249D01*
X35022382Y-43633655D01*
X35042477Y-43676749D01*
X35173802Y-43864300D01*
X35335700Y-44026198D01*
X35523251Y-44157523D01*
X35648091Y-44215736D01*
X35730750Y-44254281D01*
X35730752Y-44254281D01*
X35730757Y-44254284D01*
X35951913Y-44313543D01*
X36114832Y-44327796D01*
X36179998Y-44333498D01*
X36180000Y-44333498D01*
X36180002Y-44333498D01*
X36237021Y-44328509D01*
X36408087Y-44313543D01*
X36629243Y-44254284D01*
X36836749Y-44157523D01*
X37024300Y-44026198D01*
X37186198Y-43864300D01*
X37317523Y-43676749D01*
X37337617Y-43633655D01*
X37383790Y-43581215D01*
X37450983Y-43562063D01*
X37517864Y-43582278D01*
X37562382Y-43633655D01*
X37582477Y-43676749D01*
X37713802Y-43864300D01*
X37875700Y-44026198D01*
X38063251Y-44157523D01*
X38188091Y-44215736D01*
X38270750Y-44254281D01*
X38270752Y-44254281D01*
X38270757Y-44254284D01*
X38491913Y-44313543D01*
X38658878Y-44328150D01*
X38725393Y-44333970D01*
X38725195Y-44336233D01*
X38782919Y-44353183D01*
X38828674Y-44405987D01*
X38838618Y-44475145D01*
X38809593Y-44538701D01*
X38803561Y-44545179D01*
X36985453Y-46363285D01*
X36972785Y-46373435D01*
X36972931Y-46373611D01*
X36966920Y-46378583D01*
X36917053Y-46431686D01*
X36895072Y-46453667D01*
X36890492Y-46459569D01*
X36886708Y-46463998D01*
X36853029Y-46499865D01*
X36853024Y-46499872D01*
X36842618Y-46518800D01*
X36831942Y-46535054D01*
X36818695Y-46552133D01*
X36799150Y-46597297D01*
X36796580Y-46602543D01*
X36772876Y-46645661D01*
X36767502Y-46666589D01*
X36761203Y-46684987D01*
X36752619Y-46704825D01*
X36744923Y-46753420D01*
X36743738Y-46759143D01*
X36731500Y-46806809D01*
X36731500Y-46828413D01*
X36729974Y-46847808D01*
X36726594Y-46869151D01*
X36731225Y-46918143D01*
X36731500Y-46923981D01*
X36731500Y-59867500D01*
X36711815Y-59934539D01*
X36659011Y-59980294D01*
X36607500Y-59991500D01*
X35151345Y-59991500D01*
X35090797Y-59998011D01*
X35090795Y-59998011D01*
X34953795Y-60049111D01*
X34836739Y-60136739D01*
X34749111Y-60253795D01*
X34698011Y-60390795D01*
X34698011Y-60390797D01*
X34691500Y-60451345D01*
X34691500Y-62148654D01*
X34698011Y-62209202D01*
X34698011Y-62209204D01*
X34734189Y-62306198D01*
X34749111Y-62346204D01*
X34836739Y-62463261D01*
X34953796Y-62550889D01*
X35090799Y-62601989D01*
X35118050Y-62604918D01*
X35151345Y-62608499D01*
X35151362Y-62608500D01*
X36607500Y-62608500D01*
X36674539Y-62628185D01*
X36720294Y-62680989D01*
X36731500Y-62732500D01*
X36731500Y-63137114D01*
X36711815Y-63204153D01*
X36699650Y-63220086D01*
X36660959Y-63263056D01*
X36565473Y-63428443D01*
X36565470Y-63428450D01*
X36527270Y-63546019D01*
X36506458Y-63610072D01*
X36486496Y-63800000D01*
X36506458Y-63989928D01*
X36506459Y-63989931D01*
X36565470Y-64171549D01*
X36565473Y-64171556D01*
X36660960Y-64336944D01*
X36741499Y-64426392D01*
X36784357Y-64473991D01*
X36788747Y-64478866D01*
X36943248Y-64591118D01*
X37117712Y-64668794D01*
X37304513Y-64708500D01*
X37495487Y-64708500D01*
X37682288Y-64668794D01*
X37856752Y-64591118D01*
X38011253Y-64478866D01*
X38139040Y-64336944D01*
X38234527Y-64171556D01*
X38293542Y-63989928D01*
X38313504Y-63800000D01*
X38293542Y-63610072D01*
X38234527Y-63428444D01*
X38139040Y-63263056D01*
X38080350Y-63197874D01*
X38050120Y-63134882D01*
X38048500Y-63114902D01*
X38048500Y-62684561D01*
X38068185Y-62617522D01*
X38120989Y-62571767D01*
X38190147Y-62561823D01*
X38204582Y-62564783D01*
X38311913Y-62593543D01*
X38474832Y-62607796D01*
X38539998Y-62613498D01*
X38540000Y-62613498D01*
X38540002Y-62613498D01*
X38597139Y-62608499D01*
X38768087Y-62593543D01*
X38989243Y-62534284D01*
X39196749Y-62437523D01*
X39384300Y-62306198D01*
X39546198Y-62144300D01*
X39677523Y-61956749D01*
X39697617Y-61913655D01*
X39743790Y-61861215D01*
X39810983Y-61842063D01*
X39877864Y-61862278D01*
X39922382Y-61913655D01*
X39942477Y-61956749D01*
X40073802Y-62144300D01*
X40235700Y-62306198D01*
X40423251Y-62437523D01*
X40447418Y-62448792D01*
X40630750Y-62534281D01*
X40630752Y-62534281D01*
X40630757Y-62534284D01*
X40851913Y-62593543D01*
X41018878Y-62608150D01*
X41085393Y-62613970D01*
X41085194Y-62616233D01*
X41142918Y-62633183D01*
X41188673Y-62685987D01*
X41198617Y-62755145D01*
X41169592Y-62818701D01*
X41163560Y-62825179D01*
X37233559Y-66755181D01*
X37172236Y-66788666D01*
X37145878Y-66791500D01*
X32410045Y-66791500D01*
X32393902Y-66789717D01*
X32393881Y-66789945D01*
X32386119Y-66789211D01*
X32386117Y-66789211D01*
X32313294Y-66791500D01*
X32282222Y-66791500D01*
X32282218Y-66791500D01*
X32282208Y-66791501D01*
X32274821Y-66792434D01*
X32269004Y-66792891D01*
X32219828Y-66794437D01*
X32219817Y-66794439D01*
X32199076Y-66800464D01*
X32180036Y-66804407D01*
X32158600Y-66807116D01*
X32158585Y-66807119D01*
X32112832Y-66825233D01*
X32107308Y-66827124D01*
X32060053Y-66840855D01*
X32041462Y-66851850D01*
X32023993Y-66860408D01*
X32003900Y-66868364D01*
X32003899Y-66868364D01*
X32003898Y-66868365D01*
X31979295Y-66886239D01*
X31964087Y-66897289D01*
X31959204Y-66900496D01*
X31916846Y-66925546D01*
X31901567Y-66940826D01*
X31886781Y-66953455D01*
X31873450Y-66963141D01*
X31869294Y-66966161D01*
X31837926Y-67004078D01*
X31833993Y-67008399D01*
X31791352Y-67051039D01*
X31748710Y-67093682D01*
X31687390Y-67127166D01*
X31661031Y-67130000D01*
X31013347Y-67130000D01*
X30946308Y-67110315D01*
X30900553Y-67057511D01*
X30890609Y-66988353D01*
X30894369Y-66971067D01*
X30900000Y-66951888D01*
X30900000Y-66808111D01*
X30894369Y-66788933D01*
X30894370Y-66719064D01*
X30932145Y-66660286D01*
X30995701Y-66631262D01*
X31013347Y-66630000D01*
X31730636Y-66630000D01*
X31730635Y-66629999D01*
X31673432Y-66416513D01*
X31673429Y-66416507D01*
X31573600Y-66202422D01*
X31573599Y-66202420D01*
X31438113Y-66008926D01*
X31438108Y-66008920D01*
X31271082Y-65841894D01*
X31090197Y-65715236D01*
X31046572Y-65660659D01*
X31039380Y-65591160D01*
X31070902Y-65528806D01*
X31102300Y-65504608D01*
X31145576Y-65481189D01*
X31323240Y-65342906D01*
X31469601Y-65183917D01*
X31475715Y-65177276D01*
X31475718Y-65177272D01*
X31475722Y-65177268D01*
X31598860Y-64988791D01*
X31689296Y-64782616D01*
X31744564Y-64564368D01*
X31751649Y-64478866D01*
X31763156Y-64340005D01*
X31763156Y-64339994D01*
X31744565Y-64115640D01*
X31744563Y-64115628D01*
X31689296Y-63897385D01*
X31646579Y-63800000D01*
X31598860Y-63691209D01*
X31475722Y-63502732D01*
X31475719Y-63502729D01*
X31475715Y-63502723D01*
X31323243Y-63337097D01*
X31323238Y-63337092D01*
X31145577Y-63198812D01*
X31145572Y-63198808D01*
X31109068Y-63179053D01*
X31059478Y-63129833D01*
X31044371Y-63061616D01*
X31068542Y-62996061D01*
X31109069Y-62960945D01*
X31145576Y-62941189D01*
X31323240Y-62802906D01*
X31460136Y-62654199D01*
X31475715Y-62637276D01*
X31475716Y-62637274D01*
X31475722Y-62637268D01*
X31598860Y-62448791D01*
X31689296Y-62242616D01*
X31744564Y-62024368D01*
X31750167Y-61956749D01*
X31763156Y-61800005D01*
X31763156Y-61799994D01*
X31744565Y-61575640D01*
X31744563Y-61575628D01*
X31689296Y-61357385D01*
X31598859Y-61151207D01*
X31475723Y-60962734D01*
X31475715Y-60962723D01*
X31323243Y-60797097D01*
X31323238Y-60797092D01*
X31180951Y-60686345D01*
X31145576Y-60658811D01*
X31109070Y-60639055D01*
X31059479Y-60589836D01*
X31044371Y-60521619D01*
X31068541Y-60456064D01*
X31109070Y-60420945D01*
X31109084Y-60420936D01*
X31145576Y-60401189D01*
X31323240Y-60262906D01*
X31439386Y-60136739D01*
X31475715Y-60097276D01*
X31475716Y-60097274D01*
X31475722Y-60097268D01*
X31598860Y-59908791D01*
X31689296Y-59702616D01*
X31744564Y-59484368D01*
X31752090Y-59393543D01*
X31763156Y-59260005D01*
X31763156Y-59259994D01*
X31744565Y-59035640D01*
X31744563Y-59035628D01*
X31727692Y-58969008D01*
X31689296Y-58817384D01*
X31598860Y-58611209D01*
X31475722Y-58422732D01*
X31475719Y-58422729D01*
X31475715Y-58422723D01*
X31323243Y-58257097D01*
X31323238Y-58257092D01*
X31145577Y-58118812D01*
X31145572Y-58118808D01*
X31110820Y-58100001D01*
X32206502Y-58100001D01*
X32226456Y-58328081D01*
X32226457Y-58328089D01*
X32285714Y-58549238D01*
X32285718Y-58549249D01*
X32364186Y-58717524D01*
X32382477Y-58756749D01*
X32513802Y-58944300D01*
X32675700Y-59106198D01*
X32863251Y-59237523D01*
X32988091Y-59295736D01*
X33070750Y-59334281D01*
X33070752Y-59334281D01*
X33070757Y-59334284D01*
X33291913Y-59393543D01*
X33454832Y-59407796D01*
X33519998Y-59413498D01*
X33520000Y-59413498D01*
X33520002Y-59413498D01*
X33577021Y-59408509D01*
X33748087Y-59393543D01*
X33969243Y-59334284D01*
X34176749Y-59237523D01*
X34364300Y-59106198D01*
X34526198Y-58944300D01*
X34657523Y-58756749D01*
X34754284Y-58549243D01*
X34813543Y-58328087D01*
X34833498Y-58100000D01*
X34813543Y-57871913D01*
X34754284Y-57650757D01*
X34657523Y-57443251D01*
X34526198Y-57255700D01*
X34364300Y-57093802D01*
X34176749Y-56962477D01*
X34176745Y-56962475D01*
X33969249Y-56865718D01*
X33969238Y-56865714D01*
X33748089Y-56806457D01*
X33748081Y-56806456D01*
X33520002Y-56786502D01*
X33519998Y-56786502D01*
X33291918Y-56806456D01*
X33291910Y-56806457D01*
X33070761Y-56865714D01*
X33070750Y-56865718D01*
X32863254Y-56962475D01*
X32863252Y-56962476D01*
X32863249Y-56962477D01*
X32863251Y-56962477D01*
X32675700Y-57093802D01*
X32675698Y-57093803D01*
X32675695Y-57093806D01*
X32513806Y-57255695D01*
X32382476Y-57443252D01*
X32382475Y-57443254D01*
X32285718Y-57650750D01*
X32285714Y-57650761D01*
X32226457Y-57871910D01*
X32226456Y-57871918D01*
X32206502Y-58099998D01*
X32206502Y-58100001D01*
X31110820Y-58100001D01*
X31109068Y-58099053D01*
X31059478Y-58049833D01*
X31044371Y-57981616D01*
X31068542Y-57916061D01*
X31109069Y-57880945D01*
X31145576Y-57861189D01*
X31323240Y-57722906D01*
X31422614Y-57614957D01*
X31475715Y-57557276D01*
X31475716Y-57557274D01*
X31475722Y-57557268D01*
X31598860Y-57368791D01*
X31689296Y-57162616D01*
X31744564Y-56944368D01*
X31750387Y-56874095D01*
X31763156Y-56720005D01*
X31763156Y-56719994D01*
X31744565Y-56495640D01*
X31744563Y-56495628D01*
X31720850Y-56401988D01*
X31689296Y-56277384D01*
X31598860Y-56071209D01*
X31518791Y-55948654D01*
X32481500Y-55948654D01*
X32488011Y-56009202D01*
X32488011Y-56009204D01*
X32524189Y-56106198D01*
X32539111Y-56146204D01*
X32626739Y-56263261D01*
X32743796Y-56350889D01*
X32880799Y-56401989D01*
X32908050Y-56404918D01*
X32941345Y-56408499D01*
X32941362Y-56408500D01*
X34638638Y-56408500D01*
X34638654Y-56408499D01*
X34665692Y-56405591D01*
X34699201Y-56401989D01*
X34836204Y-56350889D01*
X34953261Y-56263261D01*
X35040889Y-56146204D01*
X35091989Y-56009201D01*
X35095591Y-55975692D01*
X35098499Y-55948654D01*
X35098500Y-55948637D01*
X35098500Y-54251362D01*
X35098499Y-54251345D01*
X35095157Y-54220270D01*
X35091989Y-54190799D01*
X35087961Y-54180000D01*
X35069522Y-54130564D01*
X35040889Y-54053796D01*
X34953261Y-53936739D01*
X34836204Y-53849111D01*
X34836203Y-53849110D01*
X34699203Y-53798011D01*
X34638654Y-53791500D01*
X34638638Y-53791500D01*
X32941362Y-53791500D01*
X32941345Y-53791500D01*
X32880797Y-53798011D01*
X32880795Y-53798011D01*
X32743795Y-53849111D01*
X32626739Y-53936739D01*
X32539111Y-54053795D01*
X32488011Y-54190795D01*
X32488011Y-54190797D01*
X32481500Y-54251345D01*
X32481500Y-55948654D01*
X31518791Y-55948654D01*
X31475722Y-55882732D01*
X31475719Y-55882729D01*
X31475715Y-55882723D01*
X31323243Y-55717097D01*
X31323238Y-55717092D01*
X31145577Y-55578812D01*
X31145578Y-55578812D01*
X31145576Y-55578811D01*
X31109070Y-55559055D01*
X31059479Y-55509836D01*
X31044371Y-55441619D01*
X31068541Y-55376064D01*
X31109070Y-55340945D01*
X31109084Y-55340936D01*
X31145576Y-55321189D01*
X31323240Y-55182906D01*
X31422614Y-55074957D01*
X31475715Y-55017276D01*
X31475716Y-55017274D01*
X31475722Y-55017268D01*
X31598860Y-54828791D01*
X31689296Y-54622616D01*
X31744564Y-54404368D01*
X31744565Y-54404359D01*
X31763156Y-54180005D01*
X31763156Y-54179994D01*
X31744565Y-53955640D01*
X31744563Y-53955628D01*
X31689296Y-53737385D01*
X31598859Y-53531207D01*
X31475723Y-53342734D01*
X31475715Y-53342723D01*
X31323243Y-53177097D01*
X31323238Y-53177092D01*
X31145577Y-53038812D01*
X31145578Y-53038812D01*
X31145576Y-53038811D01*
X31109070Y-53019055D01*
X31059479Y-52969836D01*
X31044371Y-52901619D01*
X31068541Y-52836064D01*
X31109070Y-52800945D01*
X31109084Y-52800936D01*
X31145576Y-52781189D01*
X31323240Y-52642906D01*
X31422614Y-52534957D01*
X31475715Y-52477276D01*
X31475716Y-52477274D01*
X31475722Y-52477268D01*
X31598860Y-52288791D01*
X31681670Y-52100001D01*
X32486502Y-52100001D01*
X32506456Y-52328081D01*
X32506457Y-52328089D01*
X32565714Y-52549238D01*
X32565718Y-52549249D01*
X32662475Y-52756745D01*
X32662477Y-52756749D01*
X32793802Y-52944300D01*
X32955700Y-53106198D01*
X33143251Y-53237523D01*
X33218498Y-53272611D01*
X33350750Y-53334281D01*
X33350752Y-53334281D01*
X33350757Y-53334284D01*
X33571913Y-53393543D01*
X33734832Y-53407796D01*
X33799998Y-53413498D01*
X33800000Y-53413498D01*
X33800002Y-53413498D01*
X33857021Y-53408509D01*
X34028087Y-53393543D01*
X34249243Y-53334284D01*
X34456749Y-53237523D01*
X34644300Y-53106198D01*
X34806198Y-52944300D01*
X34937523Y-52756749D01*
X35034284Y-52549243D01*
X35093543Y-52328087D01*
X35113498Y-52100000D01*
X35093543Y-51871913D01*
X35034284Y-51650757D01*
X35029270Y-51640005D01*
X34937524Y-51443254D01*
X34937523Y-51443252D01*
X34937523Y-51443251D01*
X34806198Y-51255700D01*
X34644300Y-51093802D01*
X34456749Y-50962477D01*
X34456745Y-50962475D01*
X34249249Y-50865718D01*
X34249238Y-50865714D01*
X34028089Y-50806457D01*
X34028081Y-50806456D01*
X33800002Y-50786502D01*
X33799998Y-50786502D01*
X33571918Y-50806456D01*
X33571910Y-50806457D01*
X33350761Y-50865714D01*
X33350750Y-50865718D01*
X33143254Y-50962475D01*
X33143252Y-50962476D01*
X33072856Y-51011767D01*
X32955700Y-51093802D01*
X32955698Y-51093803D01*
X32955695Y-51093806D01*
X32793806Y-51255695D01*
X32662476Y-51443252D01*
X32662475Y-51443254D01*
X32565718Y-51650750D01*
X32565714Y-51650761D01*
X32506457Y-51871910D01*
X32506456Y-51871918D01*
X32486502Y-52099998D01*
X32486502Y-52100001D01*
X31681670Y-52100001D01*
X31689296Y-52082616D01*
X31744564Y-51864368D01*
X31744565Y-51864359D01*
X31763156Y-51640005D01*
X31763156Y-51639994D01*
X31744565Y-51415640D01*
X31744563Y-51415628D01*
X31741876Y-51405018D01*
X31689296Y-51197384D01*
X31598860Y-50991209D01*
X31580088Y-50962477D01*
X31478156Y-50806458D01*
X31475722Y-50802732D01*
X31475719Y-50802729D01*
X31475715Y-50802723D01*
X31330510Y-50644991D01*
X31299587Y-50582337D01*
X31307447Y-50512911D01*
X31351594Y-50458755D01*
X31378405Y-50444827D01*
X31458584Y-50414920D01*
X31496204Y-50400889D01*
X31613261Y-50313261D01*
X31700889Y-50196204D01*
X31751989Y-50059201D01*
X31755591Y-50025692D01*
X31758499Y-49998654D01*
X31758500Y-49998637D01*
X31758500Y-48900001D01*
X32486502Y-48900001D01*
X32506456Y-49128081D01*
X32506457Y-49128089D01*
X32565714Y-49349238D01*
X32565718Y-49349249D01*
X32662475Y-49556745D01*
X32662477Y-49556749D01*
X32793802Y-49744300D01*
X32955700Y-49906198D01*
X33143251Y-50037523D01*
X33218498Y-50072611D01*
X33350750Y-50134281D01*
X33350752Y-50134281D01*
X33350757Y-50134284D01*
X33571913Y-50193543D01*
X33734832Y-50207796D01*
X33799998Y-50213498D01*
X33800000Y-50213498D01*
X33800002Y-50213498D01*
X33857021Y-50208509D01*
X34028087Y-50193543D01*
X34249243Y-50134284D01*
X34456749Y-50037523D01*
X34644300Y-49906198D01*
X34806198Y-49744300D01*
X34937523Y-49556749D01*
X35034284Y-49349243D01*
X35093543Y-49128087D01*
X35113498Y-48900000D01*
X35093543Y-48671913D01*
X35034284Y-48450757D01*
X34937523Y-48243251D01*
X34806198Y-48055700D01*
X34644300Y-47893802D01*
X34456749Y-47762477D01*
X34456745Y-47762475D01*
X34249249Y-47665718D01*
X34249238Y-47665714D01*
X34028089Y-47606457D01*
X34028081Y-47606456D01*
X33800002Y-47586502D01*
X33799998Y-47586502D01*
X33571918Y-47606456D01*
X33571910Y-47606457D01*
X33350761Y-47665714D01*
X33350750Y-47665718D01*
X33143254Y-47762475D01*
X33143252Y-47762476D01*
X33143249Y-47762477D01*
X33143251Y-47762477D01*
X32955700Y-47893802D01*
X32955698Y-47893803D01*
X32955695Y-47893806D01*
X32793806Y-48055695D01*
X32793803Y-48055698D01*
X32793802Y-48055700D01*
X32746013Y-48123950D01*
X32662476Y-48243252D01*
X32662475Y-48243254D01*
X32565718Y-48450750D01*
X32565714Y-48450761D01*
X32506457Y-48671910D01*
X32506456Y-48671918D01*
X32486502Y-48899998D01*
X32486502Y-48900001D01*
X31758500Y-48900001D01*
X31758500Y-48201362D01*
X31758499Y-48201345D01*
X31752793Y-48148279D01*
X31751989Y-48140799D01*
X31700889Y-48003796D01*
X31613261Y-47886739D01*
X31496204Y-47799111D01*
X31496203Y-47799110D01*
X31359203Y-47748011D01*
X31298654Y-47741500D01*
X31298638Y-47741500D01*
X29501362Y-47741500D01*
X29501345Y-47741500D01*
X29440797Y-47748011D01*
X29440795Y-47748011D01*
X29303794Y-47799111D01*
X29298807Y-47802845D01*
X29233341Y-47827259D01*
X29165069Y-47812405D01*
X29115666Y-47762998D01*
X29100500Y-47703575D01*
X29100500Y-45900001D01*
X32486502Y-45900001D01*
X32506456Y-46128081D01*
X32506457Y-46128089D01*
X32565714Y-46349238D01*
X32565718Y-46349249D01*
X32662475Y-46556745D01*
X32662477Y-46556749D01*
X32793802Y-46744300D01*
X32955700Y-46906198D01*
X33143251Y-47037523D01*
X33198445Y-47063260D01*
X33350750Y-47134281D01*
X33350752Y-47134281D01*
X33350757Y-47134284D01*
X33571913Y-47193543D01*
X33734832Y-47207796D01*
X33799998Y-47213498D01*
X33800000Y-47213498D01*
X33800002Y-47213498D01*
X33857139Y-47208499D01*
X34028087Y-47193543D01*
X34249243Y-47134284D01*
X34456749Y-47037523D01*
X34644300Y-46906198D01*
X34806198Y-46744300D01*
X34937523Y-46556749D01*
X35034284Y-46349243D01*
X35093543Y-46128087D01*
X35113498Y-45900000D01*
X35093543Y-45671913D01*
X35034284Y-45450757D01*
X35027738Y-45436720D01*
X34964046Y-45300130D01*
X34937523Y-45243251D01*
X34806198Y-45055700D01*
X34644300Y-44893802D01*
X34456749Y-44762477D01*
X34456745Y-44762475D01*
X34249249Y-44665718D01*
X34249238Y-44665714D01*
X34028089Y-44606457D01*
X34028081Y-44606456D01*
X33800002Y-44586502D01*
X33799998Y-44586502D01*
X33571918Y-44606456D01*
X33571910Y-44606457D01*
X33350761Y-44665714D01*
X33350750Y-44665718D01*
X33143254Y-44762475D01*
X33143252Y-44762476D01*
X33143249Y-44762477D01*
X33143251Y-44762477D01*
X32955700Y-44893802D01*
X32955698Y-44893803D01*
X32955695Y-44893806D01*
X32793806Y-45055695D01*
X32793803Y-45055698D01*
X32793802Y-45055700D01*
X32711767Y-45172856D01*
X32662476Y-45243252D01*
X32662475Y-45243254D01*
X32565718Y-45450750D01*
X32565714Y-45450761D01*
X32506457Y-45671910D01*
X32506456Y-45671918D01*
X32486502Y-45899998D01*
X32486502Y-45900001D01*
X29100500Y-45900001D01*
X29100500Y-39393542D01*
X30491500Y-39393542D01*
X30498011Y-39454090D01*
X30498011Y-39454092D01*
X30549111Y-39591091D01*
X30549111Y-39591092D01*
X30636739Y-39708149D01*
X30636742Y-39708151D01*
X30646955Y-39715797D01*
X30688826Y-39771731D01*
X30693810Y-39841423D01*
X30674225Y-39886179D01*
X30669867Y-39892403D01*
X30669865Y-39892406D01*
X30573734Y-40098561D01*
X30573730Y-40098570D01*
X30514860Y-40318277D01*
X30514858Y-40318288D01*
X30495034Y-40544885D01*
X30495034Y-40544890D01*
X30514858Y-40771487D01*
X30514860Y-40771498D01*
X30573730Y-40991205D01*
X30573734Y-40991214D01*
X30669865Y-41197369D01*
X30669866Y-41197371D01*
X30720973Y-41270359D01*
X30720973Y-41270360D01*
X31262580Y-40728753D01*
X31323903Y-40695268D01*
X31393594Y-40700252D01*
X31449528Y-40742123D01*
X31460742Y-40760134D01*
X31466527Y-40771487D01*
X31472358Y-40782932D01*
X31472363Y-40782938D01*
X31561949Y-40872524D01*
X31561951Y-40872525D01*
X31561955Y-40872529D01*
X31584747Y-40884142D01*
X31635542Y-40932116D01*
X31652337Y-40999937D01*
X31629799Y-41066072D01*
X31616132Y-41082307D01*
X31074526Y-41623913D01*
X31074526Y-41623914D01*
X31147512Y-41675019D01*
X31147516Y-41675021D01*
X31353673Y-41771153D01*
X31353682Y-41771157D01*
X31573389Y-41830027D01*
X31573400Y-41830029D01*
X31799998Y-41849854D01*
X31800002Y-41849854D01*
X32026599Y-41830029D01*
X32026610Y-41830027D01*
X32246317Y-41771157D01*
X32246331Y-41771152D01*
X32452478Y-41675024D01*
X32525472Y-41623913D01*
X31983866Y-41082307D01*
X31950381Y-41020984D01*
X31955365Y-40951292D01*
X31997237Y-40895359D01*
X32015245Y-40884146D01*
X32038045Y-40872529D01*
X32127641Y-40782933D01*
X32139254Y-40760140D01*
X32187225Y-40709346D01*
X32255046Y-40692549D01*
X32321181Y-40715085D01*
X32337419Y-40728754D01*
X32879025Y-41270360D01*
X32930136Y-41197366D01*
X33026264Y-40991219D01*
X33026269Y-40991205D01*
X33085139Y-40771498D01*
X33085141Y-40771487D01*
X33104966Y-40544890D01*
X33104966Y-40544885D01*
X33085141Y-40318288D01*
X33085139Y-40318277D01*
X33026269Y-40098570D01*
X33026265Y-40098561D01*
X32930133Y-39892404D01*
X32930132Y-39892402D01*
X32925782Y-39886190D01*
X32903453Y-39819984D01*
X32920462Y-39752217D01*
X32953047Y-39715795D01*
X32963258Y-39708151D01*
X32963257Y-39708151D01*
X32963261Y-39708149D01*
X33050889Y-39591092D01*
X33101989Y-39454089D01*
X33106286Y-39414122D01*
X33108499Y-39393542D01*
X33108500Y-39393525D01*
X33108500Y-37696250D01*
X33108499Y-37696233D01*
X33105157Y-37665158D01*
X33101989Y-37635687D01*
X33050889Y-37498684D01*
X32963261Y-37381627D01*
X32846204Y-37293999D01*
X32846203Y-37293998D01*
X32709203Y-37242899D01*
X32648654Y-37236388D01*
X32648638Y-37236388D01*
X30951362Y-37236388D01*
X30951345Y-37236388D01*
X30890797Y-37242899D01*
X30890795Y-37242899D01*
X30753795Y-37293999D01*
X30636739Y-37381627D01*
X30549111Y-37498683D01*
X30498011Y-37635683D01*
X30498011Y-37635685D01*
X30491500Y-37696233D01*
X30491500Y-39393542D01*
X29100500Y-39393542D01*
X29100500Y-34624500D01*
X29120185Y-34557461D01*
X29172989Y-34511706D01*
X29224500Y-34500500D01*
X34974252Y-34500500D01*
X35041291Y-34520185D01*
G37*
G04 #@! TD.AperFunction*
G04 #@! TA.AperFunction,Conductor*
G36*
X43693331Y-43408091D02*
G01*
X43725699Y-43413218D01*
X43768515Y-43420000D01*
X43768519Y-43420000D01*
X43831485Y-43420000D01*
X43874300Y-43413218D01*
X43906602Y-43408102D01*
X43975894Y-43417056D01*
X44029347Y-43462052D01*
X44049987Y-43528803D01*
X44050000Y-43530575D01*
X44050000Y-44320000D01*
X44417500Y-44320000D01*
X44484539Y-44339685D01*
X44530294Y-44392489D01*
X44541500Y-44444000D01*
X44541500Y-47539553D01*
X44521815Y-47606592D01*
X44469011Y-47652347D01*
X44399853Y-47662291D01*
X44385407Y-47659328D01*
X44188092Y-47606458D01*
X44188088Y-47606457D01*
X44188087Y-47606457D01*
X44188086Y-47606456D01*
X44188081Y-47606456D01*
X43960002Y-47586502D01*
X43959998Y-47586502D01*
X43731918Y-47606456D01*
X43731910Y-47606457D01*
X43510761Y-47665714D01*
X43510750Y-47665718D01*
X43303254Y-47762475D01*
X43303252Y-47762476D01*
X43303249Y-47762477D01*
X43303251Y-47762477D01*
X43115700Y-47893802D01*
X43115698Y-47893803D01*
X43115695Y-47893806D01*
X42953806Y-48055695D01*
X42953803Y-48055698D01*
X42953802Y-48055700D01*
X42906013Y-48123950D01*
X42822476Y-48243252D01*
X42822475Y-48243254D01*
X42725718Y-48450750D01*
X42725714Y-48450761D01*
X42666457Y-48671910D01*
X42666456Y-48671918D01*
X42646502Y-48899998D01*
X42646502Y-48900001D01*
X42666456Y-49128081D01*
X42666457Y-49128089D01*
X42725714Y-49349238D01*
X42725718Y-49349249D01*
X42822475Y-49556745D01*
X42822477Y-49556749D01*
X42953802Y-49744300D01*
X43115700Y-49906198D01*
X43303251Y-50037523D01*
X43378498Y-50072611D01*
X43510750Y-50134281D01*
X43510752Y-50134281D01*
X43510757Y-50134284D01*
X43731913Y-50193543D01*
X43894832Y-50207796D01*
X43959998Y-50213498D01*
X43960000Y-50213498D01*
X43960002Y-50213498D01*
X44017021Y-50208509D01*
X44188087Y-50193543D01*
X44385409Y-50140670D01*
X44455256Y-50142333D01*
X44513118Y-50181495D01*
X44540623Y-50245723D01*
X44541500Y-50260445D01*
X44541500Y-50739553D01*
X44521815Y-50806592D01*
X44469011Y-50852347D01*
X44399853Y-50862291D01*
X44385407Y-50859328D01*
X44188092Y-50806458D01*
X44188088Y-50806457D01*
X44188087Y-50806457D01*
X44188086Y-50806456D01*
X44188081Y-50806456D01*
X43960002Y-50786502D01*
X43959998Y-50786502D01*
X43731918Y-50806456D01*
X43731910Y-50806457D01*
X43510761Y-50865714D01*
X43510750Y-50865718D01*
X43303254Y-50962475D01*
X43303252Y-50962476D01*
X43232856Y-51011767D01*
X43115700Y-51093802D01*
X43115698Y-51093803D01*
X43115695Y-51093806D01*
X42953806Y-51255695D01*
X42822476Y-51443252D01*
X42822475Y-51443254D01*
X42725718Y-51650750D01*
X42725714Y-51650761D01*
X42666457Y-51871910D01*
X42666456Y-51871918D01*
X42646502Y-52099998D01*
X42646502Y-52100001D01*
X42666456Y-52328081D01*
X42666457Y-52328089D01*
X42725714Y-52549238D01*
X42725718Y-52549249D01*
X42822475Y-52756745D01*
X42822477Y-52756749D01*
X42953802Y-52944300D01*
X43115700Y-53106198D01*
X43303251Y-53237523D01*
X43378498Y-53272611D01*
X43510750Y-53334281D01*
X43510752Y-53334281D01*
X43510757Y-53334284D01*
X43731913Y-53393543D01*
X43894832Y-53407796D01*
X43959998Y-53413498D01*
X43960000Y-53413498D01*
X43960002Y-53413498D01*
X44017021Y-53408509D01*
X44188087Y-53393543D01*
X44385409Y-53340670D01*
X44455256Y-53342333D01*
X44513118Y-53381495D01*
X44540623Y-53445723D01*
X44541500Y-53460445D01*
X44541500Y-56255877D01*
X44521815Y-56322916D01*
X44505181Y-56343558D01*
X44064546Y-56784192D01*
X44003223Y-56817677D01*
X43944774Y-56816286D01*
X43908098Y-56806459D01*
X43908081Y-56806456D01*
X43680002Y-56786502D01*
X43679998Y-56786502D01*
X43451918Y-56806456D01*
X43451910Y-56806457D01*
X43230761Y-56865714D01*
X43230750Y-56865718D01*
X43023254Y-56962475D01*
X43023252Y-56962476D01*
X43023249Y-56962477D01*
X43023251Y-56962477D01*
X42835700Y-57093802D01*
X42835698Y-57093803D01*
X42835695Y-57093806D01*
X42673806Y-57255695D01*
X42542476Y-57443252D01*
X42542475Y-57443254D01*
X42445718Y-57650750D01*
X42445714Y-57650761D01*
X42386457Y-57871910D01*
X42386456Y-57871918D01*
X42366502Y-58099998D01*
X42366502Y-58100001D01*
X42386456Y-58328081D01*
X42386457Y-58328089D01*
X42445714Y-58549238D01*
X42445718Y-58549249D01*
X42524186Y-58717524D01*
X42542477Y-58756749D01*
X42673802Y-58944300D01*
X42835700Y-59106198D01*
X43023251Y-59237523D01*
X43148091Y-59295736D01*
X43230750Y-59334281D01*
X43230752Y-59334281D01*
X43230757Y-59334284D01*
X43451913Y-59393543D01*
X43614832Y-59407796D01*
X43679998Y-59413498D01*
X43680000Y-59413498D01*
X43680002Y-59413498D01*
X43737021Y-59408509D01*
X43908087Y-59393543D01*
X44129243Y-59334284D01*
X44336749Y-59237523D01*
X44524300Y-59106198D01*
X44686198Y-58944300D01*
X44779273Y-58811374D01*
X44833850Y-58767751D01*
X44880847Y-58758500D01*
X44975878Y-58758500D01*
X45042917Y-58778185D01*
X45063559Y-58794819D01*
X46282616Y-60013876D01*
X46316101Y-60075199D01*
X46311117Y-60144891D01*
X46269245Y-60200824D01*
X46247340Y-60213939D01*
X46143251Y-60262476D01*
X46018126Y-60350090D01*
X45955700Y-60393802D01*
X45955698Y-60393803D01*
X45955695Y-60393806D01*
X45793806Y-60555695D01*
X45793803Y-60555698D01*
X45793802Y-60555700D01*
X45700726Y-60688625D01*
X45646150Y-60732249D01*
X45599153Y-60741500D01*
X44882334Y-60741500D01*
X44815295Y-60721815D01*
X44769952Y-60669906D01*
X44764779Y-60658812D01*
X44757523Y-60643251D01*
X44626198Y-60455700D01*
X44464300Y-60293802D01*
X44276749Y-60162477D01*
X44245763Y-60148028D01*
X44069249Y-60065718D01*
X44069238Y-60065714D01*
X43848089Y-60006457D01*
X43848081Y-60006456D01*
X43620002Y-59986502D01*
X43619998Y-59986502D01*
X43391918Y-60006456D01*
X43391910Y-60006457D01*
X43170761Y-60065714D01*
X43170750Y-60065718D01*
X42963254Y-60162475D01*
X42963252Y-60162476D01*
X42963249Y-60162477D01*
X42963251Y-60162477D01*
X42775700Y-60293802D01*
X42775698Y-60293803D01*
X42775695Y-60293806D01*
X42613806Y-60455695D01*
X42613803Y-60455698D01*
X42613802Y-60455700D01*
X42576942Y-60508342D01*
X42482476Y-60643251D01*
X42462382Y-60686345D01*
X42416209Y-60738784D01*
X42349016Y-60757936D01*
X42282135Y-60737720D01*
X42237618Y-60686345D01*
X42217523Y-60643251D01*
X42180121Y-60589836D01*
X42086198Y-60455700D01*
X41924300Y-60293802D01*
X41736749Y-60162477D01*
X41705763Y-60148028D01*
X41529249Y-60065718D01*
X41529238Y-60065714D01*
X41308089Y-60006457D01*
X41308081Y-60006456D01*
X41080002Y-59986502D01*
X41079998Y-59986502D01*
X40851918Y-60006456D01*
X40851910Y-60006457D01*
X40630761Y-60065714D01*
X40630750Y-60065718D01*
X40423254Y-60162475D01*
X40423252Y-60162476D01*
X40423249Y-60162477D01*
X40423251Y-60162477D01*
X40235700Y-60293802D01*
X40235698Y-60293803D01*
X40235695Y-60293806D01*
X40073806Y-60455695D01*
X40073803Y-60455698D01*
X40073802Y-60455700D01*
X40036942Y-60508342D01*
X39942476Y-60643251D01*
X39922382Y-60686345D01*
X39876209Y-60738784D01*
X39809016Y-60757936D01*
X39742135Y-60737720D01*
X39697618Y-60686345D01*
X39677523Y-60643251D01*
X39640121Y-60589836D01*
X39546198Y-60455700D01*
X39384300Y-60293802D01*
X39196749Y-60162477D01*
X39165763Y-60148028D01*
X38989249Y-60065718D01*
X38989238Y-60065714D01*
X38768089Y-60006457D01*
X38768081Y-60006456D01*
X38540002Y-59986502D01*
X38539998Y-59986502D01*
X38311918Y-60006456D01*
X38311907Y-60006458D01*
X38204593Y-60035213D01*
X38134743Y-60033550D01*
X38076881Y-59994387D01*
X38049377Y-59930159D01*
X38048500Y-59915438D01*
X38048500Y-47214121D01*
X38068185Y-47147082D01*
X38084819Y-47126440D01*
X39899819Y-45311440D01*
X39961142Y-45277955D01*
X40030834Y-45282939D01*
X40086767Y-45324811D01*
X40111184Y-45390275D01*
X40111500Y-45399121D01*
X40111500Y-46748654D01*
X40118011Y-46809202D01*
X40118011Y-46809204D01*
X40159730Y-46921053D01*
X40169111Y-46946204D01*
X40256739Y-47063261D01*
X40373796Y-47150889D01*
X40510799Y-47201989D01*
X40538050Y-47204918D01*
X40571345Y-47208499D01*
X40571362Y-47208500D01*
X40627500Y-47208500D01*
X40694539Y-47228185D01*
X40740294Y-47280989D01*
X40751500Y-47332500D01*
X40751500Y-53899152D01*
X40731815Y-53966191D01*
X40698624Y-54000726D01*
X40565699Y-54093802D01*
X40403806Y-54255695D01*
X40272476Y-54443252D01*
X40272475Y-54443254D01*
X40175718Y-54650750D01*
X40175714Y-54650761D01*
X40116457Y-54871910D01*
X40116456Y-54871918D01*
X40096502Y-55099998D01*
X40096502Y-55100001D01*
X40116456Y-55328081D01*
X40116457Y-55328089D01*
X40175714Y-55549238D01*
X40175718Y-55549249D01*
X40253987Y-55717097D01*
X40272477Y-55756749D01*
X40403802Y-55944300D01*
X40565700Y-56106198D01*
X40753251Y-56237523D01*
X40838734Y-56277384D01*
X40960750Y-56334281D01*
X40960752Y-56334281D01*
X40960757Y-56334284D01*
X41181913Y-56393543D01*
X41344832Y-56407796D01*
X41409998Y-56413498D01*
X41410000Y-56413498D01*
X41410002Y-56413498D01*
X41467139Y-56408499D01*
X41638087Y-56393543D01*
X41859243Y-56334284D01*
X42066749Y-56237523D01*
X42254300Y-56106198D01*
X42416198Y-55944300D01*
X42547523Y-55756749D01*
X42644284Y-55549243D01*
X42703543Y-55328087D01*
X42723498Y-55100000D01*
X42703543Y-54871913D01*
X42644284Y-54650757D01*
X42547523Y-54443251D01*
X42416198Y-54255700D01*
X42254300Y-54093802D01*
X42121376Y-54000726D01*
X42077751Y-53946149D01*
X42068500Y-53899152D01*
X42068500Y-47332500D01*
X42088185Y-47265461D01*
X42140989Y-47219706D01*
X42192500Y-47208500D01*
X42268638Y-47208500D01*
X42268654Y-47208499D01*
X42295692Y-47205591D01*
X42329201Y-47201989D01*
X42466204Y-47150889D01*
X42583261Y-47063261D01*
X42670889Y-46946204D01*
X42721989Y-46809201D01*
X42727371Y-46759143D01*
X42728499Y-46748654D01*
X42728500Y-46748637D01*
X42728500Y-45574121D01*
X42748185Y-45507082D01*
X42764818Y-45486441D01*
X42814538Y-45436720D01*
X42827215Y-45426565D01*
X42827069Y-45426388D01*
X42833074Y-45421419D01*
X42833080Y-45421416D01*
X42882960Y-45368298D01*
X42904926Y-45346333D01*
X42909488Y-45340451D01*
X42913280Y-45336010D01*
X42946972Y-45300133D01*
X42957375Y-45281208D01*
X42968061Y-45264940D01*
X42981304Y-45247869D01*
X43000850Y-45202699D01*
X43003410Y-45197470D01*
X43027124Y-45154337D01*
X43032496Y-45133409D01*
X43038796Y-45115009D01*
X43047379Y-45095177D01*
X43055077Y-45046571D01*
X43056257Y-45040865D01*
X43068500Y-44993188D01*
X43068500Y-44971581D01*
X43070027Y-44952180D01*
X43073406Y-44930849D01*
X43068775Y-44881858D01*
X43068500Y-44876020D01*
X43068500Y-44444000D01*
X43088185Y-44376961D01*
X43140989Y-44331206D01*
X43192500Y-44320000D01*
X43550000Y-44320000D01*
X43550000Y-43530575D01*
X43569685Y-43463536D01*
X43622489Y-43417781D01*
X43691647Y-43407837D01*
X43693331Y-43408091D01*
G37*
G04 #@! TD.AperFunction*
G04 #@! TA.AperFunction,Conductor*
G36*
X47521181Y-40670197D02*
G01*
X47537419Y-40683866D01*
X48063181Y-41209628D01*
X48096666Y-41270951D01*
X48099500Y-41297309D01*
X48099500Y-46601301D01*
X48079815Y-46668340D01*
X48027011Y-46714095D01*
X47957853Y-46724039D01*
X47894297Y-46695014D01*
X47873928Y-46672428D01*
X47806198Y-46575700D01*
X47644300Y-46413802D01*
X47456749Y-46282477D01*
X47456745Y-46282475D01*
X47249249Y-46185718D01*
X47249238Y-46185714D01*
X47028089Y-46126457D01*
X47028081Y-46126456D01*
X46800002Y-46106502D01*
X46799998Y-46106502D01*
X46571918Y-46126456D01*
X46571910Y-46126457D01*
X46350761Y-46185714D01*
X46350750Y-46185718D01*
X46143254Y-46282475D01*
X46143252Y-46282476D01*
X46053624Y-46345235D01*
X45987417Y-46367562D01*
X45919650Y-46350552D01*
X45871837Y-46299604D01*
X45858500Y-46243660D01*
X45858500Y-41339308D01*
X45878185Y-41272269D01*
X45894819Y-41251627D01*
X46462580Y-40683865D01*
X46523903Y-40650380D01*
X46593594Y-40655364D01*
X46649528Y-40697235D01*
X46660742Y-40715246D01*
X46667296Y-40728109D01*
X46672358Y-40738044D01*
X46672363Y-40738050D01*
X46761949Y-40827636D01*
X46761951Y-40827637D01*
X46761955Y-40827641D01*
X46784747Y-40839254D01*
X46835542Y-40887228D01*
X46852337Y-40955049D01*
X46829799Y-41021184D01*
X46816132Y-41037419D01*
X46274526Y-41579025D01*
X46274526Y-41579026D01*
X46347512Y-41630131D01*
X46347516Y-41630133D01*
X46553673Y-41726265D01*
X46553682Y-41726269D01*
X46773389Y-41785139D01*
X46773400Y-41785141D01*
X46999998Y-41804966D01*
X47000002Y-41804966D01*
X47226599Y-41785141D01*
X47226610Y-41785139D01*
X47446317Y-41726269D01*
X47446331Y-41726264D01*
X47652478Y-41630136D01*
X47725472Y-41579025D01*
X47183866Y-41037419D01*
X47150381Y-40976096D01*
X47155365Y-40906404D01*
X47197237Y-40850471D01*
X47215245Y-40839258D01*
X47238045Y-40827641D01*
X47327641Y-40738045D01*
X47339254Y-40715252D01*
X47387225Y-40664458D01*
X47455046Y-40647661D01*
X47521181Y-40670197D01*
G37*
G04 #@! TD.AperFunction*
G04 #@! TA.AperFunction,Conductor*
G36*
X42597864Y-35962278D02*
G01*
X42642382Y-36013655D01*
X42662477Y-36056749D01*
X42793802Y-36244300D01*
X42955700Y-36406198D01*
X43143251Y-36537523D01*
X43268091Y-36595736D01*
X43350750Y-36634281D01*
X43350752Y-36634281D01*
X43350757Y-36634284D01*
X43571913Y-36693543D01*
X43734832Y-36707796D01*
X43799998Y-36713498D01*
X43800000Y-36713498D01*
X43800002Y-36713498D01*
X43857021Y-36708509D01*
X44028087Y-36693543D01*
X44249243Y-36634284D01*
X44456749Y-36537523D01*
X44644300Y-36406198D01*
X44806198Y-36244300D01*
X44899273Y-36111374D01*
X44953850Y-36067751D01*
X45000847Y-36058500D01*
X45210878Y-36058500D01*
X45277917Y-36078185D01*
X45323672Y-36130989D01*
X45333616Y-36200147D01*
X45304591Y-36263703D01*
X45298559Y-36270181D01*
X44795453Y-36773285D01*
X44782785Y-36783435D01*
X44782931Y-36783611D01*
X44776920Y-36788583D01*
X44727053Y-36841686D01*
X44705072Y-36863667D01*
X44700492Y-36869569D01*
X44696708Y-36873998D01*
X44663029Y-36909865D01*
X44663024Y-36909872D01*
X44652618Y-36928800D01*
X44641942Y-36945054D01*
X44628695Y-36962133D01*
X44609150Y-37007297D01*
X44606580Y-37012543D01*
X44582876Y-37055661D01*
X44577502Y-37076589D01*
X44571203Y-37094987D01*
X44562619Y-37114825D01*
X44554923Y-37163420D01*
X44553738Y-37169143D01*
X44541500Y-37216809D01*
X44541500Y-37238413D01*
X44539974Y-37257808D01*
X44536594Y-37279152D01*
X44541225Y-37328143D01*
X44541500Y-37333981D01*
X44541500Y-41596000D01*
X44521815Y-41663039D01*
X44469011Y-41708794D01*
X44417500Y-41720000D01*
X44050000Y-41720000D01*
X44050000Y-42509424D01*
X44030315Y-42576463D01*
X43977511Y-42622218D01*
X43908353Y-42632162D01*
X43906602Y-42631897D01*
X43831486Y-42620000D01*
X43831481Y-42620000D01*
X43768519Y-42620000D01*
X43768512Y-42620000D01*
X43693396Y-42631897D01*
X43624103Y-42622942D01*
X43570651Y-42577946D01*
X43550012Y-42511194D01*
X43549999Y-42509424D01*
X43550000Y-41720000D01*
X43192500Y-41720000D01*
X43125461Y-41700315D01*
X43079706Y-41647511D01*
X43068500Y-41596000D01*
X43068500Y-39176387D01*
X43070282Y-39160249D01*
X43070054Y-39160228D01*
X43070788Y-39152465D01*
X43068500Y-39079657D01*
X43068500Y-39048574D01*
X43068500Y-39048568D01*
X43067566Y-39041175D01*
X43067107Y-39035347D01*
X43065562Y-38986169D01*
X43059536Y-38965428D01*
X43055590Y-38946377D01*
X43052882Y-38924936D01*
X43034763Y-38879172D01*
X43032872Y-38873648D01*
X43031244Y-38868048D01*
X43019145Y-38826400D01*
X43008149Y-38807808D01*
X42999589Y-38790335D01*
X42991635Y-38770244D01*
X42962711Y-38730434D01*
X42959502Y-38725549D01*
X42947979Y-38706065D01*
X42934453Y-38683193D01*
X42934449Y-38683189D01*
X42934446Y-38683185D01*
X42919175Y-38667914D01*
X42906537Y-38653118D01*
X42893839Y-38635640D01*
X42855921Y-38604272D01*
X42851598Y-38600338D01*
X41176439Y-36925179D01*
X41142954Y-36863856D01*
X41147938Y-36794164D01*
X41189810Y-36738231D01*
X41254614Y-36714059D01*
X41254607Y-36713970D01*
X41254931Y-36713941D01*
X41255274Y-36713814D01*
X41257160Y-36713746D01*
X41259997Y-36713497D01*
X41260000Y-36713498D01*
X41488087Y-36693543D01*
X41709243Y-36634284D01*
X41916749Y-36537523D01*
X42104300Y-36406198D01*
X42266198Y-36244300D01*
X42397523Y-36056749D01*
X42417617Y-36013655D01*
X42463790Y-35961215D01*
X42530983Y-35942063D01*
X42597864Y-35962278D01*
G37*
G04 #@! TD.AperFunction*
G04 #@! TA.AperFunction,Conductor*
G36*
X48018834Y-36434178D02*
G01*
X48074767Y-36476050D01*
X48099184Y-36541514D01*
X48099500Y-36550360D01*
X48099500Y-39702689D01*
X48079815Y-39769728D01*
X48063181Y-39790370D01*
X47537419Y-40316132D01*
X47476096Y-40349617D01*
X47406404Y-40344633D01*
X47350471Y-40302761D01*
X47339256Y-40284751D01*
X47327641Y-40261955D01*
X47327637Y-40261951D01*
X47327636Y-40261949D01*
X47238050Y-40172363D01*
X47238044Y-40172358D01*
X47228109Y-40167296D01*
X47215250Y-40160744D01*
X47164456Y-40112773D01*
X47147660Y-40044952D01*
X47170197Y-39978817D01*
X47183865Y-39962580D01*
X47725472Y-39420973D01*
X47652483Y-39369866D01*
X47652481Y-39369865D01*
X47446326Y-39273734D01*
X47446317Y-39273730D01*
X47226610Y-39214860D01*
X47226599Y-39214858D01*
X47000002Y-39195034D01*
X46999998Y-39195034D01*
X46773400Y-39214858D01*
X46773389Y-39214860D01*
X46553682Y-39273730D01*
X46553673Y-39273734D01*
X46347513Y-39369868D01*
X46274526Y-39420973D01*
X46816133Y-39962580D01*
X46849618Y-40023903D01*
X46844634Y-40093595D01*
X46802762Y-40149528D01*
X46784748Y-40160745D01*
X46761956Y-40172358D01*
X46761949Y-40172363D01*
X46672363Y-40261949D01*
X46672358Y-40261956D01*
X46660745Y-40284748D01*
X46612770Y-40335544D01*
X46544949Y-40352338D01*
X46478814Y-40329800D01*
X46462580Y-40316133D01*
X45894819Y-39748372D01*
X45861334Y-39687049D01*
X45858500Y-39660691D01*
X45858500Y-37624120D01*
X45878185Y-37557081D01*
X45894815Y-37536443D01*
X46615453Y-36815804D01*
X46676774Y-36782321D01*
X46735227Y-36783713D01*
X46771905Y-36793541D01*
X46771906Y-36793541D01*
X46771913Y-36793543D01*
X46966031Y-36810526D01*
X46999998Y-36813498D01*
X47000000Y-36813498D01*
X47000002Y-36813498D01*
X47057021Y-36808509D01*
X47228087Y-36793543D01*
X47449243Y-36734284D01*
X47656749Y-36637523D01*
X47844300Y-36506198D01*
X47887819Y-36462679D01*
X47949142Y-36429194D01*
X48018834Y-36434178D01*
G37*
G04 #@! TD.AperFunction*
M02*
