G04 #@! TF.GenerationSoftware,KiCad,Pcbnew,7.0.7-7.0.7~ubuntu22.04.1*
G04 #@! TF.CreationDate,2023-09-25T23:33:37+02:00*
G04 #@! TF.ProjectId,Basic-ADSR,42617369-632d-4414-9453-522e6b696361,rev?*
G04 #@! TF.SameCoordinates,Original*
G04 #@! TF.FileFunction,Copper,L1,Top*
G04 #@! TF.FilePolarity,Positive*
%FSLAX46Y46*%
G04 Gerber Fmt 4.6, Leading zero omitted, Abs format (unit mm)*
G04 Created by KiCad (PCBNEW 7.0.7-7.0.7~ubuntu22.04.1) date 2023-09-25 23:33:37*
%MOMM*%
%LPD*%
G01*
G04 APERTURE LIST*
G04 #@! TA.AperFunction,ComponentPad*
%ADD10R,1.700000X1.700000*%
G04 #@! TD*
G04 #@! TA.AperFunction,ComponentPad*
%ADD11O,1.700000X1.700000*%
G04 #@! TD*
G04 #@! TA.AperFunction,ComponentPad*
%ADD12R,1.600000X1.600000*%
G04 #@! TD*
G04 #@! TA.AperFunction,ComponentPad*
%ADD13O,1.600000X1.600000*%
G04 #@! TD*
G04 #@! TA.AperFunction,ComponentPad*
%ADD14C,1.600000*%
G04 #@! TD*
G04 #@! TA.AperFunction,ComponentPad*
%ADD15R,1.500000X1.050000*%
G04 #@! TD*
G04 #@! TA.AperFunction,ComponentPad*
%ADD16O,1.500000X1.050000*%
G04 #@! TD*
G04 #@! TA.AperFunction,ComponentPad*
%ADD17C,1.700000*%
G04 #@! TD*
G04 #@! TA.AperFunction,ViaPad*
%ADD18C,0.800000*%
G04 #@! TD*
G04 #@! TA.AperFunction,Conductor*
%ADD19C,0.600000*%
G04 #@! TD*
G04 #@! TA.AperFunction,Conductor*
%ADD20C,0.300000*%
G04 #@! TD*
G04 #@! TA.AperFunction,Conductor*
%ADD21C,0.200000*%
G04 #@! TD*
G04 APERTURE END LIST*
D10*
X30400000Y-100500000D03*
D11*
X30400000Y-103040000D03*
X30400000Y-105580000D03*
X30400000Y-108120000D03*
X30400000Y-110660000D03*
X30400000Y-113200000D03*
X30400000Y-115740000D03*
X30400000Y-118280000D03*
D10*
X30400000Y-49100000D03*
D11*
X30400000Y-51640000D03*
X30400000Y-54180000D03*
X30400000Y-56720000D03*
X30400000Y-59260000D03*
X30400000Y-61800000D03*
X30400000Y-64340000D03*
X30400000Y-66880000D03*
D12*
X33790000Y-55100000D03*
D13*
X41410000Y-55100000D03*
D14*
X37120000Y-93700000D03*
D13*
X47280000Y-93700000D03*
D14*
X47280000Y-99700000D03*
D13*
X37120000Y-99700000D03*
D14*
X39700000Y-84100000D03*
X44700000Y-84100000D03*
D15*
X32800000Y-92230000D03*
D16*
X32800000Y-93500000D03*
X32800000Y-94770000D03*
D12*
X34400000Y-112600000D03*
D14*
X36400000Y-112600000D03*
X37120000Y-78100000D03*
D13*
X47280000Y-78100000D03*
D12*
X34400000Y-118400000D03*
D14*
X36400000Y-118400000D03*
X32800000Y-68600000D03*
X32800000Y-73600000D03*
X46800000Y-57580000D03*
D13*
X46800000Y-47420000D03*
D14*
X37120000Y-87300000D03*
D13*
X47280000Y-87300000D03*
D15*
X32800000Y-80900000D03*
D16*
X32800000Y-82170000D03*
X32800000Y-83440000D03*
D14*
X43960000Y-52100000D03*
D13*
X33800000Y-52100000D03*
D12*
X38390000Y-81100000D03*
D13*
X46010000Y-81100000D03*
D14*
X33520000Y-58100000D03*
D13*
X43680000Y-58100000D03*
G04 #@! TA.AperFunction,ComponentPad*
G36*
G01*
X35650000Y-127020000D02*
X35650000Y-128220000D01*
G75*
G02*
X35400000Y-128470000I-250000J0D01*
G01*
X34200000Y-128470000D01*
G75*
G02*
X33950000Y-128220000I0J250000D01*
G01*
X33950000Y-127020000D01*
G75*
G02*
X34200000Y-126770000I250000J0D01*
G01*
X35400000Y-126770000D01*
G75*
G02*
X35650000Y-127020000I0J-250000D01*
G01*
G37*
G04 #@! TD.AperFunction*
D17*
X32260000Y-127620000D03*
X34800000Y-130160000D03*
X32260000Y-130160000D03*
X34800000Y-132700000D03*
X32260000Y-132700000D03*
X34800000Y-135240000D03*
X32260000Y-135240000D03*
X34800000Y-137780000D03*
X32260000Y-137780000D03*
D14*
X47280000Y-90500000D03*
D13*
X37120000Y-90500000D03*
D12*
X38390000Y-96700000D03*
D13*
X46010000Y-96700000D03*
D12*
X43800000Y-43020000D03*
D13*
X41260000Y-43020000D03*
X38720000Y-43020000D03*
X36180000Y-43020000D03*
X36180000Y-35400000D03*
X38720000Y-35400000D03*
X41260000Y-35400000D03*
X43800000Y-35400000D03*
D12*
X41420000Y-45900000D03*
D13*
X33800000Y-45900000D03*
D14*
X33800000Y-48900000D03*
D13*
X43960000Y-48900000D03*
D15*
X32800000Y-86630000D03*
D16*
X32800000Y-87900000D03*
X32800000Y-89170000D03*
D14*
X47000000Y-35500000D03*
X47000000Y-40500000D03*
X37120000Y-74900000D03*
D13*
X47280000Y-74900000D03*
D12*
X31800000Y-38544888D03*
D14*
X31800000Y-40544888D03*
D12*
X38190000Y-71900000D03*
D13*
X45810000Y-71900000D03*
D12*
X40800000Y-137900000D03*
D14*
X42800000Y-137900000D03*
X46800000Y-66400000D03*
X46800000Y-61400000D03*
D12*
X43400000Y-127700000D03*
D14*
X41400000Y-127700000D03*
D12*
X36000000Y-61300000D03*
D13*
X38540000Y-61300000D03*
X41080000Y-61300000D03*
X43620000Y-61300000D03*
X43620000Y-68920000D03*
X41080000Y-68920000D03*
X38540000Y-68920000D03*
X36000000Y-68920000D03*
D18*
X37400000Y-63800000D03*
X45600000Y-63800000D03*
X39600000Y-70400000D03*
X35970000Y-103800000D03*
X36800000Y-84600000D03*
D19*
X40800000Y-137900000D02*
X34920000Y-137900000D01*
X34920000Y-137900000D02*
X34800000Y-137780000D01*
X34800000Y-137780000D02*
X32260000Y-137780000D01*
X41400000Y-127700000D02*
X34880000Y-127700000D01*
X34800000Y-127620000D02*
X32260000Y-127620000D01*
X34880000Y-127700000D02*
X34800000Y-127620000D01*
D20*
X48200000Y-72424365D02*
X48200000Y-48820000D01*
X48129289Y-72424365D02*
X48200000Y-72424365D01*
X39700000Y-84100000D02*
X39700000Y-80853654D01*
X32800000Y-86630000D02*
X36450000Y-86630000D01*
X46800000Y-43800000D02*
X46800000Y-47420000D01*
X39700000Y-80853654D02*
X48129289Y-72424365D01*
X39700000Y-84720000D02*
X39700000Y-84100000D01*
X37330000Y-41870000D02*
X44870000Y-41870000D01*
X48200000Y-48820000D02*
X46800000Y-47420000D01*
X37120000Y-87300000D02*
X39700000Y-84720000D01*
X36180000Y-43020000D02*
X37330000Y-41870000D01*
X36450000Y-86630000D02*
X37120000Y-87300000D01*
X44870000Y-41870000D02*
X46800000Y-43800000D01*
X44700000Y-84100000D02*
X44700000Y-80680000D01*
X44700000Y-80680000D02*
X47280000Y-78100000D01*
X36180000Y-35400000D02*
X34944888Y-35400000D01*
X34944888Y-35400000D02*
X31800000Y-38544888D01*
X34295000Y-93500000D02*
X37495000Y-96700000D01*
X37495000Y-96700000D02*
X38390000Y-96700000D01*
X44280000Y-96700000D02*
X47280000Y-99700000D01*
X38390000Y-96700000D02*
X44280000Y-96700000D01*
X32800000Y-93500000D02*
X34295000Y-93500000D01*
X37120000Y-90500000D02*
X34530000Y-90500000D01*
X37120000Y-93700000D02*
X37120000Y-90500000D01*
X34530000Y-90500000D02*
X32800000Y-92230000D01*
X33300000Y-87900000D02*
X32800000Y-87900000D01*
X33800000Y-88400000D02*
X33300000Y-87900000D01*
X38787106Y-90500000D02*
X36687106Y-88400000D01*
X36687106Y-88400000D02*
X33800000Y-88400000D01*
X47280000Y-90500000D02*
X38787106Y-90500000D01*
X42470000Y-68683654D02*
X37586346Y-63800000D01*
X42470000Y-70681370D02*
X42470000Y-68683654D01*
X37120000Y-74900000D02*
X32800000Y-79220000D01*
X37586346Y-63800000D02*
X37400000Y-63800000D01*
X37120000Y-74900000D02*
X38251370Y-74900000D01*
X32800000Y-79220000D02*
X32800000Y-80900000D01*
X38251370Y-74900000D02*
X42470000Y-70681370D01*
X34181370Y-82170000D02*
X32800000Y-82170000D01*
X37120000Y-78100000D02*
X37120000Y-79231370D01*
X37120000Y-79231370D02*
X34181370Y-82170000D01*
X38720000Y-45500000D02*
X42120000Y-48900000D01*
X38720000Y-43020000D02*
X38720000Y-45500000D01*
X42120000Y-48900000D02*
X43960000Y-48900000D01*
X38540000Y-56343654D02*
X38540000Y-61300000D01*
X42783654Y-52100000D02*
X38540000Y-56343654D01*
X36000000Y-61300000D02*
X38540000Y-61300000D01*
X43960000Y-52100000D02*
X42783654Y-52100000D01*
X30400000Y-51640000D02*
X33140000Y-48900000D01*
X33140000Y-48900000D02*
X33800000Y-48900000D01*
X30600000Y-49100000D02*
X33800000Y-45900000D01*
X30400000Y-49100000D02*
X30600000Y-49100000D01*
X31000000Y-112600000D02*
X30400000Y-113200000D01*
X34400000Y-112600000D02*
X31000000Y-112600000D01*
X33060000Y-118400000D02*
X30400000Y-115740000D01*
X34400000Y-118400000D02*
X33060000Y-118400000D01*
X31700000Y-101740000D02*
X30400000Y-103040000D01*
X38190000Y-71900000D02*
X31700000Y-78390000D01*
X31700000Y-78390000D02*
X31700000Y-101740000D01*
X33790000Y-55100000D02*
X32020000Y-55100000D01*
X32020000Y-55100000D02*
X30400000Y-56720000D01*
X29200000Y-73200000D02*
X29200000Y-109460000D01*
X38540000Y-68920000D02*
X37460000Y-70000000D01*
X32200000Y-70200000D02*
X29200000Y-73200000D01*
X36546346Y-70000000D02*
X36346346Y-70200000D01*
X41080000Y-68920000D02*
X38540000Y-68920000D01*
X36346346Y-70200000D02*
X32200000Y-70200000D01*
X29200000Y-109460000D02*
X30400000Y-110660000D01*
X37460000Y-70000000D02*
X36546346Y-70000000D01*
X32480000Y-52100000D02*
X30400000Y-54180000D01*
X33800000Y-52100000D02*
X32480000Y-52100000D01*
X30400000Y-108120000D02*
X37120000Y-101400000D01*
X37120000Y-101400000D02*
X37120000Y-99700000D01*
X33520000Y-58100000D02*
X31560000Y-58100000D01*
X31560000Y-58100000D02*
X30400000Y-59260000D01*
X39730000Y-62650000D02*
X31250000Y-62650000D01*
X31250000Y-62650000D02*
X30400000Y-61800000D01*
X41080000Y-61300000D02*
X39730000Y-62650000D01*
X29200000Y-63140000D02*
X30400000Y-64340000D01*
X41260000Y-35400000D02*
X29200000Y-47460000D01*
X29200000Y-47460000D02*
X29200000Y-63140000D01*
X30400000Y-74373654D02*
X34023654Y-70750000D01*
X45600000Y-63800000D02*
X45600000Y-58780000D01*
X39250000Y-70750000D02*
X39600000Y-70400000D01*
X34023654Y-70750000D02*
X39250000Y-70750000D01*
X30400000Y-100500000D02*
X30400000Y-78982894D01*
X45600000Y-58780000D02*
X46800000Y-57580000D01*
X30400000Y-78982894D02*
X30400000Y-75600000D01*
X30400000Y-75600000D02*
X30400000Y-74373654D01*
X42230000Y-55920000D02*
X41410000Y-55100000D01*
X36800000Y-80390000D02*
X36800000Y-84600000D01*
X39200000Y-118400000D02*
X37400000Y-120200000D01*
X35970000Y-103800000D02*
X35970000Y-106370000D01*
X45290000Y-71900000D02*
X36800000Y-80390000D01*
X35970000Y-106370000D02*
X39200000Y-109600000D01*
X43620000Y-68920000D02*
X42230000Y-67530000D01*
X45810000Y-71900000D02*
X45290000Y-71900000D01*
X39200000Y-109600000D02*
X39200000Y-118400000D01*
X37400000Y-120200000D02*
X32320000Y-120200000D01*
X43620000Y-69710000D02*
X43620000Y-68920000D01*
D21*
X41420000Y-45860000D02*
X41420000Y-45900000D01*
D20*
X32320000Y-120200000D02*
X30400000Y-118280000D01*
X45810000Y-71900000D02*
X43620000Y-69710000D01*
X42230000Y-67530000D02*
X42230000Y-55920000D01*
G04 #@! TA.AperFunction,Conductor*
G36*
X32862470Y-135489363D02*
G01*
X32868949Y-135495396D01*
X33374925Y-136001373D01*
X33428424Y-135924970D01*
X33483001Y-135881345D01*
X33552499Y-135874152D01*
X33614854Y-135905674D01*
X33631574Y-135924970D01*
X33685072Y-136001373D01*
X33685073Y-136001373D01*
X34191050Y-135495395D01*
X34252373Y-135461910D01*
X34322064Y-135466894D01*
X34377998Y-135508765D01*
X34383039Y-135516025D01*
X34383048Y-135516039D01*
X34418239Y-135570798D01*
X34533602Y-135670759D01*
X34531293Y-135673422D01*
X34566006Y-135713499D01*
X34575935Y-135782660D01*
X34546898Y-135846210D01*
X34540882Y-135852669D01*
X34038625Y-136354925D01*
X34109801Y-136404763D01*
X34153426Y-136459340D01*
X34160620Y-136528838D01*
X34129097Y-136591193D01*
X34097697Y-136615392D01*
X34054427Y-136638809D01*
X34054422Y-136638812D01*
X33876761Y-136777092D01*
X33876756Y-136777097D01*
X33734633Y-136931483D01*
X33674746Y-136967474D01*
X33643404Y-136971500D01*
X33416596Y-136971500D01*
X33349557Y-136951815D01*
X33325367Y-136931483D01*
X33183243Y-136777097D01*
X33183238Y-136777092D01*
X33064797Y-136684905D01*
X33005577Y-136638811D01*
X32962303Y-136615393D01*
X32912713Y-136566173D01*
X32897605Y-136497957D01*
X32921775Y-136432401D01*
X32950198Y-136404763D01*
X33021373Y-136354925D01*
X32519116Y-135852669D01*
X32485631Y-135791346D01*
X32490615Y-135721655D01*
X32527640Y-135672193D01*
X32526398Y-135670759D01*
X32533100Y-135664952D01*
X32641761Y-135570798D01*
X32676954Y-135516037D01*
X32729755Y-135470283D01*
X32798914Y-135460339D01*
X32862470Y-135489363D01*
G37*
G04 #@! TD.AperFunction*
G04 #@! TA.AperFunction,Conductor*
G36*
X32862470Y-132949363D02*
G01*
X32868949Y-132955396D01*
X33374925Y-133461373D01*
X33428425Y-133384968D01*
X33483002Y-133341344D01*
X33552501Y-133334151D01*
X33614855Y-133365673D01*
X33631576Y-133384969D01*
X33685073Y-133461372D01*
X34191050Y-132955395D01*
X34252373Y-132921910D01*
X34322064Y-132926894D01*
X34377998Y-132968765D01*
X34383039Y-132976025D01*
X34383048Y-132976039D01*
X34418239Y-133030798D01*
X34533602Y-133130759D01*
X34531293Y-133133422D01*
X34566006Y-133173499D01*
X34575935Y-133242660D01*
X34546898Y-133306210D01*
X34540882Y-133312669D01*
X34038625Y-133814925D01*
X34115031Y-133868425D01*
X34158655Y-133923002D01*
X34165848Y-133992501D01*
X34134326Y-134054855D01*
X34115029Y-134071576D01*
X34038625Y-134125072D01*
X34540883Y-134627330D01*
X34574368Y-134688653D01*
X34569384Y-134758345D01*
X34532357Y-134807805D01*
X34533602Y-134809241D01*
X34418238Y-134909202D01*
X34383046Y-134963962D01*
X34330242Y-135009717D01*
X34261083Y-135019660D01*
X34197528Y-134990634D01*
X34191050Y-134984603D01*
X33685072Y-134478625D01*
X33685072Y-134478626D01*
X33631574Y-134555030D01*
X33576998Y-134598655D01*
X33507499Y-134605849D01*
X33445144Y-134574326D01*
X33428424Y-134555030D01*
X33374925Y-134478626D01*
X33374925Y-134478625D01*
X32868949Y-134984602D01*
X32807626Y-135018087D01*
X32737934Y-135013103D01*
X32682001Y-134971231D01*
X32676953Y-134963961D01*
X32641761Y-134909202D01*
X32526398Y-134809241D01*
X32528708Y-134806574D01*
X32494005Y-134766528D01*
X32484058Y-134697370D01*
X32513080Y-134633813D01*
X32519116Y-134627330D01*
X33021373Y-134125073D01*
X32944969Y-134071576D01*
X32901344Y-134016999D01*
X32894150Y-133947501D01*
X32925672Y-133885146D01*
X32944968Y-133868425D01*
X33021373Y-133814925D01*
X32519116Y-133312669D01*
X32485631Y-133251346D01*
X32490615Y-133181655D01*
X32527640Y-133132193D01*
X32526398Y-133130759D01*
X32533100Y-133124952D01*
X32641761Y-133030798D01*
X32676954Y-132976037D01*
X32729755Y-132930283D01*
X32798914Y-132920339D01*
X32862470Y-132949363D01*
G37*
G04 #@! TD.AperFunction*
G04 #@! TA.AperFunction,Conductor*
G36*
X32862470Y-130409363D02*
G01*
X32868949Y-130415396D01*
X33374925Y-130921373D01*
X33428425Y-130844968D01*
X33483002Y-130801344D01*
X33552501Y-130794151D01*
X33614855Y-130825673D01*
X33631576Y-130844969D01*
X33685073Y-130921372D01*
X34191050Y-130415395D01*
X34252373Y-130381910D01*
X34322064Y-130386894D01*
X34377998Y-130428765D01*
X34383039Y-130436025D01*
X34383048Y-130436039D01*
X34418239Y-130490798D01*
X34533602Y-130590759D01*
X34531293Y-130593422D01*
X34566006Y-130633499D01*
X34575935Y-130702660D01*
X34546898Y-130766210D01*
X34540882Y-130772669D01*
X34038625Y-131274925D01*
X34115031Y-131328425D01*
X34158655Y-131383002D01*
X34165848Y-131452501D01*
X34134326Y-131514855D01*
X34115029Y-131531576D01*
X34038625Y-131585072D01*
X34540883Y-132087330D01*
X34574368Y-132148653D01*
X34569384Y-132218345D01*
X34532357Y-132267805D01*
X34533602Y-132269241D01*
X34418238Y-132369202D01*
X34383046Y-132423962D01*
X34330242Y-132469717D01*
X34261083Y-132479660D01*
X34197528Y-132450634D01*
X34191050Y-132444603D01*
X33685072Y-131938625D01*
X33685072Y-131938626D01*
X33631574Y-132015030D01*
X33576998Y-132058655D01*
X33507499Y-132065849D01*
X33445144Y-132034326D01*
X33428424Y-132015030D01*
X33374925Y-131938626D01*
X33374925Y-131938625D01*
X32868949Y-132444602D01*
X32807626Y-132478087D01*
X32737934Y-132473103D01*
X32682001Y-132431231D01*
X32676953Y-132423961D01*
X32641761Y-132369202D01*
X32526398Y-132269241D01*
X32528708Y-132266574D01*
X32494005Y-132226528D01*
X32484058Y-132157370D01*
X32513080Y-132093813D01*
X32519116Y-132087330D01*
X33021373Y-131585073D01*
X32944969Y-131531576D01*
X32901344Y-131476999D01*
X32894150Y-131407501D01*
X32925672Y-131345146D01*
X32944968Y-131328425D01*
X33021373Y-131274925D01*
X32519116Y-130772669D01*
X32485631Y-130711346D01*
X32490615Y-130641655D01*
X32527640Y-130592193D01*
X32526398Y-130590759D01*
X32533100Y-130584952D01*
X32641761Y-130490798D01*
X32676954Y-130436037D01*
X32729755Y-130390283D01*
X32798914Y-130380339D01*
X32862470Y-130409363D01*
G37*
G04 #@! TD.AperFunction*
G04 #@! TA.AperFunction,Conductor*
G36*
X33428542Y-128463467D02*
G01*
X33486158Y-128502991D01*
X33504474Y-128536362D01*
X33504835Y-128536195D01*
X33507389Y-128541672D01*
X33507749Y-128542329D01*
X33507882Y-128542730D01*
X33507884Y-128542735D01*
X33507886Y-128542740D01*
X33543141Y-128599898D01*
X33600970Y-128693652D01*
X33726348Y-128819030D01*
X33877262Y-128912115D01*
X33952314Y-128936984D01*
X34009759Y-128976756D01*
X34036582Y-129041272D01*
X34036600Y-129043047D01*
X34540883Y-129547330D01*
X34574368Y-129608653D01*
X34569384Y-129678345D01*
X34532357Y-129727805D01*
X34533602Y-129729241D01*
X34418238Y-129829202D01*
X34383046Y-129883962D01*
X34330242Y-129929717D01*
X34261083Y-129939660D01*
X34197528Y-129910634D01*
X34191050Y-129904603D01*
X33685072Y-129398625D01*
X33685072Y-129398626D01*
X33631574Y-129475030D01*
X33576998Y-129518655D01*
X33507499Y-129525849D01*
X33445144Y-129494326D01*
X33428424Y-129475030D01*
X33374925Y-129398626D01*
X33374925Y-129398625D01*
X32868949Y-129904602D01*
X32807626Y-129938087D01*
X32737934Y-129933103D01*
X32682001Y-129891231D01*
X32676953Y-129883961D01*
X32641761Y-129829202D01*
X32526398Y-129729241D01*
X32528708Y-129726574D01*
X32494005Y-129686528D01*
X32484058Y-129617370D01*
X32513080Y-129553813D01*
X32519116Y-129547330D01*
X33021373Y-129045073D01*
X33021373Y-129045072D01*
X32950199Y-128995236D01*
X32906574Y-128940659D01*
X32899380Y-128871161D01*
X32930903Y-128808806D01*
X32962305Y-128784606D01*
X33005576Y-128761189D01*
X33183240Y-128622906D01*
X33298818Y-128497355D01*
X33358704Y-128461366D01*
X33428542Y-128463467D01*
G37*
G04 #@! TD.AperFunction*
G04 #@! TA.AperFunction,Conductor*
G36*
X34174890Y-94322759D02*
G01*
X34212068Y-94348328D01*
X36968281Y-97104540D01*
X36978435Y-97117213D01*
X36978611Y-97117069D01*
X36983585Y-97123082D01*
X37036701Y-97172961D01*
X37045181Y-97181441D01*
X37078666Y-97242764D01*
X37081500Y-97269122D01*
X37081500Y-97548654D01*
X37088011Y-97609202D01*
X37088011Y-97609204D01*
X37139111Y-97746204D01*
X37226739Y-97863261D01*
X37343796Y-97950889D01*
X37480799Y-98001989D01*
X37508050Y-98004918D01*
X37541345Y-98008499D01*
X37541362Y-98008500D01*
X39238638Y-98008500D01*
X39238654Y-98008499D01*
X39265692Y-98005591D01*
X39299201Y-98001989D01*
X39436204Y-97950889D01*
X39553261Y-97863261D01*
X39640889Y-97746204D01*
X39691989Y-97609201D01*
X39695591Y-97575692D01*
X39698499Y-97548654D01*
X39698500Y-97548637D01*
X39698500Y-97482500D01*
X39718185Y-97415461D01*
X39770989Y-97369706D01*
X39822500Y-97358500D01*
X43955878Y-97358500D01*
X44022917Y-97378185D01*
X44043559Y-97394819D01*
X45964192Y-99315452D01*
X45997677Y-99376775D01*
X45996287Y-99435223D01*
X45986458Y-99471908D01*
X45986456Y-99471918D01*
X45966502Y-99699998D01*
X45966502Y-99700001D01*
X45986456Y-99928081D01*
X45986457Y-99928089D01*
X46045714Y-100149238D01*
X46045718Y-100149249D01*
X46142475Y-100356745D01*
X46142477Y-100356749D01*
X46273802Y-100544300D01*
X46435700Y-100706198D01*
X46623251Y-100837523D01*
X46748091Y-100895736D01*
X46830750Y-100934281D01*
X46830752Y-100934281D01*
X46830757Y-100934284D01*
X47051913Y-100993543D01*
X47214832Y-101007796D01*
X47279998Y-101013498D01*
X47280000Y-101013498D01*
X47280002Y-101013498D01*
X47337021Y-101008509D01*
X47508087Y-100993543D01*
X47729243Y-100934284D01*
X47923097Y-100843888D01*
X47992173Y-100833397D01*
X48055957Y-100861917D01*
X48094196Y-100920393D01*
X48099500Y-100956271D01*
X48099500Y-142875500D01*
X48079815Y-142942539D01*
X48027011Y-142988294D01*
X47975500Y-142999500D01*
X29224500Y-142999500D01*
X29157461Y-142979815D01*
X29111706Y-142927011D01*
X29100500Y-142875500D01*
X29100500Y-137780005D01*
X30896844Y-137780005D01*
X30915434Y-138004359D01*
X30915436Y-138004371D01*
X30970703Y-138222614D01*
X31061140Y-138428792D01*
X31184276Y-138617265D01*
X31184284Y-138617276D01*
X31334995Y-138780989D01*
X31336760Y-138782906D01*
X31514424Y-138921189D01*
X31514425Y-138921189D01*
X31514427Y-138921191D01*
X31621296Y-138979025D01*
X31712426Y-139028342D01*
X31925365Y-139101444D01*
X32147431Y-139138500D01*
X32372569Y-139138500D01*
X32594635Y-139101444D01*
X32807574Y-139028342D01*
X33005576Y-138921189D01*
X33183240Y-138782906D01*
X33262938Y-138696331D01*
X33325367Y-138628517D01*
X33385254Y-138592526D01*
X33416596Y-138588500D01*
X33643404Y-138588500D01*
X33710443Y-138608185D01*
X33734633Y-138628517D01*
X33874995Y-138780989D01*
X33876760Y-138782906D01*
X34054424Y-138921189D01*
X34054425Y-138921189D01*
X34054427Y-138921191D01*
X34161296Y-138979025D01*
X34252426Y-139028342D01*
X34465365Y-139101444D01*
X34687431Y-139138500D01*
X34912569Y-139138500D01*
X35134635Y-139101444D01*
X35347574Y-139028342D01*
X35545576Y-138921189D01*
X35723240Y-138782906D01*
X35741720Y-138762830D01*
X35754898Y-138748517D01*
X35814785Y-138712526D01*
X35846127Y-138708500D01*
X39376102Y-138708500D01*
X39443141Y-138728185D01*
X39488896Y-138780989D01*
X39496780Y-138803992D01*
X39498011Y-138809202D01*
X39549111Y-138946203D01*
X39549111Y-138946204D01*
X39636739Y-139063261D01*
X39753796Y-139150889D01*
X39890799Y-139201989D01*
X39918050Y-139204918D01*
X39951345Y-139208499D01*
X39951362Y-139208500D01*
X41648638Y-139208500D01*
X41648654Y-139208499D01*
X41675692Y-139205591D01*
X41709201Y-139201989D01*
X41846204Y-139150889D01*
X41963261Y-139063261D01*
X41970907Y-139053046D01*
X42026840Y-139011174D01*
X42096531Y-139006188D01*
X42141302Y-139025782D01*
X42147514Y-139030132D01*
X42147516Y-139030133D01*
X42353673Y-139126265D01*
X42353682Y-139126269D01*
X42573389Y-139185139D01*
X42573400Y-139185141D01*
X42799998Y-139204966D01*
X42800002Y-139204966D01*
X43026599Y-139185141D01*
X43026610Y-139185139D01*
X43246317Y-139126269D01*
X43246331Y-139126264D01*
X43452478Y-139030136D01*
X43525472Y-138979025D01*
X42983866Y-138437419D01*
X42950381Y-138376096D01*
X42955365Y-138306404D01*
X42997237Y-138250471D01*
X43015245Y-138239258D01*
X43038045Y-138227641D01*
X43127641Y-138138045D01*
X43139254Y-138115252D01*
X43187225Y-138064458D01*
X43255046Y-138047661D01*
X43321181Y-138070197D01*
X43337419Y-138083866D01*
X43879025Y-138625472D01*
X43930136Y-138552478D01*
X44026264Y-138346331D01*
X44026269Y-138346317D01*
X44085139Y-138126610D01*
X44085141Y-138126599D01*
X44104966Y-137900002D01*
X44104966Y-137899997D01*
X44085141Y-137673400D01*
X44085139Y-137673389D01*
X44026269Y-137453682D01*
X44026265Y-137453673D01*
X43930133Y-137247516D01*
X43930131Y-137247512D01*
X43879026Y-137174526D01*
X43879025Y-137174526D01*
X43337419Y-137716132D01*
X43276096Y-137749617D01*
X43206404Y-137744633D01*
X43150471Y-137702761D01*
X43139256Y-137684751D01*
X43127641Y-137661955D01*
X43127637Y-137661951D01*
X43127636Y-137661949D01*
X43038050Y-137572363D01*
X43038044Y-137572358D01*
X43028109Y-137567296D01*
X43015250Y-137560744D01*
X42964456Y-137512773D01*
X42947660Y-137444952D01*
X42970197Y-137378817D01*
X42983865Y-137362580D01*
X43525472Y-136820973D01*
X43452483Y-136769866D01*
X43452481Y-136769865D01*
X43246326Y-136673734D01*
X43246317Y-136673730D01*
X43026610Y-136614860D01*
X43026599Y-136614858D01*
X42800002Y-136595034D01*
X42799998Y-136595034D01*
X42573400Y-136614858D01*
X42573389Y-136614860D01*
X42353682Y-136673730D01*
X42353673Y-136673734D01*
X42147518Y-136769865D01*
X42147515Y-136769867D01*
X42141291Y-136774225D01*
X42075083Y-136796547D01*
X42007317Y-136779531D01*
X41970909Y-136746955D01*
X41963263Y-136736742D01*
X41963261Y-136736739D01*
X41846204Y-136649111D01*
X41818584Y-136638809D01*
X41709203Y-136598011D01*
X41648654Y-136591500D01*
X41648638Y-136591500D01*
X39951362Y-136591500D01*
X39951345Y-136591500D01*
X39890797Y-136598011D01*
X39890795Y-136598011D01*
X39753795Y-136649111D01*
X39636739Y-136736739D01*
X39549111Y-136853795D01*
X39498011Y-136990797D01*
X39496780Y-136996008D01*
X39462210Y-137056726D01*
X39400302Y-137089116D01*
X39376102Y-137091500D01*
X36040023Y-137091500D01*
X35972984Y-137071815D01*
X35936215Y-137035322D01*
X35875723Y-136942734D01*
X35875715Y-136942723D01*
X35723243Y-136777097D01*
X35723238Y-136777092D01*
X35604797Y-136684905D01*
X35545577Y-136638811D01*
X35502303Y-136615393D01*
X35452713Y-136566173D01*
X35437605Y-136497957D01*
X35461775Y-136432401D01*
X35490198Y-136404763D01*
X35561373Y-136354925D01*
X35059116Y-135852669D01*
X35025631Y-135791346D01*
X35030615Y-135721655D01*
X35067640Y-135672193D01*
X35066398Y-135670759D01*
X35073100Y-135664952D01*
X35181761Y-135570798D01*
X35216954Y-135516037D01*
X35269755Y-135470283D01*
X35338914Y-135460339D01*
X35402470Y-135489363D01*
X35408949Y-135495396D01*
X35914925Y-136001373D01*
X35914926Y-136001373D01*
X35973598Y-135917582D01*
X35973600Y-135917578D01*
X36073429Y-135703492D01*
X36073433Y-135703483D01*
X36134567Y-135475326D01*
X36134569Y-135475315D01*
X36155157Y-135240001D01*
X36155157Y-135239998D01*
X36134569Y-135004684D01*
X36134567Y-135004673D01*
X36073433Y-134776516D01*
X36073429Y-134776507D01*
X35973600Y-134562423D01*
X35973599Y-134562421D01*
X35914925Y-134478626D01*
X35914925Y-134478625D01*
X35408949Y-134984602D01*
X35347626Y-135018087D01*
X35277934Y-135013103D01*
X35222001Y-134971231D01*
X35216953Y-134963961D01*
X35181761Y-134909202D01*
X35066398Y-134809241D01*
X35068708Y-134806574D01*
X35034005Y-134766528D01*
X35024058Y-134697370D01*
X35053080Y-134633813D01*
X35059116Y-134627330D01*
X35561373Y-134125073D01*
X35484969Y-134071576D01*
X35441344Y-134016999D01*
X35434150Y-133947501D01*
X35465672Y-133885146D01*
X35484968Y-133868425D01*
X35561373Y-133814925D01*
X35059116Y-133312669D01*
X35025631Y-133251346D01*
X35030615Y-133181655D01*
X35067640Y-133132193D01*
X35066398Y-133130759D01*
X35073100Y-133124952D01*
X35181761Y-133030798D01*
X35216954Y-132976037D01*
X35269755Y-132930283D01*
X35338914Y-132920339D01*
X35402470Y-132949363D01*
X35408949Y-132955396D01*
X35914925Y-133461373D01*
X35914926Y-133461373D01*
X35973598Y-133377582D01*
X35973600Y-133377578D01*
X36073429Y-133163492D01*
X36073433Y-133163483D01*
X36134567Y-132935326D01*
X36134569Y-132935315D01*
X36155157Y-132700001D01*
X36155157Y-132699998D01*
X36134569Y-132464684D01*
X36134567Y-132464673D01*
X36073433Y-132236516D01*
X36073429Y-132236507D01*
X35973600Y-132022423D01*
X35973599Y-132022421D01*
X35914925Y-131938626D01*
X35914925Y-131938625D01*
X35408949Y-132444602D01*
X35347626Y-132478087D01*
X35277934Y-132473103D01*
X35222001Y-132431231D01*
X35216953Y-132423961D01*
X35181761Y-132369202D01*
X35066398Y-132269241D01*
X35068708Y-132266574D01*
X35034005Y-132226528D01*
X35024058Y-132157370D01*
X35053080Y-132093813D01*
X35059116Y-132087330D01*
X35561373Y-131585073D01*
X35484969Y-131531576D01*
X35441344Y-131476999D01*
X35434150Y-131407501D01*
X35465672Y-131345146D01*
X35484968Y-131328425D01*
X35561373Y-131274925D01*
X35059116Y-130772669D01*
X35025631Y-130711346D01*
X35030615Y-130641655D01*
X35067640Y-130592193D01*
X35066398Y-130590759D01*
X35073100Y-130584952D01*
X35181761Y-130490798D01*
X35216954Y-130436037D01*
X35269755Y-130390283D01*
X35338914Y-130380339D01*
X35402470Y-130409363D01*
X35408949Y-130415396D01*
X35914925Y-130921373D01*
X35914926Y-130921373D01*
X35973598Y-130837582D01*
X35973600Y-130837578D01*
X36073429Y-130623492D01*
X36073433Y-130623483D01*
X36134567Y-130395326D01*
X36134569Y-130395315D01*
X36155157Y-130160001D01*
X36155157Y-130159998D01*
X36134569Y-129924684D01*
X36134567Y-129924673D01*
X36073433Y-129696516D01*
X36073429Y-129696507D01*
X35973600Y-129482423D01*
X35973599Y-129482421D01*
X35914925Y-129398626D01*
X35914925Y-129398625D01*
X35408949Y-129904602D01*
X35347626Y-129938087D01*
X35277934Y-129933103D01*
X35222001Y-129891231D01*
X35216953Y-129883961D01*
X35181761Y-129829202D01*
X35066398Y-129729241D01*
X35068708Y-129726574D01*
X35034005Y-129686528D01*
X35024058Y-129617370D01*
X35053080Y-129553813D01*
X35059116Y-129547330D01*
X35568746Y-129037700D01*
X35576926Y-128996998D01*
X35625541Y-128946815D01*
X35647679Y-128936986D01*
X35722738Y-128912115D01*
X35873652Y-128819030D01*
X35999030Y-128693652D01*
X36052248Y-128607372D01*
X36076902Y-128567403D01*
X36128849Y-128520678D01*
X36182440Y-128508500D01*
X40306640Y-128508500D01*
X40373679Y-128528185D01*
X40394320Y-128544819D01*
X40555700Y-128706198D01*
X40743251Y-128837523D01*
X40868091Y-128895736D01*
X40950750Y-128934281D01*
X40950752Y-128934281D01*
X40950757Y-128934284D01*
X41171913Y-128993543D01*
X41334832Y-129007796D01*
X41399998Y-129013498D01*
X41400000Y-129013498D01*
X41400002Y-129013498D01*
X41457021Y-129008509D01*
X41628087Y-128993543D01*
X41849243Y-128934284D01*
X42056749Y-128837523D01*
X42070761Y-128827711D01*
X42136966Y-128805383D01*
X42204734Y-128822392D01*
X42241154Y-128854975D01*
X42242810Y-128857188D01*
X42242814Y-128857191D01*
X42357906Y-128943350D01*
X42357913Y-128943354D01*
X42492620Y-128993596D01*
X42492627Y-128993598D01*
X42552155Y-128999999D01*
X42552172Y-129000000D01*
X43150000Y-129000000D01*
X43150000Y-128210575D01*
X43169685Y-128143536D01*
X43222489Y-128097781D01*
X43291647Y-128087837D01*
X43293331Y-128088091D01*
X43325699Y-128093218D01*
X43368515Y-128100000D01*
X43368519Y-128100000D01*
X43431485Y-128100000D01*
X43474300Y-128093218D01*
X43506602Y-128088102D01*
X43575894Y-128097056D01*
X43629347Y-128142052D01*
X43649987Y-128208803D01*
X43650000Y-128210575D01*
X43650000Y-129000000D01*
X44247828Y-129000000D01*
X44247844Y-128999999D01*
X44307372Y-128993598D01*
X44307379Y-128993596D01*
X44442086Y-128943354D01*
X44442093Y-128943350D01*
X44557187Y-128857190D01*
X44557190Y-128857187D01*
X44643350Y-128742093D01*
X44643354Y-128742086D01*
X44693596Y-128607379D01*
X44693598Y-128607372D01*
X44699999Y-128547844D01*
X44700000Y-128547827D01*
X44700000Y-127950000D01*
X43910576Y-127950000D01*
X43843537Y-127930315D01*
X43797782Y-127877511D01*
X43787838Y-127808353D01*
X43788103Y-127806603D01*
X43804986Y-127700003D01*
X43804986Y-127699996D01*
X43788103Y-127593397D01*
X43797058Y-127524104D01*
X43842054Y-127470652D01*
X43908806Y-127450013D01*
X43910576Y-127450000D01*
X44700000Y-127450000D01*
X44700000Y-126852172D01*
X44699999Y-126852155D01*
X44693598Y-126792627D01*
X44693596Y-126792620D01*
X44643354Y-126657913D01*
X44643350Y-126657906D01*
X44557190Y-126542812D01*
X44557187Y-126542809D01*
X44442093Y-126456649D01*
X44442086Y-126456645D01*
X44307379Y-126406403D01*
X44307372Y-126406401D01*
X44247844Y-126400000D01*
X43650000Y-126400000D01*
X43650000Y-127189424D01*
X43630315Y-127256463D01*
X43577511Y-127302218D01*
X43508353Y-127312162D01*
X43506602Y-127311897D01*
X43431486Y-127300000D01*
X43431481Y-127300000D01*
X43368519Y-127300000D01*
X43368514Y-127300000D01*
X43293398Y-127311897D01*
X43224104Y-127302942D01*
X43170652Y-127257946D01*
X43150013Y-127191194D01*
X43150000Y-127189424D01*
X43150000Y-126400000D01*
X42552155Y-126400000D01*
X42492627Y-126406401D01*
X42492620Y-126406403D01*
X42357913Y-126456645D01*
X42357906Y-126456649D01*
X42242812Y-126542809D01*
X42242811Y-126542810D01*
X42241149Y-126545031D01*
X42238930Y-126546691D01*
X42236541Y-126549081D01*
X42236197Y-126548737D01*
X42185213Y-126586899D01*
X42115521Y-126591880D01*
X42070763Y-126572290D01*
X42056749Y-126562477D01*
X42056743Y-126562474D01*
X41849249Y-126465718D01*
X41849238Y-126465714D01*
X41628089Y-126406457D01*
X41628081Y-126406456D01*
X41400002Y-126386502D01*
X41399998Y-126386502D01*
X41171918Y-126406456D01*
X41171910Y-126406457D01*
X40950761Y-126465714D01*
X40950750Y-126465718D01*
X40743254Y-126562475D01*
X40743252Y-126562476D01*
X40708373Y-126586899D01*
X40555700Y-126693802D01*
X40555698Y-126693803D01*
X40555695Y-126693806D01*
X40394321Y-126855181D01*
X40332998Y-126888666D01*
X40306640Y-126891500D01*
X36246019Y-126891500D01*
X36178980Y-126871815D01*
X36133225Y-126819011D01*
X36128313Y-126806503D01*
X36092116Y-126697266D01*
X36092115Y-126697262D01*
X35999030Y-126546348D01*
X35873652Y-126420970D01*
X35722738Y-126327885D01*
X35722735Y-126327884D01*
X35554427Y-126272113D01*
X35450545Y-126261500D01*
X34149462Y-126261500D01*
X34149446Y-126261501D01*
X34045572Y-126272113D01*
X33877264Y-126327884D01*
X33877259Y-126327886D01*
X33726346Y-126420971D01*
X33600971Y-126546346D01*
X33507886Y-126697259D01*
X33507882Y-126697268D01*
X33507749Y-126697672D01*
X33507582Y-126697912D01*
X33504835Y-126703805D01*
X33503827Y-126703335D01*
X33467972Y-126755114D01*
X33403454Y-126781932D01*
X33334680Y-126769612D01*
X33298817Y-126742643D01*
X33183240Y-126617094D01*
X33183237Y-126617092D01*
X33183238Y-126617092D01*
X33005577Y-126478812D01*
X33005572Y-126478808D01*
X32807580Y-126371661D01*
X32807577Y-126371659D01*
X32807574Y-126371658D01*
X32807571Y-126371657D01*
X32807569Y-126371656D01*
X32594637Y-126298556D01*
X32372569Y-126261500D01*
X32147431Y-126261500D01*
X31925362Y-126298556D01*
X31712430Y-126371656D01*
X31712419Y-126371661D01*
X31514427Y-126478808D01*
X31514422Y-126478812D01*
X31336761Y-126617092D01*
X31336756Y-126617097D01*
X31184284Y-126782723D01*
X31184276Y-126782734D01*
X31061140Y-126971207D01*
X30970703Y-127177385D01*
X30915436Y-127395628D01*
X30915434Y-127395640D01*
X30896844Y-127619994D01*
X30896844Y-127620005D01*
X30915434Y-127844359D01*
X30915436Y-127844371D01*
X30970703Y-128062614D01*
X31061140Y-128268792D01*
X31184276Y-128457265D01*
X31184284Y-128457276D01*
X31322466Y-128607379D01*
X31336760Y-128622906D01*
X31514424Y-128761189D01*
X31557695Y-128784606D01*
X31607286Y-128833825D01*
X31622394Y-128902042D01*
X31598224Y-128967597D01*
X31569801Y-128995236D01*
X31498626Y-129045072D01*
X31498625Y-129045072D01*
X32000883Y-129547330D01*
X32034368Y-129608653D01*
X32029384Y-129678345D01*
X31992357Y-129727805D01*
X31993602Y-129729241D01*
X31878238Y-129829202D01*
X31843046Y-129883962D01*
X31790242Y-129929717D01*
X31721083Y-129939660D01*
X31657528Y-129910634D01*
X31651050Y-129904603D01*
X31145072Y-129398625D01*
X31086401Y-129482419D01*
X30986570Y-129696507D01*
X30986566Y-129696516D01*
X30925432Y-129924673D01*
X30925430Y-129924684D01*
X30904843Y-130159998D01*
X30904843Y-130160001D01*
X30925430Y-130395315D01*
X30925432Y-130395326D01*
X30986566Y-130623483D01*
X30986570Y-130623492D01*
X31086400Y-130837579D01*
X31086402Y-130837583D01*
X31145072Y-130921373D01*
X31145073Y-130921373D01*
X31651050Y-130415395D01*
X31712373Y-130381910D01*
X31782064Y-130386894D01*
X31837998Y-130428765D01*
X31843039Y-130436025D01*
X31843048Y-130436039D01*
X31878239Y-130490798D01*
X31993602Y-130590759D01*
X31991293Y-130593422D01*
X32026006Y-130633499D01*
X32035935Y-130702660D01*
X32006898Y-130766210D01*
X32000882Y-130772669D01*
X31498625Y-131274925D01*
X31575031Y-131328425D01*
X31618655Y-131383002D01*
X31625848Y-131452501D01*
X31594326Y-131514855D01*
X31575029Y-131531576D01*
X31498625Y-131585072D01*
X32000883Y-132087330D01*
X32034368Y-132148653D01*
X32029384Y-132218345D01*
X31992357Y-132267805D01*
X31993602Y-132269241D01*
X31878238Y-132369202D01*
X31843046Y-132423962D01*
X31790242Y-132469717D01*
X31721083Y-132479660D01*
X31657528Y-132450634D01*
X31651050Y-132444603D01*
X31145072Y-131938625D01*
X31086401Y-132022419D01*
X30986570Y-132236507D01*
X30986566Y-132236516D01*
X30925432Y-132464673D01*
X30925430Y-132464684D01*
X30904843Y-132699998D01*
X30904843Y-132700001D01*
X30925430Y-132935315D01*
X30925432Y-132935326D01*
X30986566Y-133163483D01*
X30986570Y-133163492D01*
X31086400Y-133377579D01*
X31086402Y-133377583D01*
X31145072Y-133461373D01*
X31145073Y-133461373D01*
X31651050Y-132955395D01*
X31712373Y-132921910D01*
X31782064Y-132926894D01*
X31837998Y-132968765D01*
X31843039Y-132976025D01*
X31843048Y-132976039D01*
X31878239Y-133030798D01*
X31993602Y-133130759D01*
X31991293Y-133133422D01*
X32026006Y-133173499D01*
X32035935Y-133242660D01*
X32006898Y-133306210D01*
X32000882Y-133312669D01*
X31498625Y-133814925D01*
X31575031Y-133868425D01*
X31618655Y-133923002D01*
X31625848Y-133992501D01*
X31594326Y-134054855D01*
X31575029Y-134071576D01*
X31498625Y-134125072D01*
X32000883Y-134627330D01*
X32034368Y-134688653D01*
X32029384Y-134758345D01*
X31992357Y-134807805D01*
X31993602Y-134809241D01*
X31878238Y-134909202D01*
X31843046Y-134963962D01*
X31790242Y-135009717D01*
X31721083Y-135019660D01*
X31657528Y-134990634D01*
X31651050Y-134984603D01*
X31145072Y-134478625D01*
X31086401Y-134562419D01*
X30986570Y-134776507D01*
X30986566Y-134776516D01*
X30925432Y-135004673D01*
X30925430Y-135004684D01*
X30904843Y-135239998D01*
X30904843Y-135240001D01*
X30925430Y-135475315D01*
X30925432Y-135475326D01*
X30986566Y-135703483D01*
X30986570Y-135703492D01*
X31086400Y-135917579D01*
X31086402Y-135917583D01*
X31145072Y-136001373D01*
X31145073Y-136001373D01*
X31651050Y-135495395D01*
X31712373Y-135461910D01*
X31782064Y-135466894D01*
X31837998Y-135508765D01*
X31843039Y-135516025D01*
X31843048Y-135516039D01*
X31878239Y-135570798D01*
X31993602Y-135670759D01*
X31991293Y-135673422D01*
X32026006Y-135713499D01*
X32035935Y-135782660D01*
X32006898Y-135846210D01*
X32000882Y-135852669D01*
X31498625Y-136354925D01*
X31569801Y-136404763D01*
X31613426Y-136459340D01*
X31620620Y-136528838D01*
X31589097Y-136591193D01*
X31557697Y-136615392D01*
X31514427Y-136638809D01*
X31514422Y-136638812D01*
X31336761Y-136777092D01*
X31336756Y-136777097D01*
X31184284Y-136942723D01*
X31184276Y-136942734D01*
X31061140Y-137131207D01*
X30970703Y-137337385D01*
X30915436Y-137555628D01*
X30915434Y-137555640D01*
X30896844Y-137779994D01*
X30896844Y-137780005D01*
X29100500Y-137780005D01*
X29100500Y-119190957D01*
X29120185Y-119123918D01*
X29172989Y-119078163D01*
X29242147Y-119068219D01*
X29305703Y-119097244D01*
X29322357Y-119114799D01*
X29324284Y-119117276D01*
X29476756Y-119282902D01*
X29476760Y-119282906D01*
X29654424Y-119421189D01*
X29654425Y-119421189D01*
X29654427Y-119421191D01*
X29781135Y-119489761D01*
X29852426Y-119528342D01*
X30065365Y-119601444D01*
X30287431Y-119638500D01*
X30512568Y-119638500D01*
X30512569Y-119638500D01*
X30719285Y-119604005D01*
X30788647Y-119612387D01*
X30827373Y-119638633D01*
X31793280Y-120604540D01*
X31803430Y-120617208D01*
X31803606Y-120617064D01*
X31808580Y-120623076D01*
X31861685Y-120672946D01*
X31883661Y-120694922D01*
X31889551Y-120699491D01*
X31893994Y-120703286D01*
X31929864Y-120736970D01*
X31929866Y-120736971D01*
X31929867Y-120736972D01*
X31948803Y-120747382D01*
X31965049Y-120758053D01*
X31982132Y-120771304D01*
X31982137Y-120771306D01*
X32027296Y-120790848D01*
X32032544Y-120793420D01*
X32061149Y-120809145D01*
X32075663Y-120817124D01*
X32091823Y-120821272D01*
X32096583Y-120822495D01*
X32114986Y-120828795D01*
X32134824Y-120837380D01*
X32169567Y-120842882D01*
X32183431Y-120845078D01*
X32189146Y-120846261D01*
X32236812Y-120858500D01*
X32258419Y-120858500D01*
X32277816Y-120860026D01*
X32299152Y-120863406D01*
X32348144Y-120858774D01*
X32353981Y-120858500D01*
X37313609Y-120858500D01*
X37329746Y-120860281D01*
X37329768Y-120860054D01*
X37337534Y-120860788D01*
X37337536Y-120860787D01*
X37337537Y-120860788D01*
X37410342Y-120858500D01*
X37441432Y-120858500D01*
X37448822Y-120857566D01*
X37454651Y-120857107D01*
X37503831Y-120855562D01*
X37524583Y-120849532D01*
X37543621Y-120845590D01*
X37565064Y-120842882D01*
X37610834Y-120824760D01*
X37616348Y-120822873D01*
X37642875Y-120815165D01*
X37663600Y-120809145D01*
X37682196Y-120798146D01*
X37699664Y-120789589D01*
X37719756Y-120781635D01*
X37759582Y-120752698D01*
X37764441Y-120749506D01*
X37806807Y-120724453D01*
X37822090Y-120709168D01*
X37836873Y-120696542D01*
X37854357Y-120683841D01*
X37885732Y-120645913D01*
X37889636Y-120641622D01*
X39604540Y-118926717D01*
X39617209Y-118916569D01*
X39617063Y-118916393D01*
X39623069Y-118911422D01*
X39623080Y-118911416D01*
X39672960Y-118858298D01*
X39694926Y-118836333D01*
X39699488Y-118830451D01*
X39703280Y-118826010D01*
X39736972Y-118790133D01*
X39747375Y-118771208D01*
X39758061Y-118754940D01*
X39771304Y-118737869D01*
X39790850Y-118692699D01*
X39793410Y-118687470D01*
X39817124Y-118644337D01*
X39822496Y-118623409D01*
X39828796Y-118605009D01*
X39837379Y-118585177D01*
X39845077Y-118536571D01*
X39846257Y-118530865D01*
X39858500Y-118483188D01*
X39858500Y-118461581D01*
X39860027Y-118442180D01*
X39863406Y-118420849D01*
X39858775Y-118371858D01*
X39858500Y-118366020D01*
X39858500Y-109686391D01*
X39860282Y-109670248D01*
X39860055Y-109670227D01*
X39860787Y-109662469D01*
X39860789Y-109662463D01*
X39858500Y-109589639D01*
X39858500Y-109558568D01*
X39857564Y-109551166D01*
X39857107Y-109545353D01*
X39856273Y-109518808D01*
X39855562Y-109496169D01*
X39849535Y-109475426D01*
X39845590Y-109456377D01*
X39842882Y-109434936D01*
X39824763Y-109389172D01*
X39822872Y-109383648D01*
X39818425Y-109368342D01*
X39809145Y-109336400D01*
X39798149Y-109317808D01*
X39789589Y-109300335D01*
X39781635Y-109280244D01*
X39767791Y-109261190D01*
X39752711Y-109240434D01*
X39749502Y-109235549D01*
X39737979Y-109216065D01*
X39724453Y-109193193D01*
X39724449Y-109193189D01*
X39724446Y-109193185D01*
X39709175Y-109177914D01*
X39696537Y-109163118D01*
X39683839Y-109145640D01*
X39645921Y-109114272D01*
X39641598Y-109110338D01*
X38299023Y-107767763D01*
X42745787Y-107767763D01*
X42775413Y-108037013D01*
X42775415Y-108037024D01*
X42843926Y-108299082D01*
X42843928Y-108299088D01*
X42949870Y-108548390D01*
X43021998Y-108666575D01*
X43090979Y-108779605D01*
X43090986Y-108779615D01*
X43264253Y-108987819D01*
X43264259Y-108987824D01*
X43425649Y-109132429D01*
X43465998Y-109168582D01*
X43691910Y-109318044D01*
X43937176Y-109433020D01*
X43937183Y-109433022D01*
X43937185Y-109433023D01*
X44196557Y-109511057D01*
X44196564Y-109511058D01*
X44196569Y-109511060D01*
X44464561Y-109550500D01*
X44464566Y-109550500D01*
X44667636Y-109550500D01*
X44719133Y-109546730D01*
X44870156Y-109535677D01*
X44982758Y-109510593D01*
X45134546Y-109476782D01*
X45134548Y-109476781D01*
X45134553Y-109476780D01*
X45387558Y-109380014D01*
X45623777Y-109247441D01*
X45838177Y-109081888D01*
X46026186Y-108886881D01*
X46183799Y-108666579D01*
X46257787Y-108522669D01*
X46307649Y-108425690D01*
X46307651Y-108425684D01*
X46307656Y-108425675D01*
X46395118Y-108169305D01*
X46444319Y-107902933D01*
X46454212Y-107632235D01*
X46424586Y-107362982D01*
X46356072Y-107100912D01*
X46250130Y-106851610D01*
X46109018Y-106620390D01*
X46078353Y-106583542D01*
X45935746Y-106412180D01*
X45935740Y-106412175D01*
X45734002Y-106231418D01*
X45508092Y-106081957D01*
X45487355Y-106072236D01*
X45262824Y-105966980D01*
X45262819Y-105966978D01*
X45262814Y-105966976D01*
X45003442Y-105888942D01*
X45003428Y-105888939D01*
X44887791Y-105871921D01*
X44735439Y-105849500D01*
X44532369Y-105849500D01*
X44532364Y-105849500D01*
X44329844Y-105864323D01*
X44329831Y-105864325D01*
X44065453Y-105923217D01*
X44065446Y-105923220D01*
X43812439Y-106019987D01*
X43576226Y-106152557D01*
X43361822Y-106318112D01*
X43173822Y-106513109D01*
X43173816Y-106513116D01*
X43016202Y-106733419D01*
X43016199Y-106733424D01*
X42892350Y-106974309D01*
X42892343Y-106974327D01*
X42804884Y-107230685D01*
X42804881Y-107230699D01*
X42755681Y-107497068D01*
X42755680Y-107497075D01*
X42745787Y-107767763D01*
X38299023Y-107767763D01*
X36664819Y-106133559D01*
X36631334Y-106072236D01*
X36628500Y-106045878D01*
X36628500Y-104473991D01*
X36648185Y-104406952D01*
X36660351Y-104391018D01*
X36660352Y-104391017D01*
X36709040Y-104336944D01*
X36804527Y-104171556D01*
X36863542Y-103989928D01*
X36883504Y-103800000D01*
X36863542Y-103610072D01*
X36804527Y-103428444D01*
X36709040Y-103263056D01*
X36581253Y-103121134D01*
X36581253Y-103121133D01*
X36553257Y-103100793D01*
X36510592Y-103045462D01*
X36504614Y-102975848D01*
X36537221Y-102914054D01*
X36538389Y-102912869D01*
X37524543Y-101926715D01*
X37537214Y-101916566D01*
X37537068Y-101916389D01*
X37543074Y-101911419D01*
X37543080Y-101911416D01*
X37592945Y-101858314D01*
X37614927Y-101836333D01*
X37619495Y-101830442D01*
X37623282Y-101826008D01*
X37656972Y-101790133D01*
X37667381Y-101771197D01*
X37678059Y-101754942D01*
X37691304Y-101737868D01*
X37710849Y-101692700D01*
X37713415Y-101687462D01*
X37737124Y-101644337D01*
X37742497Y-101623409D01*
X37748796Y-101605010D01*
X37757380Y-101585177D01*
X37765080Y-101536561D01*
X37766265Y-101530838D01*
X37778500Y-101483188D01*
X37778500Y-101461580D01*
X37780027Y-101442180D01*
X37783406Y-101420848D01*
X37778775Y-101371854D01*
X37778500Y-101366017D01*
X37778500Y-100900846D01*
X37798185Y-100833807D01*
X37831377Y-100799271D01*
X37964301Y-100706197D01*
X37964305Y-100706193D01*
X38126198Y-100544300D01*
X38257523Y-100356749D01*
X38354284Y-100149243D01*
X38413543Y-99928087D01*
X38433498Y-99700000D01*
X38413543Y-99471913D01*
X38354284Y-99250757D01*
X38257523Y-99043251D01*
X38126198Y-98855700D01*
X37964300Y-98693802D01*
X37776749Y-98562477D01*
X37776745Y-98562475D01*
X37569249Y-98465718D01*
X37569238Y-98465714D01*
X37348089Y-98406457D01*
X37348081Y-98406456D01*
X37120002Y-98386502D01*
X37119998Y-98386502D01*
X36891918Y-98406456D01*
X36891910Y-98406457D01*
X36670761Y-98465714D01*
X36670750Y-98465718D01*
X36463254Y-98562475D01*
X36463252Y-98562476D01*
X36463249Y-98562477D01*
X36463251Y-98562477D01*
X36275700Y-98693802D01*
X36275698Y-98693803D01*
X36275695Y-98693806D01*
X36113806Y-98855695D01*
X35982476Y-99043252D01*
X35982475Y-99043254D01*
X35885718Y-99250750D01*
X35885714Y-99250761D01*
X35826457Y-99471910D01*
X35826456Y-99471918D01*
X35806502Y-99699998D01*
X35806502Y-99700001D01*
X35826456Y-99928081D01*
X35826457Y-99928089D01*
X35885714Y-100149238D01*
X35885718Y-100149249D01*
X35982475Y-100356745D01*
X35982477Y-100356749D01*
X36113802Y-100544300D01*
X36113805Y-100544304D01*
X36113806Y-100544304D01*
X36275698Y-100706197D01*
X36408623Y-100799271D01*
X36452248Y-100853847D01*
X36461500Y-100900846D01*
X36461500Y-101075877D01*
X36441815Y-101142916D01*
X36425181Y-101163558D01*
X31971114Y-105617624D01*
X31909791Y-105651109D01*
X31840099Y-105646125D01*
X31784166Y-105604253D01*
X31759857Y-105540183D01*
X31744565Y-105355640D01*
X31744563Y-105355628D01*
X31689296Y-105137385D01*
X31598859Y-104931207D01*
X31475723Y-104742734D01*
X31475715Y-104742723D01*
X31323243Y-104577097D01*
X31323238Y-104577092D01*
X31145577Y-104438812D01*
X31145578Y-104438812D01*
X31145576Y-104438811D01*
X31109070Y-104419055D01*
X31059479Y-104369836D01*
X31044371Y-104301619D01*
X31068541Y-104236064D01*
X31109070Y-104200945D01*
X31109084Y-104200936D01*
X31145576Y-104181189D01*
X31323240Y-104042906D01*
X31475722Y-103877268D01*
X31598860Y-103688791D01*
X31689296Y-103482616D01*
X31744564Y-103264368D01*
X31756433Y-103121134D01*
X31763156Y-103040005D01*
X31763156Y-103039994D01*
X31744565Y-102815640D01*
X31744564Y-102815636D01*
X31744564Y-102815632D01*
X31744561Y-102815619D01*
X31723683Y-102733173D01*
X31726307Y-102663352D01*
X31756205Y-102615053D01*
X32104543Y-102266715D01*
X32117214Y-102256566D01*
X32117068Y-102256389D01*
X32123074Y-102251419D01*
X32123080Y-102251416D01*
X32172945Y-102198314D01*
X32194927Y-102176333D01*
X32199495Y-102170442D01*
X32203282Y-102166008D01*
X32236972Y-102130133D01*
X32247380Y-102111200D01*
X32258059Y-102094942D01*
X32271304Y-102077868D01*
X32290852Y-102032691D01*
X32293409Y-102027472D01*
X32317124Y-101984337D01*
X32322495Y-101963413D01*
X32328796Y-101945009D01*
X32337380Y-101925176D01*
X32342733Y-101891372D01*
X32345078Y-101876569D01*
X32346263Y-101870844D01*
X32358500Y-101823188D01*
X32358500Y-101801580D01*
X32360027Y-101782180D01*
X32363120Y-101762651D01*
X32363406Y-101760848D01*
X32358772Y-101711833D01*
X32358500Y-101706039D01*
X32358500Y-95915449D01*
X32378185Y-95848410D01*
X32430989Y-95802655D01*
X32494656Y-95792046D01*
X32524645Y-95795000D01*
X32550000Y-95795000D01*
X32550000Y-95254330D01*
X32569685Y-95187291D01*
X32622489Y-95141536D01*
X32691647Y-95131592D01*
X32714262Y-95137048D01*
X32737424Y-95145000D01*
X32831072Y-95145000D01*
X32831073Y-95145000D01*
X32905592Y-95132565D01*
X32974955Y-95140947D01*
X33028777Y-95185500D01*
X33049968Y-95252078D01*
X33050000Y-95254874D01*
X33050000Y-95795000D01*
X33075358Y-95795000D01*
X33225932Y-95780170D01*
X33419154Y-95721556D01*
X33597209Y-95626384D01*
X33597215Y-95626379D01*
X33753292Y-95498292D01*
X33881379Y-95342215D01*
X33881384Y-95342209D01*
X33976557Y-95164153D01*
X34020285Y-95020000D01*
X33288192Y-95020000D01*
X33221153Y-95000315D01*
X33175398Y-94947511D01*
X33165454Y-94878353D01*
X33167987Y-94865559D01*
X33168551Y-94863329D01*
X33178886Y-94738605D01*
X33175077Y-94723563D01*
X33162637Y-94674438D01*
X33165262Y-94604619D01*
X33205219Y-94547302D01*
X33269820Y-94520686D01*
X33282843Y-94520000D01*
X34020285Y-94520000D01*
X34005726Y-94472004D01*
X34005103Y-94402137D01*
X34042351Y-94343024D01*
X34105645Y-94313434D01*
X34174890Y-94322759D01*
G37*
G04 #@! TD.AperFunction*
G04 #@! TA.AperFunction,Conductor*
G36*
X35214312Y-104339460D02*
G01*
X35263125Y-104372666D01*
X35279649Y-104391018D01*
X35309879Y-104454009D01*
X35311500Y-104473991D01*
X35311500Y-106283609D01*
X35309718Y-106299746D01*
X35309946Y-106299768D01*
X35309211Y-106307534D01*
X35311500Y-106380342D01*
X35311500Y-106411434D01*
X35312433Y-106418829D01*
X35312891Y-106424647D01*
X35314437Y-106473829D01*
X35314438Y-106473832D01*
X35320464Y-106494577D01*
X35324407Y-106513618D01*
X35327116Y-106535053D01*
X35327117Y-106535057D01*
X35327118Y-106535064D01*
X35343284Y-106575897D01*
X35345234Y-106580822D01*
X35347125Y-106586348D01*
X35360854Y-106633598D01*
X35371850Y-106652191D01*
X35380410Y-106669665D01*
X35388363Y-106689754D01*
X35417289Y-106729565D01*
X35420490Y-106734437D01*
X35445547Y-106776807D01*
X35445551Y-106776811D01*
X35460821Y-106792081D01*
X35473458Y-106806876D01*
X35486159Y-106824357D01*
X35524072Y-106855721D01*
X35528383Y-106859643D01*
X38505182Y-109836442D01*
X38538666Y-109897763D01*
X38541500Y-109924121D01*
X38541500Y-118075878D01*
X38521815Y-118142917D01*
X38505181Y-118163559D01*
X37881702Y-118787037D01*
X37820379Y-118820522D01*
X37750687Y-118815538D01*
X37694754Y-118773666D01*
X37670337Y-118708202D01*
X37674247Y-118667261D01*
X37685138Y-118626614D01*
X37685141Y-118626599D01*
X37704966Y-118400002D01*
X37704966Y-118399997D01*
X37685141Y-118173400D01*
X37685139Y-118173389D01*
X37626269Y-117953682D01*
X37626265Y-117953673D01*
X37530133Y-117747516D01*
X37530131Y-117747512D01*
X37479026Y-117674526D01*
X37479025Y-117674526D01*
X36937419Y-118216132D01*
X36876096Y-118249617D01*
X36806404Y-118244633D01*
X36750471Y-118202761D01*
X36739256Y-118184751D01*
X36727641Y-118161955D01*
X36727637Y-118161951D01*
X36727636Y-118161949D01*
X36638050Y-118072363D01*
X36638044Y-118072358D01*
X36628109Y-118067296D01*
X36615250Y-118060744D01*
X36564456Y-118012773D01*
X36547660Y-117944952D01*
X36570197Y-117878817D01*
X36583865Y-117862580D01*
X37125472Y-117320973D01*
X37052483Y-117269866D01*
X37052481Y-117269865D01*
X36846326Y-117173734D01*
X36846317Y-117173730D01*
X36626610Y-117114860D01*
X36626599Y-117114858D01*
X36400002Y-117095034D01*
X36399998Y-117095034D01*
X36173400Y-117114858D01*
X36173389Y-117114860D01*
X35953682Y-117173730D01*
X35953673Y-117173734D01*
X35747518Y-117269865D01*
X35747515Y-117269867D01*
X35741291Y-117274225D01*
X35675083Y-117296547D01*
X35607317Y-117279531D01*
X35570909Y-117246955D01*
X35563263Y-117236742D01*
X35563261Y-117236739D01*
X35446204Y-117149111D01*
X35418576Y-117138806D01*
X35309203Y-117098011D01*
X35248654Y-117091500D01*
X35248638Y-117091500D01*
X33551362Y-117091500D01*
X33551345Y-117091500D01*
X33490797Y-117098011D01*
X33490795Y-117098011D01*
X33353795Y-117149111D01*
X33236739Y-117236739D01*
X33147511Y-117355933D01*
X33091577Y-117397804D01*
X33021885Y-117402788D01*
X32960563Y-117369303D01*
X31756206Y-116164946D01*
X31722721Y-116103623D01*
X31723681Y-116046827D01*
X31744564Y-115964368D01*
X31763156Y-115740000D01*
X31744564Y-115515632D01*
X31689296Y-115297384D01*
X31598860Y-115091209D01*
X31475722Y-114902732D01*
X31475719Y-114902729D01*
X31475715Y-114902723D01*
X31323243Y-114737097D01*
X31323238Y-114737092D01*
X31145577Y-114598812D01*
X31145578Y-114598812D01*
X31145576Y-114598811D01*
X31109070Y-114579055D01*
X31059479Y-114529836D01*
X31044371Y-114461619D01*
X31068541Y-114396064D01*
X31109070Y-114360945D01*
X31109084Y-114360936D01*
X31145576Y-114341189D01*
X31323240Y-114202906D01*
X31422614Y-114094957D01*
X31475715Y-114037276D01*
X31475716Y-114037274D01*
X31475722Y-114037268D01*
X31598860Y-113848791D01*
X31689296Y-113642616D01*
X31744564Y-113424368D01*
X31748881Y-113372258D01*
X31774035Y-113307076D01*
X31830436Y-113265837D01*
X31872458Y-113258500D01*
X32967500Y-113258500D01*
X33034539Y-113278185D01*
X33080294Y-113330989D01*
X33091500Y-113382500D01*
X33091500Y-113448654D01*
X33098011Y-113509202D01*
X33098011Y-113509204D01*
X33132743Y-113602321D01*
X33149111Y-113646204D01*
X33236739Y-113763261D01*
X33353796Y-113850889D01*
X33490799Y-113901989D01*
X33518050Y-113904918D01*
X33551345Y-113908499D01*
X33551362Y-113908500D01*
X35248638Y-113908500D01*
X35248654Y-113908499D01*
X35275692Y-113905591D01*
X35309201Y-113901989D01*
X35446204Y-113850889D01*
X35563261Y-113763261D01*
X35570907Y-113753046D01*
X35626840Y-113711174D01*
X35696531Y-113706188D01*
X35741302Y-113725782D01*
X35747514Y-113730132D01*
X35747516Y-113730133D01*
X35953673Y-113826265D01*
X35953682Y-113826269D01*
X36173389Y-113885139D01*
X36173400Y-113885141D01*
X36399998Y-113904966D01*
X36400002Y-113904966D01*
X36626599Y-113885141D01*
X36626610Y-113885139D01*
X36846317Y-113826269D01*
X36846331Y-113826264D01*
X37052478Y-113730136D01*
X37125472Y-113679025D01*
X36583866Y-113137419D01*
X36550381Y-113076096D01*
X36555365Y-113006404D01*
X36597237Y-112950471D01*
X36615245Y-112939258D01*
X36638045Y-112927641D01*
X36727641Y-112838045D01*
X36739254Y-112815252D01*
X36787225Y-112764458D01*
X36855046Y-112747661D01*
X36921181Y-112770197D01*
X36937419Y-112783866D01*
X37479025Y-113325472D01*
X37530136Y-113252478D01*
X37626264Y-113046331D01*
X37626269Y-113046317D01*
X37685139Y-112826610D01*
X37685141Y-112826599D01*
X37704966Y-112600002D01*
X37704966Y-112599997D01*
X37685141Y-112373400D01*
X37685139Y-112373389D01*
X37626269Y-112153682D01*
X37626265Y-112153673D01*
X37530133Y-111947516D01*
X37530131Y-111947512D01*
X37479026Y-111874526D01*
X37479025Y-111874526D01*
X36937419Y-112416132D01*
X36876096Y-112449617D01*
X36806404Y-112444633D01*
X36750471Y-112402761D01*
X36739256Y-112384751D01*
X36727641Y-112361955D01*
X36727637Y-112361951D01*
X36727636Y-112361949D01*
X36638050Y-112272363D01*
X36638044Y-112272358D01*
X36628109Y-112267296D01*
X36615250Y-112260744D01*
X36564456Y-112212773D01*
X36547660Y-112144952D01*
X36570197Y-112078817D01*
X36583865Y-112062580D01*
X37125472Y-111520973D01*
X37052483Y-111469866D01*
X37052481Y-111469865D01*
X36846326Y-111373734D01*
X36846317Y-111373730D01*
X36626610Y-111314860D01*
X36626599Y-111314858D01*
X36400002Y-111295034D01*
X36399998Y-111295034D01*
X36173400Y-111314858D01*
X36173389Y-111314860D01*
X35953682Y-111373730D01*
X35953673Y-111373734D01*
X35747518Y-111469865D01*
X35747515Y-111469867D01*
X35741291Y-111474225D01*
X35675083Y-111496547D01*
X35607317Y-111479531D01*
X35570909Y-111446955D01*
X35563263Y-111436742D01*
X35563261Y-111436739D01*
X35446204Y-111349111D01*
X35446203Y-111349110D01*
X35309203Y-111298011D01*
X35248654Y-111291500D01*
X35248638Y-111291500D01*
X33551362Y-111291500D01*
X33551345Y-111291500D01*
X33490797Y-111298011D01*
X33490795Y-111298011D01*
X33353795Y-111349111D01*
X33236739Y-111436739D01*
X33149111Y-111553795D01*
X33098011Y-111690795D01*
X33098011Y-111690797D01*
X33091500Y-111751345D01*
X33091500Y-111817500D01*
X33071815Y-111884539D01*
X33019011Y-111930294D01*
X32967500Y-111941500D01*
X31326503Y-111941500D01*
X31259464Y-111921815D01*
X31213709Y-111869011D01*
X31203765Y-111799853D01*
X31232790Y-111736297D01*
X31250340Y-111719647D01*
X31287406Y-111690797D01*
X31323240Y-111662906D01*
X31453900Y-111520973D01*
X31475715Y-111497276D01*
X31475716Y-111497274D01*
X31475722Y-111497268D01*
X31598860Y-111308791D01*
X31689296Y-111102616D01*
X31744564Y-110884368D01*
X31763156Y-110660000D01*
X31744564Y-110435632D01*
X31689296Y-110217384D01*
X31598860Y-110011209D01*
X31475722Y-109822732D01*
X31475719Y-109822729D01*
X31475715Y-109822723D01*
X31323243Y-109657097D01*
X31323238Y-109657092D01*
X31187171Y-109551186D01*
X31145576Y-109518811D01*
X31145575Y-109518810D01*
X31145572Y-109518808D01*
X31109068Y-109499053D01*
X31059478Y-109449833D01*
X31044371Y-109381616D01*
X31068542Y-109316061D01*
X31109069Y-109280945D01*
X31145576Y-109261189D01*
X31323240Y-109122906D01*
X31475722Y-108957268D01*
X31598860Y-108768791D01*
X31689296Y-108562616D01*
X31744564Y-108344368D01*
X31759070Y-108169314D01*
X31763156Y-108120005D01*
X31763156Y-108119994D01*
X31744565Y-107895640D01*
X31744564Y-107895636D01*
X31744564Y-107895632D01*
X31744561Y-107895619D01*
X31723683Y-107813173D01*
X31726307Y-107743352D01*
X31756205Y-107695053D01*
X35083299Y-104367959D01*
X35144620Y-104334476D01*
X35214312Y-104339460D01*
G37*
G04 #@! TD.AperFunction*
G04 #@! TA.AperFunction,Conductor*
G36*
X38441808Y-91068822D02*
G01*
X38442076Y-91068205D01*
X38446542Y-91070137D01*
X38447907Y-91070517D01*
X38449233Y-91071301D01*
X38449237Y-91071304D01*
X38481474Y-91085254D01*
X38494407Y-91090851D01*
X38499643Y-91093415D01*
X38542769Y-91117124D01*
X38562773Y-91122260D01*
X38563692Y-91122496D01*
X38582097Y-91128797D01*
X38601929Y-91137379D01*
X38650559Y-91145081D01*
X38656228Y-91146255D01*
X38703918Y-91158500D01*
X38725524Y-91158500D01*
X38744922Y-91160026D01*
X38766257Y-91163406D01*
X38811370Y-91159141D01*
X38815247Y-91158775D01*
X38821085Y-91158500D01*
X46079153Y-91158500D01*
X46146192Y-91178185D01*
X46180725Y-91211373D01*
X46273802Y-91344300D01*
X46435700Y-91506198D01*
X46623251Y-91637523D01*
X46748091Y-91695736D01*
X46830750Y-91734281D01*
X46830752Y-91734281D01*
X46830757Y-91734284D01*
X47051913Y-91793543D01*
X47214832Y-91807796D01*
X47279998Y-91813498D01*
X47280000Y-91813498D01*
X47280002Y-91813498D01*
X47337021Y-91808509D01*
X47508087Y-91793543D01*
X47729243Y-91734284D01*
X47923097Y-91643888D01*
X47992173Y-91633397D01*
X48055957Y-91661917D01*
X48094196Y-91720393D01*
X48099500Y-91756271D01*
X48099500Y-92443728D01*
X48079815Y-92510767D01*
X48027011Y-92556522D01*
X47957853Y-92566466D01*
X47923096Y-92556110D01*
X47729249Y-92465718D01*
X47729238Y-92465714D01*
X47508089Y-92406457D01*
X47508081Y-92406456D01*
X47280002Y-92386502D01*
X47279998Y-92386502D01*
X47051918Y-92406456D01*
X47051910Y-92406457D01*
X46830761Y-92465714D01*
X46830750Y-92465718D01*
X46623254Y-92562475D01*
X46623252Y-92562476D01*
X46617554Y-92566466D01*
X46435700Y-92693802D01*
X46435698Y-92693803D01*
X46435695Y-92693806D01*
X46273806Y-92855695D01*
X46273803Y-92855698D01*
X46273802Y-92855700D01*
X46237189Y-92907989D01*
X46142476Y-93043252D01*
X46142475Y-93043254D01*
X46045718Y-93250750D01*
X46045714Y-93250761D01*
X45986457Y-93471910D01*
X45986456Y-93471918D01*
X45966502Y-93699998D01*
X45966502Y-93700001D01*
X45986456Y-93928081D01*
X45986457Y-93928089D01*
X46045714Y-94149238D01*
X46045718Y-94149249D01*
X46122279Y-94313434D01*
X46142477Y-94356749D01*
X46273802Y-94544300D01*
X46435700Y-94706198D01*
X46623251Y-94837523D01*
X46678593Y-94863329D01*
X46830750Y-94934281D01*
X46830752Y-94934281D01*
X46830757Y-94934284D01*
X47051913Y-94993543D01*
X47200904Y-95006578D01*
X47279998Y-95013498D01*
X47280000Y-95013498D01*
X47280002Y-95013498D01*
X47337021Y-95008509D01*
X47508087Y-94993543D01*
X47729243Y-94934284D01*
X47923097Y-94843888D01*
X47992173Y-94833397D01*
X48055957Y-94861917D01*
X48094196Y-94920393D01*
X48099500Y-94956271D01*
X48099500Y-98443728D01*
X48079815Y-98510767D01*
X48027011Y-98556522D01*
X47957853Y-98566466D01*
X47923096Y-98556110D01*
X47729249Y-98465718D01*
X47729238Y-98465714D01*
X47508089Y-98406457D01*
X47508081Y-98406456D01*
X47280002Y-98386502D01*
X47279998Y-98386502D01*
X47051918Y-98406456D01*
X47051908Y-98406458D01*
X47015223Y-98416287D01*
X46945373Y-98414622D01*
X46895452Y-98384192D01*
X46568726Y-98057466D01*
X46535241Y-97996143D01*
X46540225Y-97926451D01*
X46582097Y-97870518D01*
X46604004Y-97857402D01*
X46662482Y-97830133D01*
X46848820Y-97699657D01*
X47009657Y-97538820D01*
X47140134Y-97352482D01*
X47236265Y-97146326D01*
X47236269Y-97146317D01*
X47288872Y-96950000D01*
X46520576Y-96950000D01*
X46453537Y-96930315D01*
X46407782Y-96877511D01*
X46397838Y-96808353D01*
X46398103Y-96806603D01*
X46414986Y-96700003D01*
X46414986Y-96699996D01*
X46398103Y-96593397D01*
X46407058Y-96524104D01*
X46452054Y-96470652D01*
X46518806Y-96450013D01*
X46520576Y-96450000D01*
X47288872Y-96450000D01*
X47288872Y-96449999D01*
X47236269Y-96253682D01*
X47236265Y-96253673D01*
X47140134Y-96047517D01*
X47009657Y-95861179D01*
X46848820Y-95700342D01*
X46662482Y-95569865D01*
X46456328Y-95473734D01*
X46259999Y-95421127D01*
X46259999Y-96189424D01*
X46240314Y-96256464D01*
X46187510Y-96302218D01*
X46118352Y-96312162D01*
X46116601Y-96311897D01*
X46041486Y-96300000D01*
X46041481Y-96300000D01*
X45978519Y-96300000D01*
X45978514Y-96300000D01*
X45903398Y-96311897D01*
X45834104Y-96302942D01*
X45780652Y-96257946D01*
X45760013Y-96191194D01*
X45760000Y-96189424D01*
X45760000Y-95421127D01*
X45563671Y-95473734D01*
X45357517Y-95569865D01*
X45171179Y-95700342D01*
X45010342Y-95861179D01*
X44879867Y-96047515D01*
X44850130Y-96111286D01*
X44803957Y-96163725D01*
X44736763Y-96182876D01*
X44677904Y-96165084D01*
X44676969Y-96166786D01*
X44651200Y-96152619D01*
X44634948Y-96141944D01*
X44617868Y-96128696D01*
X44617864Y-96128694D01*
X44572702Y-96109150D01*
X44567455Y-96106580D01*
X44524337Y-96082875D01*
X44524338Y-96082875D01*
X44503411Y-96077502D01*
X44485006Y-96071201D01*
X44465174Y-96062619D01*
X44416569Y-96054921D01*
X44410847Y-96053736D01*
X44377188Y-96045094D01*
X44363188Y-96041500D01*
X44363187Y-96041500D01*
X44341581Y-96041500D01*
X44322183Y-96039973D01*
X44313603Y-96038614D01*
X44300849Y-96036594D01*
X44300848Y-96036594D01*
X44251855Y-96041225D01*
X44246019Y-96041500D01*
X39822500Y-96041500D01*
X39755461Y-96021815D01*
X39709706Y-95969011D01*
X39698500Y-95917500D01*
X39698500Y-95851362D01*
X39698499Y-95851345D01*
X39695157Y-95820270D01*
X39691989Y-95790799D01*
X39640889Y-95653796D01*
X39553261Y-95536739D01*
X39436204Y-95449111D01*
X39425823Y-95445239D01*
X39299203Y-95398011D01*
X39238654Y-95391500D01*
X39238638Y-95391500D01*
X37541362Y-95391500D01*
X37541345Y-95391500D01*
X37480797Y-95398011D01*
X37480795Y-95398011D01*
X37343794Y-95449111D01*
X37333486Y-95456828D01*
X37268021Y-95481242D01*
X37199748Y-95466388D01*
X37171498Y-95445239D01*
X36944202Y-95217943D01*
X36910717Y-95156620D01*
X36915701Y-95086928D01*
X36957573Y-95030995D01*
X37023037Y-95006578D01*
X37042686Y-95006733D01*
X37104467Y-95012139D01*
X37119999Y-95013498D01*
X37120000Y-95013498D01*
X37120002Y-95013498D01*
X37177021Y-95008509D01*
X37348087Y-94993543D01*
X37569243Y-94934284D01*
X37776749Y-94837523D01*
X37964300Y-94706198D01*
X38126198Y-94544300D01*
X38257523Y-94356749D01*
X38354284Y-94149243D01*
X38413543Y-93928087D01*
X38433498Y-93700000D01*
X38413543Y-93471913D01*
X38354284Y-93250757D01*
X38257523Y-93043251D01*
X38126198Y-92855700D01*
X37964300Y-92693802D01*
X37939499Y-92676436D01*
X37831376Y-92600726D01*
X37787751Y-92546149D01*
X37778500Y-92499152D01*
X37778500Y-91700846D01*
X37798185Y-91633807D01*
X37831377Y-91599271D01*
X37964301Y-91506197D01*
X37964305Y-91506193D01*
X38126198Y-91344300D01*
X38257523Y-91156749D01*
X38272401Y-91124840D01*
X38318569Y-91072405D01*
X38385762Y-91053251D01*
X38441808Y-91068822D01*
G37*
G04 #@! TD.AperFunction*
G04 #@! TA.AperFunction,Conductor*
G36*
X33406895Y-88935338D02*
G01*
X33428799Y-88947380D01*
X33445052Y-88958056D01*
X33462132Y-88971304D01*
X33462137Y-88971306D01*
X33507296Y-88990848D01*
X33512544Y-88993420D01*
X33544234Y-89010840D01*
X33555663Y-89017124D01*
X33571823Y-89021272D01*
X33576583Y-89022495D01*
X33594986Y-89028795D01*
X33614824Y-89037380D01*
X33651960Y-89043261D01*
X33663431Y-89045078D01*
X33669146Y-89046261D01*
X33716812Y-89058500D01*
X33738419Y-89058500D01*
X33757816Y-89060026D01*
X33779152Y-89063406D01*
X33828144Y-89058774D01*
X33833981Y-89058500D01*
X36362984Y-89058500D01*
X36430023Y-89078185D01*
X36450665Y-89094819D01*
X36511984Y-89156138D01*
X36545469Y-89217461D01*
X36540485Y-89287153D01*
X36498613Y-89343086D01*
X36476711Y-89356199D01*
X36463258Y-89362472D01*
X36463255Y-89362474D01*
X36463250Y-89362477D01*
X36463251Y-89362477D01*
X36275700Y-89493802D01*
X36275698Y-89493803D01*
X36275695Y-89493806D01*
X36113806Y-89655695D01*
X36113803Y-89655698D01*
X36113802Y-89655700D01*
X36020726Y-89788625D01*
X35966150Y-89832249D01*
X35919153Y-89841500D01*
X34616391Y-89841500D01*
X34600253Y-89839718D01*
X34600232Y-89839946D01*
X34592465Y-89839211D01*
X34519658Y-89841500D01*
X34488566Y-89841500D01*
X34481172Y-89842433D01*
X34475354Y-89842891D01*
X34426169Y-89844437D01*
X34405419Y-89850465D01*
X34386380Y-89854407D01*
X34364944Y-89857116D01*
X34364937Y-89857117D01*
X34364936Y-89857118D01*
X34364934Y-89857118D01*
X34364933Y-89857119D01*
X34319169Y-89875237D01*
X34313642Y-89877129D01*
X34266403Y-89890853D01*
X34266399Y-89890854D01*
X34247803Y-89901852D01*
X34230338Y-89910408D01*
X34210247Y-89918363D01*
X34210242Y-89918366D01*
X34170425Y-89947294D01*
X34165543Y-89950500D01*
X34123191Y-89975548D01*
X34107917Y-89990823D01*
X34093127Y-90003455D01*
X34075644Y-90016157D01*
X34075640Y-90016162D01*
X34044266Y-90054084D01*
X34040334Y-90058405D01*
X32938559Y-91160181D01*
X32877236Y-91193666D01*
X32850878Y-91196500D01*
X32482500Y-91196500D01*
X32415461Y-91176815D01*
X32369706Y-91124011D01*
X32358500Y-91072500D01*
X32358500Y-90315449D01*
X32378185Y-90248410D01*
X32430989Y-90202655D01*
X32494656Y-90192046D01*
X32524645Y-90195000D01*
X32550000Y-90195000D01*
X32550000Y-89654330D01*
X32569685Y-89587291D01*
X32622489Y-89541536D01*
X32691647Y-89531592D01*
X32714262Y-89537048D01*
X32737424Y-89545000D01*
X32831072Y-89545000D01*
X32831073Y-89545000D01*
X32905592Y-89532565D01*
X32974955Y-89540947D01*
X33028777Y-89585500D01*
X33049968Y-89652078D01*
X33050000Y-89654874D01*
X33050000Y-90195000D01*
X33075358Y-90195000D01*
X33225932Y-90180170D01*
X33419154Y-90121556D01*
X33597209Y-90026384D01*
X33597215Y-90026379D01*
X33753292Y-89898292D01*
X33881379Y-89742215D01*
X33881384Y-89742209D01*
X33976557Y-89564153D01*
X34020285Y-89420000D01*
X33288192Y-89420000D01*
X33221153Y-89400315D01*
X33175398Y-89347511D01*
X33165454Y-89278353D01*
X33167987Y-89265559D01*
X33168551Y-89263329D01*
X33178886Y-89138605D01*
X33167798Y-89094819D01*
X33162637Y-89074438D01*
X33165262Y-89004619D01*
X33205219Y-88947302D01*
X33269820Y-88920686D01*
X33282843Y-88920000D01*
X33347157Y-88920000D01*
X33406895Y-88935338D01*
G37*
G04 #@! TD.AperFunction*
G04 #@! TA.AperFunction,Conductor*
G36*
X46080779Y-75506647D02*
G01*
X46136712Y-75548519D01*
X46139265Y-75552388D01*
X46139372Y-75552314D01*
X46142476Y-75556747D01*
X46142477Y-75556749D01*
X46273802Y-75744300D01*
X46435700Y-75906198D01*
X46623251Y-76037523D01*
X46748091Y-76095736D01*
X46830750Y-76134281D01*
X46830752Y-76134281D01*
X46830757Y-76134284D01*
X47051913Y-76193543D01*
X47214832Y-76207796D01*
X47279998Y-76213498D01*
X47280000Y-76213498D01*
X47280002Y-76213498D01*
X47337021Y-76208509D01*
X47508087Y-76193543D01*
X47729243Y-76134284D01*
X47923097Y-76043888D01*
X47992173Y-76033397D01*
X48055957Y-76061917D01*
X48094196Y-76120393D01*
X48099500Y-76156271D01*
X48099500Y-76843728D01*
X48079815Y-76910767D01*
X48027011Y-76956522D01*
X47957853Y-76966466D01*
X47923096Y-76956110D01*
X47729249Y-76865718D01*
X47729238Y-76865714D01*
X47508089Y-76806457D01*
X47508081Y-76806456D01*
X47280002Y-76786502D01*
X47279998Y-76786502D01*
X47051918Y-76806456D01*
X47051910Y-76806457D01*
X46830761Y-76865714D01*
X46830750Y-76865718D01*
X46623254Y-76962475D01*
X46623252Y-76962476D01*
X46623249Y-76962477D01*
X46623251Y-76962477D01*
X46435700Y-77093802D01*
X46435698Y-77093803D01*
X46435695Y-77093806D01*
X46273806Y-77255695D01*
X46142476Y-77443252D01*
X46142475Y-77443254D01*
X46045718Y-77650750D01*
X46045714Y-77650761D01*
X45986457Y-77871910D01*
X45986456Y-77871918D01*
X45966502Y-78099998D01*
X45966502Y-78100001D01*
X45986456Y-78328081D01*
X45986459Y-78328098D01*
X45996286Y-78364774D01*
X45994622Y-78434623D01*
X45964192Y-78484546D01*
X44295453Y-80153285D01*
X44282785Y-80163435D01*
X44282931Y-80163611D01*
X44276920Y-80168583D01*
X44227053Y-80221686D01*
X44205072Y-80243667D01*
X44200492Y-80249569D01*
X44196708Y-80253998D01*
X44163029Y-80289865D01*
X44163024Y-80289872D01*
X44152618Y-80308800D01*
X44141942Y-80325054D01*
X44128695Y-80342133D01*
X44109150Y-80387297D01*
X44106580Y-80392543D01*
X44082876Y-80435661D01*
X44077502Y-80456589D01*
X44071203Y-80474987D01*
X44062619Y-80494825D01*
X44054923Y-80543420D01*
X44053738Y-80549143D01*
X44041500Y-80596809D01*
X44041500Y-80618413D01*
X44039974Y-80637808D01*
X44036594Y-80659151D01*
X44041225Y-80708143D01*
X44041500Y-80713981D01*
X44041499Y-82899152D01*
X44021814Y-82966192D01*
X43988624Y-83000726D01*
X43855697Y-83093804D01*
X43693806Y-83255695D01*
X43693803Y-83255698D01*
X43693802Y-83255700D01*
X43630104Y-83346670D01*
X43562476Y-83443252D01*
X43562475Y-83443254D01*
X43465718Y-83650750D01*
X43465714Y-83650761D01*
X43406457Y-83871910D01*
X43406456Y-83871918D01*
X43386502Y-84099998D01*
X43386502Y-84100001D01*
X43406456Y-84328081D01*
X43406457Y-84328089D01*
X43465714Y-84549238D01*
X43465718Y-84549249D01*
X43489384Y-84600000D01*
X43562477Y-84756749D01*
X43693802Y-84944300D01*
X43855700Y-85106198D01*
X44043251Y-85237523D01*
X44131908Y-85278864D01*
X44250750Y-85334281D01*
X44250752Y-85334281D01*
X44250757Y-85334284D01*
X44471913Y-85393543D01*
X44634832Y-85407796D01*
X44699998Y-85413498D01*
X44700000Y-85413498D01*
X44700002Y-85413498D01*
X44757021Y-85408509D01*
X44928087Y-85393543D01*
X45149243Y-85334284D01*
X45356749Y-85237523D01*
X45544300Y-85106198D01*
X45706198Y-84944300D01*
X45837523Y-84756749D01*
X45934284Y-84549243D01*
X45993543Y-84328087D01*
X46013498Y-84100000D01*
X45993543Y-83871913D01*
X45934284Y-83650757D01*
X45837523Y-83443251D01*
X45706198Y-83255700D01*
X45544300Y-83093802D01*
X45503167Y-83065000D01*
X45411376Y-83000726D01*
X45367751Y-82946149D01*
X45358500Y-82899152D01*
X45358500Y-82425233D01*
X45378185Y-82358194D01*
X45430989Y-82312439D01*
X45500147Y-82302495D01*
X45534905Y-82312851D01*
X45563673Y-82326266D01*
X45563682Y-82326269D01*
X45759999Y-82378872D01*
X45760000Y-82378871D01*
X45760000Y-81610575D01*
X45779685Y-81543536D01*
X45832489Y-81497781D01*
X45901647Y-81487837D01*
X45903331Y-81488091D01*
X45935699Y-81493218D01*
X45978515Y-81500000D01*
X45978519Y-81500000D01*
X46041485Y-81500000D01*
X46084300Y-81493218D01*
X46116602Y-81488102D01*
X46185894Y-81497056D01*
X46239347Y-81542052D01*
X46259987Y-81608803D01*
X46260000Y-81610575D01*
X46260000Y-82378872D01*
X46456317Y-82326269D01*
X46456326Y-82326265D01*
X46662482Y-82230134D01*
X46848820Y-82099657D01*
X47009657Y-81938820D01*
X47140134Y-81752482D01*
X47236265Y-81546326D01*
X47236269Y-81546317D01*
X47288872Y-81350000D01*
X46520576Y-81350000D01*
X46453537Y-81330315D01*
X46407782Y-81277511D01*
X46397838Y-81208353D01*
X46398103Y-81206603D01*
X46414986Y-81100003D01*
X46414986Y-81099996D01*
X46398103Y-80993397D01*
X46407058Y-80924104D01*
X46452054Y-80870652D01*
X46518806Y-80850013D01*
X46520576Y-80850000D01*
X47288872Y-80850000D01*
X47288872Y-80849999D01*
X47236269Y-80653682D01*
X47236265Y-80653673D01*
X47140134Y-80447517D01*
X47009657Y-80261179D01*
X46848820Y-80100342D01*
X46662484Y-79969867D01*
X46604000Y-79942595D01*
X46551561Y-79896422D01*
X46532410Y-79829228D01*
X46552626Y-79762347D01*
X46568715Y-79742543D01*
X46895454Y-79415804D01*
X46956775Y-79382321D01*
X47015228Y-79383712D01*
X47051913Y-79393543D01*
X47240088Y-79410006D01*
X47279998Y-79413498D01*
X47280000Y-79413498D01*
X47280002Y-79413498D01*
X47337021Y-79408509D01*
X47508087Y-79393543D01*
X47729243Y-79334284D01*
X47923097Y-79243888D01*
X47992173Y-79233397D01*
X48055957Y-79261917D01*
X48094196Y-79320393D01*
X48099500Y-79356271D01*
X48099500Y-86043728D01*
X48079815Y-86110767D01*
X48027011Y-86156522D01*
X47957853Y-86166466D01*
X47923096Y-86156110D01*
X47729249Y-86065718D01*
X47729238Y-86065714D01*
X47508089Y-86006457D01*
X47508081Y-86006456D01*
X47280002Y-85986502D01*
X47279998Y-85986502D01*
X47051918Y-86006456D01*
X47051910Y-86006457D01*
X46830761Y-86065714D01*
X46830750Y-86065718D01*
X46623254Y-86162475D01*
X46623252Y-86162476D01*
X46623249Y-86162477D01*
X46623251Y-86162477D01*
X46435700Y-86293802D01*
X46435698Y-86293803D01*
X46435695Y-86293806D01*
X46273806Y-86455695D01*
X46142476Y-86643252D01*
X46142475Y-86643254D01*
X46045718Y-86850750D01*
X46045714Y-86850761D01*
X45986457Y-87071910D01*
X45986456Y-87071918D01*
X45966502Y-87299998D01*
X45966502Y-87300001D01*
X45986456Y-87528081D01*
X45986457Y-87528089D01*
X46045714Y-87749238D01*
X46045718Y-87749249D01*
X46142475Y-87956745D01*
X46142477Y-87956749D01*
X46273802Y-88144300D01*
X46435700Y-88306198D01*
X46623251Y-88437523D01*
X46705676Y-88475958D01*
X46830750Y-88534281D01*
X46830752Y-88534281D01*
X46830757Y-88534284D01*
X47051913Y-88593543D01*
X47214832Y-88607796D01*
X47279998Y-88613498D01*
X47280000Y-88613498D01*
X47280002Y-88613498D01*
X47337021Y-88608509D01*
X47508087Y-88593543D01*
X47729243Y-88534284D01*
X47923097Y-88443888D01*
X47992173Y-88433397D01*
X48055957Y-88461917D01*
X48094196Y-88520393D01*
X48099500Y-88556271D01*
X48099500Y-89243728D01*
X48079815Y-89310767D01*
X48027011Y-89356522D01*
X47957853Y-89366466D01*
X47923096Y-89356110D01*
X47729249Y-89265718D01*
X47729238Y-89265714D01*
X47508089Y-89206457D01*
X47508081Y-89206456D01*
X47280002Y-89186502D01*
X47279998Y-89186502D01*
X47051918Y-89206456D01*
X47051910Y-89206457D01*
X46830761Y-89265714D01*
X46830750Y-89265718D01*
X46623254Y-89362475D01*
X46623252Y-89362476D01*
X46623249Y-89362477D01*
X46623251Y-89362477D01*
X46435700Y-89493802D01*
X46435698Y-89493803D01*
X46435695Y-89493806D01*
X46273806Y-89655695D01*
X46273803Y-89655698D01*
X46273802Y-89655700D01*
X46180726Y-89788625D01*
X46126150Y-89832249D01*
X46079153Y-89841500D01*
X39111227Y-89841500D01*
X39044188Y-89821815D01*
X39023546Y-89805181D01*
X37810157Y-88591792D01*
X37776672Y-88530469D01*
X37781656Y-88460777D01*
X37823528Y-88404844D01*
X37826671Y-88402566D01*
X37964300Y-88306198D01*
X38126198Y-88144300D01*
X38257523Y-87956749D01*
X38354284Y-87749243D01*
X38413543Y-87528087D01*
X38433498Y-87300000D01*
X38413543Y-87071913D01*
X38403713Y-87035228D01*
X38405374Y-86965379D01*
X38435804Y-86915454D01*
X39945069Y-85406189D01*
X40000652Y-85374098D01*
X40149243Y-85334284D01*
X40356749Y-85237523D01*
X40544300Y-85106198D01*
X40706198Y-84944300D01*
X40837523Y-84756749D01*
X40934284Y-84549243D01*
X40993543Y-84328087D01*
X41013498Y-84100000D01*
X40993543Y-83871913D01*
X40934284Y-83650757D01*
X40837523Y-83443251D01*
X40706198Y-83255700D01*
X40544300Y-83093802D01*
X40503167Y-83065000D01*
X40411376Y-83000726D01*
X40367751Y-82946149D01*
X40358500Y-82899152D01*
X40358500Y-81177775D01*
X40378185Y-81110736D01*
X40394819Y-81090094D01*
X43156832Y-78328081D01*
X45949766Y-75535146D01*
X46011087Y-75501663D01*
X46080779Y-75506647D01*
G37*
G04 #@! TD.AperFunction*
G04 #@! TA.AperFunction,Conductor*
G36*
X36060834Y-81324309D02*
G01*
X36116767Y-81366181D01*
X36141184Y-81431645D01*
X36141500Y-81440491D01*
X36141500Y-83926008D01*
X36121815Y-83993047D01*
X36109650Y-84008980D01*
X36060959Y-84063057D01*
X35965473Y-84228443D01*
X35965470Y-84228450D01*
X35912474Y-84391556D01*
X35906458Y-84410072D01*
X35886496Y-84600000D01*
X35906458Y-84789928D01*
X35906459Y-84789931D01*
X35965470Y-84971549D01*
X35965473Y-84971556D01*
X36060960Y-85136944D01*
X36188747Y-85278866D01*
X36343248Y-85391118D01*
X36517712Y-85468794D01*
X36704513Y-85508500D01*
X36895487Y-85508500D01*
X37082288Y-85468794D01*
X37256752Y-85391118D01*
X37411253Y-85278866D01*
X37539040Y-85136944D01*
X37634527Y-84971556D01*
X37693542Y-84789928D01*
X37713504Y-84600000D01*
X37693542Y-84410072D01*
X37634527Y-84228444D01*
X37539040Y-84063056D01*
X37490350Y-84008980D01*
X37460120Y-83945988D01*
X37458500Y-83926008D01*
X37458500Y-82532500D01*
X37478185Y-82465461D01*
X37530989Y-82419706D01*
X37582500Y-82408500D01*
X38917500Y-82408500D01*
X38984539Y-82428185D01*
X39030294Y-82480989D01*
X39041500Y-82532500D01*
X39041500Y-82899152D01*
X39021815Y-82966191D01*
X38988624Y-83000726D01*
X38855699Y-83093802D01*
X38693806Y-83255695D01*
X38693803Y-83255698D01*
X38693802Y-83255700D01*
X38630104Y-83346670D01*
X38562476Y-83443252D01*
X38562475Y-83443254D01*
X38465718Y-83650750D01*
X38465714Y-83650761D01*
X38406457Y-83871910D01*
X38406456Y-83871918D01*
X38386502Y-84099998D01*
X38386502Y-84100001D01*
X38406456Y-84328081D01*
X38406457Y-84328089D01*
X38465714Y-84549238D01*
X38465718Y-84549249D01*
X38562475Y-84756745D01*
X38562480Y-84756755D01*
X38572608Y-84771218D01*
X38594936Y-84837423D01*
X38577927Y-84905191D01*
X38558715Y-84930023D01*
X37504546Y-85984192D01*
X37443223Y-86017677D01*
X37384774Y-86016286D01*
X37348098Y-86006459D01*
X37348081Y-86006456D01*
X37120002Y-85986502D01*
X37119998Y-85986502D01*
X36891918Y-86006456D01*
X36891907Y-86006458D01*
X36799378Y-86031251D01*
X36729528Y-86029588D01*
X36707547Y-86020138D01*
X36694336Y-86012875D01*
X36673411Y-86007502D01*
X36655006Y-86001201D01*
X36635174Y-85992619D01*
X36586569Y-85984921D01*
X36580847Y-85983736D01*
X36547188Y-85975094D01*
X36533188Y-85971500D01*
X36533187Y-85971500D01*
X36511581Y-85971500D01*
X36492183Y-85969973D01*
X36483603Y-85968614D01*
X36470849Y-85966594D01*
X36470848Y-85966594D01*
X36421855Y-85971225D01*
X36416019Y-85971500D01*
X34129020Y-85971500D01*
X34061981Y-85951815D01*
X34016226Y-85899011D01*
X34012839Y-85890834D01*
X34000889Y-85858796D01*
X33913261Y-85741739D01*
X33796204Y-85654111D01*
X33796204Y-85654110D01*
X33659203Y-85603011D01*
X33598654Y-85596500D01*
X33598638Y-85596500D01*
X32482500Y-85596500D01*
X32415461Y-85576815D01*
X32369706Y-85524011D01*
X32358500Y-85472500D01*
X32358500Y-85106193D01*
X32358500Y-84585445D01*
X32378183Y-84518410D01*
X32430987Y-84472655D01*
X32494654Y-84462046D01*
X32524644Y-84465000D01*
X32550000Y-84465000D01*
X32550000Y-83924330D01*
X32569685Y-83857291D01*
X32622489Y-83811536D01*
X32691647Y-83801592D01*
X32714262Y-83807048D01*
X32737424Y-83815000D01*
X32831072Y-83815000D01*
X32831073Y-83815000D01*
X32905592Y-83802565D01*
X32974955Y-83810947D01*
X33028777Y-83855500D01*
X33049968Y-83922078D01*
X33050000Y-83924874D01*
X33050000Y-84465000D01*
X33075358Y-84465000D01*
X33225932Y-84450170D01*
X33419154Y-84391556D01*
X33597209Y-84296384D01*
X33597215Y-84296379D01*
X33753292Y-84168292D01*
X33881379Y-84012215D01*
X33881384Y-84012209D01*
X33976557Y-83834153D01*
X34020285Y-83690000D01*
X33288192Y-83690000D01*
X33221153Y-83670315D01*
X33175398Y-83617511D01*
X33165454Y-83548353D01*
X33167987Y-83535559D01*
X33168551Y-83533329D01*
X33178886Y-83408605D01*
X33162637Y-83344440D01*
X33165262Y-83274619D01*
X33205219Y-83217302D01*
X33269820Y-83190686D01*
X33282843Y-83190000D01*
X34020285Y-83190000D01*
X33976557Y-83045848D01*
X33957906Y-83010954D01*
X33943664Y-82942551D01*
X33968664Y-82877307D01*
X34024969Y-82835936D01*
X34067264Y-82828500D01*
X34094979Y-82828500D01*
X34111116Y-82830281D01*
X34111138Y-82830054D01*
X34118904Y-82830788D01*
X34118906Y-82830787D01*
X34118907Y-82830788D01*
X34191712Y-82828500D01*
X34222802Y-82828500D01*
X34230192Y-82827566D01*
X34236021Y-82827107D01*
X34285201Y-82825562D01*
X34305953Y-82819532D01*
X34324991Y-82815590D01*
X34346434Y-82812882D01*
X34392204Y-82794760D01*
X34397718Y-82792873D01*
X34424245Y-82785165D01*
X34444970Y-82779145D01*
X34463566Y-82768146D01*
X34481034Y-82759589D01*
X34501126Y-82751635D01*
X34540952Y-82722698D01*
X34545811Y-82719506D01*
X34588177Y-82694453D01*
X34603460Y-82679168D01*
X34618243Y-82666542D01*
X34635727Y-82653841D01*
X34667102Y-82615913D01*
X34671006Y-82611622D01*
X35929819Y-81352809D01*
X35991142Y-81319325D01*
X36060834Y-81324309D01*
G37*
G04 #@! TD.AperFunction*
G04 #@! TA.AperFunction,Conductor*
G36*
X36824539Y-71428185D02*
G01*
X36870294Y-71480989D01*
X36881500Y-71532500D01*
X36881500Y-72225877D01*
X36861815Y-72292916D01*
X36845181Y-72313558D01*
X31295453Y-77863285D01*
X31282785Y-77873435D01*
X31282931Y-77873611D01*
X31276918Y-77878585D01*
X31272888Y-77882877D01*
X31212646Y-77918269D01*
X31142832Y-77915473D01*
X31085613Y-77875376D01*
X31059154Y-77810710D01*
X31058500Y-77797989D01*
X31058500Y-75507214D01*
X31058499Y-75507205D01*
X31058499Y-75180704D01*
X31058499Y-74697771D01*
X31078184Y-74630736D01*
X31094809Y-74610104D01*
X31476014Y-74228899D01*
X31537333Y-74195417D01*
X31607025Y-74200401D01*
X31662958Y-74242273D01*
X31666882Y-74248222D01*
X31720973Y-74325471D01*
X31720973Y-74325472D01*
X32262580Y-73783865D01*
X32323903Y-73750380D01*
X32393594Y-73755364D01*
X32449528Y-73797235D01*
X32460742Y-73815246D01*
X32466527Y-73826599D01*
X32472358Y-73838044D01*
X32472363Y-73838050D01*
X32561949Y-73927636D01*
X32561951Y-73927637D01*
X32561955Y-73927641D01*
X32584747Y-73939254D01*
X32635542Y-73987228D01*
X32652337Y-74055049D01*
X32629799Y-74121184D01*
X32616132Y-74137419D01*
X32074526Y-74679025D01*
X32074526Y-74679026D01*
X32147512Y-74730131D01*
X32147516Y-74730133D01*
X32353673Y-74826265D01*
X32353682Y-74826269D01*
X32573389Y-74885139D01*
X32573400Y-74885141D01*
X32799998Y-74904966D01*
X32800002Y-74904966D01*
X33026599Y-74885141D01*
X33026610Y-74885139D01*
X33246317Y-74826269D01*
X33246331Y-74826264D01*
X33452478Y-74730136D01*
X33525472Y-74679025D01*
X32983866Y-74137419D01*
X32950381Y-74076096D01*
X32955365Y-74006404D01*
X32997237Y-73950471D01*
X33015245Y-73939258D01*
X33038045Y-73927641D01*
X33127641Y-73838045D01*
X33139254Y-73815252D01*
X33187225Y-73764458D01*
X33255046Y-73747661D01*
X33321181Y-73770197D01*
X33337419Y-73783866D01*
X33879025Y-74325472D01*
X33930136Y-74252478D01*
X34026264Y-74046331D01*
X34026269Y-74046317D01*
X34085139Y-73826610D01*
X34085141Y-73826599D01*
X34104966Y-73600002D01*
X34104966Y-73599997D01*
X34085141Y-73373400D01*
X34085139Y-73373389D01*
X34026269Y-73153682D01*
X34026265Y-73153673D01*
X33930133Y-72947516D01*
X33930131Y-72947512D01*
X33879026Y-72874526D01*
X33879025Y-72874526D01*
X33337419Y-73416132D01*
X33276096Y-73449617D01*
X33206404Y-73444633D01*
X33150471Y-73402761D01*
X33139256Y-73384751D01*
X33127641Y-73361955D01*
X33127637Y-73361951D01*
X33127636Y-73361949D01*
X33038050Y-73272363D01*
X33038044Y-73272358D01*
X33028109Y-73267296D01*
X33015250Y-73260744D01*
X32964456Y-73212773D01*
X32947660Y-73144952D01*
X32970197Y-73078817D01*
X32983865Y-73062580D01*
X33525472Y-72520973D01*
X33448048Y-72466761D01*
X33449068Y-72465303D01*
X33406354Y-72420485D01*
X33393147Y-72351875D01*
X33419131Y-72287016D01*
X33428886Y-72276027D01*
X34260094Y-71444818D01*
X34321418Y-71411334D01*
X34347776Y-71408500D01*
X36757500Y-71408500D01*
X36824539Y-71428185D01*
G37*
G04 #@! TD.AperFunction*
G04 #@! TA.AperFunction,Conductor*
G36*
X44902355Y-61996860D02*
G01*
X44937769Y-62057090D01*
X44941500Y-62087279D01*
X44941500Y-63126008D01*
X44921815Y-63193047D01*
X44909650Y-63208980D01*
X44860959Y-63263057D01*
X44765473Y-63428443D01*
X44765470Y-63428450D01*
X44706459Y-63610068D01*
X44706458Y-63610072D01*
X44686496Y-63800000D01*
X44706458Y-63989928D01*
X44706459Y-63989931D01*
X44765470Y-64171549D01*
X44765473Y-64171556D01*
X44860960Y-64336944D01*
X44988747Y-64478866D01*
X45143248Y-64591118D01*
X45317712Y-64668794D01*
X45504513Y-64708500D01*
X45695487Y-64708500D01*
X45882288Y-64668794D01*
X46056752Y-64591118D01*
X46211253Y-64478866D01*
X46339040Y-64336944D01*
X46434527Y-64171556D01*
X46493542Y-63989928D01*
X46513504Y-63800000D01*
X46493542Y-63610072D01*
X46434527Y-63428444D01*
X46339040Y-63263056D01*
X46290350Y-63208980D01*
X46260120Y-63145988D01*
X46258500Y-63126008D01*
X46258500Y-62771164D01*
X46278185Y-62704125D01*
X46330989Y-62658370D01*
X46400147Y-62648426D01*
X46414590Y-62651388D01*
X46571913Y-62693543D01*
X46734832Y-62707796D01*
X46799998Y-62713498D01*
X46800000Y-62713498D01*
X46800002Y-62713498D01*
X46857021Y-62708509D01*
X47028087Y-62693543D01*
X47249243Y-62634284D01*
X47365097Y-62580260D01*
X47434173Y-62569769D01*
X47497957Y-62598289D01*
X47536196Y-62656765D01*
X47541500Y-62692643D01*
X47541500Y-65116734D01*
X47521815Y-65183773D01*
X47469011Y-65229528D01*
X47399853Y-65239472D01*
X47365096Y-65229116D01*
X47246331Y-65173735D01*
X47246317Y-65173730D01*
X47026610Y-65114860D01*
X47026599Y-65114858D01*
X46800002Y-65095034D01*
X46799998Y-65095034D01*
X46573400Y-65114858D01*
X46573389Y-65114860D01*
X46353682Y-65173730D01*
X46353673Y-65173734D01*
X46147513Y-65269868D01*
X46074526Y-65320973D01*
X46616133Y-65862580D01*
X46649618Y-65923903D01*
X46644634Y-65993595D01*
X46602762Y-66049528D01*
X46584748Y-66060745D01*
X46561956Y-66072358D01*
X46561949Y-66072363D01*
X46472363Y-66161949D01*
X46472358Y-66161956D01*
X46460745Y-66184748D01*
X46412770Y-66235544D01*
X46344949Y-66252338D01*
X46278814Y-66229800D01*
X46262580Y-66216133D01*
X45720973Y-65674526D01*
X45669868Y-65747513D01*
X45573734Y-65953673D01*
X45573730Y-65953682D01*
X45514860Y-66173389D01*
X45514858Y-66173400D01*
X45495034Y-66399997D01*
X45495034Y-66400002D01*
X45514858Y-66626599D01*
X45514860Y-66626610D01*
X45573730Y-66846317D01*
X45573734Y-66846326D01*
X45669865Y-67052481D01*
X45669866Y-67052483D01*
X45720973Y-67125471D01*
X45720973Y-67125472D01*
X46262580Y-66583865D01*
X46323903Y-66550380D01*
X46393594Y-66555364D01*
X46449528Y-66597235D01*
X46460742Y-66615246D01*
X46463965Y-66621570D01*
X46472358Y-66638044D01*
X46472363Y-66638050D01*
X46561949Y-66727636D01*
X46561951Y-66727637D01*
X46561955Y-66727641D01*
X46584747Y-66739254D01*
X46635542Y-66787228D01*
X46652337Y-66855049D01*
X46629799Y-66921184D01*
X46616132Y-66937419D01*
X46074526Y-67479025D01*
X46074526Y-67479026D01*
X46147512Y-67530131D01*
X46147516Y-67530133D01*
X46353673Y-67626265D01*
X46353682Y-67626269D01*
X46573389Y-67685139D01*
X46573400Y-67685141D01*
X46799998Y-67704966D01*
X46800002Y-67704966D01*
X47026599Y-67685141D01*
X47026610Y-67685139D01*
X47246317Y-67626269D01*
X47246326Y-67626266D01*
X47365095Y-67570883D01*
X47434172Y-67560391D01*
X47497956Y-67588911D01*
X47536196Y-67647387D01*
X47541500Y-67683265D01*
X47541500Y-72029531D01*
X47521815Y-72096570D01*
X47505181Y-72117212D01*
X47287744Y-72334648D01*
X47226421Y-72368133D01*
X47156729Y-72363149D01*
X47100796Y-72321277D01*
X47076379Y-72255813D01*
X47080287Y-72214876D01*
X47103543Y-72128087D01*
X47123498Y-71900000D01*
X47103543Y-71671913D01*
X47044284Y-71450757D01*
X46947523Y-71243251D01*
X46816198Y-71055700D01*
X46654300Y-70893802D01*
X46466749Y-70762477D01*
X46466745Y-70762475D01*
X46259249Y-70665718D01*
X46259238Y-70665714D01*
X46038089Y-70606457D01*
X46038081Y-70606456D01*
X45810002Y-70586502D01*
X45809998Y-70586502D01*
X45581918Y-70606456D01*
X45581908Y-70606458D01*
X45545223Y-70616287D01*
X45475373Y-70614622D01*
X45425452Y-70584192D01*
X45058566Y-70217306D01*
X44691270Y-69850011D01*
X44657786Y-69788689D01*
X44662770Y-69718998D01*
X44677378Y-69691207D01*
X44677645Y-69690826D01*
X44757523Y-69576749D01*
X44854284Y-69369243D01*
X44913543Y-69148087D01*
X44933498Y-68920000D01*
X44913543Y-68691913D01*
X44854284Y-68470757D01*
X44757523Y-68263251D01*
X44626198Y-68075700D01*
X44464300Y-67913802D01*
X44276749Y-67782477D01*
X44276745Y-67782475D01*
X44069249Y-67685718D01*
X44069238Y-67685714D01*
X43848089Y-67626457D01*
X43848081Y-67626456D01*
X43620002Y-67606502D01*
X43619998Y-67606502D01*
X43391918Y-67626456D01*
X43391908Y-67626458D01*
X43355223Y-67636287D01*
X43285373Y-67634622D01*
X43235452Y-67604192D01*
X42924819Y-67293559D01*
X42891334Y-67232236D01*
X42888500Y-67205878D01*
X42888500Y-62597306D01*
X42908185Y-62530267D01*
X42960989Y-62484512D01*
X43030147Y-62474568D01*
X43064900Y-62484922D01*
X43170757Y-62534284D01*
X43391913Y-62593543D01*
X43554832Y-62607796D01*
X43619998Y-62613498D01*
X43620000Y-62613498D01*
X43620002Y-62613498D01*
X43677021Y-62608509D01*
X43848087Y-62593543D01*
X44069243Y-62534284D01*
X44276749Y-62437523D01*
X44464300Y-62306198D01*
X44626198Y-62144300D01*
X44715928Y-62016152D01*
X44770502Y-61972531D01*
X44840001Y-61965338D01*
X44902355Y-61996860D01*
G37*
G04 #@! TD.AperFunction*
G04 #@! TA.AperFunction,Conductor*
G36*
X36500812Y-63328185D02*
G01*
X36546567Y-63380989D01*
X36556511Y-63450147D01*
X36551704Y-63470818D01*
X36506459Y-63610068D01*
X36506458Y-63610072D01*
X36486496Y-63800000D01*
X36506458Y-63989928D01*
X36506459Y-63989931D01*
X36565470Y-64171549D01*
X36565473Y-64171556D01*
X36660960Y-64336944D01*
X36788747Y-64478866D01*
X36943248Y-64591118D01*
X37117712Y-64668794D01*
X37304513Y-64708500D01*
X37495488Y-64708500D01*
X37498284Y-64708206D01*
X37499892Y-64708500D01*
X37501986Y-64708500D01*
X37501986Y-64708882D01*
X37567015Y-64720773D01*
X37598931Y-64743845D01*
X40444850Y-67589764D01*
X40478335Y-67651087D01*
X40473351Y-67720779D01*
X40431479Y-67776712D01*
X40427612Y-67779267D01*
X40427686Y-67779372D01*
X40423252Y-67782476D01*
X40423251Y-67782477D01*
X40235700Y-67913802D01*
X40235698Y-67913803D01*
X40235695Y-67913806D01*
X40073806Y-68075695D01*
X40073803Y-68075698D01*
X40073802Y-68075700D01*
X39980726Y-68208625D01*
X39926150Y-68252249D01*
X39879153Y-68261500D01*
X39740847Y-68261500D01*
X39673808Y-68241815D01*
X39639274Y-68208626D01*
X39546198Y-68075700D01*
X39384300Y-67913802D01*
X39196749Y-67782477D01*
X39196745Y-67782475D01*
X38989249Y-67685718D01*
X38989238Y-67685714D01*
X38768089Y-67626457D01*
X38768081Y-67626456D01*
X38540002Y-67606502D01*
X38539998Y-67606502D01*
X38311918Y-67626456D01*
X38311910Y-67626457D01*
X38090761Y-67685714D01*
X38090750Y-67685718D01*
X37883254Y-67782475D01*
X37883252Y-67782476D01*
X37883249Y-67782477D01*
X37883251Y-67782477D01*
X37695700Y-67913802D01*
X37695698Y-67913803D01*
X37695695Y-67913806D01*
X37533806Y-68075695D01*
X37402476Y-68263251D01*
X37382382Y-68306345D01*
X37336209Y-68358784D01*
X37269016Y-68377936D01*
X37202135Y-68357720D01*
X37157618Y-68306345D01*
X37137523Y-68263251D01*
X37100679Y-68210633D01*
X37006198Y-68075700D01*
X36844300Y-67913802D01*
X36656749Y-67782477D01*
X36656745Y-67782475D01*
X36449249Y-67685718D01*
X36449238Y-67685714D01*
X36228089Y-67626457D01*
X36228081Y-67626456D01*
X36000002Y-67606502D01*
X35999998Y-67606502D01*
X35771918Y-67626456D01*
X35771910Y-67626457D01*
X35550761Y-67685714D01*
X35550750Y-67685718D01*
X35343254Y-67782475D01*
X35343252Y-67782476D01*
X35343249Y-67782477D01*
X35343251Y-67782477D01*
X35155700Y-67913802D01*
X35155698Y-67913803D01*
X35155695Y-67913806D01*
X34993806Y-68075695D01*
X34993803Y-68075698D01*
X34993802Y-68075700D01*
X34939373Y-68153433D01*
X34862476Y-68263252D01*
X34862475Y-68263254D01*
X34765718Y-68470750D01*
X34765714Y-68470761D01*
X34706457Y-68691910D01*
X34706456Y-68691918D01*
X34686502Y-68919998D01*
X34686502Y-68920001D01*
X34706456Y-69148081D01*
X34706457Y-69148089D01*
X34765714Y-69369238D01*
X34767566Y-69374324D01*
X34765306Y-69375146D01*
X34774275Y-69434163D01*
X34745761Y-69497949D01*
X34687287Y-69536193D01*
X34651400Y-69541500D01*
X33976339Y-69541500D01*
X33909300Y-69521815D01*
X33863545Y-69469011D01*
X33853601Y-69399853D01*
X33874765Y-69346376D01*
X33930288Y-69267081D01*
X33937523Y-69256749D01*
X34034284Y-69049243D01*
X34093543Y-68828087D01*
X34113498Y-68600000D01*
X34093543Y-68371913D01*
X34034284Y-68150757D01*
X33937523Y-67943251D01*
X33806198Y-67755700D01*
X33644300Y-67593802D01*
X33456749Y-67462477D01*
X33376941Y-67425262D01*
X33249249Y-67365718D01*
X33249238Y-67365714D01*
X33028089Y-67306457D01*
X33028081Y-67306456D01*
X32800002Y-67286502D01*
X32799998Y-67286502D01*
X32571918Y-67306456D01*
X32571910Y-67306457D01*
X32350761Y-67365714D01*
X32350750Y-67365718D01*
X32143254Y-67462475D01*
X32143252Y-67462476D01*
X32100658Y-67492301D01*
X31955700Y-67593802D01*
X31955698Y-67593803D01*
X31955695Y-67593806D01*
X31793806Y-67755695D01*
X31793803Y-67755698D01*
X31793802Y-67755700D01*
X31711767Y-67872856D01*
X31662476Y-67943252D01*
X31662475Y-67943254D01*
X31565718Y-68150750D01*
X31565714Y-68150761D01*
X31506457Y-68371910D01*
X31506456Y-68371918D01*
X31486502Y-68599998D01*
X31486502Y-68600001D01*
X31506456Y-68828081D01*
X31506457Y-68828089D01*
X31565714Y-69049238D01*
X31565718Y-69049249D01*
X31611807Y-69148087D01*
X31662477Y-69256749D01*
X31793802Y-69444300D01*
X31793806Y-69444304D01*
X31825848Y-69476346D01*
X31859333Y-69537669D01*
X31854349Y-69607361D01*
X31812477Y-69663294D01*
X31801290Y-69670758D01*
X31793192Y-69675546D01*
X31777913Y-69690826D01*
X31763127Y-69703455D01*
X31745643Y-69716159D01*
X31745641Y-69716161D01*
X31745640Y-69716162D01*
X31714271Y-69754078D01*
X31710339Y-69758399D01*
X29312181Y-72156558D01*
X29250858Y-72190043D01*
X29181166Y-72185059D01*
X29125233Y-72143187D01*
X29100816Y-72077723D01*
X29100500Y-72068877D01*
X29100500Y-70005181D01*
X29100500Y-67771047D01*
X29120184Y-67704012D01*
X29172988Y-67658257D01*
X29242146Y-67648313D01*
X29305702Y-67677338D01*
X29326073Y-67699926D01*
X29361893Y-67751081D01*
X29528917Y-67918105D01*
X29722421Y-68053600D01*
X29936507Y-68153429D01*
X29936516Y-68153433D01*
X30150000Y-68210634D01*
X30150000Y-67492301D01*
X30169685Y-67425262D01*
X30222489Y-67379507D01*
X30291647Y-67369563D01*
X30364237Y-67380000D01*
X30364238Y-67380000D01*
X30435762Y-67380000D01*
X30435763Y-67380000D01*
X30508353Y-67369563D01*
X30577512Y-67379507D01*
X30630315Y-67425262D01*
X30650000Y-67492301D01*
X30649999Y-68210633D01*
X30863483Y-68153433D01*
X30863492Y-68153429D01*
X31077578Y-68053600D01*
X31271082Y-67918105D01*
X31438105Y-67751082D01*
X31573600Y-67557578D01*
X31673429Y-67343492D01*
X31673432Y-67343486D01*
X31730636Y-67130000D01*
X31013347Y-67130000D01*
X30946308Y-67110315D01*
X30900553Y-67057511D01*
X30890609Y-66988353D01*
X30894369Y-66971067D01*
X30900000Y-66951888D01*
X30900000Y-66808111D01*
X30894369Y-66788933D01*
X30894370Y-66719064D01*
X30932145Y-66660286D01*
X30995701Y-66631262D01*
X31013347Y-66630000D01*
X31730636Y-66630000D01*
X31730635Y-66629999D01*
X31673432Y-66416513D01*
X31673429Y-66416507D01*
X31573600Y-66202422D01*
X31573599Y-66202420D01*
X31438113Y-66008926D01*
X31438108Y-66008920D01*
X31271082Y-65841894D01*
X31090197Y-65715236D01*
X31046572Y-65660659D01*
X31039380Y-65591160D01*
X31070902Y-65528806D01*
X31102300Y-65504608D01*
X31145576Y-65481189D01*
X31323240Y-65342906D01*
X31427992Y-65229116D01*
X31475715Y-65177276D01*
X31475719Y-65177271D01*
X31475722Y-65177268D01*
X31598860Y-64988791D01*
X31689296Y-64782616D01*
X31744564Y-64564368D01*
X31751649Y-64478866D01*
X31763156Y-64340005D01*
X31763156Y-64339994D01*
X31744565Y-64115640D01*
X31744563Y-64115628D01*
X31689296Y-63897385D01*
X31646579Y-63800000D01*
X31598860Y-63691209D01*
X31475722Y-63502732D01*
X31475720Y-63502730D01*
X31474147Y-63500322D01*
X31453959Y-63433432D01*
X31473138Y-63366247D01*
X31525597Y-63320096D01*
X31577955Y-63308500D01*
X36433773Y-63308500D01*
X36500812Y-63328185D01*
G37*
G04 #@! TD.AperFunction*
G04 #@! TA.AperFunction,Conductor*
G36*
X34785836Y-42907937D02*
G01*
X34841769Y-42949809D01*
X34865940Y-43014614D01*
X34866030Y-43014607D01*
X34866058Y-43014930D01*
X34866186Y-43015273D01*
X34866253Y-43017160D01*
X34886456Y-43248081D01*
X34886457Y-43248089D01*
X34945714Y-43469238D01*
X34945718Y-43469249D01*
X35000373Y-43586457D01*
X35042477Y-43676749D01*
X35173802Y-43864300D01*
X35335700Y-44026198D01*
X35523251Y-44157523D01*
X35648091Y-44215736D01*
X35730750Y-44254281D01*
X35730752Y-44254281D01*
X35730757Y-44254284D01*
X35951913Y-44313543D01*
X36114832Y-44327796D01*
X36179998Y-44333498D01*
X36180000Y-44333498D01*
X36180002Y-44333498D01*
X36237021Y-44328509D01*
X36408087Y-44313543D01*
X36629243Y-44254284D01*
X36836749Y-44157523D01*
X37024300Y-44026198D01*
X37186198Y-43864300D01*
X37317523Y-43676749D01*
X37337617Y-43633655D01*
X37383790Y-43581215D01*
X37450983Y-43562063D01*
X37517864Y-43582278D01*
X37562382Y-43633655D01*
X37582477Y-43676749D01*
X37713802Y-43864300D01*
X37713805Y-43864303D01*
X37713806Y-43864304D01*
X37875698Y-44026197D01*
X38008623Y-44119271D01*
X38052248Y-44173847D01*
X38061500Y-44220846D01*
X38061500Y-45413609D01*
X38059718Y-45429746D01*
X38059946Y-45429768D01*
X38059211Y-45437534D01*
X38061500Y-45510342D01*
X38061500Y-45541434D01*
X38062433Y-45548829D01*
X38062891Y-45554647D01*
X38064437Y-45603829D01*
X38064438Y-45603832D01*
X38070464Y-45624577D01*
X38074407Y-45643618D01*
X38077116Y-45665053D01*
X38077117Y-45665057D01*
X38077118Y-45665064D01*
X38079830Y-45671913D01*
X38095234Y-45710822D01*
X38097125Y-45716348D01*
X38110854Y-45763598D01*
X38121850Y-45782191D01*
X38130410Y-45799665D01*
X38138363Y-45819754D01*
X38167289Y-45859565D01*
X38170490Y-45864437D01*
X38195547Y-45906807D01*
X38195551Y-45906811D01*
X38210821Y-45922081D01*
X38223458Y-45936876D01*
X38236159Y-45954357D01*
X38274072Y-45985721D01*
X38278383Y-45989643D01*
X39936821Y-47648081D01*
X41593280Y-49304540D01*
X41603430Y-49317208D01*
X41603606Y-49317064D01*
X41608580Y-49323076D01*
X41661685Y-49372946D01*
X41683661Y-49394922D01*
X41689551Y-49399491D01*
X41693994Y-49403286D01*
X41729864Y-49436970D01*
X41729866Y-49436971D01*
X41729867Y-49436972D01*
X41748803Y-49447382D01*
X41765049Y-49458053D01*
X41782132Y-49471304D01*
X41782137Y-49471306D01*
X41827296Y-49490848D01*
X41832544Y-49493420D01*
X41864234Y-49510840D01*
X41875663Y-49517124D01*
X41891823Y-49521272D01*
X41896583Y-49522495D01*
X41914986Y-49528795D01*
X41934824Y-49537380D01*
X41971960Y-49543261D01*
X41983431Y-49545078D01*
X41989146Y-49546261D01*
X42036812Y-49558500D01*
X42058419Y-49558500D01*
X42077816Y-49560026D01*
X42099152Y-49563406D01*
X42148144Y-49558774D01*
X42153981Y-49558500D01*
X42759153Y-49558500D01*
X42826192Y-49578185D01*
X42860725Y-49611373D01*
X42953802Y-49744300D01*
X43115700Y-49906198D01*
X43303251Y-50037523D01*
X43428091Y-50095736D01*
X43510750Y-50134281D01*
X43510752Y-50134281D01*
X43510757Y-50134284D01*
X43731913Y-50193543D01*
X43894832Y-50207796D01*
X43959998Y-50213498D01*
X43960000Y-50213498D01*
X43960002Y-50213498D01*
X44017021Y-50208509D01*
X44188087Y-50193543D01*
X44409243Y-50134284D01*
X44616749Y-50037523D01*
X44804300Y-49906198D01*
X44966198Y-49744300D01*
X45097523Y-49556749D01*
X45194284Y-49349243D01*
X45253543Y-49128087D01*
X45273498Y-48900000D01*
X45253543Y-48671913D01*
X45194284Y-48450757D01*
X45097523Y-48243251D01*
X44966198Y-48055700D01*
X44804300Y-47893802D01*
X44616749Y-47762477D01*
X44598405Y-47753923D01*
X44409249Y-47665718D01*
X44409238Y-47665714D01*
X44188089Y-47606457D01*
X44188081Y-47606456D01*
X43960002Y-47586502D01*
X43959998Y-47586502D01*
X43731918Y-47606456D01*
X43731910Y-47606457D01*
X43510761Y-47665714D01*
X43510750Y-47665718D01*
X43303254Y-47762475D01*
X43303252Y-47762476D01*
X43303249Y-47762477D01*
X43303251Y-47762477D01*
X43115700Y-47893802D01*
X43115698Y-47893803D01*
X43115695Y-47893806D01*
X42953806Y-48055695D01*
X42953803Y-48055698D01*
X42953802Y-48055700D01*
X42860726Y-48188625D01*
X42806150Y-48232249D01*
X42759153Y-48241500D01*
X42444122Y-48241500D01*
X42377083Y-48221815D01*
X42356441Y-48205181D01*
X41571441Y-47420181D01*
X41537956Y-47358858D01*
X41542940Y-47289166D01*
X41584812Y-47233233D01*
X41650276Y-47208816D01*
X41659122Y-47208500D01*
X42268638Y-47208500D01*
X42268654Y-47208499D01*
X42295692Y-47205591D01*
X42329201Y-47201989D01*
X42466204Y-47150889D01*
X42583261Y-47063261D01*
X42670889Y-46946204D01*
X42721989Y-46809201D01*
X42726929Y-46763251D01*
X42728499Y-46748654D01*
X42728500Y-46748637D01*
X42728500Y-45051362D01*
X42728499Y-45051345D01*
X42725157Y-45020270D01*
X42721989Y-44990799D01*
X42670889Y-44853796D01*
X42583261Y-44736739D01*
X42466204Y-44649111D01*
X42466203Y-44649110D01*
X42329203Y-44598011D01*
X42268654Y-44591500D01*
X42268638Y-44591500D01*
X40571362Y-44591500D01*
X40571345Y-44591500D01*
X40510797Y-44598011D01*
X40510795Y-44598011D01*
X40373795Y-44649111D01*
X40256739Y-44736739D01*
X40169111Y-44853795D01*
X40118011Y-44990795D01*
X40118011Y-44990797D01*
X40111500Y-45051345D01*
X40111500Y-45660877D01*
X40091815Y-45727916D01*
X40039011Y-45773671D01*
X39969853Y-45783615D01*
X39906297Y-45754590D01*
X39899819Y-45748558D01*
X39414819Y-45263558D01*
X39381334Y-45202235D01*
X39378500Y-45175877D01*
X39378500Y-44220846D01*
X39398185Y-44153807D01*
X39431377Y-44119271D01*
X39564300Y-44026198D01*
X39726198Y-43864300D01*
X39857523Y-43676749D01*
X39877617Y-43633655D01*
X39923790Y-43581215D01*
X39990983Y-43562063D01*
X40057864Y-43582278D01*
X40102382Y-43633655D01*
X40122477Y-43676749D01*
X40253802Y-43864300D01*
X40415700Y-44026198D01*
X40603251Y-44157523D01*
X40728091Y-44215736D01*
X40810750Y-44254281D01*
X40810752Y-44254281D01*
X40810757Y-44254284D01*
X41031913Y-44313543D01*
X41194832Y-44327796D01*
X41259998Y-44333498D01*
X41260000Y-44333498D01*
X41260002Y-44333498D01*
X41317021Y-44328509D01*
X41488087Y-44313543D01*
X41709243Y-44254284D01*
X41916749Y-44157523D01*
X42104300Y-44026198D01*
X42266198Y-43864300D01*
X42279012Y-43845999D01*
X42333585Y-43802376D01*
X42403084Y-43795182D01*
X42465439Y-43826704D01*
X42500853Y-43886933D01*
X42503874Y-43903867D01*
X42506401Y-43927373D01*
X42506403Y-43927379D01*
X42556645Y-44062086D01*
X42556649Y-44062093D01*
X42642809Y-44177187D01*
X42642812Y-44177190D01*
X42757906Y-44263350D01*
X42757913Y-44263354D01*
X42892620Y-44313596D01*
X42892627Y-44313598D01*
X42952155Y-44319999D01*
X42952172Y-44320000D01*
X43550000Y-44320000D01*
X43550000Y-43530575D01*
X43569685Y-43463536D01*
X43622489Y-43417781D01*
X43691647Y-43407837D01*
X43693331Y-43408091D01*
X43725699Y-43413218D01*
X43768515Y-43420000D01*
X43768519Y-43420000D01*
X43831485Y-43420000D01*
X43874300Y-43413218D01*
X43906602Y-43408102D01*
X43975894Y-43417056D01*
X44029347Y-43462052D01*
X44049987Y-43528803D01*
X44050000Y-43530575D01*
X44050000Y-44320000D01*
X44647828Y-44320000D01*
X44647844Y-44319999D01*
X44707372Y-44313598D01*
X44707379Y-44313596D01*
X44842086Y-44263354D01*
X44842093Y-44263350D01*
X44957187Y-44177190D01*
X44957190Y-44177187D01*
X45043350Y-44062093D01*
X45043354Y-44062086D01*
X45093596Y-43927379D01*
X45093598Y-43927372D01*
X45099999Y-43867844D01*
X45100000Y-43867827D01*
X45100000Y-43330622D01*
X45119685Y-43263583D01*
X45172489Y-43217828D01*
X45241647Y-43207884D01*
X45305203Y-43236909D01*
X45311681Y-43242941D01*
X46105181Y-44036441D01*
X46138666Y-44097764D01*
X46141500Y-44124122D01*
X46141500Y-46219152D01*
X46121815Y-46286191D01*
X46088624Y-46320726D01*
X45955699Y-46413802D01*
X45793806Y-46575695D01*
X45662476Y-46763252D01*
X45662475Y-46763254D01*
X45565718Y-46970750D01*
X45565714Y-46970761D01*
X45506457Y-47191910D01*
X45506456Y-47191918D01*
X45486502Y-47419998D01*
X45486502Y-47420001D01*
X45506456Y-47648081D01*
X45506457Y-47648089D01*
X45565714Y-47869238D01*
X45565718Y-47869249D01*
X45652659Y-48055695D01*
X45662477Y-48076749D01*
X45793802Y-48264300D01*
X45955700Y-48426198D01*
X46143251Y-48557523D01*
X46234966Y-48600290D01*
X46350750Y-48654281D01*
X46350752Y-48654281D01*
X46350757Y-48654284D01*
X46571913Y-48713543D01*
X46734832Y-48727796D01*
X46799998Y-48733498D01*
X46800000Y-48733498D01*
X46800002Y-48733498D01*
X46831614Y-48730732D01*
X47028087Y-48713543D01*
X47064771Y-48703713D01*
X47134618Y-48705374D01*
X47184546Y-48735806D01*
X47505181Y-49056440D01*
X47538666Y-49117763D01*
X47541500Y-49144121D01*
X47541500Y-56287356D01*
X47521815Y-56354395D01*
X47469011Y-56400150D01*
X47399853Y-56410094D01*
X47365096Y-56399738D01*
X47249249Y-56345718D01*
X47249238Y-56345714D01*
X47028089Y-56286457D01*
X47028081Y-56286456D01*
X46800002Y-56266502D01*
X46799998Y-56266502D01*
X46571918Y-56286456D01*
X46571910Y-56286457D01*
X46350761Y-56345714D01*
X46350750Y-56345718D01*
X46143254Y-56442475D01*
X46143252Y-56442476D01*
X46143249Y-56442477D01*
X46143251Y-56442477D01*
X45955700Y-56573802D01*
X45955698Y-56573803D01*
X45955695Y-56573806D01*
X45793806Y-56735695D01*
X45662476Y-56923252D01*
X45662475Y-56923254D01*
X45565718Y-57130750D01*
X45565714Y-57130761D01*
X45506457Y-57351910D01*
X45506456Y-57351918D01*
X45486502Y-57579998D01*
X45486502Y-57580001D01*
X45506456Y-57808081D01*
X45506459Y-57808098D01*
X45516286Y-57844774D01*
X45514622Y-57914623D01*
X45484192Y-57964546D01*
X45200340Y-58248398D01*
X45139017Y-58281883D01*
X45069325Y-58276899D01*
X45013392Y-58235027D01*
X44988975Y-58169563D01*
X44989130Y-58149915D01*
X44993498Y-58100000D01*
X44973543Y-57871913D01*
X44914284Y-57650757D01*
X44817523Y-57443251D01*
X44686198Y-57255700D01*
X44524300Y-57093802D01*
X44336749Y-56962477D01*
X44336745Y-56962475D01*
X44129249Y-56865718D01*
X44129238Y-56865714D01*
X43908089Y-56806457D01*
X43908081Y-56806456D01*
X43680002Y-56786502D01*
X43679998Y-56786502D01*
X43451918Y-56806456D01*
X43451910Y-56806457D01*
X43230761Y-56865714D01*
X43230750Y-56865718D01*
X43064904Y-56943053D01*
X42995826Y-56953545D01*
X42932043Y-56925025D01*
X42893804Y-56866548D01*
X42888500Y-56830671D01*
X42888500Y-56006387D01*
X42890282Y-55990249D01*
X42890054Y-55990228D01*
X42890788Y-55982465D01*
X42889725Y-55948654D01*
X42888500Y-55909657D01*
X42888500Y-55878568D01*
X42887566Y-55871175D01*
X42887107Y-55865347D01*
X42885562Y-55816169D01*
X42879536Y-55795428D01*
X42875590Y-55776377D01*
X42872882Y-55754936D01*
X42854763Y-55709172D01*
X42852872Y-55703648D01*
X42851244Y-55698048D01*
X42839145Y-55656400D01*
X42828149Y-55637808D01*
X42819589Y-55620335D01*
X42811635Y-55600244D01*
X42782711Y-55560434D01*
X42779502Y-55555549D01*
X42767979Y-55536065D01*
X42754453Y-55513193D01*
X42754449Y-55513189D01*
X42754446Y-55513185D01*
X42739175Y-55497914D01*
X42726537Y-55483118D01*
X42716695Y-55469572D01*
X42714153Y-55466073D01*
X42690675Y-55400267D01*
X42694698Y-55361095D01*
X42703543Y-55328087D01*
X42723498Y-55100000D01*
X42703543Y-54871913D01*
X42644284Y-54650757D01*
X42547523Y-54443251D01*
X42416198Y-54255700D01*
X42254300Y-54093802D01*
X42066749Y-53962477D01*
X42066747Y-53962476D01*
X42062314Y-53959372D01*
X42063708Y-53957381D01*
X42022586Y-53914212D01*
X42009396Y-53845598D01*
X42035396Y-53780746D01*
X42045140Y-53769772D01*
X42824528Y-52990384D01*
X42885849Y-52956901D01*
X42955541Y-52961885D01*
X42999888Y-52990386D01*
X43115700Y-53106198D01*
X43303251Y-53237523D01*
X43428091Y-53295736D01*
X43510750Y-53334281D01*
X43510752Y-53334281D01*
X43510757Y-53334284D01*
X43731913Y-53393543D01*
X43894832Y-53407796D01*
X43959998Y-53413498D01*
X43960000Y-53413498D01*
X43960002Y-53413498D01*
X44017021Y-53408509D01*
X44188087Y-53393543D01*
X44409243Y-53334284D01*
X44616749Y-53237523D01*
X44804300Y-53106198D01*
X44966198Y-52944300D01*
X45097523Y-52756749D01*
X45194284Y-52549243D01*
X45253543Y-52328087D01*
X45273498Y-52100000D01*
X45253543Y-51871913D01*
X45194284Y-51650757D01*
X45172226Y-51603454D01*
X45132549Y-51518365D01*
X45097523Y-51443251D01*
X44966198Y-51255700D01*
X44804300Y-51093802D01*
X44616749Y-50962477D01*
X44616745Y-50962475D01*
X44409249Y-50865718D01*
X44409238Y-50865714D01*
X44188089Y-50806457D01*
X44188081Y-50806456D01*
X43960002Y-50786502D01*
X43959998Y-50786502D01*
X43731918Y-50806456D01*
X43731910Y-50806457D01*
X43510761Y-50865714D01*
X43510750Y-50865718D01*
X43303254Y-50962475D01*
X43303252Y-50962476D01*
X43303249Y-50962477D01*
X43303251Y-50962477D01*
X43115700Y-51093802D01*
X43115698Y-51093803D01*
X43115695Y-51093806D01*
X42953805Y-51255696D01*
X42953796Y-51255707D01*
X42860726Y-51388624D01*
X42806149Y-51432249D01*
X42759152Y-51441500D01*
X42742220Y-51441500D01*
X42734826Y-51442433D01*
X42729008Y-51442891D01*
X42679827Y-51444437D01*
X42679817Y-51444439D01*
X42659076Y-51450464D01*
X42640036Y-51454407D01*
X42618600Y-51457116D01*
X42618585Y-51457119D01*
X42572832Y-51475233D01*
X42567308Y-51477124D01*
X42520053Y-51490855D01*
X42501462Y-51501850D01*
X42483993Y-51510408D01*
X42463900Y-51518364D01*
X42463899Y-51518364D01*
X42463898Y-51518365D01*
X42463897Y-51518366D01*
X42424087Y-51547289D01*
X42419204Y-51550496D01*
X42376846Y-51575546D01*
X42361567Y-51590826D01*
X42346783Y-51603454D01*
X42329297Y-51616159D01*
X42329295Y-51616161D01*
X42329294Y-51616162D01*
X42297925Y-51654078D01*
X42293993Y-51658399D01*
X38135453Y-55816939D01*
X38122785Y-55827089D01*
X38122931Y-55827265D01*
X38116920Y-55832237D01*
X38067053Y-55885340D01*
X38045072Y-55907321D01*
X38040492Y-55913223D01*
X38036708Y-55917652D01*
X38003029Y-55953519D01*
X38003024Y-55953526D01*
X37992618Y-55972454D01*
X37981942Y-55988708D01*
X37968695Y-56005787D01*
X37949150Y-56050951D01*
X37946580Y-56056197D01*
X37922876Y-56099315D01*
X37917502Y-56120243D01*
X37911203Y-56138641D01*
X37902619Y-56158479D01*
X37894923Y-56207074D01*
X37893738Y-56212797D01*
X37881500Y-56260463D01*
X37881500Y-56282067D01*
X37879974Y-56301462D01*
X37876594Y-56322806D01*
X37879249Y-56350889D01*
X37881225Y-56371797D01*
X37881500Y-56377635D01*
X37881500Y-60099152D01*
X37861815Y-60166191D01*
X37828624Y-60200726D01*
X37695699Y-60293802D01*
X37533805Y-60455696D01*
X37528429Y-60463374D01*
X37473849Y-60506995D01*
X37404350Y-60514184D01*
X37341997Y-60482658D01*
X37306587Y-60422426D01*
X37303570Y-60405510D01*
X37301989Y-60390799D01*
X37250889Y-60253796D01*
X37163261Y-60136739D01*
X37046204Y-60049111D01*
X37017943Y-60038570D01*
X36909203Y-59998011D01*
X36848654Y-59991500D01*
X36848638Y-59991500D01*
X35151362Y-59991500D01*
X35151345Y-59991500D01*
X35090797Y-59998011D01*
X35090795Y-59998011D01*
X34953795Y-60049111D01*
X34836739Y-60136739D01*
X34749111Y-60253795D01*
X34698011Y-60390795D01*
X34698011Y-60390797D01*
X34691500Y-60451345D01*
X34691500Y-61867500D01*
X34671815Y-61934539D01*
X34619011Y-61980294D01*
X34567500Y-61991500D01*
X31881988Y-61991500D01*
X31814949Y-61971815D01*
X31769194Y-61919011D01*
X31758411Y-61857261D01*
X31763156Y-61799995D01*
X31763156Y-61799994D01*
X31744565Y-61575640D01*
X31744563Y-61575628D01*
X31689296Y-61357385D01*
X31598859Y-61151207D01*
X31475723Y-60962734D01*
X31475715Y-60962723D01*
X31323243Y-60797097D01*
X31323238Y-60797092D01*
X31145577Y-60658812D01*
X31145578Y-60658812D01*
X31145576Y-60658811D01*
X31109070Y-60639055D01*
X31059479Y-60589836D01*
X31044371Y-60521619D01*
X31068541Y-60456064D01*
X31109070Y-60420945D01*
X31109084Y-60420936D01*
X31145576Y-60401189D01*
X31323240Y-60262906D01*
X31449671Y-60125567D01*
X31475715Y-60097276D01*
X31475716Y-60097274D01*
X31475722Y-60097268D01*
X31598860Y-59908791D01*
X31689296Y-59702616D01*
X31744564Y-59484368D01*
X31752090Y-59393543D01*
X31763156Y-59260005D01*
X31763156Y-59259994D01*
X31744565Y-59035640D01*
X31744564Y-59035636D01*
X31744564Y-59035632D01*
X31739704Y-59016439D01*
X31723683Y-58953174D01*
X31726307Y-58883354D01*
X31756209Y-58835050D01*
X31796444Y-58794817D01*
X31857768Y-58761333D01*
X31884123Y-58758500D01*
X32319153Y-58758500D01*
X32386192Y-58778185D01*
X32420725Y-58811373D01*
X32513802Y-58944300D01*
X32675700Y-59106198D01*
X32863251Y-59237523D01*
X32988091Y-59295736D01*
X33070750Y-59334281D01*
X33070752Y-59334281D01*
X33070757Y-59334284D01*
X33291913Y-59393543D01*
X33454832Y-59407796D01*
X33519998Y-59413498D01*
X33520000Y-59413498D01*
X33520002Y-59413498D01*
X33577021Y-59408509D01*
X33748087Y-59393543D01*
X33969243Y-59334284D01*
X34176749Y-59237523D01*
X34364300Y-59106198D01*
X34526198Y-58944300D01*
X34657523Y-58756749D01*
X34754284Y-58549243D01*
X34813543Y-58328087D01*
X34833498Y-58100000D01*
X34813543Y-57871913D01*
X34754284Y-57650757D01*
X34657523Y-57443251D01*
X34526198Y-57255700D01*
X34364300Y-57093802D01*
X34176749Y-56962477D01*
X34176745Y-56962475D01*
X33969249Y-56865718D01*
X33969238Y-56865714D01*
X33748089Y-56806457D01*
X33748081Y-56806456D01*
X33520002Y-56786502D01*
X33519998Y-56786502D01*
X33291918Y-56806456D01*
X33291910Y-56806457D01*
X33070761Y-56865714D01*
X33070750Y-56865718D01*
X32863254Y-56962475D01*
X32863252Y-56962476D01*
X32863249Y-56962477D01*
X32863251Y-56962477D01*
X32675700Y-57093802D01*
X32675698Y-57093803D01*
X32675695Y-57093806D01*
X32513806Y-57255695D01*
X32513803Y-57255698D01*
X32513802Y-57255700D01*
X32420726Y-57388625D01*
X32366150Y-57432249D01*
X32319153Y-57441500D01*
X31756763Y-57441500D01*
X31689724Y-57421815D01*
X31643969Y-57369011D01*
X31634025Y-57299853D01*
X31643207Y-57267691D01*
X31662258Y-57224254D01*
X31689296Y-57162616D01*
X31744564Y-56944368D01*
X31746314Y-56923251D01*
X31763156Y-56720005D01*
X31763156Y-56719994D01*
X31744565Y-56495640D01*
X31744564Y-56495636D01*
X31744564Y-56495632D01*
X31738970Y-56473541D01*
X31723683Y-56413173D01*
X31726307Y-56343352D01*
X31756205Y-56295053D01*
X32256440Y-55794819D01*
X32317764Y-55761334D01*
X32344122Y-55758500D01*
X32357500Y-55758500D01*
X32424539Y-55778185D01*
X32470294Y-55830989D01*
X32481500Y-55882500D01*
X32481500Y-55948654D01*
X32488011Y-56009202D01*
X32488011Y-56009204D01*
X32524189Y-56106198D01*
X32539111Y-56146204D01*
X32626739Y-56263261D01*
X32743796Y-56350889D01*
X32858152Y-56393542D01*
X32875868Y-56400150D01*
X32880799Y-56401989D01*
X32908050Y-56404918D01*
X32941345Y-56408499D01*
X32941362Y-56408500D01*
X34638638Y-56408500D01*
X34638654Y-56408499D01*
X34665692Y-56405591D01*
X34699201Y-56401989D01*
X34704132Y-56400150D01*
X34721848Y-56393542D01*
X34836204Y-56350889D01*
X34953261Y-56263261D01*
X35040889Y-56146204D01*
X35091989Y-56009201D01*
X35097975Y-55953526D01*
X35098499Y-55948654D01*
X35098500Y-55948637D01*
X35098500Y-54251362D01*
X35098499Y-54251345D01*
X35095157Y-54220270D01*
X35091989Y-54190799D01*
X35087961Y-54180000D01*
X35055812Y-54093806D01*
X35040889Y-54053796D01*
X34953261Y-53936739D01*
X34836204Y-53849111D01*
X34836203Y-53849110D01*
X34699203Y-53798011D01*
X34638654Y-53791500D01*
X34638638Y-53791500D01*
X32941362Y-53791500D01*
X32941345Y-53791500D01*
X32880797Y-53798011D01*
X32880795Y-53798011D01*
X32743795Y-53849111D01*
X32626739Y-53936739D01*
X32539111Y-54053795D01*
X32488011Y-54190795D01*
X32488011Y-54190797D01*
X32481500Y-54251345D01*
X32481500Y-54317500D01*
X32461815Y-54384539D01*
X32409011Y-54430294D01*
X32357500Y-54441500D01*
X32106391Y-54441500D01*
X32090253Y-54439718D01*
X32090232Y-54439946D01*
X32082465Y-54439211D01*
X32009658Y-54441500D01*
X31978566Y-54441500D01*
X31971172Y-54442433D01*
X31965354Y-54442891D01*
X31916173Y-54444437D01*
X31916168Y-54444438D01*
X31909973Y-54446238D01*
X31840104Y-54446034D01*
X31781436Y-54408087D01*
X31752597Y-54344447D01*
X31751810Y-54316918D01*
X31763156Y-54180004D01*
X31763156Y-54179994D01*
X31744565Y-53955640D01*
X31744564Y-53955636D01*
X31744564Y-53955632D01*
X31734075Y-53914212D01*
X31723683Y-53873173D01*
X31726307Y-53803352D01*
X31756205Y-53755053D01*
X32595887Y-52915371D01*
X32657208Y-52881888D01*
X32726900Y-52886872D01*
X32782833Y-52928744D01*
X32785142Y-52931932D01*
X32793804Y-52944303D01*
X32955695Y-53106192D01*
X32955700Y-53106198D01*
X33143251Y-53237523D01*
X33268091Y-53295736D01*
X33350750Y-53334281D01*
X33350752Y-53334281D01*
X33350757Y-53334284D01*
X33571913Y-53393543D01*
X33734832Y-53407796D01*
X33799998Y-53413498D01*
X33800000Y-53413498D01*
X33800002Y-53413498D01*
X33857021Y-53408509D01*
X34028087Y-53393543D01*
X34249243Y-53334284D01*
X34456749Y-53237523D01*
X34644300Y-53106198D01*
X34806198Y-52944300D01*
X34937523Y-52756749D01*
X35034284Y-52549243D01*
X35093543Y-52328087D01*
X35113498Y-52100000D01*
X35093543Y-51871913D01*
X35034284Y-51650757D01*
X35012226Y-51603454D01*
X34972549Y-51518365D01*
X34937523Y-51443251D01*
X34806198Y-51255700D01*
X34644300Y-51093802D01*
X34456749Y-50962477D01*
X34456745Y-50962475D01*
X34249249Y-50865718D01*
X34249238Y-50865714D01*
X34028089Y-50806457D01*
X34028081Y-50806456D01*
X33800002Y-50786502D01*
X33799998Y-50786502D01*
X33571918Y-50806456D01*
X33571910Y-50806457D01*
X33350761Y-50865714D01*
X33350750Y-50865718D01*
X33143254Y-50962475D01*
X33143252Y-50962476D01*
X33143249Y-50962477D01*
X33143251Y-50962477D01*
X32955700Y-51093802D01*
X32955698Y-51093803D01*
X32955695Y-51093806D01*
X32793806Y-51255695D01*
X32793803Y-51255698D01*
X32793802Y-51255700D01*
X32700726Y-51388625D01*
X32646150Y-51432249D01*
X32599153Y-51441500D01*
X32566391Y-51441500D01*
X32550253Y-51439718D01*
X32550232Y-51439946D01*
X32542465Y-51439211D01*
X32469658Y-51441500D01*
X32438566Y-51441500D01*
X32431172Y-51442433D01*
X32425354Y-51442891D01*
X32376173Y-51444437D01*
X32376163Y-51444439D01*
X32355422Y-51450464D01*
X32336382Y-51454407D01*
X32314946Y-51457116D01*
X32314931Y-51457119D01*
X32269178Y-51475233D01*
X32263654Y-51477124D01*
X32216402Y-51490854D01*
X32216394Y-51490857D01*
X32197803Y-51501852D01*
X32180338Y-51510408D01*
X32160247Y-51518363D01*
X32160242Y-51518366D01*
X32120427Y-51547292D01*
X32115545Y-51550499D01*
X32073190Y-51575549D01*
X32057916Y-51590823D01*
X32043128Y-51603454D01*
X32025643Y-51616158D01*
X32025640Y-51616162D01*
X31994266Y-51654084D01*
X31990334Y-51658405D01*
X31971114Y-51677625D01*
X31909791Y-51711110D01*
X31840099Y-51706126D01*
X31784166Y-51664254D01*
X31759857Y-51600184D01*
X31744565Y-51415640D01*
X31744564Y-51415636D01*
X31744564Y-51415632D01*
X31737725Y-51388624D01*
X31723683Y-51333173D01*
X31726307Y-51263352D01*
X31756205Y-51215053D01*
X32946450Y-50024808D01*
X33007771Y-49991325D01*
X33077463Y-49996309D01*
X33105250Y-50010914D01*
X33143251Y-50037523D01*
X33268091Y-50095736D01*
X33350750Y-50134281D01*
X33350752Y-50134281D01*
X33350757Y-50134284D01*
X33571913Y-50193543D01*
X33734832Y-50207796D01*
X33799998Y-50213498D01*
X33800000Y-50213498D01*
X33800002Y-50213498D01*
X33857021Y-50208509D01*
X34028087Y-50193543D01*
X34249243Y-50134284D01*
X34456749Y-50037523D01*
X34644300Y-49906198D01*
X34806198Y-49744300D01*
X34937523Y-49556749D01*
X35034284Y-49349243D01*
X35093543Y-49128087D01*
X35113498Y-48900000D01*
X35093543Y-48671913D01*
X35034284Y-48450757D01*
X34937523Y-48243251D01*
X34806198Y-48055700D01*
X34644300Y-47893802D01*
X34456749Y-47762477D01*
X34438405Y-47753923D01*
X34249249Y-47665718D01*
X34249238Y-47665714D01*
X34028089Y-47606457D01*
X34028081Y-47606456D01*
X33800002Y-47586502D01*
X33799998Y-47586502D01*
X33571918Y-47606456D01*
X33571910Y-47606457D01*
X33350761Y-47665714D01*
X33350759Y-47665715D01*
X33266314Y-47705092D01*
X33197236Y-47715583D01*
X33133452Y-47687062D01*
X33095213Y-47628585D01*
X33094660Y-47558718D01*
X33126227Y-47505030D01*
X33415453Y-47215804D01*
X33476774Y-47182321D01*
X33535227Y-47183713D01*
X33571905Y-47193541D01*
X33571906Y-47193541D01*
X33571913Y-47193543D01*
X33766031Y-47210526D01*
X33799998Y-47213498D01*
X33800000Y-47213498D01*
X33800002Y-47213498D01*
X33857139Y-47208499D01*
X34028087Y-47193543D01*
X34249243Y-47134284D01*
X34456749Y-47037523D01*
X34644300Y-46906198D01*
X34806198Y-46744300D01*
X34937523Y-46556749D01*
X35034284Y-46349243D01*
X35093543Y-46128087D01*
X35112902Y-45906811D01*
X35113498Y-45900001D01*
X35113498Y-45899998D01*
X35103191Y-45782191D01*
X35093543Y-45671913D01*
X35034284Y-45450757D01*
X35028119Y-45437537D01*
X34937524Y-45243254D01*
X34937523Y-45243252D01*
X34937523Y-45243251D01*
X34806198Y-45055700D01*
X34644300Y-44893802D01*
X34456749Y-44762477D01*
X34431133Y-44750532D01*
X34249249Y-44665718D01*
X34249238Y-44665714D01*
X34028089Y-44606457D01*
X34028081Y-44606456D01*
X33800002Y-44586502D01*
X33799998Y-44586502D01*
X33571918Y-44606456D01*
X33571910Y-44606457D01*
X33350761Y-44665714D01*
X33350750Y-44665718D01*
X33191366Y-44740040D01*
X33122289Y-44750532D01*
X33058505Y-44722012D01*
X33020266Y-44663535D01*
X33019712Y-44593668D01*
X33051279Y-44539979D01*
X34654821Y-42936438D01*
X34716144Y-42902953D01*
X34785836Y-42907937D01*
G37*
G04 #@! TD.AperFunction*
G04 #@! TA.AperFunction,Conductor*
G36*
X45931312Y-34520185D02*
G01*
X45977067Y-34572989D01*
X45987011Y-34642147D01*
X45965849Y-34695620D01*
X45899166Y-34790854D01*
X45862476Y-34843252D01*
X45862475Y-34843254D01*
X45765718Y-35050750D01*
X45765714Y-35050761D01*
X45706457Y-35271910D01*
X45706456Y-35271918D01*
X45686502Y-35499998D01*
X45686502Y-35500001D01*
X45706456Y-35728081D01*
X45706457Y-35728089D01*
X45765714Y-35949238D01*
X45765718Y-35949249D01*
X45862475Y-36156745D01*
X45862477Y-36156749D01*
X45993802Y-36344300D01*
X46155700Y-36506198D01*
X46343251Y-36637523D01*
X46463385Y-36693542D01*
X46550750Y-36734281D01*
X46550752Y-36734281D01*
X46550757Y-36734284D01*
X46771913Y-36793543D01*
X46934832Y-36807796D01*
X46999998Y-36813498D01*
X47000000Y-36813498D01*
X47000002Y-36813498D01*
X47057021Y-36808509D01*
X47228087Y-36793543D01*
X47449243Y-36734284D01*
X47656749Y-36637523D01*
X47844300Y-36506198D01*
X47887819Y-36462679D01*
X47949142Y-36429194D01*
X48018834Y-36434178D01*
X48074767Y-36476050D01*
X48099184Y-36541514D01*
X48099500Y-36550360D01*
X48099500Y-39702689D01*
X48079815Y-39769728D01*
X48063181Y-39790370D01*
X47537419Y-40316132D01*
X47476096Y-40349617D01*
X47406404Y-40344633D01*
X47350471Y-40302761D01*
X47339256Y-40284751D01*
X47327641Y-40261955D01*
X47327637Y-40261951D01*
X47327636Y-40261949D01*
X47238050Y-40172363D01*
X47238044Y-40172358D01*
X47228109Y-40167296D01*
X47215250Y-40160744D01*
X47164456Y-40112773D01*
X47147660Y-40044952D01*
X47170197Y-39978817D01*
X47183865Y-39962580D01*
X47725472Y-39420973D01*
X47652483Y-39369866D01*
X47652481Y-39369865D01*
X47446326Y-39273734D01*
X47446317Y-39273730D01*
X47226610Y-39214860D01*
X47226599Y-39214858D01*
X47000002Y-39195034D01*
X46999998Y-39195034D01*
X46773400Y-39214858D01*
X46773389Y-39214860D01*
X46553682Y-39273730D01*
X46553673Y-39273734D01*
X46347513Y-39369868D01*
X46274526Y-39420973D01*
X46816133Y-39962580D01*
X46849618Y-40023903D01*
X46844634Y-40093595D01*
X46802762Y-40149528D01*
X46784748Y-40160745D01*
X46761956Y-40172358D01*
X46761949Y-40172363D01*
X46672363Y-40261949D01*
X46672358Y-40261956D01*
X46660745Y-40284748D01*
X46612770Y-40335544D01*
X46544949Y-40352338D01*
X46478814Y-40329800D01*
X46462580Y-40316133D01*
X45920973Y-39774526D01*
X45869868Y-39847513D01*
X45773734Y-40053673D01*
X45773730Y-40053682D01*
X45714860Y-40273389D01*
X45714858Y-40273400D01*
X45695034Y-40499997D01*
X45695034Y-40500002D01*
X45714858Y-40726599D01*
X45714860Y-40726610D01*
X45773730Y-40946317D01*
X45773734Y-40946326D01*
X45869865Y-41152481D01*
X45869866Y-41152483D01*
X45920973Y-41225471D01*
X45920973Y-41225472D01*
X46462580Y-40683865D01*
X46523903Y-40650380D01*
X46593594Y-40655364D01*
X46649528Y-40697235D01*
X46660742Y-40715246D01*
X46666527Y-40726599D01*
X46672358Y-40738044D01*
X46672363Y-40738050D01*
X46761949Y-40827636D01*
X46761951Y-40827637D01*
X46761955Y-40827641D01*
X46784747Y-40839254D01*
X46835542Y-40887228D01*
X46852337Y-40955049D01*
X46829799Y-41021184D01*
X46816132Y-41037419D01*
X46274526Y-41579025D01*
X46274526Y-41579026D01*
X46347512Y-41630131D01*
X46347516Y-41630133D01*
X46553673Y-41726265D01*
X46553682Y-41726269D01*
X46773389Y-41785139D01*
X46773400Y-41785141D01*
X46999998Y-41804966D01*
X47000002Y-41804966D01*
X47226599Y-41785141D01*
X47226610Y-41785139D01*
X47446317Y-41726269D01*
X47446331Y-41726264D01*
X47652478Y-41630136D01*
X47725472Y-41579025D01*
X47183866Y-41037419D01*
X47150381Y-40976096D01*
X47155365Y-40906404D01*
X47197237Y-40850471D01*
X47215245Y-40839258D01*
X47238045Y-40827641D01*
X47327641Y-40738045D01*
X47339254Y-40715252D01*
X47387225Y-40664458D01*
X47455046Y-40647661D01*
X47521181Y-40670197D01*
X47537419Y-40683866D01*
X48063181Y-41209628D01*
X48096666Y-41270951D01*
X48099500Y-41297309D01*
X48099500Y-46601301D01*
X48079815Y-46668340D01*
X48027011Y-46714095D01*
X47957853Y-46724039D01*
X47894297Y-46695014D01*
X47873928Y-46672428D01*
X47806198Y-46575700D01*
X47644300Y-46413802D01*
X47629140Y-46403187D01*
X47511376Y-46320726D01*
X47467751Y-46266149D01*
X47458500Y-46219152D01*
X47458500Y-43886387D01*
X47460282Y-43870249D01*
X47460054Y-43870228D01*
X47460788Y-43862465D01*
X47458500Y-43789657D01*
X47458500Y-43758574D01*
X47458500Y-43758568D01*
X47457566Y-43751175D01*
X47457107Y-43745347D01*
X47455562Y-43696169D01*
X47449536Y-43675428D01*
X47445590Y-43656377D01*
X47442882Y-43634936D01*
X47424763Y-43589172D01*
X47422876Y-43583665D01*
X47409145Y-43536400D01*
X47398148Y-43517807D01*
X47389591Y-43500340D01*
X47381635Y-43480244D01*
X47352705Y-43440425D01*
X47349495Y-43435539D01*
X47340305Y-43420000D01*
X47324452Y-43393193D01*
X47324450Y-43393191D01*
X47324447Y-43393187D01*
X47309178Y-43377918D01*
X47296541Y-43363122D01*
X47283843Y-43345644D01*
X47283840Y-43345641D01*
X47245914Y-43314267D01*
X47241592Y-43310333D01*
X45396717Y-41465457D01*
X45386564Y-41452785D01*
X45386388Y-41452931D01*
X45381419Y-41446926D01*
X45381416Y-41446920D01*
X45355754Y-41422822D01*
X45328315Y-41397054D01*
X45306333Y-41375072D01*
X45300439Y-41370501D01*
X45296002Y-41366711D01*
X45260133Y-41333028D01*
X45260131Y-41333026D01*
X45241200Y-41322619D01*
X45224948Y-41311944D01*
X45207868Y-41298696D01*
X45207864Y-41298694D01*
X45162702Y-41279150D01*
X45157455Y-41276580D01*
X45114337Y-41252875D01*
X45114338Y-41252875D01*
X45093411Y-41247502D01*
X45075006Y-41241201D01*
X45055174Y-41232619D01*
X45006569Y-41224921D01*
X45000847Y-41223736D01*
X44964623Y-41214436D01*
X44953188Y-41211500D01*
X44953187Y-41211500D01*
X44931581Y-41211500D01*
X44912183Y-41209973D01*
X44903603Y-41208614D01*
X44890849Y-41206594D01*
X44890848Y-41206594D01*
X44841855Y-41211225D01*
X44836019Y-41211500D01*
X37416391Y-41211500D01*
X37400247Y-41209717D01*
X37400226Y-41209945D01*
X37392464Y-41209211D01*
X37392463Y-41209211D01*
X37319626Y-41211500D01*
X37288568Y-41211500D01*
X37288565Y-41211500D01*
X37288552Y-41211501D01*
X37281176Y-41212432D01*
X37275358Y-41212890D01*
X37226171Y-41214436D01*
X37205416Y-41220466D01*
X37186370Y-41224410D01*
X37164932Y-41227118D01*
X37119184Y-41245231D01*
X37113659Y-41247123D01*
X37066399Y-41260855D01*
X37047808Y-41271850D01*
X37030339Y-41280408D01*
X37010246Y-41288364D01*
X37010245Y-41288364D01*
X37010244Y-41288365D01*
X36996025Y-41298696D01*
X36970433Y-41317289D01*
X36965550Y-41320496D01*
X36923192Y-41345546D01*
X36907913Y-41360826D01*
X36893127Y-41373455D01*
X36875643Y-41386159D01*
X36875641Y-41386161D01*
X36875640Y-41386162D01*
X36844271Y-41424078D01*
X36840339Y-41428399D01*
X36564546Y-41704192D01*
X36503223Y-41737677D01*
X36444774Y-41736286D01*
X36408098Y-41726459D01*
X36408081Y-41726456D01*
X36174607Y-41706030D01*
X36174804Y-41703767D01*
X36117080Y-41686817D01*
X36071325Y-41634013D01*
X36061381Y-41564855D01*
X36090406Y-41501299D01*
X36096438Y-41494821D01*
X38396225Y-39195034D01*
X40875454Y-36715804D01*
X40936775Y-36682321D01*
X40995228Y-36683712D01*
X41031913Y-36693543D01*
X41220087Y-36710006D01*
X41259998Y-36713498D01*
X41260000Y-36713498D01*
X41260002Y-36713498D01*
X41317021Y-36708509D01*
X41488087Y-36693543D01*
X41709243Y-36634284D01*
X41916749Y-36537523D01*
X42104300Y-36406198D01*
X42266198Y-36244300D01*
X42397523Y-36056749D01*
X42417617Y-36013655D01*
X42463790Y-35961215D01*
X42530983Y-35942063D01*
X42597864Y-35962278D01*
X42642382Y-36013655D01*
X42662477Y-36056749D01*
X42793802Y-36244300D01*
X42955700Y-36406198D01*
X43143251Y-36537523D01*
X43268091Y-36595736D01*
X43350750Y-36634281D01*
X43350752Y-36634281D01*
X43350757Y-36634284D01*
X43571913Y-36693543D01*
X43734832Y-36707796D01*
X43799998Y-36713498D01*
X43800000Y-36713498D01*
X43800002Y-36713498D01*
X43857021Y-36708509D01*
X44028087Y-36693543D01*
X44249243Y-36634284D01*
X44456749Y-36537523D01*
X44644300Y-36406198D01*
X44806198Y-36244300D01*
X44937523Y-36056749D01*
X45034284Y-35849243D01*
X45093543Y-35628087D01*
X45113498Y-35400000D01*
X45093543Y-35171913D01*
X45034284Y-34950757D01*
X45012226Y-34903454D01*
X44972548Y-34818363D01*
X44937523Y-34743251D01*
X44904173Y-34695622D01*
X44881846Y-34629419D01*
X44898855Y-34561651D01*
X44949803Y-34513838D01*
X45005748Y-34500500D01*
X45864273Y-34500500D01*
X45931312Y-34520185D01*
G37*
G04 #@! TD.AperFunction*
G04 #@! TA.AperFunction,Conductor*
G36*
X34876468Y-34520185D02*
G01*
X34922223Y-34572989D01*
X34932167Y-34642147D01*
X34903142Y-34705703D01*
X34844364Y-34743477D01*
X34844017Y-34743578D01*
X34820310Y-34750464D01*
X34801270Y-34754407D01*
X34779834Y-34757116D01*
X34779819Y-34757119D01*
X34734066Y-34775233D01*
X34728542Y-34777124D01*
X34681290Y-34790854D01*
X34681282Y-34790857D01*
X34662691Y-34801852D01*
X34645226Y-34810408D01*
X34625135Y-34818363D01*
X34625130Y-34818366D01*
X34585315Y-34847292D01*
X34580433Y-34850499D01*
X34538078Y-34875549D01*
X34522804Y-34890823D01*
X34508016Y-34903454D01*
X34490531Y-34916158D01*
X34490528Y-34916162D01*
X34459154Y-34954084D01*
X34455222Y-34958405D01*
X32213559Y-37200069D01*
X32152236Y-37233554D01*
X32125878Y-37236388D01*
X30951345Y-37236388D01*
X30890797Y-37242899D01*
X30890795Y-37242899D01*
X30753795Y-37293999D01*
X30636739Y-37381627D01*
X30549111Y-37498683D01*
X30498011Y-37635683D01*
X30498011Y-37635685D01*
X30491500Y-37696233D01*
X30491500Y-39393542D01*
X30498011Y-39454090D01*
X30498011Y-39454092D01*
X30549111Y-39591091D01*
X30549111Y-39591092D01*
X30636739Y-39708149D01*
X30636742Y-39708151D01*
X30646955Y-39715797D01*
X30688826Y-39771731D01*
X30693810Y-39841423D01*
X30674225Y-39886179D01*
X30669867Y-39892403D01*
X30669865Y-39892406D01*
X30573734Y-40098561D01*
X30573730Y-40098570D01*
X30514860Y-40318277D01*
X30514858Y-40318288D01*
X30495034Y-40544885D01*
X30495034Y-40544890D01*
X30514858Y-40771487D01*
X30514860Y-40771498D01*
X30573730Y-40991205D01*
X30573734Y-40991214D01*
X30669865Y-41197369D01*
X30669866Y-41197371D01*
X30720973Y-41270359D01*
X30720973Y-41270360D01*
X31262580Y-40728753D01*
X31323903Y-40695268D01*
X31393594Y-40700252D01*
X31449528Y-40742123D01*
X31460742Y-40760134D01*
X31466527Y-40771487D01*
X31472358Y-40782932D01*
X31472363Y-40782938D01*
X31561949Y-40872524D01*
X31561951Y-40872525D01*
X31561955Y-40872529D01*
X31584747Y-40884142D01*
X31635542Y-40932116D01*
X31652337Y-40999937D01*
X31629799Y-41066072D01*
X31616132Y-41082307D01*
X31074526Y-41623913D01*
X31074526Y-41623914D01*
X31147512Y-41675019D01*
X31147516Y-41675021D01*
X31353673Y-41771153D01*
X31353682Y-41771157D01*
X31573389Y-41830027D01*
X31573400Y-41830029D01*
X31799998Y-41849854D01*
X31800002Y-41849854D01*
X32026599Y-41830029D01*
X32026610Y-41830027D01*
X32246317Y-41771157D01*
X32246331Y-41771152D01*
X32452478Y-41675024D01*
X32525472Y-41623913D01*
X31983866Y-41082307D01*
X31950381Y-41020984D01*
X31955365Y-40951292D01*
X31997237Y-40895359D01*
X32015245Y-40884146D01*
X32038045Y-40872529D01*
X32127641Y-40782933D01*
X32139254Y-40760140D01*
X32187225Y-40709346D01*
X32255046Y-40692549D01*
X32321181Y-40715085D01*
X32337419Y-40728754D01*
X32879025Y-41270360D01*
X32930136Y-41197366D01*
X33026264Y-40991219D01*
X33026269Y-40991205D01*
X33085139Y-40771498D01*
X33085141Y-40771487D01*
X33104966Y-40544890D01*
X33104966Y-40544885D01*
X33085141Y-40318288D01*
X33085139Y-40318277D01*
X33026269Y-40098570D01*
X33026265Y-40098561D01*
X32930133Y-39892404D01*
X32930132Y-39892402D01*
X32925782Y-39886190D01*
X32903453Y-39819984D01*
X32920462Y-39752217D01*
X32953047Y-39715795D01*
X32963258Y-39708151D01*
X32963257Y-39708151D01*
X32963261Y-39708149D01*
X33050889Y-39591092D01*
X33101989Y-39454089D01*
X33105591Y-39420580D01*
X33108499Y-39393542D01*
X33108500Y-39393525D01*
X33108500Y-38219008D01*
X33128185Y-38151969D01*
X33144814Y-38131332D01*
X35015143Y-36261002D01*
X35076466Y-36227518D01*
X35146158Y-36232502D01*
X35190505Y-36261003D01*
X35335700Y-36406198D01*
X35523251Y-36537523D01*
X35648091Y-36595736D01*
X35730750Y-36634281D01*
X35730752Y-36634281D01*
X35730757Y-36634284D01*
X35951913Y-36693543D01*
X36114832Y-36707796D01*
X36179998Y-36713498D01*
X36180000Y-36713498D01*
X36180002Y-36713498D01*
X36237021Y-36708509D01*
X36408087Y-36693543D01*
X36629243Y-36634284D01*
X36836749Y-36537523D01*
X37024300Y-36406198D01*
X37186198Y-36244300D01*
X37317523Y-36056749D01*
X37337617Y-36013655D01*
X37383790Y-35961215D01*
X37450983Y-35942063D01*
X37517864Y-35962278D01*
X37562382Y-36013655D01*
X37582477Y-36056749D01*
X37713802Y-36244300D01*
X37875700Y-36406198D01*
X38063251Y-36537523D01*
X38188091Y-36595736D01*
X38270750Y-36634281D01*
X38270752Y-36634281D01*
X38270757Y-36634284D01*
X38491913Y-36693543D01*
X38658878Y-36708150D01*
X38725393Y-36713970D01*
X38725194Y-36716233D01*
X38782918Y-36733183D01*
X38828673Y-36785987D01*
X38838617Y-36855145D01*
X38809592Y-36918701D01*
X38803560Y-36925179D01*
X29312181Y-46416558D01*
X29250858Y-46450043D01*
X29181166Y-46445059D01*
X29125233Y-46403187D01*
X29100816Y-46337723D01*
X29100500Y-46328877D01*
X29100500Y-34624500D01*
X29120185Y-34557461D01*
X29172989Y-34511706D01*
X29224500Y-34500500D01*
X34809429Y-34500500D01*
X34876468Y-34520185D01*
G37*
G04 #@! TD.AperFunction*
M02*
