M48
; DRILL file {KiCad 7.0.7-7.0.7~ubuntu22.04.1} date Mon Jan  1 18:28:25 2024
; FORMAT={-:-/ absolute / metric / decimal}
; #@! TF.CreationDate,2024-01-01T18:28:25+01:00
; #@! TF.GenerationSoftware,Kicad,Pcbnew,7.0.7-7.0.7~ubuntu22.04.1
; #@! TF.FileFunction,Plated,1,2,PTH
FMAT,2
METRIC
; #@! TA.AperFunction,Plated,PTH,ViaDrill
T1C0.400
; #@! TA.AperFunction,Plated,PTH,ComponentDrill
T2C0.750
; #@! TA.AperFunction,Plated,PTH,ComponentDrill
T3C0.800
; #@! TA.AperFunction,Plated,PTH,ComponentDrill
T4C1.000
%
G90
G05
T1
X29.949Y-71.2
X30.7Y-70.5
X31.4Y-69.7
X33.2Y-97.0
X34.1Y-43.9
X34.2Y-97.0
X35.97Y-103.8
X36.0Y-45.3
X36.0Y-46.2
X36.8Y-84.6
X37.4Y-63.8
X39.6Y-70.4
X39.8Y-40.3
X40.3Y-39.3
X40.6Y-57.5
X40.6Y-58.5
X40.8Y-40.3
X43.9Y-54.5
X43.9Y-55.5
X43.9Y-64.4
X43.9Y-65.4
X43.9Y-66.4
X45.6Y-63.8
X46.5Y-68.5
X46.5Y-69.5
T2
X32.8Y-80.9
X32.8Y-82.17
X32.8Y-83.44
X32.8Y-86.63
X32.8Y-87.9
X32.8Y-89.17
X32.8Y-92.23
X32.8Y-93.5
X32.8Y-94.77
T3
X31.8Y-38.545
X31.8Y-40.545
X32.8Y-68.6
X32.8Y-73.6
X33.52Y-58.1
X33.79Y-55.1
X33.8Y-45.9
X33.8Y-48.9
X33.8Y-52.1
X34.4Y-112.6
X34.4Y-118.4
X36.0Y-61.3
X36.0Y-68.92
X36.18Y-35.4
X36.18Y-43.02
X36.4Y-112.6
X36.4Y-118.4
X37.12Y-74.9
X37.12Y-78.1
X37.12Y-87.3
X37.12Y-90.5
X37.12Y-93.7
X37.12Y-99.7
X38.19Y-71.9
X38.39Y-81.1
X38.39Y-96.7
X38.54Y-61.3
X38.54Y-68.92
X38.72Y-35.4
X38.72Y-43.02
X39.7Y-84.1
X40.8Y-137.9
X41.08Y-61.3
X41.08Y-68.92
X41.26Y-35.4
X41.26Y-43.02
X41.4Y-127.7
X41.41Y-55.1
X41.42Y-45.9
X42.8Y-137.9
X43.4Y-127.7
X43.62Y-61.3
X43.62Y-68.92
X43.68Y-58.1
X43.8Y-35.4
X43.8Y-43.02
X43.96Y-48.9
X43.96Y-52.1
X44.7Y-84.1
X45.81Y-71.9
X46.01Y-81.1
X46.01Y-96.7
X46.8Y-47.42
X46.8Y-57.58
X46.8Y-61.4
X46.8Y-66.4
X47.0Y-35.5
X47.0Y-40.5
X47.28Y-74.9
X47.28Y-78.1
X47.28Y-87.3
X47.28Y-90.5
X47.28Y-93.7
X47.28Y-99.7
T4
X30.4Y-49.1
X30.4Y-51.64
X30.4Y-54.18
X30.4Y-56.72
X30.4Y-59.26
X30.4Y-61.8
X30.4Y-64.34
X30.4Y-66.88
X30.4Y-100.5
X30.4Y-103.04
X30.4Y-105.58
X30.4Y-108.12
X30.4Y-110.66
X30.4Y-113.2
X30.4Y-115.74
X30.4Y-118.28
X32.26Y-127.62
X32.26Y-130.16
X32.26Y-132.7
X32.26Y-135.24
X32.26Y-137.78
X34.8Y-127.62
X34.8Y-130.16
X34.8Y-132.7
X34.8Y-135.24
X34.8Y-137.78
T0
M30
