%TF.GenerationSoftware,KiCad,Pcbnew,7.0.7-7.0.7~ubuntu22.04.1*%
%TF.CreationDate,2024-01-01T18:28:25+01:00*%
%TF.ProjectId,Basic-ADSR,42617369-632d-4414-9453-522e6b696361,rev?*%
%TF.SameCoordinates,Original*%
%TF.FileFunction,Drillmap*%
%TF.FilePolarity,Positive*%
%FSLAX45Y45*%
G04 Gerber Fmt 4.5, Leading zero omitted, Abs format (unit mm)*
G04 Created by KiCad (PCBNEW 7.0.7-7.0.7~ubuntu22.04.1) date 2024-01-01 18:28:25*
%MOMM*%
%LPD*%
G01*
G04 APERTURE LIST*
%ADD10C,0.050000*%
%ADD11C,0.200000*%
%ADD12C,0.320000*%
G04 APERTURE END LIST*
D10*
X2860000Y-3400000D02*
X4860000Y-3400000D01*
X4860000Y-3400000D02*
X4860000Y-14350000D01*
X2860000Y-3400000D02*
X2860000Y-14350000D01*
X2860000Y-14350000D02*
X4860000Y-14350000D01*
D11*
D12*
X4300000Y-10610000D02*
X4620000Y-10930000D01*
X4620000Y-10610000D02*
X4300000Y-10930000D01*
D11*
X3118277Y-14663984D02*
X3118277Y-14463984D01*
X3118277Y-14463984D02*
X3165896Y-14463984D01*
X3165896Y-14463984D02*
X3194467Y-14473508D01*
X3194467Y-14473508D02*
X3213515Y-14492555D01*
X3213515Y-14492555D02*
X3223039Y-14511603D01*
X3223039Y-14511603D02*
X3232562Y-14549698D01*
X3232562Y-14549698D02*
X3232562Y-14578269D01*
X3232562Y-14578269D02*
X3223039Y-14616365D01*
X3223039Y-14616365D02*
X3213515Y-14635412D01*
X3213515Y-14635412D02*
X3194467Y-14654460D01*
X3194467Y-14654460D02*
X3165896Y-14663984D01*
X3165896Y-14663984D02*
X3118277Y-14663984D01*
X3318277Y-14663984D02*
X3318277Y-14530650D01*
X3318277Y-14568746D02*
X3327801Y-14549698D01*
X3327801Y-14549698D02*
X3337324Y-14540174D01*
X3337324Y-14540174D02*
X3356372Y-14530650D01*
X3356372Y-14530650D02*
X3375420Y-14530650D01*
X3442086Y-14663984D02*
X3442086Y-14530650D01*
X3442086Y-14463984D02*
X3432562Y-14473508D01*
X3432562Y-14473508D02*
X3442086Y-14483031D01*
X3442086Y-14483031D02*
X3451610Y-14473508D01*
X3451610Y-14473508D02*
X3442086Y-14463984D01*
X3442086Y-14463984D02*
X3442086Y-14483031D01*
X3565896Y-14663984D02*
X3546848Y-14654460D01*
X3546848Y-14654460D02*
X3537324Y-14635412D01*
X3537324Y-14635412D02*
X3537324Y-14463984D01*
X3670658Y-14663984D02*
X3651610Y-14654460D01*
X3651610Y-14654460D02*
X3642086Y-14635412D01*
X3642086Y-14635412D02*
X3642086Y-14463984D01*
X3899229Y-14663984D02*
X3899229Y-14463984D01*
X3899229Y-14463984D02*
X3965896Y-14606841D01*
X3965896Y-14606841D02*
X4032562Y-14463984D01*
X4032562Y-14463984D02*
X4032562Y-14663984D01*
X4213515Y-14663984D02*
X4213515Y-14559222D01*
X4213515Y-14559222D02*
X4203991Y-14540174D01*
X4203991Y-14540174D02*
X4184943Y-14530650D01*
X4184943Y-14530650D02*
X4146848Y-14530650D01*
X4146848Y-14530650D02*
X4127801Y-14540174D01*
X4213515Y-14654460D02*
X4194467Y-14663984D01*
X4194467Y-14663984D02*
X4146848Y-14663984D01*
X4146848Y-14663984D02*
X4127801Y-14654460D01*
X4127801Y-14654460D02*
X4118277Y-14635412D01*
X4118277Y-14635412D02*
X4118277Y-14616365D01*
X4118277Y-14616365D02*
X4127801Y-14597317D01*
X4127801Y-14597317D02*
X4146848Y-14587793D01*
X4146848Y-14587793D02*
X4194467Y-14587793D01*
X4194467Y-14587793D02*
X4213515Y-14578269D01*
X4308753Y-14530650D02*
X4308753Y-14730650D01*
X4308753Y-14540174D02*
X4327801Y-14530650D01*
X4327801Y-14530650D02*
X4365896Y-14530650D01*
X4365896Y-14530650D02*
X4384944Y-14540174D01*
X4384944Y-14540174D02*
X4394467Y-14549698D01*
X4394467Y-14549698D02*
X4403991Y-14568746D01*
X4403991Y-14568746D02*
X4403991Y-14625888D01*
X4403991Y-14625888D02*
X4394467Y-14644936D01*
X4394467Y-14644936D02*
X4384944Y-14654460D01*
X4384944Y-14654460D02*
X4365896Y-14663984D01*
X4365896Y-14663984D02*
X4327801Y-14663984D01*
X4327801Y-14663984D02*
X4308753Y-14654460D01*
X4489705Y-14644936D02*
X4499229Y-14654460D01*
X4499229Y-14654460D02*
X4489705Y-14663984D01*
X4489705Y-14663984D02*
X4480182Y-14654460D01*
X4480182Y-14654460D02*
X4489705Y-14644936D01*
X4489705Y-14644936D02*
X4489705Y-14663984D01*
X4489705Y-14540174D02*
X4499229Y-14549698D01*
X4499229Y-14549698D02*
X4489705Y-14559222D01*
X4489705Y-14559222D02*
X4480182Y-14549698D01*
X4480182Y-14549698D02*
X4489705Y-14540174D01*
X4489705Y-14540174D02*
X4489705Y-14559222D01*
X2657500Y-14892500D02*
X2857500Y-15092500D01*
X2857500Y-14892500D02*
X2657500Y-15092500D01*
X3099229Y-14883984D02*
X3223039Y-14883984D01*
X3223039Y-14883984D02*
X3156372Y-14960174D01*
X3156372Y-14960174D02*
X3184943Y-14960174D01*
X3184943Y-14960174D02*
X3203991Y-14969698D01*
X3203991Y-14969698D02*
X3213515Y-14979222D01*
X3213515Y-14979222D02*
X3223039Y-14998269D01*
X3223039Y-14998269D02*
X3223039Y-15045888D01*
X3223039Y-15045888D02*
X3213515Y-15064936D01*
X3213515Y-15064936D02*
X3203991Y-15074460D01*
X3203991Y-15074460D02*
X3184943Y-15083984D01*
X3184943Y-15083984D02*
X3127801Y-15083984D01*
X3127801Y-15083984D02*
X3108753Y-15074460D01*
X3108753Y-15074460D02*
X3099229Y-15064936D01*
X3308753Y-15064936D02*
X3318277Y-15074460D01*
X3318277Y-15074460D02*
X3308753Y-15083984D01*
X3308753Y-15083984D02*
X3299229Y-15074460D01*
X3299229Y-15074460D02*
X3308753Y-15064936D01*
X3308753Y-15064936D02*
X3308753Y-15083984D01*
X3394467Y-14903031D02*
X3403991Y-14893508D01*
X3403991Y-14893508D02*
X3423039Y-14883984D01*
X3423039Y-14883984D02*
X3470658Y-14883984D01*
X3470658Y-14883984D02*
X3489705Y-14893508D01*
X3489705Y-14893508D02*
X3499229Y-14903031D01*
X3499229Y-14903031D02*
X3508753Y-14922079D01*
X3508753Y-14922079D02*
X3508753Y-14941127D01*
X3508753Y-14941127D02*
X3499229Y-14969698D01*
X3499229Y-14969698D02*
X3384943Y-15083984D01*
X3384943Y-15083984D02*
X3508753Y-15083984D01*
X3632562Y-14883984D02*
X3651610Y-14883984D01*
X3651610Y-14883984D02*
X3670658Y-14893508D01*
X3670658Y-14893508D02*
X3680182Y-14903031D01*
X3680182Y-14903031D02*
X3689705Y-14922079D01*
X3689705Y-14922079D02*
X3699229Y-14960174D01*
X3699229Y-14960174D02*
X3699229Y-15007793D01*
X3699229Y-15007793D02*
X3689705Y-15045888D01*
X3689705Y-15045888D02*
X3680182Y-15064936D01*
X3680182Y-15064936D02*
X3670658Y-15074460D01*
X3670658Y-15074460D02*
X3651610Y-15083984D01*
X3651610Y-15083984D02*
X3632562Y-15083984D01*
X3632562Y-15083984D02*
X3613515Y-15074460D01*
X3613515Y-15074460D02*
X3603991Y-15064936D01*
X3603991Y-15064936D02*
X3594467Y-15045888D01*
X3594467Y-15045888D02*
X3584943Y-15007793D01*
X3584943Y-15007793D02*
X3584943Y-14960174D01*
X3584943Y-14960174D02*
X3594467Y-14922079D01*
X3594467Y-14922079D02*
X3603991Y-14903031D01*
X3603991Y-14903031D02*
X3613515Y-14893508D01*
X3613515Y-14893508D02*
X3632562Y-14883984D01*
X3823039Y-14883984D02*
X3842086Y-14883984D01*
X3842086Y-14883984D02*
X3861134Y-14893508D01*
X3861134Y-14893508D02*
X3870658Y-14903031D01*
X3870658Y-14903031D02*
X3880182Y-14922079D01*
X3880182Y-14922079D02*
X3889705Y-14960174D01*
X3889705Y-14960174D02*
X3889705Y-15007793D01*
X3889705Y-15007793D02*
X3880182Y-15045888D01*
X3880182Y-15045888D02*
X3870658Y-15064936D01*
X3870658Y-15064936D02*
X3861134Y-15074460D01*
X3861134Y-15074460D02*
X3842086Y-15083984D01*
X3842086Y-15083984D02*
X3823039Y-15083984D01*
X3823039Y-15083984D02*
X3803991Y-15074460D01*
X3803991Y-15074460D02*
X3794467Y-15064936D01*
X3794467Y-15064936D02*
X3784943Y-15045888D01*
X3784943Y-15045888D02*
X3775420Y-15007793D01*
X3775420Y-15007793D02*
X3775420Y-14960174D01*
X3775420Y-14960174D02*
X3784943Y-14922079D01*
X3784943Y-14922079D02*
X3794467Y-14903031D01*
X3794467Y-14903031D02*
X3803991Y-14893508D01*
X3803991Y-14893508D02*
X3823039Y-14883984D01*
X3975420Y-15083984D02*
X3975420Y-14950650D01*
X3975420Y-14969698D02*
X3984943Y-14960174D01*
X3984943Y-14960174D02*
X4003991Y-14950650D01*
X4003991Y-14950650D02*
X4032563Y-14950650D01*
X4032563Y-14950650D02*
X4051610Y-14960174D01*
X4051610Y-14960174D02*
X4061134Y-14979222D01*
X4061134Y-14979222D02*
X4061134Y-15083984D01*
X4061134Y-14979222D02*
X4070658Y-14960174D01*
X4070658Y-14960174D02*
X4089705Y-14950650D01*
X4089705Y-14950650D02*
X4118277Y-14950650D01*
X4118277Y-14950650D02*
X4137324Y-14960174D01*
X4137324Y-14960174D02*
X4146848Y-14979222D01*
X4146848Y-14979222D02*
X4146848Y-15083984D01*
X4242086Y-15083984D02*
X4242086Y-14950650D01*
X4242086Y-14969698D02*
X4251610Y-14960174D01*
X4251610Y-14960174D02*
X4270658Y-14950650D01*
X4270658Y-14950650D02*
X4299229Y-14950650D01*
X4299229Y-14950650D02*
X4318277Y-14960174D01*
X4318277Y-14960174D02*
X4327801Y-14979222D01*
X4327801Y-14979222D02*
X4327801Y-15083984D01*
X4327801Y-14979222D02*
X4337325Y-14960174D01*
X4337325Y-14960174D02*
X4356372Y-14950650D01*
X4356372Y-14950650D02*
X4384944Y-14950650D01*
X4384944Y-14950650D02*
X4403991Y-14960174D01*
X4403991Y-14960174D02*
X4413515Y-14979222D01*
X4413515Y-14979222D02*
X4413515Y-15083984D01*
X4803991Y-14874460D02*
X4632563Y-15131603D01*
X5061134Y-14883984D02*
X5080182Y-14883984D01*
X5080182Y-14883984D02*
X5099229Y-14893508D01*
X5099229Y-14893508D02*
X5108753Y-14903031D01*
X5108753Y-14903031D02*
X5118277Y-14922079D01*
X5118277Y-14922079D02*
X5127801Y-14960174D01*
X5127801Y-14960174D02*
X5127801Y-15007793D01*
X5127801Y-15007793D02*
X5118277Y-15045888D01*
X5118277Y-15045888D02*
X5108753Y-15064936D01*
X5108753Y-15064936D02*
X5099229Y-15074460D01*
X5099229Y-15074460D02*
X5080182Y-15083984D01*
X5080182Y-15083984D02*
X5061134Y-15083984D01*
X5061134Y-15083984D02*
X5042087Y-15074460D01*
X5042087Y-15074460D02*
X5032563Y-15064936D01*
X5032563Y-15064936D02*
X5023039Y-15045888D01*
X5023039Y-15045888D02*
X5013515Y-15007793D01*
X5013515Y-15007793D02*
X5013515Y-14960174D01*
X5013515Y-14960174D02*
X5023039Y-14922079D01*
X5023039Y-14922079D02*
X5032563Y-14903031D01*
X5032563Y-14903031D02*
X5042087Y-14893508D01*
X5042087Y-14893508D02*
X5061134Y-14883984D01*
X5213515Y-15064936D02*
X5223039Y-15074460D01*
X5223039Y-15074460D02*
X5213515Y-15083984D01*
X5213515Y-15083984D02*
X5203991Y-15074460D01*
X5203991Y-15074460D02*
X5213515Y-15064936D01*
X5213515Y-15064936D02*
X5213515Y-15083984D01*
X5413515Y-15083984D02*
X5299229Y-15083984D01*
X5356372Y-15083984D02*
X5356372Y-14883984D01*
X5356372Y-14883984D02*
X5337325Y-14912555D01*
X5337325Y-14912555D02*
X5318277Y-14931603D01*
X5318277Y-14931603D02*
X5299229Y-14941127D01*
X5489706Y-14903031D02*
X5499229Y-14893508D01*
X5499229Y-14893508D02*
X5518277Y-14883984D01*
X5518277Y-14883984D02*
X5565896Y-14883984D01*
X5565896Y-14883984D02*
X5584944Y-14893508D01*
X5584944Y-14893508D02*
X5594467Y-14903031D01*
X5594467Y-14903031D02*
X5603991Y-14922079D01*
X5603991Y-14922079D02*
X5603991Y-14941127D01*
X5603991Y-14941127D02*
X5594467Y-14969698D01*
X5594467Y-14969698D02*
X5480182Y-15083984D01*
X5480182Y-15083984D02*
X5603991Y-15083984D01*
X5775420Y-14883984D02*
X5737325Y-14883984D01*
X5737325Y-14883984D02*
X5718277Y-14893508D01*
X5718277Y-14893508D02*
X5708753Y-14903031D01*
X5708753Y-14903031D02*
X5689706Y-14931603D01*
X5689706Y-14931603D02*
X5680182Y-14969698D01*
X5680182Y-14969698D02*
X5680182Y-15045888D01*
X5680182Y-15045888D02*
X5689706Y-15064936D01*
X5689706Y-15064936D02*
X5699229Y-15074460D01*
X5699229Y-15074460D02*
X5718277Y-15083984D01*
X5718277Y-15083984D02*
X5756372Y-15083984D01*
X5756372Y-15083984D02*
X5775420Y-15074460D01*
X5775420Y-15074460D02*
X5784944Y-15064936D01*
X5784944Y-15064936D02*
X5794467Y-15045888D01*
X5794467Y-15045888D02*
X5794467Y-14998269D01*
X5794467Y-14998269D02*
X5784944Y-14979222D01*
X5784944Y-14979222D02*
X5775420Y-14969698D01*
X5775420Y-14969698D02*
X5756372Y-14960174D01*
X5756372Y-14960174D02*
X5718277Y-14960174D01*
X5718277Y-14960174D02*
X5699229Y-14969698D01*
X5699229Y-14969698D02*
X5689706Y-14979222D01*
X5689706Y-14979222D02*
X5680182Y-14998269D01*
X5918277Y-14883984D02*
X5937325Y-14883984D01*
X5937325Y-14883984D02*
X5956372Y-14893508D01*
X5956372Y-14893508D02*
X5965896Y-14903031D01*
X5965896Y-14903031D02*
X5975420Y-14922079D01*
X5975420Y-14922079D02*
X5984944Y-14960174D01*
X5984944Y-14960174D02*
X5984944Y-15007793D01*
X5984944Y-15007793D02*
X5975420Y-15045888D01*
X5975420Y-15045888D02*
X5965896Y-15064936D01*
X5965896Y-15064936D02*
X5956372Y-15074460D01*
X5956372Y-15074460D02*
X5937325Y-15083984D01*
X5937325Y-15083984D02*
X5918277Y-15083984D01*
X5918277Y-15083984D02*
X5899229Y-15074460D01*
X5899229Y-15074460D02*
X5889706Y-15064936D01*
X5889706Y-15064936D02*
X5880182Y-15045888D01*
X5880182Y-15045888D02*
X5870658Y-15007793D01*
X5870658Y-15007793D02*
X5870658Y-14960174D01*
X5870658Y-14960174D02*
X5880182Y-14922079D01*
X5880182Y-14922079D02*
X5889706Y-14903031D01*
X5889706Y-14903031D02*
X5899229Y-14893508D01*
X5899229Y-14893508D02*
X5918277Y-14883984D01*
X6061134Y-14883984D02*
X6061134Y-14922079D01*
X6137325Y-14883984D02*
X6137325Y-14922079D01*
X6432563Y-15160174D02*
X6423039Y-15150650D01*
X6423039Y-15150650D02*
X6403991Y-15122079D01*
X6403991Y-15122079D02*
X6394468Y-15103031D01*
X6394468Y-15103031D02*
X6384944Y-15074460D01*
X6384944Y-15074460D02*
X6375420Y-15026841D01*
X6375420Y-15026841D02*
X6375420Y-14988746D01*
X6375420Y-14988746D02*
X6384944Y-14941127D01*
X6384944Y-14941127D02*
X6394468Y-14912555D01*
X6394468Y-14912555D02*
X6403991Y-14893508D01*
X6403991Y-14893508D02*
X6423039Y-14864936D01*
X6423039Y-14864936D02*
X6432563Y-14855412D01*
X6613515Y-15083984D02*
X6499229Y-15083984D01*
X6556372Y-15083984D02*
X6556372Y-14883984D01*
X6556372Y-14883984D02*
X6537325Y-14912555D01*
X6537325Y-14912555D02*
X6518277Y-14931603D01*
X6518277Y-14931603D02*
X6499229Y-14941127D01*
X6851610Y-15083984D02*
X6851610Y-14883984D01*
X6937325Y-15083984D02*
X6937325Y-14979222D01*
X6937325Y-14979222D02*
X6927801Y-14960174D01*
X6927801Y-14960174D02*
X6908753Y-14950650D01*
X6908753Y-14950650D02*
X6880182Y-14950650D01*
X6880182Y-14950650D02*
X6861134Y-14960174D01*
X6861134Y-14960174D02*
X6851610Y-14969698D01*
X7061134Y-15083984D02*
X7042087Y-15074460D01*
X7042087Y-15074460D02*
X7032563Y-15064936D01*
X7032563Y-15064936D02*
X7023039Y-15045888D01*
X7023039Y-15045888D02*
X7023039Y-14988746D01*
X7023039Y-14988746D02*
X7032563Y-14969698D01*
X7032563Y-14969698D02*
X7042087Y-14960174D01*
X7042087Y-14960174D02*
X7061134Y-14950650D01*
X7061134Y-14950650D02*
X7089706Y-14950650D01*
X7089706Y-14950650D02*
X7108753Y-14960174D01*
X7108753Y-14960174D02*
X7118277Y-14969698D01*
X7118277Y-14969698D02*
X7127801Y-14988746D01*
X7127801Y-14988746D02*
X7127801Y-15045888D01*
X7127801Y-15045888D02*
X7118277Y-15064936D01*
X7118277Y-15064936D02*
X7108753Y-15074460D01*
X7108753Y-15074460D02*
X7089706Y-15083984D01*
X7089706Y-15083984D02*
X7061134Y-15083984D01*
X7242087Y-15083984D02*
X7223039Y-15074460D01*
X7223039Y-15074460D02*
X7213515Y-15055412D01*
X7213515Y-15055412D02*
X7213515Y-14883984D01*
X7394468Y-15074460D02*
X7375420Y-15083984D01*
X7375420Y-15083984D02*
X7337325Y-15083984D01*
X7337325Y-15083984D02*
X7318277Y-15074460D01*
X7318277Y-15074460D02*
X7308753Y-15055412D01*
X7308753Y-15055412D02*
X7308753Y-14979222D01*
X7308753Y-14979222D02*
X7318277Y-14960174D01*
X7318277Y-14960174D02*
X7337325Y-14950650D01*
X7337325Y-14950650D02*
X7375420Y-14950650D01*
X7375420Y-14950650D02*
X7394468Y-14960174D01*
X7394468Y-14960174D02*
X7403991Y-14979222D01*
X7403991Y-14979222D02*
X7403991Y-14998269D01*
X7403991Y-14998269D02*
X7308753Y-15017317D01*
X7470658Y-15160174D02*
X7480182Y-15150650D01*
X7480182Y-15150650D02*
X7499230Y-15122079D01*
X7499230Y-15122079D02*
X7508753Y-15103031D01*
X7508753Y-15103031D02*
X7518277Y-15074460D01*
X7518277Y-15074460D02*
X7527801Y-15026841D01*
X7527801Y-15026841D02*
X7527801Y-14988746D01*
X7527801Y-14988746D02*
X7518277Y-14941127D01*
X7518277Y-14941127D02*
X7508753Y-14912555D01*
X7508753Y-14912555D02*
X7499230Y-14893508D01*
X7499230Y-14893508D02*
X7480182Y-14864936D01*
X7480182Y-14864936D02*
X7470658Y-14855412D01*
X7832563Y-15160174D02*
X7823039Y-15150650D01*
X7823039Y-15150650D02*
X7803991Y-15122079D01*
X7803991Y-15122079D02*
X7794468Y-15103031D01*
X7794468Y-15103031D02*
X7784944Y-15074460D01*
X7784944Y-15074460D02*
X7775420Y-15026841D01*
X7775420Y-15026841D02*
X7775420Y-14988746D01*
X7775420Y-14988746D02*
X7784944Y-14941127D01*
X7784944Y-14941127D02*
X7794468Y-14912555D01*
X7794468Y-14912555D02*
X7803991Y-14893508D01*
X7803991Y-14893508D02*
X7823039Y-14864936D01*
X7823039Y-14864936D02*
X7832563Y-14855412D01*
X7908753Y-14950650D02*
X7908753Y-15083984D01*
X7908753Y-14969698D02*
X7918277Y-14960174D01*
X7918277Y-14960174D02*
X7937325Y-14950650D01*
X7937325Y-14950650D02*
X7965896Y-14950650D01*
X7965896Y-14950650D02*
X7984944Y-14960174D01*
X7984944Y-14960174D02*
X7994468Y-14979222D01*
X7994468Y-14979222D02*
X7994468Y-15083984D01*
X8118277Y-15083984D02*
X8099230Y-15074460D01*
X8099230Y-15074460D02*
X8089706Y-15064936D01*
X8089706Y-15064936D02*
X8080182Y-15045888D01*
X8080182Y-15045888D02*
X8080182Y-14988746D01*
X8080182Y-14988746D02*
X8089706Y-14969698D01*
X8089706Y-14969698D02*
X8099230Y-14960174D01*
X8099230Y-14960174D02*
X8118277Y-14950650D01*
X8118277Y-14950650D02*
X8146849Y-14950650D01*
X8146849Y-14950650D02*
X8165896Y-14960174D01*
X8165896Y-14960174D02*
X8175420Y-14969698D01*
X8175420Y-14969698D02*
X8184944Y-14988746D01*
X8184944Y-14988746D02*
X8184944Y-15045888D01*
X8184944Y-15045888D02*
X8175420Y-15064936D01*
X8175420Y-15064936D02*
X8165896Y-15074460D01*
X8165896Y-15074460D02*
X8146849Y-15083984D01*
X8146849Y-15083984D02*
X8118277Y-15083984D01*
X8242087Y-14950650D02*
X8318277Y-14950650D01*
X8270658Y-14883984D02*
X8270658Y-15055412D01*
X8270658Y-15055412D02*
X8280182Y-15074460D01*
X8280182Y-15074460D02*
X8299230Y-15083984D01*
X8299230Y-15083984D02*
X8318277Y-15083984D01*
X8537325Y-14950650D02*
X8537325Y-15150650D01*
X8537325Y-14960174D02*
X8556373Y-14950650D01*
X8556373Y-14950650D02*
X8594468Y-14950650D01*
X8594468Y-14950650D02*
X8613515Y-14960174D01*
X8613515Y-14960174D02*
X8623039Y-14969698D01*
X8623039Y-14969698D02*
X8632563Y-14988746D01*
X8632563Y-14988746D02*
X8632563Y-15045888D01*
X8632563Y-15045888D02*
X8623039Y-15064936D01*
X8623039Y-15064936D02*
X8613515Y-15074460D01*
X8613515Y-15074460D02*
X8594468Y-15083984D01*
X8594468Y-15083984D02*
X8556373Y-15083984D01*
X8556373Y-15083984D02*
X8537325Y-15074460D01*
X8746849Y-15083984D02*
X8727801Y-15074460D01*
X8727801Y-15074460D02*
X8718277Y-15055412D01*
X8718277Y-15055412D02*
X8718277Y-14883984D01*
X8908754Y-15083984D02*
X8908754Y-14979222D01*
X8908754Y-14979222D02*
X8899230Y-14960174D01*
X8899230Y-14960174D02*
X8880182Y-14950650D01*
X8880182Y-14950650D02*
X8842087Y-14950650D01*
X8842087Y-14950650D02*
X8823039Y-14960174D01*
X8908754Y-15074460D02*
X8889706Y-15083984D01*
X8889706Y-15083984D02*
X8842087Y-15083984D01*
X8842087Y-15083984D02*
X8823039Y-15074460D01*
X8823039Y-15074460D02*
X8813515Y-15055412D01*
X8813515Y-15055412D02*
X8813515Y-15036365D01*
X8813515Y-15036365D02*
X8823039Y-15017317D01*
X8823039Y-15017317D02*
X8842087Y-15007793D01*
X8842087Y-15007793D02*
X8889706Y-15007793D01*
X8889706Y-15007793D02*
X8908754Y-14998269D01*
X8975420Y-14950650D02*
X9051611Y-14950650D01*
X9003992Y-14883984D02*
X9003992Y-15055412D01*
X9003992Y-15055412D02*
X9013515Y-15074460D01*
X9013515Y-15074460D02*
X9032563Y-15083984D01*
X9032563Y-15083984D02*
X9051611Y-15083984D01*
X9194468Y-15074460D02*
X9175420Y-15083984D01*
X9175420Y-15083984D02*
X9137325Y-15083984D01*
X9137325Y-15083984D02*
X9118277Y-15074460D01*
X9118277Y-15074460D02*
X9108754Y-15055412D01*
X9108754Y-15055412D02*
X9108754Y-14979222D01*
X9108754Y-14979222D02*
X9118277Y-14960174D01*
X9118277Y-14960174D02*
X9137325Y-14950650D01*
X9137325Y-14950650D02*
X9175420Y-14950650D01*
X9175420Y-14950650D02*
X9194468Y-14960174D01*
X9194468Y-14960174D02*
X9203992Y-14979222D01*
X9203992Y-14979222D02*
X9203992Y-14998269D01*
X9203992Y-14998269D02*
X9108754Y-15017317D01*
X9375420Y-15083984D02*
X9375420Y-14883984D01*
X9375420Y-15074460D02*
X9356373Y-15083984D01*
X9356373Y-15083984D02*
X9318277Y-15083984D01*
X9318277Y-15083984D02*
X9299230Y-15074460D01*
X9299230Y-15074460D02*
X9289706Y-15064936D01*
X9289706Y-15064936D02*
X9280182Y-15045888D01*
X9280182Y-15045888D02*
X9280182Y-14988746D01*
X9280182Y-14988746D02*
X9289706Y-14969698D01*
X9289706Y-14969698D02*
X9299230Y-14960174D01*
X9299230Y-14960174D02*
X9318277Y-14950650D01*
X9318277Y-14950650D02*
X9356373Y-14950650D01*
X9356373Y-14950650D02*
X9375420Y-14960174D01*
X9451611Y-15160174D02*
X9461135Y-15150650D01*
X9461135Y-15150650D02*
X9480182Y-15122079D01*
X9480182Y-15122079D02*
X9489706Y-15103031D01*
X9489706Y-15103031D02*
X9499230Y-15074460D01*
X9499230Y-15074460D02*
X9508754Y-15026841D01*
X9508754Y-15026841D02*
X9508754Y-14988746D01*
X9508754Y-14988746D02*
X9499230Y-14941127D01*
X9499230Y-14941127D02*
X9489706Y-14912555D01*
X9489706Y-14912555D02*
X9480182Y-14893508D01*
X9480182Y-14893508D02*
X9461135Y-14864936D01*
X9461135Y-14864936D02*
X9451611Y-14855412D01*
M02*
